<?xml version="1.0" encoding="utf-8"?>
<!-- Generator: Adobe Illustrator 24.0.1, SVG Export Plug-In . SVG Version: 6.00 Build 0)  -->
<svg version="1.1" id="Layer_1" xmlns="http://www.w3.org/2000/svg" xmlns:xlink="http://www.w3.org/1999/xlink" x="0px" y="0px"
	 viewBox="0 0 22 21" style="enable-background:new 0 0 22 21;" xml:space="preserve">
<g>
	<path d="M21,4H6.1L5.7,0.9C5.5,0.3,4.9-0.1,4.3,0c0,0-0.3,0-0.6,0H1.2c0,0-0.1,0-0.1,0C0.5,0,0,0.4,0,1c0,0.1,0,0.2,0,0.3
		C0.1,1.7,0.5,2.1,1,2h3l1,9l1,1l14,0l1-1l1-5V5L21,4z M19.4,10H6.7L6.2,6l13.9,0L19.4,10z"/>
	<path d="M8.5,14L8.5,14C8.5,14,8.5,14,8.5,14C6.6,14,5,15.6,5,17.5C5,19.4,6.6,21,8.5,21s3.5-1.6,3.5-3.5C12,15.6,10.4,14,8.5,14z
		 M8.5,19C7.7,19,7,18.3,7,17.5C7,16.7,7.7,16,8.5,16v0c0.8,0,1.5,0.7,1.5,1.5S9.3,19,8.5,19z"/>
	<path d="M17.5,14L17.5,14c-1.9,0-3.5,1.6-3.5,3.5c0,0,0,0,0,0c0,1.9,1.6,3.5,3.5,3.5c1.9,0,3.5-1.6,3.5-3.5S19.4,14,17.5,14z
		 M17.5,19c-0.8,0-1.5-0.7-1.5-1.5c0-0.8,0.7-1.5,1.5-1.5v0c0.8,0,1.5,0.7,1.5,1.5S18.3,19,17.5,19z"/>
</g>
</svg>
