<svg xmlns="http://www.w3.org/2000/svg" viewBox="0 0 107.31 195.53"><defs><style>.cls-1{fill:#fff;}</style></defs><g id="Слой_2" data-name="Слой 2"><g id="Var1"><g id="facebook"><path class="cls-1" d="M73.87,195.53H28.17V111.81H0V67.19H28.17V49.13c0-15.07,4.64-27.63,13.43-36.3C50.08,4.43,62,0,76.14,0a233,233,0,0,1,26,1.34l5.21.69V42.46H84c-9.3,0-10.17,2.71-10.17,9.89V67.19H107l-5.76,44.62H73.87Zm-33.7-12h21.7V99.81H90.69l2.66-20.62H61.87V52.36c0-5.42,0-21.89,22.16-21.89H95.31V12.73C90.62,12.37,83.69,12,76.14,12c-22.86,0-36,13.53-36,37.13V79.19H12V99.81H40.17Z"/></g></g></g></svg>