<svg xmlns="http://www.w3.org/2000/svg" viewBox="0 0 204.58 122.28"><defs><style>.cls-1{fill:#fff;}</style></defs><g id="Слой_2" data-name="Слой 2"><g id="Var1"><g id="vk_alt"><path class="cls-1" d="M162.37,122.28c-3.14,0-8.71-.77-15-5.12-4.46-3.06-8.4-7.58-12.22-12-2.3-2.64-6-6.84-8-8.18-1.15,1.79-2.16,6.78-2.1,10.9,0,1.38-.15,6.15-3.31,9.55s-7.9,4.17-9.27,4.32l-.72,0H100.39c-3,.12-29.21.46-52.36-23.64-24.8-25.83-46.09-75.26-47-77.35l-.11-.27C.34,19-1.36,13.39,2.17,9.21,5.22,5.59,10.46,5.06,12.57,5h.14l27.93-.18.55.09a18.41,18.41,0,0,1,7.21,3,14.73,14.73,0,0,1,4.54,6,180.13,180.13,0,0,0,9.89,20.5C69,45,72.61,49.78,74.66,52c.85-4.33,1.17-12.45.66-19.85v-.52c0-3.6-.73-7.94-1.59-9.11-.53-.73-2.26-1.44-4.11-1.68a7,7,0,0,1-6-5.8c-.86-5.31,4.48-10,8.28-11.87C78.12.06,87.32-.09,98.69,0c8.4.09,11.23.64,14.9,1.52,12.46,3,12,13.7,11.52,26.08-.14,3.61-.31,7.7-.31,12.43,0,1.15,0,2.37-.06,3.63a62.27,62.27,0,0,0,.11,7.65c2.19-2.34,5.89-7.1,11.56-16.74a160.59,160.59,0,0,0,10.16-21.45l.18-.42a14.13,14.13,0,0,1,5.11-6,12.66,12.66,0,0,1,7.36-1.58L187.34,5c6.59-.68,14.28.84,16.55,7.19,1.8,5,1.11,12.75-15.92,35.45-2.48,3.31-4.66,6.13-6.59,8.62-3.93,5.09-8,10.36-8.23,12,.47,1.37,4.38,5,8.17,8.52l.44.41c9.93,9.21,16.7,17.07,20.14,23.36l.07.11c3.73,6.24,2.78,10.86,1.32,13.64-3.44,6.55-11.9,7.39-13.56,7.5h-.31l-25.21.35A16.86,16.86,0,0,1,162.37,122.28ZM126.76,83.66c6.82,0,12.56,6.59,18.15,13,3.28,3.76,6.68,7.66,9.78,9.79,4.2,2.88,7.26,2.88,7.9,2.83l.7-.19.36.1,25.38-.36a10,10,0,0,0,2.28-.53,9.63,9.63,0,0,0-.51-1c-.07-.11-.17-.29-.3-.53-2.69-4.92-8.94-12-17.58-20.07l-.44-.41c-7.6-7.06-12.19-11.31-12.33-17.72-.14-6,3.57-10.75,10.95-20.3,1.9-2.45,4.05-5.24,6.47-8.47,9.66-12.87,12.65-19.16,13.57-21.93a15.26,15.26,0,0,0-2.65.05l-.73,0-29.2.18a171.18,171.18,0,0,1-10.94,23c-11.87,20.14-17.81,23.88-22.05,24.89a9.12,9.12,0,0,1-7.13-1.15c-7.16-4.63-6.9-14-6.7-21.6,0-1.14.06-2.25.06-3.28,0-5,.18-9.22.33-12.95.2-5,.45-11.32-.44-12.51h0a3.88,3.88,0,0,0-1.14-.41c-2.6-.63-4.47-1.08-12-1.16a133.91,133.91,0,0,0-15.44.46,13.79,13.79,0,0,1,1.08,1.3c3.87,5.27,4.12,14.32,4.11,16.7.08,1.28.4,7.07.13,13.27-.5,11.82-2.74,18-7.48,20.55-10.72,5.85-19.65-7.6-29.38-24.41A189.64,189.64,0,0,1,40.92,18.83a3.61,3.61,0,0,0-.32-.55,5.62,5.62,0,0,0-1.17-.45L14,18c4.46,10,23.13,50.07,43.41,71.19,19.94,20.76,42.21,19.67,42.44,19.66h11.34a6.25,6.25,0,0,0,.74-.21,4.15,4.15,0,0,0,0-.59c0-3.29.28-20.29,11.44-23.84A11.07,11.07,0,0,1,126.76,83.66ZM11.26,18.31ZM158,18.15Z"/></g></g></g></svg>