<?xml version="1.0" encoding="utf-8"?>
<!-- Generator: Adobe Illustrator 25.0.0, SVG Export Plug-In . SVG Version: 6.00 Build 0)  -->
<svg version="1.1" id="Слой_1" xmlns="http://www.w3.org/2000/svg" xmlns:xlink="http://www.w3.org/1999/xlink" x="0px" y="0px"
	 viewBox="0 0 101.6 41.8" style="enable-background:new 0 0 101.6 41.8;" xml:space="preserve">
<style type="text/css">
	.st0{fill:#FFFFFF;}
</style>
<g id="Слой_2_1_">
	<g id="Capa_1">
		<path class="st0" d="M9.1,22.9v11h-4v-11c-0.6-2.9-1.5-5.8-2.5-8.6c-0.8-2.5-1.7-5-2.6-7.6h4.3l2.9,10.6L9.9,6.7H14L9.1,22.9z
			 M38.4,33.9h-3.7v-2.2c-1.5,1.7-2.9,2.5-4.2,2.5c-1,0.1-2-0.5-2.4-1.5c-0.3-1-0.4-2-0.3-3v-16h3.7v14.9c0,0.5,0,1,0,1.4
			c0.1,0.6,0.4,0.9,0.9,0.9c0.7,0,1.5-0.6,2.3-1.7V13.7h3.7L38.4,33.9L38.4,33.9z"/>
		<path class="st0" d="M23.7,15.5c-1-1.4-2.6-2.1-4.3-2.1c-1.7-0.1-3.3,0.7-4.3,2.1c-0.9,1.4-1.3,3.1-1.1,4.8v7.1
			c-0.1,1.7,0.3,3.3,1.1,4.7c1,1.4,2.6,2.1,4.3,2.1c1.7,0.1,3.3-0.7,4.3-2.1c0.9-1.4,1.3-3.1,1.1-4.8v-7.1
			C25,18.6,24.6,16.9,23.7,15.5z M21.2,28c0,1.9-0.6,2.8-1.7,2.8s-1.7-0.9-1.7-2.8v-8.5c0-1.9,0.6-2.8,1.7-2.8s1.7,0.9,1.7,2.8V28z"
			/>
		<path class="st0" d="M93.5,21.5v-1.9c0-1.9-0.6-2.8-1.8-2.8s-1.8,0.9-1.8,2.8v1.9H93.5z"/>
		<path class="st0" d="M100.5,6.7c-0.7-3.1-3.3-5.5-6.5-5.9c-7.5-0.7-15-1-22.4-0.8c-7.5-0.1-15,0.1-22.4,0.8
			c-3.2,0.4-5.8,2.8-6.5,5.9c-1,4.5-1.1,9.5-1.1,14.2s0,9.6,1,14.2c0.7,3.2,3.3,5.6,6.5,5.9c7.5,0.7,15,1,22.5,0.8
			c7.5,0.1,15-0.1,22.4-0.8c3.2-0.4,5.8-2.8,6.5-5.9c1-4.5,1.1-9.5,1.1-14.2S101.6,11.3,100.5,6.7z M58.7,10.8h-4.3v23.1h-4V10.8
			h-4.3V7h12.6V10.8z M69.7,33.8h-3.6v-2.1c-1.4,1.6-2.8,2.5-4.2,2.5c-1,0.1-2-0.5-2.3-1.5c-0.3-1-0.4-2-0.3-3V13.9h3.6v14.7
			c0,0.5,0,0.9,0,1.4c0.1,0.6,0.4,0.9,0.8,0.9c0.7,0,1.5-0.5,2.3-1.7V13.9h3.6L69.7,33.8z M83.4,27.8c0.1,1.3-0.1,2.7-0.4,4
			c-0.3,1.4-1.5,2.3-2.9,2.2c-1.5-0.1-2.9-0.9-3.7-2.2v1.9h-3.6V7h3.6v8.8c0.8-1.3,2.2-2.1,3.7-2.2c1.4,0,2.6,0.9,2.9,2.3
			c0.3,1.3,0.4,2.7,0.4,4V27.8z M97.1,27.4c0,1.2-0.1,2-0.1,2.3c-0.1,0.8-0.4,1.6-0.8,2.3c-1,1.4-2.7,2.3-4.4,2.2
			c-1.7,0.1-3.3-0.7-4.4-2c-0.9-1.4-1.3-3-1.2-4.7v-7c-0.1-1.7,0.3-3.3,1.1-4.7c1-1.4,2.6-2.1,4.3-2.1c1.7-0.1,3.3,0.7,4.3,2
			c0.9,1.4,1.3,3.1,1.1,4.7v4.1h-7.2v3.5c0,1.9,0.6,2.8,1.8,2.8c0.8,0,1.6-0.6,1.6-1.4c0,0,0,0,0,0c0.1-0.8,0.1-1.6,0.1-2.4h3.7
			L97.1,27.4z"/>
		<path class="st0" d="M78.2,16.9c-0.7,0-1.3,0.4-1.8,0.9V30c0.5,0.5,1.1,0.8,1.8,0.9c1.1,0,1.6-0.9,1.6-2.7v-8.6
			C79.8,17.8,79.3,16.9,78.2,16.9z"/>
	</g>
</g>
</svg>
