<svg xmlns="http://www.w3.org/2000/svg" width="25" height="23" viewBox="0 0 25 23">
  <metadata><?xpacket begin="﻿" id="W5M0MpCehiHzreSzNTczkc9d"?>
<x:xmpmeta xmlns:x="adobe:ns:meta/" x:xmptk="Adobe XMP Core 5.6-c142 79.160924, 2017/07/13-01:06:39        ">
   <rdf:RDF xmlns:rdf="http://www.w3.org/1999/02/22-rdf-syntax-ns#">
      <rdf:Description rdf:about=""/>
   </rdf:RDF>
</x:xmpmeta>
                                                                                                    
                                                                                                    
                                                                                                    
                                                                                                    
                                                                                                    
                                                                                                    
                                                                                                    
                                                                                                    
                                                                                                    
                                                                                                    
                                                                                                    
                                                                                                    
                                                                                                    
                                                                                                    
                                                                                                    
                                                                                                    
                                                                                                    
                                                                                                    
                                                                                                    
                                                                                                    
                           
<?xpacket end="w"?></metadata>
<defs>
    <style>
      .cls-1 {
        fill: #e08b44;
        fill-rule: evenodd;
      }
    </style>
  </defs>
  <path id="корзина" class="cls-1" d="M1659.83,42.4a0.731,0.731,0,0,0-.56-0.271h-16.44l-0.41-3.88a2.249,2.249,0,0,0-2.2-2.253h-4.49a0.768,0.768,0,0,0,0,1.533h4.49a0.753,0.753,0,0,1,.74.767c0,0.066-.1-0.831,1.39,13.192a2.31,2.31,0,0,0-1.39,2.141,2.248,2.248,0,0,0,2.19,2.3h0.86a2.43,2.43,0,0,0-.12.768,2.2,2.2,0,1,0,4.39,0,2.43,2.43,0,0,0-.12-0.768h4.64a2.43,2.43,0,0,0-.12.768,2.2,2.2,0,1,0,2.19-2.3h-11.72a0.768,0.768,0,0,1,0-1.533h13.41a2.225,2.225,0,0,0,2.17-1.921l1.26-7.919A0.77,0.77,0,0,0,1659.83,42.4Zm-4.96,13.529a0.767,0.767,0,1,1-.73.766A0.753,0.753,0,0,1,1654.87,55.932Zm-8.79,0a0.768,0.768,0,1,1-.73.768A0.754,0.754,0,0,1,1646.08,55.931Zm11.2-5.24a0.731,0.731,0,0,1-.72.641h-12.75L1643,43.665h15.4Z" transform="translate(-1635 -36)"/>
</svg>
