<?xml version="1.0" encoding="iso-8859-1"?>
<!-- Generator: Adobe Illustrator 22.0.1, SVG Export Plug-In . SVG Version: 6.00 Build 0)  -->
<svg version="1.1" id="Layer_1" xmlns="http://www.w3.org/2000/svg" xmlns:xlink="http://www.w3.org/1999/xlink" x="0px" y="0px"
	 viewBox="0 0 492 289.04" style="enable-background:new 0 0 492 289.04;" xml:space="preserve">
<g>
	<g>
		<path d="M246.104,191.912L62.04,7.856C56.984,2.788,50.224,0,43.016,0c-7.212,0-13.968,2.788-19.032,7.856L7.864,23.984
			C2.792,29.044,0,35.808,0,43.016S2.792,56.98,7.864,62.044l219.144,219.148c5.08,5.084,11.868,7.868,19.084,7.848
			c7.248,0.02,14.028-2.76,19.112-7.848L484.136,62.248c5.072-5.064,7.864-11.82,7.864-19.032c0-7.208-2.792-13.964-7.864-19.032
			L468.016,8.06c-10.492-10.492-27.572-10.492-38.06,0L246.104,191.912z"/>
	</g>
</g>
</svg>
