<?xml version="1.0" encoding="iso-8859-1"?>
<!-- Generator: Adobe Illustrator 22.0.1, SVG Export Plug-In . SVG Version: 6.00 Build 0)  -->
<svg version="1.1" id="Capa_1" xmlns="http://www.w3.org/2000/svg" xmlns:xlink="http://www.w3.org/1999/xlink" x="0px" y="0px"
	 viewBox="0 0 512 384.001" style="enable-background:new 0 0 512 384.001;" xml:space="preserve">
<path d="M464,0H48C21.531,0,0,21.531,0,48v288c0,26.469,21.531,48,48,48H464c26.469,0,48-21.531,48-48V48
	C512,21.531,490.469,0,464,0z M464,32c2.174,0,4.242,0.451,6.133,1.239L256,218.828L41.867,33.239
	C43.757,32.452,45.825,32,47.999,32L464,32z M464,352H48c-8.828,0-16-7.171-16-16V67.047l213.516,185.047
	c3.016,2.609,6.75,3.906,10.485,3.906c3.734,0,7.469-1.296,10.485-3.906L480,67.047V336C479.999,344.828,472.828,352,464,352z"/>
</svg>
