<?xml version="1.0" encoding="iso-8859-1"?>
<!-- Generator: Adobe Illustrator 22.0.1, SVG Export Plug-In . SVG Version: 6.00 Build 0)  -->
<svg version="1.1" id="Var1" xmlns="http://www.w3.org/2000/svg" xmlns:xlink="http://www.w3.org/1999/xlink" x="0px" y="0px"
	 viewBox="0 0 107.312 195.531" style="enable-background:new 0 0 107.312 195.531;" xml:space="preserve">
<g id="facebook_1_">
	<path style="fill:#FFFFFF;" d="M73.865,195.531H28.173v-83.717H0V67.188h28.173v-18.06c0-15.07,4.642-27.623,13.422-36.303
		C50.084,4.435,62.028,0,76.136,0c12.953,0,23.344,0.989,25.963,1.336l5.213,0.69v40.438l-23.275,0.009
		c-9.294,0-10.171,2.711-10.171,9.884v14.83h33.132l-5.756,44.627H73.865V195.531z M40.173,183.531h21.692V99.814H90.69l2.66-20.627
		H61.865v-26.83c0-5.413,0-21.884,22.168-21.884l11.278-0.005v-17.74C90.618,12.365,83.692,12,76.136,12
		c-22.855,0-35.963,13.532-35.963,37.128v30.06H12v20.627h28.173V183.531z"/>
</g>
</svg>
