<?xml version="1.0" encoding="iso-8859-1"?>
<!-- Generator: Adobe Illustrator 22.0.1, SVG Export Plug-In . SVG Version: 6.00 Build 0)  -->
<svg version="1.1" id="Var1" xmlns="http://www.w3.org/2000/svg" xmlns:xlink="http://www.w3.org/1999/xlink" x="0px" y="0px"
	 viewBox="0 0 148.949 148.949" style="enable-background:new 0 0 148.949 148.949;" xml:space="preserve">
<g id="instagram_1_">
	<path style="fill:#FFFFFF;" d="M74.475,13.419c19.886,0,22.241,0.076,30.094,0.434c7.261,0.331,11.205,1.545,13.829,2.564
		c3.476,1.351,5.957,2.965,8.563,5.571c2.606,2.606,4.22,5.087,5.571,8.563c1.02,2.624,2.233,6.568,2.564,13.829
		c0.358,7.853,0.434,10.209,0.434,30.094s-0.076,22.241-0.434,30.094c-0.331,7.261-1.544,11.205-2.564,13.829
		c-1.351,3.476-2.965,5.957-5.571,8.563c-2.606,2.606-5.087,4.22-8.563,5.571c-2.624,1.02-6.568,2.233-13.829,2.564
		c-7.852,0.358-10.207,0.434-30.094,0.434s-22.242-0.076-30.094-0.434c-7.261-0.331-11.205-1.544-13.829-2.564
		c-3.476-1.351-5.957-2.965-8.563-5.571c-2.606-2.606-4.22-5.087-5.571-8.563c-1.02-2.624-2.233-6.568-2.564-13.829
		c-0.358-7.853-0.434-10.209-0.434-30.094s0.076-22.241,0.434-30.094c0.331-7.261,1.545-11.205,2.564-13.829
		c1.351-3.476,2.965-5.957,5.571-8.563c2.606-2.606,5.087-4.22,8.563-5.571c2.624-1.02,6.568-2.233,13.829-2.564
		C52.234,13.495,54.589,13.419,74.475,13.419 M74.475,0C54.248,0,51.712,0.086,43.769,0.448C35.842,0.81,30.428,2.069,25.691,3.91
		C20.794,5.813,16.64,8.359,12.5,12.5s-6.687,8.294-8.59,13.191c-1.841,4.737-3.1,10.151-3.462,18.078
		C0.086,51.712,0,54.248,0,74.475c0,20.226,0.086,22.762,0.448,30.706c0.362,7.927,1.621,13.341,3.462,18.078
		c1.903,4.897,4.45,9.051,8.59,13.191c4.14,4.14,8.294,6.687,13.191,8.59c4.737,1.841,10.151,3.1,18.078,3.462
		c7.943,0.362,10.48,0.448,30.706,0.448s22.762-0.086,30.706-0.448c7.927-0.362,13.341-1.621,18.078-3.462
		c4.897-1.903,9.051-4.45,13.191-8.59c4.14-4.14,6.687-8.294,8.59-13.191c1.841-4.737,3.1-10.151,3.462-18.078
		c0.362-7.943,0.448-10.48,0.448-30.706s-0.086-22.762-0.448-30.706c-0.362-7.927-1.621-13.341-3.462-18.078
		c-1.903-4.897-4.45-9.051-8.59-13.191c-4.14-4.14-8.294-6.687-13.191-8.59c-4.737-1.841-10.151-3.1-18.078-3.462
		C97.237,0.086,94.701,0,74.475,0L74.475,0z"/>
	<path style="fill:#FFFFFF;" d="M74.475,36.231c-21.121,0-38.244,17.122-38.244,38.244s17.122,38.244,38.244,38.244
		s38.244-17.122,38.244-38.244S95.596,36.231,74.475,36.231z M74.475,99.299c-13.71,0-24.825-11.114-24.825-24.825
		S60.764,49.65,74.475,49.65s24.825,11.114,24.825,24.825S88.185,99.299,74.475,99.299z"/>
	<circle style="fill:#FFFFFF;" cx="114.229" cy="34.72" r="8.937"/>
</g>
</svg>
