<?xml version="1.0" encoding="iso-8859-1"?>
<!-- Generator: Adobe Illustrator 22.0.1, SVG Export Plug-In . SVG Version: 6.00 Build 0)  -->
<svg version="1.1" id="&#x421;&#x43B;&#x43E;&#x439;_1"
	 xmlns="http://www.w3.org/2000/svg" xmlns:xlink="http://www.w3.org/1999/xlink" x="0px" y="0px" viewBox="0 0 66 66"
	 style="enable-background:new 0 0 66 66;" xml:space="preserve">
<g>
	<path style="fill:#D88A4B;" d="M55.5,0h-45C4.71,0,0,4.71,0,10.5v45C0,61.29,4.71,66,10.5,66h45C61.29,66,66,61.29,66,55.5v-45
		C66,4.71,61.29,0,55.5,0z M65,55.5c0,5.238-4.262,9.5-9.5,9.5h-45C5.262,65,1,60.738,1,55.5v-45C1,5.262,5.262,1,10.5,1h45
		c5.238,0,9.5,4.262,9.5,9.5V55.5z"/>
	<path style="fill:#D88A4B;" d="M33.762,24.262c-0.291-0.291-0.765-0.291-1.056,0L16.275,40.68c-0.291,0.291-0.291,0.764,0,1.055
		c0.291,0.291,0.765,0.291,1.056,0l15.902-15.891l15.902,15.891c0.146,0.145,0.337,0.218,0.529,0.218
		c0.191,0,0.382-0.073,0.529-0.218c0.291-0.291,0.291-0.764,0-1.055L33.762,24.262z"/>
</g>
</svg>
