<?xml version="1.0" encoding="utf-8"?>
<!-- Generator: Adobe Illustrator 22.0.1, SVG Export Plug-In . SVG Version: 6.00 Build 0)  -->
<svg version="1.1" id="Var1" xmlns="http://www.w3.org/2000/svg" xmlns:xlink="http://www.w3.org/1999/xlink" x="0px" y="0px"
	 viewBox="0 0 209.4 126.6" style="enable-background:new 0 0 209.4 126.6;" xml:space="preserve">
<style type="text/css">
	.st0{fill:#FFFFFF;}
</style>
<g id="vk_x5F_alt_1_">
	<path class="st0" d="M164.6,125.1c-3.1,0-8.7-0.8-15-5.1c-4.5-3.1-8.4-7.6-12.2-12c-2.3-2.6-6-6.8-8-8.2c-1.2,1.8-2.2,6.8-2.1,10.9
		c0,1.4-0.2,6.2-3.3,9.6c-3.2,3.4-7.9,4.2-9.3,4.3l-0.7,0h-11.3c-3,0.1-29.2,0.5-52.4-23.6C25.5,75.2,4.2,25.7,3.3,23.6l-0.1-0.3
		C2.6,21.8,0.9,16.2,4.4,12c3.1-3.6,8.3-4.1,10.4-4.2l0.1,0l27.9-0.2l0.6,0.1c0.7,0.1,4.3,0.8,7.2,3c2.8,2,4.2,5.1,4.5,6
		c0.1,0.2,4.4,10.9,9.9,20.5c6.1,10.6,9.8,15.4,11.8,17.6c0.8-4.3,1.2-12.5,0.7-19.9l0-0.3l0-0.3c0-3.6-0.7-7.9-1.6-9.1
		c-0.5-0.7-2.3-1.4-4.1-1.7c-3.1-0.4-5.5-2.7-6-5.8c-0.9-5.3,4.5-10,8.3-11.9c6.3-3.1,15.5-3.2,26.8-3.1c8.4,0.1,11.2,0.6,14.9,1.5
		c12.5,3,12,13.7,11.5,26.1c-0.1,3.6-0.3,7.7-0.3,12.4c0,1.2,0,2.4-0.1,3.6c-0.1,1.9-0.1,5.2,0.1,7.6c2.2-2.3,5.9-7.1,11.6-16.7
		c5.7-9.7,10.1-21.3,10.2-21.4l0.2-0.4c0.4-0.9,2.1-4.1,5.1-6c2.8-1.7,5.9-1.7,7.4-1.6l28.1-0.2c6.6-0.7,14.3,0.8,16.6,7.2
		c1.8,5,1.1,12.8-15.9,35.5c-2.5,3.3-4.7,6.1-6.6,8.6c-3.9,5.1-8,10.4-8.2,12c0.5,1.4,4.4,5,8.2,8.5L184,80
		c9.9,9.2,16.7,17.1,20.1,23.4l0.1,0.1c3.7,6.2,2.8,10.9,1.3,13.6c-3.4,6.5-11.9,7.4-13.6,7.5l-0.3,0l-25.2,0.4
		C166,125,165.4,125.1,164.6,125.1z M164.7,112.1L164.7,112.1L164.7,112.1z M129,86.5c6.8,0,12.6,6.6,18.1,13
		c3.3,3.8,6.7,7.7,9.8,9.8c4.2,2.9,7.3,2.9,7.9,2.8l0.7-0.2l0.4,0.1l25.4-0.4c0.7-0.1,1.6-0.3,2.3-0.5c-0.1-0.3-0.3-0.6-0.5-1
		c-0.1-0.1-0.2-0.3-0.3-0.5c-2.7-4.9-8.9-12-17.6-20.1l-0.4-0.4c-7.6-7.1-12.2-11.3-12.3-17.7c-0.1-6,3.6-10.8,11-20.3
		c1.9-2.5,4-5.2,6.5-8.5c9.7-12.9,12.6-19.2,13.6-21.9c-0.9-0.1-1.9,0-2.6,0l-0.7,0L160.8,21c-0.9,2.4-5.3,13.4-10.9,23
		c-11.9,20.1-17.8,23.9-22,24.9c-2.5,0.6-5.1,0.2-7.1-1.2c-7.2-4.6-6.9-14-6.7-21.6c0-1.1,0.1-2.2,0.1-3.3c0-5,0.2-9.2,0.3-12.9
		c0.2-5,0.5-11.3-0.4-12.5v0c0,0-0.3-0.2-1.1-0.4c-2.6-0.6-4.5-1.1-12-1.2c-4.6,0-10.7-0.1-15.4,0.5c0.4,0.4,0.7,0.8,1.1,1.3
		c3.9,5.3,4.1,14.3,4.1,16.7c0.1,1.3,0.4,7.1,0.1,13.3c-0.5,11.8-2.7,18-7.5,20.6C72.5,74,63.5,60.5,53.8,43.7
		c-5.8-10-10.1-20.8-10.7-22.1c-0.1-0.2-0.2-0.4-0.3-0.5c-0.3-0.2-0.7-0.3-1.2-0.5l-25.4,0.2c4.5,9.9,23.1,50.1,43.4,71.2
		c19.9,20.8,42.2,19.7,42.4,19.7l0.4,0h11c0.2,0,0.5-0.1,0.7-0.2c0-0.2,0.1-0.4,0.1-0.6c0-3.3,0.3-20.3,11.4-23.8
		C126.8,86.6,127.9,86.5,129,86.5z M114.1,111.9L114.1,111.9L114.1,111.9z M13.5,21.1L13.5,21.1L13.5,21.1z M42.8,21L42.8,21
		L42.8,21z M160.2,21C160.2,21,160.2,21,160.2,21L160.2,21z M193.8,18.9L193.8,18.9L193.8,18.9z"/>
</g>
</svg>
