<?xml version="1.0" encoding="utf-8"?>
<!-- Generator: Adobe Illustrator 22.0.1, SVG Export Plug-In . SVG Version: 6.00 Build 0)  -->
<svg version="1.1" id="Слой_1" xmlns="http://www.w3.org/2000/svg" xmlns:xlink="http://www.w3.org/1999/xlink" x="0px" y="0px"
	 viewBox="0 0 25.1 52" style="enable-background:new 0 0 25.1 52;" xml:space="preserve">
<style type="text/css">
	.st0{fill:#495E83;}
</style>
<g>
	<path class="st0" d="M12.6,34.4c-3.1,0-5.6,2.4-5.6,5.4c0,3,2.5,5.4,5.6,5.4s5.6-2.4,5.6-5.4C18.2,36.8,15.7,34.4,12.6,34.4z
		 M12.6,44.1c-2.4,0-4.4-1.9-4.4-4.3s2-4.3,4.4-4.3c2.4,0,4.4,1.9,4.4,4.3S15,44.1,12.6,44.1z"/>
	<path class="st0" d="M25.1,23.4v-0.6c0-0.3-0.1-0.6-0.3-0.8v-1.6h-3.4v1.2h-0.2c-0.7-0.8-1.7-1.3-2.3-1.5L18.8,7.7
		c0-0.9-0.4-1.6-1.1-2.1h5.5c0.3,0,0.6-0.1,0.8-0.3c0.4-0.3,0.6-0.7,0.6-1.2c0-0.5-0.2-0.9-0.6-1.2c-0.2-0.2-0.5-0.3-0.8-0.3h-7.4
		V1.1h-1.6V0h-1.6h-1.6v1.1H9.5v1.6H2.1C1.8,2.7,1.5,2.8,1.3,3C0.9,3.2,0.6,3.7,0.6,4.1c0,0.5,0.2,0.9,0.6,1.2
		c0.2,0.2,0.5,0.3,0.8,0.3h5.5C6.9,6,6.4,6.8,6.4,7.7L6.3,20.1c-0.6,0.2-1.6,0.6-2.3,1.5H3.9v-1.2H0.4V22c-0.2,0.2-0.3,0.5-0.3,0.8
		v0.6c0,0.4,0.2,0.8,0.6,1c-0.3,0.2-0.6,0.6-0.6,1V26c0,0.3,0.1,0.6,0.3,0.8v1.7h2.1v4.7c-0.1,0.2-0.3,0.4-0.4,0.6
		C2,33.9,2,34,1.9,34.2c-0.1,0.1-0.1,0.3-0.2,0.4l0,0c0,0,0,0,0,0c-0.1,0.2-0.2,0.3-0.2,0.5c0,0.1-0.1,0.2-0.1,0.3c0,0,0,0,0,0
		s0,0,0,0C1.1,35.7,1,36,0.9,36.3c-0.1,0.1-0.1,0.3-0.1,0.4c0,0,0,0,0,0s0,0,0,0c-0.1,0.3-0.2,0.6-0.2,0.9v0c0,0,0,0,0,0l0,0
		c0,0,0,0,0,0c0,0.1,0,0.2-0.1,0.3c0,0.1,0,0.2-0.1,0.4c0,0.1,0,0.2,0,0.3C0.4,39,0.3,39.5,0.3,40c0,6.6,5.5,12,12.3,12
		c6.8,0,12.3-5.4,12.3-12c0-0.5,0-0.9-0.1-1.4c0-0.1,0-0.2,0-0.3c0-0.1,0-0.2-0.1-0.3c0-0.1,0-0.2-0.1-0.3c0,0,0,0,0,0l0,0
		c0,0,0,0,0,0l0,0c-0.1-0.3-0.1-0.6-0.2-0.9c0-0.2-0.1-0.3-0.1-0.4c-0.1-0.3-0.2-0.6-0.3-0.9c0,0,0,0,0,0s0,0,0,0
		c-0.1-0.3-0.3-0.6-0.4-0.8c-0.1-0.1-0.1-0.3-0.2-0.4c-0.1-0.1-0.2-0.3-0.2-0.4c-0.1-0.2-0.3-0.4-0.4-0.6v-4.7h2.1v-1.7
		c0.2-0.2,0.3-0.5,0.3-0.8v-0.6c0-0.4-0.2-0.8-0.6-1C24.9,24.2,25.1,23.8,25.1,23.4z M23.9,22.8C23.9,22.8,23.9,22.8,23.9,22.8
		l0,0.6c0,0,0,0-0.1,0h-0.6v0H12.6v0.9h2.8v0.2h-2.8H9.8v-0.2h2.8v-0.9H1.9v0H1.4c0,0,0,0,0,0v-0.6c0,0,0,0,0,0l0,0h1.3l0,0h2l0,0
		h2.5v0h3v0h2.5v-0.5v-0.3v-0.5h-2.5v-0.1h2.5v-0.9h-1.9l0.3-0.1v-1.1h1.7h1.7v1.1l0.3,0.1h-1.9v0.9h2.5v0.1h-2.5v0.5v0.3v0.5h2.5v0
		h3v0h2.5l0,0h2l0,0L23.9,22.8L23.9,22.8z M12.6,26v0.9h2.5v1.3h3v-1.3h3.4v0.7h0v4.1c-1.2-1.2-2.6-2.2-4.2-2.8l-0.1,0h-4.7H8
		l-0.1,0c-1.6,0.7-3,1.6-4.2,2.8v-4.1h0v-0.7h3.4v1.3h3v-1.3h2.5L12.6,26H1.3l0,0c0,0,0,0,0,0v-0.6c0,0,0,0,0.1,0H2h10.7h10.7h0.6h0
		c0,0,0,0,0,0V26c0,0,0,0,0,0l0,0L12.6,26L12.6,26z M16,26.9h0.2v0.4H16C16,27.3,16,26.9,16,26.9z M17,26.9h0.2v0.4H17V26.9z
		 M8,26.9h0.2v0.4H8V26.9z M9.1,26.9h0.2v0.4H9.1V26.9z M2,24.3h0.3v0.2H2C2,24.5,2,24.3,2,24.3z M8.4,24.5v-0.2h0.5v0.2H8.4z
		 M7.5,24.5H3.2v-0.2h4.3V24.5z M16.8,24.3v0.2h-0.5v-0.2H16.8z M23.3,24.5H23v-0.2h0.3V24.5z M22.1,24.5h-4.3v-0.2h4.3V24.5z
		 M9.1,21.9v-0.4h0.2v0.4H9.1z M8,21.5h0.2v0.4H8V21.5z M1.9,4.3c-0.1,0-0.1-0.1-0.1-0.2c0-0.1,0-0.2,0.1-0.2c0,0,0.1,0,0.1,0h10.6
		h10.6c0,0,0.1,0,0.1,0c0.1,0,0.1,0.1,0.1,0.2c0,0.1,0,0.2-0.1,0.2c0,0-0.1,0-0.1,0H12.6H2.1C2,4.4,2,4.4,1.9,4.3z M12.6,2.2h2V3h-2
		h-2V2.2H12.6z M11,18.4L11,18.4l0.4-0.1h1.3h1.3h0.4v0.1h-1.7H11z M12.2,17.3h0.4H13v0.1h-0.4L12.2,17.3L12.2,17.3z M14.9,7.5
		c0.2,0,0.4,0.2,0.4,0.4v5.6h-0.9v-6H14.9z M11.4,14.4v1h-0.8v-1H11.4z M13.4,13.5h-0.8h-0.8V13h0.8h0.8L13.4,13.5L13.4,13.5z
		 M13.9,14.4h0.8v1h-0.8V14.4z M12.8,12.2h-0.2h-0.2v-0.3h0.2h0.2V12.2z M13.9,16.3h1.3c-0.1,0.1-0.2,0.2-0.3,0.2h-1V16.3z M13.5,11
		h-0.9h-0.9V7.5h0.9h0.9C13.5,7.5,13.5,11,13.5,11z M10.4,7.5h0.5v6H10V7.9C10,7.7,10.1,7.5,10.4,7.5z M11.4,16.3v0.2h-1
		c-0.1,0-0.2-0.1-0.3-0.2H11.4z M12.2,14.4h0.4H13v2.1h-0.4h-0.4V14.4z M13.9,17.4L13.9,17.4l1-0.1c0.7,0,1.3-0.6,1.3-1.3V7.9
		c0-0.5-0.3-0.8-0.6-1.1h0.2c0.3,0,0.6,0.3,0.6,0.6v9c0,0.5-0.5,1-1,1h-0.1l0,0H13.9z M12.6,5.2h2.6V6H14v0.7h-1.4h-1.4V6h-1.2V5.2
		H12.6z M8.9,7.4c0-0.3,0.3-0.6,0.6-0.6h0.2C9.3,7.1,9.1,7.5,9.1,7.9V16c0,0.7,0.6,1.3,1.3,1.3h1v0.1h-1.3v0H9.9c-0.6,0-1-0.4-1-1
		L8.9,7.4L8.9,7.4z M16,21.9v-0.4h0.2v0.4H16z M17,21.9v-0.4h0.2v0.4H17z M22.8,21.5v0.3h-0.2v-0.3H22.8z M18.3,21.1
		c0,0,0.9,0.2,1.6,0.8h-1.7v-0.8L18.3,21.1z M17.8,20.6h-0.5l-2.1-0.9v-0.5h0v-1h0.1c1.1,0,1.9-0.8,1.9-1.9v-9
		c0-0.5-0.2-0.9-0.6-1.2c0.6,0.2,1,0.7,1,1.4L17.8,20.6z M12.6,1.2H13v0.2h-0.4h-0.4V1.2H12.6z M7.6,7.7c0-0.6,0.4-1.2,1-1.4
		C8.3,6.5,8,7,8,7.4v9c0,1,0.9,1.9,1.9,1.9h0.1v1h0v0.5L8,20.6H7.5L7.6,7.7z M7,21.1l0.1,0v0.8H5.4C6.1,21.3,7,21.1,7,21.1z
		 M2.7,21.9H2.5v-0.3h0.2L2.7,21.9L2.7,21.9z M2.5,27.3v-0.4h0.3v0.4H2.5z M23.3,37c0.1,0.2,0.1,0.5,0.2,0.7c0,0,0,0,0,0.1
		c0,0,0,0,0,0l0,0.1c0,0.1,0,0.2,0.1,0.3c0,0.1,0,0.2,0,0.3l0,0.1c0,0.1,0,0.1,0,0.2c0,0.4,0.1,0.8,0.1,1.3c0,6-5,10.9-11.1,10.9
		S1.5,46,1.5,40c0-0.4,0-0.8,0.1-1.3c0-0.1,0-0.1,0-0.2l0-0.1c0-0.1,0-0.2,0-0.3c0-0.1,0-0.2,0.1-0.3l0-0.1c0.1-0.3,0.1-0.5,0.2-0.8
		c0-0.1,0.1-0.3,0.1-0.4c0,0,0,0,0,0c0.1-0.2,0.2-0.5,0.3-0.7c0.1-0.2,0.2-0.5,0.4-0.8c0.1-0.1,0.1-0.2,0.2-0.4
		C3,34.6,3,34.5,3.1,34.4c0.1-0.2,0.3-0.5,0.5-0.7l0,0C4.8,32,6.4,30.8,8.2,30h4.4H17c1.8,0.8,3.4,2,4.6,3.6l0,0
		c0.2,0.2,0.3,0.5,0.5,0.7c0.1,0.1,0.1,0.2,0.2,0.3c0.1,0.1,0.1,0.2,0.2,0.4c0.1,0.1,0.1,0.3,0.2,0.4c0,0.1,0.1,0.2,0.1,0.3
		c0.1,0.3,0.2,0.5,0.3,0.8C23.2,36.7,23.3,36.9,23.3,37z M22.4,27.3v-0.4h0.3v0.4H22.4z"/>
	<path class="st0" d="M22.5,36.1c0-0.6-0.5-1.2-1.2-1.2c-0.4,0-0.8,0.2-1,0.6c-0.8-1.3-1.9-2.4-3.3-3.2c0.3-0.2,0.6-0.6,0.6-1
		c0-0.6-0.5-1.2-1.2-1.2s-1.2,0.5-1.2,1.2c0,0.1,0,0.1,0,0.2c-0.8-0.3-1.7-0.4-2.6-0.4s-1.8,0.1-2.6,0.4c0-0.1,0-0.1,0-0.2
		c0-0.6-0.5-1.2-1.2-1.2c-0.7,0-1.2,0.5-1.2,1.2c0,0.4,0.2,0.8,0.6,1c-1.4,0.8-2.5,1.9-3.3,3.2C4.8,35.2,4.4,35,4,35
		c-0.7,0-1.2,0.5-1.2,1.2s0.5,1.2,1.2,1.2c0.1,0,0.1,0,0.2,0c-0.3,0.8-0.4,1.7-0.4,2.6c0,0.9,0.1,1.7,0.4,2.5c-0.1,0-0.1,0-0.2,0
		c-0.7,0-1.2,0.5-1.2,1.2s0.5,1.2,1.2,1.2c0.4,0,0.8-0.2,1-0.6c0.8,1.3,1.9,2.4,3.3,3.2c-0.3,0.2-0.6,0.6-0.6,1
		c0,0.6,0.5,1.2,1.2,1.2s1.2-0.5,1.2-1.2c0-0.1,0-0.1,0-0.2c0.8,0.2,1.7,0.4,2.6,0.4s1.8-0.1,2.6-0.4c0,0.1,0,0.1,0,0.2
		c0,0.6,0.5,1.2,1.2,1.2c0.7,0,1.2-0.5,1.2-1.2c0-0.4-0.2-0.8-0.6-1c1.4-0.8,2.5-1.9,3.3-3.2c0.2,0.3,0.6,0.6,1,0.6
		c0.7,0,1.2-0.5,1.2-1.2s-0.5-1.2-1.2-1.2c-0.1,0-0.1,0-0.2,0c0.3-0.8,0.4-1.7,0.4-2.5c0-0.9-0.1-1.7-0.4-2.6c0.1,0,0.1,0,0.2,0
		C21.9,37.3,22.5,36.8,22.5,36.1z M16.4,31.1c0.2,0,0.3,0.1,0.3,0.3c0,0.2-0.1,0.3-0.3,0.3s-0.3-0.1-0.3-0.3
		C16.1,31.2,16.2,31.1,16.4,31.1z M8.9,31.1c0.2,0,0.3,0.1,0.3,0.3c0,0.2-0.1,0.3-0.3,0.3s-0.3-0.1-0.3-0.3S8.7,31.1,8.9,31.1z
		 M4,36.4c-0.2,0-0.3-0.1-0.3-0.3c0-0.2,0.1-0.3,0.3-0.3c0.2,0,0.3,0.1,0.3,0.3C4.3,36.3,4.2,36.4,4,36.4z M4,43.8
		c-0.2,0-0.3-0.1-0.3-0.3c0-0.2,0.1-0.3,0.3-0.3c0.2,0,0.3,0.1,0.3,0.3C4.3,43.7,4.2,43.8,4,43.8z M8.9,48.6c-0.2,0-0.3-0.1-0.3-0.3
		c0-0.2,0.1-0.3,0.3-0.3s0.3,0.1,0.3,0.3C9.2,48.4,9,48.6,8.9,48.6z M16.4,48.6c-0.2,0-0.3-0.1-0.3-0.3c0-0.2,0.1-0.3,0.3-0.3
		s0.3,0.1,0.3,0.3C16.7,48.4,16.6,48.6,16.4,48.6z M21.6,43.5c0,0.2-0.1,0.3-0.3,0.3S21,43.7,21,43.5c0-0.2,0.1-0.3,0.3-0.3
		S21.6,43.3,21.6,43.5z M12.6,47.3c-4.2,0-7.6-3.3-7.6-7.5s3.4-7.5,7.6-7.5c4.2,0,7.6,3.3,7.6,7.5S16.8,47.3,12.6,47.3z M21,36.1
		c0-0.2,0.1-0.3,0.3-0.3s0.3,0.1,0.3,0.3c0,0.2-0.1,0.3-0.3,0.3S21,36.3,21,36.1z"/>
</g>
</svg>
