<?xml version="1.0" encoding="iso-8859-1"?>
<!-- Generator: Adobe Illustrator 22.0.1, SVG Export Plug-In . SVG Version: 6.00 Build 0)  -->
<svg version="1.1" id="&#x421;&#x43B;&#x43E;&#x439;_1"
	 xmlns="http://www.w3.org/2000/svg" xmlns:xlink="http://www.w3.org/1999/xlink" x="0px" y="0px" viewBox="0 0 159.799 159.8"
	 style="enable-background:new 0 0 159.799 159.8;" xml:space="preserve">
<g>
	<path style="fill:#445F87;" d="M79.899,40.98c-21.46,0-38.92,17.459-38.92,38.92c0,21.461,17.459,38.92,38.92,38.92
		c21.461,0,38.92-17.459,38.92-38.92C118.819,58.439,101.36,40.98,79.899,40.98z M79.899,114.82c-19.255,0-34.92-15.665-34.92-34.92
		s15.665-34.92,34.92-34.92s34.92,15.665,34.92,34.92S99.154,114.82,79.899,114.82z"/>
	<path style="fill:#445F87;" d="M137.507,71.102c-3.493,0-6.508,2.051-7.927,5.008c-0.825-10.905-5.17-20.837-11.905-28.666
		c0.938,0.335,1.933,0.519,2.959,0.519c2.351,0,4.56-0.915,6.222-2.577c3.43-3.431,3.43-9.012,0-12.443
		c-1.662-1.662-3.871-2.577-6.222-2.577s-4.56,0.916-6.221,2.577c-2.481,2.481-3.158,6.084-2.051,9.188
		c-7.829-6.739-17.764-11.087-28.673-11.912c2.956-1.42,5.007-4.435,5.007-7.927c0-4.852-3.947-8.799-8.799-8.799
		c-4.851,0-8.798,3.947-8.798,8.799c0,3.493,2.051,6.508,5.007,7.927c-10.909,0.825-20.844,5.172-28.673,11.912
		c1.107-3.104,0.43-6.706-2.05-9.188c-1.662-1.662-3.872-2.577-6.222-2.577s-4.56,0.916-6.221,2.577
		c-1.662,1.662-2.578,3.872-2.578,6.222s0.916,4.56,2.577,6.221s3.871,2.577,6.221,2.577c1.026,0,2.021-0.184,2.959-0.519
		c-6.735,7.828-11.079,17.759-11.904,28.664c-1.42-2.956-4.435-5.006-7.927-5.006c-4.852,0-8.798,3.947-8.798,8.798
		c0,4.852,3.947,8.799,8.798,8.799c3.493,0,6.507-2.051,7.927-5.007c0.826,10.908,5.173,20.842,11.911,28.671
		c-3.104-1.107-6.706-0.43-9.187,2.05c-1.662,1.662-2.578,3.871-2.578,6.222s0.916,4.56,2.578,6.222
		c1.715,1.715,3.967,2.572,6.221,2.572c2.253,0,4.506-0.857,6.222-2.572c2.479-2.481,3.156-6.084,2.05-9.188
		c7.829,6.739,17.763,11.086,28.672,11.911c-2.956,1.42-5.006,4.435-5.006,7.927c0,4.852,3.947,8.799,8.798,8.799
		c4.852,0,8.799-3.947,8.799-8.799c0-3.493-2.051-6.507-5.007-7.927c10.908-0.826,20.843-5.173,28.672-11.912
		c-1.107,3.104-0.43,6.707,2.051,9.188c1.715,1.715,3.968,2.572,6.221,2.572s4.507-0.857,6.222-2.572
		c3.43-3.431,3.43-9.013,0-12.443c-2.482-2.48-6.085-3.157-9.188-2.05c6.739-7.83,11.087-17.764,11.912-28.673
		c1.419,2.957,4.434,5.008,7.927,5.008c4.852,0,8.799-3.947,8.799-8.799C146.306,75.049,142.359,71.102,137.507,71.102z
		 M22.291,84.699c-2.646,0-4.798-2.152-4.798-4.799c0-2.646,2.152-4.798,4.798-4.798s4.799,2.152,4.799,4.798
		C27.089,82.546,24.937,84.699,22.291,84.699z M117.242,35.771c0.906-0.906,2.111-1.405,3.393-1.405
		c1.282,0,2.487,0.499,3.394,1.405c1.87,1.871,1.87,4.915,0,6.786c-0.906,0.907-2.111,1.406-3.394,1.406
		c-1.281,0-2.486-0.499-3.393-1.405C115.371,40.687,115.371,37.643,117.242,35.771z M79.899,17.493c2.646,0,4.799,2.153,4.799,4.799
		s-2.152,4.798-4.799,4.798c-2.646,0-4.798-2.152-4.798-4.798S77.253,17.493,79.899,17.493z M35.771,42.557
		c-0.907-0.906-1.406-2.111-1.406-3.393s0.499-2.486,1.406-3.393c0.906-0.906,2.11-1.405,3.392-1.405s2.487,0.499,3.393,1.405
		c1.87,1.871,1.87,4.915,0,6.786c-0.906,0.906-2.111,1.405-3.393,1.405S36.677,43.464,35.771,42.557z M42.557,124.029
		c-1.871,1.868-4.916,1.869-6.786,0c-0.907-0.906-1.406-2.111-1.406-3.394s0.499-2.487,1.406-3.394
		c0.936-0.936,2.164-1.402,3.393-1.402s2.458,0.468,3.394,1.402C44.427,119.113,44.427,122.158,42.557,124.029z M79.899,142.307
		c-2.646,0-4.798-2.152-4.798-4.799s2.152-4.799,4.798-4.799c2.646,0,4.799,2.152,4.799,4.799S82.545,142.307,79.899,142.307z
		 M120.634,115.839c1.229,0,2.458,0.467,3.394,1.402c1.87,1.871,1.87,4.916,0,6.787c-1.871,1.867-4.915,1.869-6.786,0
		c-1.871-1.871-1.871-4.916,0-6.787C118.177,116.306,119.406,115.839,120.634,115.839z M79.899,125.74
		c-25.276,0-45.84-20.563-45.84-45.84s20.563-45.84,45.84-45.84s45.84,20.563,45.84,45.84S105.175,125.74,79.899,125.74z
		 M137.507,84.699c-2.646,0-4.798-2.152-4.798-4.799c0-2.646,2.152-4.798,4.798-4.798c2.646,0,4.799,2.152,4.799,4.798
		C142.306,82.546,140.154,84.699,137.507,84.699z"/>
	<path style="fill:#445F87;" d="M79.899,34.496c-25.035,0-45.403,20.368-45.403,45.404c0,25.035,20.368,45.403,45.403,45.403
		s45.403-20.368,45.403-45.403C125.302,54.864,104.934,34.496,79.899,34.496z M79.899,122.303
		c-23.381,0-42.403-19.022-42.403-42.403c0-23.381,19.022-42.404,42.403-42.404s42.403,19.022,42.403,42.404
		C122.302,103.281,103.28,122.303,79.899,122.303z"/>
	<path style="fill:#445F87;" d="M79.899,5.51c-41.019,0-74.39,33.371-74.39,74.39c0,41.019,33.371,74.39,74.39,74.39
		c41.02,0,74.391-33.371,74.391-74.39C154.29,38.881,120.918,5.51,79.899,5.51z M79.899,151.29c-39.365,0-71.39-32.025-71.39-71.39
		c0-39.364,32.025-71.39,71.39-71.39c39.365,0,71.391,32.025,71.391,71.39C151.29,119.264,119.264,151.29,79.899,151.29z"/>
	<path style="fill:#445F87;" d="M79.899,0C35.842,0,0,35.843,0,79.9c0,44.058,35.842,79.9,79.899,79.9
		c44.058,0,79.9-35.843,79.9-79.9C159.799,35.843,123.957,0,79.899,0z M79.899,155.8C38.048,155.8,4,121.751,4,79.9
		S38.048,4,79.899,4c41.852,0,75.9,34.048,75.9,75.9S121.75,155.8,79.899,155.8z"/>
</g>
</svg>
