<?xml version="1.0" encoding="utf-8"?>
<!-- Generator: Adobe Illustrator 22.0.1, SVG Export Plug-In . SVG Version: 6.00 Build 0)  -->
<svg version="1.1" id="Слой_1" xmlns="http://www.w3.org/2000/svg" xmlns:xlink="http://www.w3.org/1999/xlink" x="0px" y="0px"
	 viewBox="0 0 189.2 129.4" style="enable-background:new 0 0 189.2 129.4;" xml:space="preserve">
<style type="text/css">
	.st0{fill:#125085;}
</style>
<g>
	<g>
		<path class="st0" d="M149.6,3.5v2.9h1.8v4.6h28.7c0,0,6.3,6,6.2,13.8c-0.2,7.7-2.2,11.8-1.5,15.5c0.7,3.8,2.1,9.9,2.2,12.3
			c0.2,2.3-3.7,9.7-5.2,16.6c-1.5,6.8,0.2,11.4,0.2,11.4h-30.5v4.2h-3.2l0.9,36.8h19.3v5.3H20.2v-5.3H40l0.9-36.8h-2.4v-4.2H8
			c0,0,1.7-4.6,0.2-11.4C6.7,62.4,2.7,55,2.9,52.6c0.2-2.3,1.5-8.5,2.2-12.3c0.7-3.8-1.3-7.8-1.5-15.5c-0.2-7.7,6.2-13.8,6.2-13.8
			h28.7V6.4h1.8V3.5h33.4v2.9h1.8v3.2h38.9V6.4h1.8V3.5H149.6 M151.6,1.5h-2h-33.4h-2v2v0.9h-1.8v2v1.2H77.5V6.4v-2h-1.8V3.5v-2h-2
			H40.3h-2v2v0.9h-1.8v2v1.2H8.4H7.5L6.9,8.3c-0.3,0.3-6.8,8.1-6.6,16.5c0.1,3.9,0.6,6.9,1.1,9.3c0.4,2.5,0.8,4.2,0.5,5.8
			c-0.1,0.7-0.3,1.5-0.5,2.3c-0.8,3.8-1.6,8.2-1.8,10.2c-0.1,1.5,0.6,3.6,2.1,7.4c1.2,3,2.5,6.5,3.2,9.8c1.4,6.2-0.1,11.8-0.2,11.8
			L3.9,84l2.6,0h29.9v0.8v2h1.8l-0.8,32.8H20.2h-2v2v5.3v2h2h148.2h2v-2v-5.3v-2h-2h-15.9l-0.8-32.8h1.8v-2V84h29.9h2.6l-0.7-2.5
			c0-0.1-1.5-5.6-0.2-11.8c0.7-3.3,2-6.7,3.2-9.8c1.5-3.8,2.2-5.9,2.1-7.4c-0.2-2-1-6.3-1.8-10.2c-0.2-0.8-0.3-1.6-0.5-2.3
			c-0.3-1.6,0-3.4,0.5-5.8c0.4-2.4,1-5.4,1.1-9.3c0.2-8.4-6.4-16.2-6.6-16.5l-0.6-0.7h-0.9h-28.1V6.4v-2h-1.8V3.5V1.5z"/>
	</g>
	<g>
		<path class="st0" d="M75.2,40.1H38.8V2h36.4V40.1z M41.8,37.1h30.4V5H41.8V37.1z"/>
	</g>
	<g>
		<path class="st0" d="M75.2,43.7H38.8v-6.6h36.4V43.7z M41.8,40.7h30.4v-0.6H41.8V40.7z"/>
	</g>
	<g>
		<rect x="49.6" y="34.5" class="st0" width="14.3" height="5.5"/>
	</g>
	<g>
		<path class="st0" d="M63.9,37.5H49.6v-7.7h14.3V37.5z M52.6,34.5h8.3v-1.7h-8.3V34.5z"/>
	</g>
	<g>
		<path class="st0" d="M63.9,32.4H49.6v-7.7h14.3V32.4z M52.6,29.4h8.3v-1.7h-8.3V29.4z"/>
	</g>
	<g>
		<rect x="52.3" y="21.9" class="st0" width="9.2" height="5.8"/>
	</g>
	<g>
		<path class="st0" d="M61.6,50.5h-9.2v-9.8h9.2V50.5z M55.3,47.5h3.2v-3.8h-3.2V47.5z"/>
	</g>
	<g>
		<rect x="37" y="4.9" class="st0" width="4.8" height="34.1"/>
	</g>
	<g>
		<rect x="38.8" y="21.9" class="st0" width="5.8" height="18.1"/>
	</g>
	<g>
		<rect x="69.4" y="21.9" class="st0" width="5.8" height="18.1"/>
	</g>
	<g>
		<rect x="72.2" y="4.9" class="st0" width="4.8" height="34.1"/>
	</g>
	<g>
		<path class="st0" d="M75.2,89.2H38.8V51.1h36.4V89.2z M41.8,86.2h30.4V54.1H41.8V86.2z"/>
	</g>
	<g>
		<path class="st0" d="M75.2,54.1H38.8v-6.6h36.4V54.1z M41.8,51.1h30.4v-0.6H41.8V51.1z"/>
	</g>
	<g>
		<path class="st0" d="M167,125.5H21.6V123H167V125.5z M170.4,119.6h-2H20.2h-2v2v5.3v2h2h148.2h2v-2v-5.3V119.6z"/>
	</g>
	<g>
		<rect x="50.1" y="51.1" class="st0" width="14.3" height="5.5"/>
	</g>
	<g>
		<path class="st0" d="M64.4,61.3H50.1v-7.7h14.3V61.3z M53.1,58.3h8.3v-1.7h-8.3V58.3z"/>
	</g>
	<g>
		<path class="st0" d="M64.4,66.4H50.1v-7.7h14.3V66.4z M53.1,63.4h8.3v-1.7h-8.3V63.4z"/>
	</g>
	<g>
		<rect x="52.4" y="63.4" class="st0" width="9.2" height="5.8"/>
	</g>
	<g>
		<rect x="72.2" y="52.2" class="st0" width="4.8" height="34.1"/>
	</g>
	<g>
		<rect x="69.4" y="51.1" class="st0" width="5.8" height="18.1"/>
	</g>
	<g>
		<rect x="38.8" y="51.1" class="st0" width="5.8" height="18.1"/>
	</g>
	<g>
		<rect x="37" y="52.2" class="st0" width="4.8" height="34.1"/>
	</g>
	<g>
		<path class="st0" d="M151.1,40.1h-36.4V2h36.4V40.1z M117.7,37.1h30.4V5h-30.4V37.1z"/>
	</g>
	<g>
		<path class="st0" d="M151.1,43.7h-36.4v-6.6h36.4V43.7z M117.7,40.7h30.4v-0.6h-30.4V40.7z"/>
	</g>
	<g>
		<rect x="126" y="34.5" class="st0" width="14.3" height="5.5"/>
	</g>
	<g>
		<path class="st0" d="M140.3,37.5H126v-7.7h14.3V37.5z M129,34.5h8.3v-1.7H129V34.5z"/>
	</g>
	<g>
		<path class="st0" d="M140.3,32.4H126v-7.7h14.3V32.4z M129,29.4h8.3v-1.7H129V29.4z"/>
	</g>
	<g>
		<rect x="128.3" y="21.9" class="st0" width="9.2" height="5.8"/>
	</g>
	<g>
		<path class="st0" d="M137.6,50.5h-9.2v-9.8h9.2V50.5z M131.3,47.5h3.2v-3.8h-3.2V47.5z"/>
	</g>
	<g>
		<rect x="148.1" y="4.9" class="st0" width="4.8" height="34.1"/>
	</g>
	<g>
		<rect x="145.3" y="21.9" class="st0" width="5.8" height="18.1"/>
	</g>
	<g>
		<rect x="114.7" y="21.9" class="st0" width="5.8" height="18.1"/>
	</g>
	<g>
		<rect x="112.9" y="4.9" class="st0" width="4.8" height="34.1"/>
	</g>
	<g>
		<path class="st0" d="M151.1,89.2h-36.4V51.1h36.4V89.2z M117.7,86.2h30.4V54.1h-30.4V86.2z"/>
	</g>
	<g>
		<path class="st0" d="M151.1,54.1h-36.4v-6.6h36.4V54.1z M117.7,51.1h30.4v-0.6h-30.4V51.1z"/>
	</g>
	<g>
		<rect x="125.5" y="51.1" class="st0" width="14.3" height="5.5"/>
	</g>
	<g>
		<path class="st0" d="M139.8,61.3h-14.3v-7.7h14.3V61.3z M128.5,58.3h8.3v-1.7h-8.3V58.3z"/>
	</g>
	<g>
		<path class="st0" d="M139.8,66.4h-14.3v-7.7h14.3V66.4z M128.5,63.4h8.3v-1.7h-8.3V63.4z"/>
	</g>
	<g>
		<rect x="128.2" y="63.4" class="st0" width="9.2" height="5.8"/>
	</g>
	<g>
		<rect x="112.9" y="52.2" class="st0" width="4.8" height="34.1"/>
	</g>
	<g>
		<rect x="114.7" y="51.1" class="st0" width="5.8" height="18.1"/>
	</g>
	<g>
		<rect x="145.3" y="51.1" class="st0" width="5.8" height="18.1"/>
	</g>
	<g>
		<rect x="148.1" y="52.2" class="st0" width="4.8" height="34.1"/>
	</g>
	<g>
		<rect x="75.5" y="8.1" class="st0" width="38.9" height="3"/>
	</g>
	<g>
		<rect x="40.3" y="75.3" class="st0" width="109.3" height="3"/>
	</g>
	<g>
		<rect x="55.5" y="26.2" class="st0" width="3" height="9.8"/>
	</g>
	<g>
		<rect x="55.5" y="54.9" class="st0" width="3" height="9.8"/>
	</g>
	<g>
		<rect x="131.6" y="26.2" class="st0" width="3" height="9.8"/>
	</g>
	<g>
		<rect x="131.6" y="54.9" class="st0" width="3" height="9.8"/>
	</g>
</g>
</svg>
