<?xml version="1.0" encoding="iso-8859-1"?>
<!-- Generator: Adobe Illustrator 22.0.1, SVG Export Plug-In . SVG Version: 6.00 Build 0)  -->
<svg version="1.1" id="&#x421;&#x43B;&#x43E;&#x439;_1"
	 xmlns="http://www.w3.org/2000/svg" xmlns:xlink="http://www.w3.org/1999/xlink" x="0px" y="0px" viewBox="0 0 137.895 161.588"
	 style="enable-background:new 0 0 137.895 161.588;" xml:space="preserve">
<g>
	<path style="fill:#445F87;" d="M137.895,68.948C137.895,30.929,106.965,0,68.947,0C30.93,0,0,30.929,0,68.948
		c0,31.489,21.227,58.096,50.116,66.312v12.208H35.884h-2v2v10.12v2h2h66.128h2v-2v-10.12v-2h-2H87.779V135.26
		C116.669,127.043,137.895,100.437,137.895,68.948z M3.788,68.948c0-35.987,29.173-65.16,65.159-65.16
		c35.987,0,65.16,29.173,65.16,65.16c0,35.986-29.173,65.16-65.16,65.16C32.961,134.108,3.788,104.934,3.788,68.948z
		 M79.407,151.169v6.718H58.488v-6.718H79.407z M37.584,151.169h17.904v6.718H37.584V151.169z M100.311,157.887H82.407v-6.718
		h17.903V157.887z M84.078,147.468H53.817v-11.265c4.873,1.096,9.932,1.693,15.13,1.693c5.199,0,10.258-0.597,15.131-1.693V147.468z
		"/>
	<path style="fill:#445F87;" d="M129.572,68.947c0-33.429-27.196-60.625-60.625-60.625c-33.428,0-60.624,27.196-60.624,60.625
		s27.196,60.626,60.624,60.626C102.376,129.574,129.572,102.377,129.572,68.947z M11.959,68.947
		c0-31.474,25.514-56.989,56.988-56.989c31.475,0,56.989,25.515,56.989,56.989c0,31.475-25.514,56.99-56.989,56.99
		C37.473,125.937,11.959,100.422,11.959,68.947z"/>
	<rect x="67.448" y="16.655" style="fill:#445F87;" width="3" height="7.027"/>
	
		<rect x="40.171" y="24.994" transform="matrix(0.829 -0.5593 0.5593 0.829 -8.8174 28.18)" style="fill:#445F87;" width="3" height="7.027"/>
	
		<rect x="22.221" y="47.161" transform="matrix(0.3745 -0.9272 0.9272 0.3745 -32.1493 53.691)" style="fill:#445F87;" width="2.999" height="7.028"/>
	
		<rect x="17.721" y="77.589" transform="matrix(0.9781 -0.208 0.208 0.9781 -15.9858 6.1463)" style="fill:#445F87;" width="7.027" height="3"/>
	
		<rect x="31.549" y="102.537" transform="matrix(0.6946 -0.7194 0.7194 0.6946 -64.1335 56.9927)" style="fill:#445F87;" width="7.027" height="3"/>
	
		<rect x="92.71" y="27.008" transform="matrix(0.5593 -0.8289 0.8289 0.5593 18.77 92.3255)" style="fill:#445F87;" width="7.028" height="2.999"/>
	
		<rect x="110.661" y="49.175" transform="matrix(0.9273 -0.3744 0.3744 0.9273 -10.6683 46.4353)" style="fill:#445F87;" width="7.028" height="2.999"/>
	
		<rect x="115.161" y="75.576" transform="matrix(0.2079 -0.9781 0.9781 0.2079 15.0446 176.7574)" style="fill:#445F87;" width="3" height="7.027"/>
	
		<rect x="101.332" y="100.523" transform="matrix(0.7194 -0.6946 0.6946 0.7194 -43.4089 100.6263)" style="fill:#445F87;" width="3" height="7.028"/>
	<path style="fill:#445F87;" d="M68.947,78.208c1.411,0,2.743-0.326,3.941-0.893L98.31,98.62L76.863,73.73
		c0.848-1.398,1.346-3.031,1.346-4.782c0-1.353-0.299-2.635-0.822-3.794l22.863-20.338l-7.781-7.672L72.51,60.402
		c-1.097-0.459-2.301-0.715-3.563-0.715c-5.105,0-9.26,4.154-9.26,9.26c0,1.763,0.504,3.406,1.363,4.81l-21.49,25.045l24.64-21.919
		C65.59,77.719,67.21,78.208,68.947,78.208z M68.947,63.834c2.825,0,5.115,2.29,5.115,5.114c0,2.825-2.29,5.115-5.115,5.115
		c-2.824,0-5.115-2.29-5.115-5.115C63.832,66.123,66.123,63.834,68.947,63.834z"/>
</g>
</svg>
