<?xml version="1.0" encoding="iso-8859-1"?>
<!-- Generator: Adobe Illustrator 22.0.1, SVG Export Plug-In . SVG Version: 6.00 Build 0)  -->
<svg version="1.1" id="&#x421;&#x43B;&#x43E;&#x439;_1"
	 xmlns="http://www.w3.org/2000/svg" xmlns:xlink="http://www.w3.org/1999/xlink" x="0px" y="0px" viewBox="0 0 122.968 148.049"
	 style="enable-background:new 0 0 122.968 148.049;" xml:space="preserve">
<path style="fill:#445F87;" d="M115.508,0h-8.907c-2.157,0-4.097,0.867-5.46,2.243C99.777,0.867,97.837,0,95.68,0h-8.907
	c-2.157,0-4.097,0.867-5.46,2.243C79.949,0.867,78.009,0,75.852,0h-8.907c-2.157,0-4.097,0.867-5.46,2.243
	C60.121,0.867,58.181,0,56.024,0h-8.908c-2.157,0-4.097,0.867-5.46,2.243C40.293,0.867,38.353,0,36.196,0h-8.908
	c-2.157,0-4.097,0.867-5.46,2.243C20.465,0.867,18.525,0,16.368,0H7.46C3.347,0,0,3.136,0,6.99v128.192
	c0,3.854,3.347,6.99,7.46,6.99h7.632v3.877v2h2h9.31h2v-2v-3.877h7.794c2.157,0,4.097-0.867,5.46-2.243
	c1.363,1.376,3.303,2.243,5.46,2.243h8.908c2.157,0,4.097-0.867,5.46-2.243c1.363,1.376,3.304,2.243,5.46,2.243h8.907
	c2.157,0,4.097-0.867,5.46-2.243c1.363,1.376,3.304,2.243,5.46,2.243h7.712v3.877v2h2h9.31h2v-2v-3.877h7.713
	c4.113,0,7.46-3.136,7.46-6.99V6.99C122.968,3.136,119.622,0,115.508,0z M111.054,11.521c-0.097-0.173-0.2-0.339-0.32-0.497h0.639
	C111.254,11.182,111.151,11.348,111.054,11.521z M91.226,11.521c-0.097-0.173-0.2-0.339-0.32-0.497h0.639
	C91.426,11.182,91.323,11.348,91.226,11.521z M71.398,11.521c-0.097-0.173-0.2-0.339-0.32-0.497h0.639
	C71.598,11.182,71.495,11.348,71.398,11.521z M51.57,11.521c-0.097-0.173-0.2-0.339-0.319-0.496h0.639
	C51.77,11.182,51.667,11.348,51.57,11.521z M31.742,11.521c-0.097-0.173-0.2-0.339-0.319-0.496h0.639
	C31.942,11.182,31.838,11.348,31.742,11.521z M11.913,11.521c-0.097-0.173-0.2-0.339-0.319-0.496h0.638
	C12.114,11.182,12.01,11.348,11.913,11.521z M4,12.298h4.148c0.73,0,1.324,0.579,1.324,1.29v7.747c0,0.712-0.594,1.291-1.324,1.291
	H6.087c-0.728,0-1.439,0.167-2.087,0.469V12.298z M14.354,13.588c0-0.711,0.594-1.29,1.325-1.29h4.148v10.797
	c-0.649-0.301-1.36-0.469-2.087-0.469H15.68c-0.731,0-1.325-0.579-1.325-1.291V13.588z M23.828,12.298h4.147
	c0.73,0,1.325,0.579,1.325,1.29v7.747c0,0.712-0.594,1.291-1.325,1.291h-2.06c-0.728,0-1.439,0.167-2.087,0.469V12.298z
	 M34.183,13.588c0-0.711,0.594-1.29,1.325-1.29h4.148v10.797c-0.649-0.301-1.36-0.469-2.087-0.469h-2.061
	c-0.731,0-1.325-0.579-1.325-1.291V13.588z M43.656,12.298h4.147c0.73,0,1.325,0.579,1.325,1.29v7.747
	c0,0.712-0.594,1.291-1.325,1.291h-2.06c-0.728,0-1.439,0.167-2.087,0.469V12.298z M54.011,13.588c0-0.711,0.594-1.29,1.325-1.29
	h4.148v10.797c-0.649-0.301-1.36-0.469-2.087-0.469h-2.061c-0.731,0-1.325-0.579-1.325-1.291V13.588z M63.485,12.298h4.146
	c0.73,0,1.325,0.579,1.325,1.29v7.747c0,0.712-0.595,1.291-1.325,1.291h-2.06c-0.728,0-1.439,0.167-2.087,0.468V12.298z
	 M73.839,13.588c0-0.711,0.594-1.29,1.324-1.29h4.148v10.796c-0.648-0.301-1.359-0.468-2.087-0.468h-2.062
	c-0.73,0-1.324-0.579-1.324-1.291V13.588z M83.313,12.298h4.146c0.73,0,1.325,0.579,1.325,1.29v7.747
	c0,0.712-0.595,1.291-1.325,1.291H85.4c-0.728,0-1.439,0.167-2.087,0.468V12.298z M93.667,13.588c0-0.711,0.594-1.29,1.324-1.29
	h4.148v10.796c-0.648-0.301-1.359-0.468-2.087-0.468h-2.062c-0.73,0-1.324-0.579-1.324-1.291V13.588z M103.141,12.298h4.146
	c0.73,0,1.325,0.579,1.325,1.29v7.747c0,0.712-0.595,1.291-1.325,1.291h-2.06c-0.728,0-1.439,0.167-2.087,0.468V12.298z
	 M113.496,13.588c0-0.711,0.594-1.29,1.324-1.29h4.148v10.796c-0.648-0.301-1.359-0.468-2.087-0.468h-2.062
	c-0.73,0-1.324-0.579-1.324-1.291V13.588z M106.601,4h8.907c1.869,0,3.386,1.289,3.448,2.891h-15.804
	C103.215,5.289,104.732,4,106.601,4z M86.773,4h8.907c1.869,0,3.386,1.289,3.448,2.891H83.325C83.387,5.289,84.904,4,86.773,4z
	 M66.945,4h8.907c1.869,0,3.386,1.289,3.448,2.891H63.496C63.559,5.289,65.076,4,66.945,4z M47.116,4h8.908
	c1.868,0,3.386,1.289,3.448,2.891H43.668C43.73,5.289,45.248,4,47.116,4z M27.288,4h8.908c1.868,0,3.386,1.289,3.448,2.891H23.84
	C23.902,5.289,25.42,4,27.288,4z M7.46,4h8.908c1.868,0,3.386,1.289,3.448,2.891H4.012C4.074,5.289,5.592,4,7.46,4z M4,135.182
	V26.946l0.667-0.71c0.364-0.388,0.882-0.61,1.42-0.61h2.061c1.625,0,3.026-0.905,3.765-2.223c0.739,1.319,2.141,2.223,3.766,2.223
	h2.061c0.538,0,1.055,0.222,1.419,0.611l0.668,0.71v108.235c0,1.648-1.552,2.99-3.46,2.99H7.46C5.552,138.172,4,136.83,4,135.182z
	 M18.226,146.049v-4.105c0.112-0.027,0.227-0.05,0.337-0.082v4.187H18.226z M21.563,146.049v-5.861
	c0.091-0.083,0.178-0.171,0.265-0.259c0.035,0.035,0.067,0.071,0.103,0.106v6.014H21.563z M24.931,146.049v-4.24
	c0.111,0.035,0.224,0.066,0.338,0.096v4.144H24.931z M36.196,138.172h-8.908c-1.908,0-3.46-1.342-3.46-2.99V26.946l0.667-0.71
	c0.364-0.388,0.882-0.61,1.42-0.61h2.06c1.625,0,3.027-0.905,3.766-2.224c0.739,1.319,2.141,2.224,3.766,2.224h2.061
	c0.538,0,1.055,0.222,1.419,0.611l0.668,0.71v108.235C39.656,136.83,38.104,138.172,36.196,138.172z M56.024,138.172h-8.908
	c-1.908,0-3.46-1.342-3.46-2.99V26.946l0.667-0.71c0.364-0.388,0.882-0.61,1.42-0.61h2.06c1.625,0,3.027-0.905,3.766-2.224
	c0.739,1.319,2.141,2.224,3.766,2.224h2.061c0.538,0,1.055,0.222,1.419,0.611l0.668,0.71v108.235
	C59.484,136.83,57.932,138.172,56.024,138.172z M75.852,138.172h-8.907c-1.908,0-3.46-1.342-3.46-2.99V26.946l0.668-0.71
	c0.363-0.387,0.881-0.609,1.419-0.609h2.06c1.626,0,3.028-0.905,3.766-2.224c0.739,1.319,2.14,2.224,3.766,2.224h2.062
	c0.538,0,1.055,0.222,1.419,0.611l0.668,0.71v108.235C79.312,136.83,77.76,138.172,75.852,138.172z M83.313,135.182V26.946
	l0.668-0.71c0.363-0.387,0.881-0.609,1.419-0.609h2.06c1.626,0,3.028-0.905,3.766-2.224c0.739,1.319,2.14,2.224,3.766,2.224h2.062
	c0.538,0,1.055,0.222,1.419,0.611l0.668,0.71v108.235c0,1.648-1.552,2.99-3.46,2.99h-8.907
	C84.865,138.172,83.313,136.83,83.313,135.182z M97.619,146.049v-4.125c0.113-0.029,0.227-0.054,0.338-0.088v4.212H97.619z
	 M100.957,146.049v-5.93c0.065-0.06,0.122-0.127,0.184-0.19c0.062,0.062,0.119,0.129,0.183,0.189v5.931H100.957z M104.324,146.049
	v-4.213c0.111,0.033,0.224,0.059,0.337,0.088v4.125H104.324z M115.508,138.172h-8.907c-1.908,0-3.46-1.342-3.46-2.99V26.946
	l0.668-0.71c0.363-0.387,0.881-0.609,1.419-0.609h2.06c1.626,0,3.028-0.905,3.766-2.224c0.739,1.319,2.14,2.224,3.766,2.224h2.062
	c0.538,0,1.055,0.222,1.419,0.611l0.668,0.71v108.235C118.968,136.83,117.417,138.172,115.508,138.172z"/>
</svg>
