<?xml version="1.0" encoding="iso-8859-1"?>
<!-- Generator: Adobe Illustrator 22.0.1, SVG Export Plug-In . SVG Version: 6.00 Build 0)  -->
<svg version="1.1" id="&#x421;&#x43B;&#x43E;&#x439;_1"
	 xmlns="http://www.w3.org/2000/svg" xmlns:xlink="http://www.w3.org/1999/xlink" x="0px" y="0px" viewBox="0 0 118.666 149.667"
	 style="enable-background:new 0 0 118.666 149.667;" xml:space="preserve">
<path style="fill:#445F87;" d="M116.666,28.167h-1.333V2V0h-2h-17.92h-2v2v33.209c-0.262-0.064-0.51-0.132-0.743-0.204
	c-2.156-0.662-4.604-1.687-7.194-2.772c-6.814-2.854-15.293-6.405-25.434-6.405c-0.239,0-0.473,0.002-0.709,0.005
	c-0.237-0.003-0.474-0.005-0.71-0.005c-10.141,0-18.62,3.551-25.434,6.405c-2.59,1.085-5.037,2.11-7.193,2.772
	c-0.234,0.072-0.482,0.14-0.744,0.204V2V0h-2H5.333h-2v2v26.167H2H0v2v9.166v1.834V108.5v3.083v0.474v7.443v2h2h1.333v26.167v2h2
	h17.919h2v-2v-33.209c0.262,0.064,0.51,0.132,0.744,0.204c2.155,0.662,4.603,1.687,7.193,2.772
	c6.814,2.854,15.294,6.405,25.434,6.405c0.236,0,0.472-0.002,0.71-0.006c0.237,0.004,0.474,0.006,0.709,0.006
	c10.142,0,18.62-3.551,25.434-6.405c2.59-1.085,5.038-2.11,7.194-2.771c0.233-0.073,0.481-0.141,0.743-0.205v33.209v2h2h17.92h2v-2
	V121.5h1.333h2v-2v-7.443V108.5V41.167v-1.834v-9.166v-2H116.666z M98.248,140.001h12.251v4.832H98.248V140.001z M98.248,137.001v-8
	h12.251v8H98.248z M98.248,126.001v-12.704c1.5-0.087,2.988-0.099,4.303-0.071l-0.217,0.01v7.765h8.165v5H98.248z M71.634,115.374
	c-6.667,1.383-17.935,1.383-24.602,0c-2.307-0.479-5.307-1.673-8.483-2.938c-5.493-2.187-11.718-4.665-17.647-4.934
	c-5.212-0.238-12.223-0.386-16.067-0.456V42.62c3.844-0.069,10.855-0.218,16.067-0.455c5.93-0.27,12.155-2.748,17.646-4.935
	c3.177-1.265,6.177-2.459,8.484-2.937c6.667-1.383,17.935-1.383,24.602,0c2.307,0.478,5.307,1.672,8.483,2.937
	c5.493,2.187,11.719,4.665,17.648,4.935c5.211,0.237,12.221,0.386,16.066,0.455v64.427c-3.845,0.069-10.855,0.218-16.066,0.456
	c-5.93,0.269-12.156,2.747-17.649,4.935C76.94,113.701,73.94,114.895,71.634,115.374z M8.168,140.001h12.25v4.832H8.168V140.001z
	 M8.168,137.001v-8h12.25v8H8.168z M8.168,126.001v-5h8.166v-7.765l-0.232-0.011c1.322-0.029,2.814-0.017,4.316,0.071v12.704H8.168z
	 M20.417,9.667H8.168V4.835h12.25V9.667z M20.417,12.667v8H8.168v-8H20.417z M20.417,23.667v12.704
	c-1.503,0.088-2.996,0.1-4.318,0.07l0.233-0.011v-7.763H8.168v-5H20.417z M13.333,31.667v1.903l-3.5,0.167v5.278l1.34,0.144
	c0.144,0.015,1.454,0.152,3.352,0.236c-3.656,0.107-7.28,0.181-9.69,0.225v-0.287v-6.331h3.333v-1.335H13.333z M4.835,116.665
	v-4.608v-0.474v-1.536c2.411,0.044,6.036,0.118,9.691,0.226c-1.898,0.084-3.209,0.221-3.353,0.236l-1.34,0.144v5.278l3.5,0.166
	v1.903H8.168v-1.335H4.835z M109.931,9.667H98.248V3.701h11.684V9.667z M109.931,12.667v8H98.248v-8H109.931z M109.931,23.667v5
	h-7.598v7.763l0.248,0.012c-1.327,0.029-2.825,0.017-4.334-0.07V23.667H109.931z M105.334,118.001v-1.903l3.5-0.166v-5.278
	l-1.34-0.144c-0.144-0.016-1.455-0.152-3.354-0.236c3.655-0.108,7.28-0.182,9.691-0.226v2.01v4.608h-3.333v1.335H105.334z
	 M113.831,32.435v6.898v0.287c-2.411-0.044-6.035-0.118-9.69-0.225c1.897-0.084,3.209-0.221,3.353-0.236l1.34-0.144v-5.278
	l-3.5-0.167v-1.903h4.598v0.768H113.831z"/>
</svg>
