<?xml version="1.0" encoding="iso-8859-1"?>
<!-- Generator: Adobe Illustrator 22.0.1, SVG Export Plug-In . SVG Version: 6.00 Build 0)  -->
<svg version="1.1" id="&#x421;&#x43B;&#x43E;&#x439;_1"
	 xmlns="http://www.w3.org/2000/svg" xmlns:xlink="http://www.w3.org/1999/xlink" x="0px" y="0px" viewBox="0 0 153.817 177.614"
	 style="enable-background:new 0 0 153.817 177.614;" xml:space="preserve">
<g>
	<path style="fill:#445F87;" d="M76.908,45.761c-23.735,0-43.046,19.311-43.046,43.046c0,23.736,19.311,43.047,43.046,43.047
		c23.737,0,43.047-19.311,43.047-43.047C119.955,65.072,100.645,45.761,76.908,45.761z M76.908,127.854
		c-21.53,0-39.046-17.517-39.046-39.047c0-21.53,17.516-39.046,39.046-39.046c21.531,0,39.047,17.516,39.047,39.046
		C115.955,110.337,98.438,127.854,76.908,127.854z"/>
	<path style="fill:#445F87;" d="M153.817,88.807c0-0.013-0.001-0.026-0.001-0.039V44.404L76.908,0L0,44.404v88.807l76.908,44.403
		l75.909-43.825l1-0.578V88.846C153.816,88.833,153.817,88.82,153.817,88.807z M149.816,88.846
		c-0.021,40.184-32.719,72.871-72.908,72.871C36.707,161.716,4,129.009,4,88.807s32.707-72.909,72.908-72.909
		c40.189,0,72.887,32.686,72.908,72.871V88.846z M149.816,64.377c-3.326-9.898-8.605-18.902-15.392-26.55l15.392,8.886V64.377z
		 M92.153,13.421c-4.929-0.995-10.026-1.523-15.245-1.523c-5.219,0-10.316,0.528-15.246,1.523l15.245-8.802L92.153,13.421z
		 M4,46.713l15.393-8.888C12.606,45.474,7.326,54.48,4,64.379V46.713z M4,113.235c3.326,9.9,8.607,18.906,15.394,26.555L4,130.902
		V113.235z M61.663,164.193c4.93,0.995,10.027,1.523,15.245,1.523c5.218,0,10.315-0.528,15.244-1.523l-15.245,8.801L61.663,164.193z
		 M149.816,130.902l-15.392,8.887c6.787-7.648,12.067-16.652,15.392-26.551V130.902z"/>
</g>
</svg>
