<?xml version="1.0" encoding="iso-8859-1"?>
<!-- Generator: Adobe Illustrator 22.0.1, SVG Export Plug-In . SVG Version: 6.00 Build 0)  -->
<svg version="1.1" id="&#x421;&#x43B;&#x43E;&#x439;_1"
	 xmlns="http://www.w3.org/2000/svg" xmlns:xlink="http://www.w3.org/1999/xlink" x="0px" y="0px" viewBox="0 0 149.219 150.834"
	 style="enable-background:new 0 0 149.219 150.834;" xml:space="preserve">
<g>
	<path style="fill:#445F87;" d="M31.707,95.64c-12.951,0-23.488,10.536-23.488,23.487s10.536,23.488,23.488,23.488
		c12.951,0,23.487-10.537,23.487-23.488S44.658,95.64,31.707,95.64z M31.707,139.955c-11.484,0-20.828-9.344-20.828-20.828
		S20.223,98.3,31.707,98.3s20.827,9.343,20.827,20.827S43.191,139.955,31.707,139.955z"/>
	<path style="fill:#445F87;" d="M117.512,0c-9.363,0-18.193,4.109-24.241,11.276L10.015,96.034c-0.649,0.61-1.275,1.243-1.871,1.905
		l-0.117,0.119l0.007,0.007C3.042,103.67,0,111.048,0,119.127c0,17.483,14.224,31.707,31.707,31.707
		c8.778,0,16.733-3.587,22.48-9.371l0.011,0.01l85.705-87.318c6.008-5.992,9.316-13.965,9.316-22.448
		C149.219,14.224,134.995,0,117.512,0z M31.707,146.834C16.429,146.834,4,134.404,4,119.127c0-7.077,2.671-13.54,7.053-18.442
		l1.831-1.864c4.946-4.588,11.561-7.4,18.823-7.4c15.278,0,27.707,12.429,27.707,27.706S46.985,146.834,31.707,146.834z
		 M137.063,51.338l-74.789,76.196c0.738-2.68,1.14-5.497,1.14-8.408c0-17.482-14.224-31.706-31.707-31.706
		c-3.081,0-6.058,0.45-8.876,1.274l73.347-74.67l0.105-0.115C101.569,7.612,109.308,4,117.512,4
		c15.277,0,27.707,12.429,27.707,27.707C145.219,39.12,142.327,46.087,137.063,51.338z"/>
</g>
</svg>
