<?xml version="1.0" encoding="utf-8"?>
<!-- Generator: Adobe Illustrator 22.0.1, SVG Export Plug-In . SVG Version: 6.00 Build 0)  -->
<svg version="1.1" id="Слой_1" xmlns="http://www.w3.org/2000/svg" xmlns:xlink="http://www.w3.org/1999/xlink" x="0px" y="0px"
	 viewBox="0 0 147 148.9" style="enable-background:new 0 0 147 148.9;" xml:space="preserve">
<style type="text/css">
	.st0{fill:#445F87;}
</style>
<g>
	<g>
		<path class="st0" d="M104.8,148.9H8.5c-4.7,0-8.5-3.8-8.5-8.5s3.8-8.5,8.5-8.5h96.3c4.7,0,8.5,3.8,8.5,8.5
			S109.5,148.9,104.8,148.9z M8.5,135.9c-2.5,0-4.5,2-4.5,4.5s2,4.5,4.5,4.5h96.3c2.5,0,4.5-2,4.5-4.5s-2-4.5-4.5-4.5H8.5z"/>
	</g>
	<g>
		<path class="st0" d="M138.5,113.3c-2.3,0-4.4-0.9-6-2.5c-1.6-1.6-2.5-3.8-2.5-6V8.5c0-4.7,3.8-8.5,8.5-8.5c2.3,0,4.4,0.9,6,2.5
			c1.6,1.6,2.5,3.8,2.5,6v96.3C147,109.5,143.2,113.3,138.5,113.3z M138.5,4C136,4,134,6,134,8.5v96.3c0,1.2,0.5,2.3,1.3,3.2
			c0.8,0.8,2,1.3,3.2,1.3c2.5,0,4.5-2,4.5-4.5V8.5c0-1.2-0.5-2.3-1.3-3.2C140.8,4.5,139.7,4,138.5,4z"/>
	</g>
	<g>
		<path class="st0" d="M97.3,133.9h-4v-25c0-2.2,0.5-4.3,1.6-6.3c0.9-1.8,2.3-3.5,4-4.9c0.3-0.2,0.6-0.5,0.9-0.7
			c2-1.6,4.4-2.7,6.9-3.3c1.3-0.3,2.7-0.5,4-0.5c0.7,0,1.4-0.3,1.9-0.8l0.2-0.2c0.4-0.5,0.6-1.1,0.6-1.7v-2H130V29.2h-16.7v-2
			c0-1.4-0.6-2.8-1.6-3.8c-1-1-2.3-1.6-3.8-1.6c-1,0-2,0-2.9,0.1c-2.7,0.1-5.5,0.3-8.4,0.6c-2.6,0.3-5.2,0.8-7.7,1.3
			c-2.4,0.5-4.8,1.2-7.1,1.9c-2.3,0.7-4.5,1.5-6.7,2.3c-2.1,0.8-4.2,1.7-6.3,2.8c-2,1-4,2-5.8,3.1c-1.9,1.1-3.7,2.2-5.5,3.5
			c-1.7,1.2-3.5,2.5-5.2,3.8c-1.7,1.3-3.3,2.7-4.8,4.1c-1.6,1.5-3.1,3-4.5,4.5c-1.4,1.5-2.8,3.1-4.2,4.8c-1.3,1.6-2.6,3.3-3.9,5.1
			c-1.2,1.7-2.4,3.6-3.6,5.4c-1.1,1.9-2.2,3.8-3.2,5.8c-1.1,2.1-2,4.2-2.8,6.2c-0.9,2.1-1.7,4.3-2.4,6.6c-0.8,2.3-1.4,4.7-2,7
			c-0.6,2.5-1.1,5.1-1.4,7.6c-0.4,2.7-0.7,5.5-0.8,8.2c-0.1,1.5-0.1,3.1-0.1,4.7v22.6l-4,0v-22.7c0-1.7,0-3.3,0.1-4.9
			c0.1-2.8,0.4-5.7,0.8-8.5c0.4-2.6,0.9-5.3,1.5-7.9c0.6-2.5,1.3-5,2.1-7.4c0.7-2.3,1.6-4.7,2.5-6.9c0.8-2.1,1.8-4.2,2.9-6.4
			c1-2.1,2.2-4.1,3.4-6.1c1.2-2,2.4-3.9,3.7-5.7c1.3-1.8,2.7-3.6,4.1-5.3c1.4-1.8,2.9-3.4,4.4-5c1.5-1.6,3.1-3.1,4.7-4.7
			c1.6-1.5,3.3-2.9,5.1-4.3c1.8-1.4,3.6-2.8,5.4-4c1.9-1.3,3.8-2.5,5.8-3.6c2-1.2,4-2.3,6.1-3.3c2.2-1,4.4-2,6.5-2.9
			c2.3-0.9,4.6-1.7,7-2.4c2.4-0.7,4.9-1.4,7.4-1.9c2.6-0.6,5.3-1,8-1.4c3-0.4,5.9-0.6,8.7-0.7c1,0,2-0.1,3.1-0.1
			c2.5,0,4.8,1,6.6,2.7c1.3,1.3,2.1,2.9,2.5,4.6H134v67.3h-17c-0.3,0.8-0.7,1.6-1.2,2.2c-0.1,0.2-0.3,0.3-0.4,0.5
			c-1.3,1.3-2.9,2-4.7,2c-1,0-2,0.1-3,0.4c-2,0.5-3.9,1.4-5.5,2.6c-0.3,0.2-0.5,0.4-0.7,0.5c-1.3,1.1-2.3,2.4-3,3.7
			c-0.8,1.4-1.1,2.9-1.1,4.4L97.3,133.9L97.3,133.9z"/>
	</g>
	<g>
		<rect x="113.3" y="27.2" class="st0" width="4" height="63.3"/>
	</g>
</g>
<g>
	<g>
		<polygon class="st0" points="7.3,128.7 12.5,133.9 13.9,133.9 7.3,127.3 		"/>
		<polygon class="st0" points="7.3,125.8 15.5,133.9 16.7,133.9 16.7,133.7 7.3,124.4 		"/>
		<polygon class="st0" points="7.3,122.8 16.7,132.2 16.7,130.7 7.3,121.4 		"/>
		<polygon class="st0" points="7.3,119.9 16.7,129.2 16.7,127.8 7.3,118.5 		"/>
		<polygon class="st0" points="7.3,116.9 16.7,126.3 16.7,124.9 7.3,115.5 		"/>
		<polygon class="st0" points="7.3,114 16.7,123.3 16.7,121.9 7.3,112.6 		"/>
		<path class="st0" d="M7.3,111.1l9.3,9.3V119l-9.3-9.3C7.4,110.1,7.4,110.6,7.3,111.1z"/>
		<path class="st0" d="M7.4,108.2l9.2,9.2V116l-9.2-9.2C7.5,107.3,7.4,107.8,7.4,108.2z"/>
		<path class="st0" d="M7.6,105.4l9.1,9.1v-1.4l-9-9C7.6,104.5,7.6,105,7.6,105.4z"/>
		<path class="st0" d="M7.9,101.4c0,0.4-0.1,0.9-0.1,1.3l8.9,8.9v-0.3c0-0.4,0-0.7,0-1.1L7.9,101.4z"/>
		<path class="st0" d="M16.7,108.7c0-0.5,0-0.9,0.1-1.4l-8.5-8.5c-0.1,0.4-0.1,0.8-0.2,1.3L16.7,108.7z"/>
		<path class="st0" d="M19.6,88.1c0.1-0.4,0.2-0.8,0.3-1.1l-7.3-7.3c-0.1,0.4-0.2,0.7-0.4,1.1L19.6,88.1z"/>
		<path class="st0" d="M11.9,81.8c-0.1,0.4-0.2,0.7-0.3,1.1l7.5,7.5c0,0,0-0.1,0-0.1c0.1-0.3,0.2-0.7,0.3-1L11.9,81.8z"/>
		<path class="st0" d="M18.5,92.8c0.1-0.4,0.2-0.8,0.2-1.2l-7.6-7.6c-0.1,0.4-0.2,0.7-0.3,1.1L18.5,92.8z"/>
		<path class="st0" d="M18.1,95.3c0.1-0.4,0.1-0.8,0.2-1.2l-7.7-7.7c-0.1,0.4-0.2,0.7-0.3,1.1L18.1,95.3z"/>
		<path class="st0" d="M17.6,97.8c0.1-0.4,0.1-0.8,0.2-1.2L10,88.8c-0.1,0.4-0.2,0.8-0.3,1.1L17.6,97.8z"/>
		<path class="st0" d="M17.3,100.5c0-0.4,0.1-0.8,0.2-1.3l-8-8c-0.1,0.4-0.2,0.8-0.2,1.2L17.3,100.5z"/>
		<path class="st0" d="M17,103.1c0-0.4,0.1-0.9,0.1-1.3L9,93.7c-0.1,0.4-0.1,0.8-0.2,1.2L17,103.1z"/>
		<path class="st0" d="M16.8,105.9c0-0.4,0.1-0.9,0.1-1.3l-8.3-8.3c-0.1,0.4-0.1,0.8-0.2,1.2L16.8,105.9z"/>
		<path class="st0" d="M20.3,85.8c0.1-0.4,0.2-0.7,0.3-1.1l-7.3-7.3c-0.1,0.3-0.3,0.7-0.4,1L20.3,85.8z"/>
		<path class="st0" d="M14.1,75.3c-0.1,0.3-0.3,0.7-0.4,1l7.2,7.2c0-0.1,0.1-0.3,0.1-0.4c0.1-0.2,0.2-0.5,0.2-0.7L14.1,75.3z"/>
		<path class="st0" d="M21.7,81.3c0.1-0.4,0.2-0.7,0.4-1.1L15,73.2c-0.1,0.3-0.3,0.7-0.4,1L21.7,81.3z"/>
		<path class="st0" d="M22.5,79.1c0.1-0.3,0.3-0.7,0.4-1l-7-7c-0.1,0.3-0.3,0.7-0.4,1L22.5,79.1z"/>
		<path class="st0" d="M16.8,69.1c-0.1,0.3-0.3,0.7-0.4,1l7,7c0.1-0.2,0.2-0.4,0.2-0.6c0.1-0.1,0.1-0.3,0.2-0.4L16.8,69.1z"/>
		<path class="st0" d="M24.2,75c0.1-0.3,0.3-0.7,0.4-1l-6.9-6.9c-0.2,0.3-0.3,0.6-0.5,1L24.2,75z"/>
		<path class="st0" d="M19.7,63.2c-0.2,0.3-0.3,0.6-0.5,0.9l6.8,6.8c0.1-0.3,0.3-0.6,0.4-0.8c0,0,0-0.1,0.1-0.1L19.7,63.2z"/>
		<path class="st0" d="M25.1,72.9c0.1-0.3,0.3-0.6,0.5-1l-6.9-6.9c-0.2,0.3-0.3,0.6-0.5,0.9L25.1,72.9z"/>
		<path class="st0" d="M27,69c0.2-0.3,0.3-0.6,0.5-0.9l-6.8-6.8c-0.2,0.3-0.3,0.6-0.5,0.9L27,69z"/>
		<g>
			<polygon class="st0" points="95.3,132.9 95.3,133.9 96.3,133.9 			"/>
			<path class="st0" d="M28,67.1c0.2-0.3,0.3-0.6,0.5-0.9l-6.8-6.8c-0.2,0.3-0.4,0.6-0.5,0.9L28,67.1z"/>
		</g>
		<g>
			<polygon class="st0" points="99.2,133.9 95.3,130 95.3,131.4 97.8,133.9 			"/>
			<path class="st0" d="M29.1,65.2c0.2-0.3,0.3-0.6,0.5-0.9l-6.7-6.7c-0.2,0.3-0.4,0.6-0.5,0.9L29.1,65.2z"/>
		</g>
		<g>
			<path class="st0" d="M30.2,63.4c0.2-0.3,0.4-0.6,0.5-0.9l-6.7-6.7c-0.2,0.3-0.4,0.6-0.6,0.9L30.2,63.4z"/>
			<polygon class="st0" points="102.2,133.9 95.3,127 95.3,128.5 100.8,133.9 			"/>
		</g>
		<g>
			<path class="st0" d="M31.4,61.5c0.2-0.3,0.4-0.6,0.6-0.8L25.2,54c-0.2,0.3-0.4,0.6-0.6,0.8L31.4,61.5z"/>
			<polygon class="st0" points="105.1,133.9 95.3,124.1 95.3,125.5 103.7,133.9 			"/>
		</g>
		<g>
			<polygon class="st0" points="105.3,125.3 95.3,115.3 95.3,116.7 105.3,126.7 			"/>
			<path class="st0" d="M35,56.4c0.2-0.3,0.4-0.5,0.6-0.8l-6.7-6.7c-0.2,0.3-0.4,0.5-0.6,0.8L35,56.4z"/>
		</g>
		<g>
			<path class="st0" d="M33.8,58.1c0.2-0.3,0.4-0.5,0.6-0.8l-6.7-6.7c-0.2,0.3-0.4,0.5-0.6,0.8L33.8,58.1z"/>
			<polygon class="st0" points="105.3,128.2 95.3,118.2 95.3,119.6 105.3,129.6 			"/>
		</g>
		<g>
			<path class="st0" d="M32.5,59.8c0.2-0.3,0.4-0.6,0.6-0.8l-6.7-6.7c-0.2,0.3-0.4,0.6-0.6,0.8L32.5,59.8z"/>
			<polygon class="st0" points="105.3,131.2 95.3,121.2 95.3,122.6 105.3,132.6 			"/>
		</g>
		<g>
			<path class="st0" d="M36.3,54.7c0.2-0.3,0.4-0.5,0.6-0.8l-6.7-6.7c-0.2,0.3-0.4,0.5-0.6,0.8L36.3,54.7z"/>
			<polygon class="st0" points="105.3,122.3 95.3,112.3 95.3,113.7 105.3,123.7 			"/>
		</g>
		<g>
			<path class="st0" d="M114.7,105.3l-9.1-9.1c-0.3,0.1-0.7,0.3-1,0.4l8.8,8.8C113.9,105.3,114.3,105.3,114.7,105.3z"/>
			<path class="st0" d="M49.3,41.3c0.3-0.2,0.5-0.4,0.8-0.6l-6.9-6.9c-0.3,0.2-0.5,0.4-0.8,0.7L49.3,41.3z"/>
		</g>
		<g>
			<path class="st0" d="M47.7,42.6c0.3-0.2,0.5-0.4,0.7-0.7l-6.8-6.8c-0.2,0.2-0.5,0.5-0.7,0.7L47.7,42.6z"/>
			<path class="st0" d="M112.2,105.7l-8.6-8.6c-0.3,0.2-0.6,0.3-0.9,0.5l8.5,8.5C111.5,105.9,111.8,105.8,112.2,105.7z"/>
		</g>
		<g>
			<path class="st0" d="M46.2,44C46.2,44,46.2,44,46.2,44c0.3-0.3,0.5-0.5,0.7-0.7l-6.8-6.8c-0.2,0.2-0.5,0.5-0.7,0.7L46.2,44z"/>
			<path class="st0" d="M110.1,106.6l-8.4-8.4c-0.3,0.2-0.5,0.3-0.8,0.5c0,0,0,0-0.1,0.1l8.4,8.4
				C109.6,106.9,109.9,106.7,110.1,106.6z"/>
		</g>
		<g>
			<path class="st0" d="M44.7,45.4c0.2-0.2,0.5-0.5,0.7-0.7L38.6,38c-0.2,0.2-0.5,0.5-0.7,0.7L44.7,45.4z"/>
			<path class="st0" d="M100,99.4c-0.3,0.2-0.5,0.4-0.7,0.7l8.5,8.5c0.2-0.3,0.5-0.5,0.7-0.7L100,99.4z"/>
		</g>
		<g>
			<path class="st0" d="M37.2,39.4c-0.2,0.2-0.5,0.5-0.7,0.7l6.7,6.7c0.2-0.2,0.5-0.5,0.7-0.7L37.2,39.4z"/>
			<path class="st0" d="M107.1,109.4l-8.5-8.5c-0.2,0.3-0.4,0.5-0.6,0.8l8.6,8.6C106.7,109.9,106.9,109.7,107.1,109.4z"/>
		</g>
		<g>
			<path class="st0" d="M35,41.7l6.7,6.7c0.2-0.2,0.5-0.5,0.7-0.7l-6.7-6.7C35.5,41.2,35.3,41.4,35,41.7z"/>
			<path class="st0" d="M106,111.3l-8.7-8.7c-0.2,0.3-0.4,0.6-0.5,0.9l8.9,8.9C105.8,112,105.9,111.6,106,111.3z"/>
		</g>
		<g>
			<path class="st0" d="M96.3,104.5c-0.1,0.3-0.3,0.7-0.4,1l9.4,9.4v0c0-0.4,0-0.9,0.1-1.3L96.3,104.5z"/>
			<path class="st0" d="M33.6,43.2l6.7,6.7c0.2-0.2,0.4-0.5,0.7-0.7l-6.7-6.7C34.1,42.7,33.9,43,33.6,43.2z"/>
		</g>
		<g>
			<path class="st0" d="M32.3,44.8l6.7,6.7c0.2-0.3,0.4-0.5,0.7-0.8L32.9,44C32.7,44.3,32.5,44.5,32.3,44.8z"/>
			<path class="st0" d="M105.3,116.4l-9.8-9.8c-0.1,0.4-0.1,0.8-0.2,1.2l9.9,9.9V116.4z"/>
		</g>
		<g>
			<path class="st0" d="M30.9,46.4l6.7,6.7c0.2-0.3,0.4-0.5,0.6-0.8l-6.7-6.7C31.3,45.9,31.1,46.1,30.9,46.4z"/>
			<polygon class="st0" points="105.3,119.4 95.3,109.4 95.3,110.8 105.3,120.8 			"/>
		</g>
		<g>
			<polygon class="st0" points="117.7,90.6 116.3,90.6 131,105.2 132,105.2 132,104.9 			"/>
			<path class="st0" d="M59.5,33.8c0.3-0.2,0.6-0.4,0.9-0.5l-7.2-7.2c-0.3,0.2-0.6,0.4-0.8,0.6L59.5,33.8z"/>
		</g>
		<g>
			<path class="st0" d="M57.7,35c0.3-0.2,0.6-0.4,0.9-0.6l-7.1-7.1c-0.3,0.2-0.6,0.4-0.8,0.6L57.7,35z"/>
			<path class="st0" d="M129.4,105.2l-14.1-14.1c0,0.4-0.1,0.8-0.3,1.1l13,13H129.4z"/>
		</g>
		<g>
			<path class="st0" d="M56,36.2c0.2-0.1,0.3-0.2,0.5-0.4c0.1-0.1,0.2-0.1,0.3-0.2l-7.1-7.1c-0.3,0.2-0.5,0.4-0.8,0.6L56,36.2z"/>
			<path class="st0" d="M126.5,105.2l-12-12c-0.1,0.1-0.1,0.2-0.2,0.3c-0.1,0.1-0.2,0.2-0.3,0.3c0,0-0.1,0.1-0.1,0.1l11.2,11.2
				H126.5z"/>
		</g>
		<g>
			<path class="st0" d="M54.3,37.4c0.3-0.2,0.6-0.4,0.8-0.6l-7-7c-0.3,0.2-0.5,0.4-0.8,0.6L54.3,37.4z"/>
			<path class="st0" d="M123.5,105.2l-10.6-10.6c-0.3,0.2-0.6,0.3-1,0.4l10.2,10.2H123.5z"/>
		</g>
		<g>
			<path class="st0" d="M52.6,38.6c0.3-0.2,0.5-0.4,0.8-0.6l-7-7c-0.3,0.2-0.5,0.4-0.8,0.6L52.6,38.6z"/>
			<path class="st0" d="M120.6,105.2l-10-10c-0.4,0-0.9,0-1.3,0.1l9.9,9.9H120.6z"/>
		</g>
		<g>
			<path class="st0" d="M50.9,39.9c0.1-0.1,0.2-0.1,0.3-0.2c0.2-0.1,0.4-0.3,0.5-0.4l-6.9-6.9c-0.3,0.2-0.5,0.4-0.8,0.6L50.9,39.9z"
				/>
			<path class="st0" d="M117.7,105.2l-9.7-9.7c-0.3,0-0.5,0.1-0.8,0.1c-0.1,0-0.3,0.1-0.4,0.1l9.5,9.5H117.7z"/>
		</g>
		<path class="st0" d="M86.4,22.5c0.4-0.1,0.8-0.2,1.1-0.3l-8.7-8.7c-0.4,0.1-0.7,0.2-1.1,0.4L86.4,22.5z"/>
		<path class="st0" d="M84.1,23.1c0.4-0.1,0.7-0.2,1.1-0.3l-8.6-8.6c-0.3,0.1-0.7,0.3-1,0.4L84.1,23.1z"/>
		<path class="st0" d="M81.8,23.7c0.4-0.1,0.7-0.2,1.1-0.3L74.5,15c-0.3,0.1-0.7,0.3-1,0.4L81.8,23.7z"/>
		<path class="st0" d="M79.6,24.4c0.4-0.1,0.7-0.2,1.1-0.3l-8.3-8.3c-0.3,0.1-0.7,0.3-1,0.4L79.6,24.4z"/>
		<path class="st0" d="M77.4,25.2c0.3-0.1,0.7-0.2,1-0.4l-8.1-8.1c-0.3,0.1-0.7,0.3-1,0.4L77.4,25.2z"/>
		<path class="st0" d="M75.2,26c0.3-0.1,0.7-0.3,1-0.4l-8-8c-0.3,0.1-0.6,0.3-1,0.4L75.2,26z"/>
		<path class="st0" d="M73.1,26.8c0.3-0.1,0.7-0.3,1-0.4l-7.8-7.8c-0.3,0.2-0.6,0.3-1,0.5L73.1,26.8z"/>
		<path class="st0" d="M71.1,27.7c0.3-0.1,0.7-0.3,1-0.4l-7.7-7.7c-0.3,0.2-0.6,0.3-0.9,0.5L71.1,27.7z"/>
		<g>
			<polygon class="st0" points="132,91.6 132,90.6 131,90.6 			"/>
			<path class="st0" d="M61.5,21l7.6,7.6c0.3-0.2,0.6-0.3,1-0.4l-7.6-7.6C62.1,20.7,61.8,20.9,61.5,21z"/>
		</g>
		<g>
			<path class="st0" d="M67.1,29.6c0.3-0.2,0.6-0.3,0.9-0.5l-7.5-7.5c-0.3,0.2-0.6,0.3-0.9,0.5L67.1,29.6z"/>
			<polygon class="st0" points="132,93.1 129.5,90.6 128,90.6 132,94.5 			"/>
		</g>
		<g>
			<path class="st0" d="M65.1,30.6c0.3-0.2,0.6-0.3,0.9-0.5l-7.4-7.4c-0.3,0.2-0.6,0.4-0.9,0.5L65.1,30.6z"/>
			<polygon class="st0" points="132,96.1 126.5,90.6 125.1,90.6 132,97.5 			"/>
		</g>
		<g>
			<path class="st0" d="M63.2,31.6c0.3-0.2,0.6-0.3,0.9-0.5l-7.4-7.4c-0.3,0.2-0.6,0.4-0.9,0.5L63.2,31.6z"/>
			<polygon class="st0" points="132,99 123.6,90.6 122.2,90.6 132,100.4 			"/>
		</g>
		<g>
			<path class="st0" d="M61.4,32.7c0.3-0.2,0.5-0.3,0.8-0.5c0,0,0.1,0,0.1-0.1L55,24.9c-0.3,0.2-0.6,0.4-0.9,0.6L61.4,32.7z"/>
			<polygon class="st0" points="132,101.9 120.6,90.6 119.2,90.6 132,103.3 			"/>
		</g>
		<path class="st0" d="M90.4,10.4c-0.4,0.1-0.8,0.2-1.2,0.3l9.7,9.7c0.4,0,0.9-0.1,1.3-0.1L90.4,10.4z"/>
		<path class="st0" d="M88,10.9c-0.4,0.1-0.8,0.2-1.1,0.3l9.5,9.5c0,0,0.1,0,0.1,0c0.4,0,0.8-0.1,1.2-0.1L88,10.9z"/>
		<path class="st0" d="M93.8,21c0.4-0.1,0.8-0.1,1.2-0.2l-9.4-9.4c-0.4,0.1-0.7,0.2-1.1,0.3L93.8,21z"/>
		<path class="st0" d="M91.3,21.4c0.4-0.1,0.8-0.2,1.2-0.2l-9.1-9.1c-0.4,0.1-0.7,0.2-1.1,0.3L91.3,21.4z"/>
		<path class="st0" d="M88.8,21.9c0.4-0.1,0.8-0.2,1.2-0.2l-8.9-8.9c-0.4,0.1-0.7,0.2-1.1,0.3L88.8,21.9z"/>
		<polygon class="st0" points="132,18.3 132,16.8 123.4,8.2 122,8.2 		"/>
		<polygon class="st0" points="132,15.3 132,13.9 126.3,8.2 124.9,8.2 		"/>
		<polygon class="st0" points="132,12.4 132,11 129.2,8.2 127.8,8.2 		"/>
		<path class="st0" d="M106,8.4c-0.4,0-0.9,0.1-1.3,0.1l18.8,18.8h1.4L106,8.4z"/>
		<path class="st0" d="M108.8,8.3c-0.5,0-0.9,0-1.4,0l18.9,18.9h1.4L108.8,8.3z"/>
		<path class="st0" d="M111.7,8.2h-0.2c-0.4,0-0.8,0-1.2,0l19,19h1.4L111.7,8.2z"/>
		<polygon class="st0" points="132,25.6 114.6,8.2 113.2,8.2 132,27 		"/>
		<polygon class="st0" points="132,24.1 132,22.7 117.6,8.2 116.1,8.2 		"/>
		<polygon class="st0" points="132,21.2 132,19.8 120.5,8.2 119.1,8.2 		"/>
		<path class="st0" d="M95.4,9.5c-0.4,0.1-0.8,0.1-1.2,0.2L104.5,20c0.2,0,0.3,0,0.5,0c0.3,0,0.6,0,0.9,0L95.4,9.5z"/>
		<path class="st0" d="M92.9,9.9c-0.4,0.1-0.8,0.2-1.2,0.2l10,10c0.4,0,0.9,0,1.3-0.1L92.9,9.9z"/>
		<path class="st0" d="M95.4,9.5c-0.4,0.1-0.8,0.1-1.2,0.2L104.5,20c0.2,0,0.3,0,0.5,0c0.3,0,0.6,0,0.9,0L95.4,9.5z"/>
		<g>
			<path class="st0" d="M108.8,19.9L98,9.1c-0.4,0.1-0.8,0.1-1.2,0.2l10.6,10.6c0.2,0,0.4,0,0.6,0C108.3,19.9,108.5,19.9,108.8,19.9
				z"/>
			<path class="st0" d="M115.3,26.4c0,0.3,0,0.5,0,0.8h0.8L115.3,26.4z"/>
		</g>
		<path class="st0" d="M100.6,8.8c-0.4,0-0.8,0.1-1.3,0.1l11.5,11.5c0.9,0.4,1.7,0.9,2.3,1.6c0.7,0.7,1.2,1.5,1.6,2.3l2.9,2.9h1.4
			L100.6,8.8z"/>
		<path class="st0" d="M103.3,8.6c-0.2,0-0.3,0-0.5,0c-0.3,0-0.6,0.1-0.8,0.1l18.6,18.6h1.4L103.3,8.6z"/>
	</g>
	<g>
		<polygon class="st0" points="7.3,128.7 12.5,133.9 13.9,133.9 7.3,127.3 		"/>
		<polygon class="st0" points="7.3,125.8 15.5,133.9 16.7,133.9 16.7,133.7 7.3,124.4 		"/>
		<polygon class="st0" points="7.3,122.8 16.7,132.2 16.7,130.7 7.3,121.4 		"/>
		<polygon class="st0" points="7.3,119.9 16.7,129.2 16.7,127.8 7.3,118.5 		"/>
		<polygon class="st0" points="7.3,116.9 16.7,126.3 16.7,124.9 7.3,115.5 		"/>
		<polygon class="st0" points="7.3,114 16.7,123.3 16.7,121.9 7.3,112.6 		"/>
		<path class="st0" d="M7.3,111.1l9.3,9.3V119l-9.3-9.3C7.4,110.1,7.4,110.6,7.3,111.1z"/>
		<path class="st0" d="M7.4,108.2l9.2,9.2V116l-9.2-9.2C7.5,107.3,7.4,107.8,7.4,108.2z"/>
		<path class="st0" d="M7.6,105.4l9.1,9.1v-1.4l-9-9C7.6,104.5,7.6,105,7.6,105.4z"/>
		<path class="st0" d="M7.9,101.4c0,0.4-0.1,0.9-0.1,1.3l8.9,8.9v-0.3c0-0.4,0-0.7,0-1.1L7.9,101.4z"/>
		<path class="st0" d="M16.7,108.7c0-0.5,0-0.9,0.1-1.4l-8.5-8.5c-0.1,0.4-0.1,0.8-0.2,1.3L16.7,108.7z"/>
		<path class="st0" d="M19.6,88.1c0.1-0.4,0.2-0.8,0.3-1.1l-7.3-7.3c-0.1,0.4-0.2,0.7-0.4,1.1L19.6,88.1z"/>
		<path class="st0" d="M11.9,81.8c-0.1,0.4-0.2,0.7-0.3,1.1l7.5,7.5c0,0,0-0.1,0-0.1c0.1-0.3,0.2-0.7,0.3-1L11.9,81.8z"/>
		<path class="st0" d="M18.5,92.8c0.1-0.4,0.2-0.8,0.2-1.2l-7.6-7.6c-0.1,0.4-0.2,0.7-0.3,1.1L18.5,92.8z"/>
		<path class="st0" d="M18.1,95.3c0.1-0.4,0.1-0.8,0.2-1.2l-7.7-7.7c-0.1,0.4-0.2,0.7-0.3,1.1L18.1,95.3z"/>
		<path class="st0" d="M17.6,97.8c0.1-0.4,0.1-0.8,0.2-1.2L10,88.8c-0.1,0.4-0.2,0.8-0.3,1.1L17.6,97.8z"/>
		<path class="st0" d="M17.3,100.5c0-0.4,0.1-0.8,0.2-1.3l-8-8c-0.1,0.4-0.2,0.8-0.2,1.2L17.3,100.5z"/>
		<path class="st0" d="M17,103.1c0-0.4,0.1-0.9,0.1-1.3L9,93.7c-0.1,0.4-0.1,0.8-0.2,1.2L17,103.1z"/>
		<path class="st0" d="M16.8,105.9c0-0.4,0.1-0.9,0.1-1.3l-8.3-8.3c-0.1,0.4-0.1,0.8-0.2,1.2L16.8,105.9z"/>
		<path class="st0" d="M20.3,85.8c0.1-0.4,0.2-0.7,0.3-1.1l-7.3-7.3c-0.1,0.3-0.3,0.7-0.4,1L20.3,85.8z"/>
		<path class="st0" d="M14.1,75.3c-0.1,0.3-0.3,0.7-0.4,1l7.2,7.2c0-0.1,0.1-0.3,0.1-0.4c0.1-0.2,0.2-0.5,0.2-0.7L14.1,75.3z"/>
		<path class="st0" d="M21.7,81.3c0.1-0.4,0.2-0.7,0.4-1.1L15,73.2c-0.1,0.3-0.3,0.7-0.4,1L21.7,81.3z"/>
		<path class="st0" d="M22.5,79.1c0.1-0.3,0.3-0.7,0.4-1l-7-7c-0.1,0.3-0.3,0.7-0.4,1L22.5,79.1z"/>
		<path class="st0" d="M16.8,69.1c-0.1,0.3-0.3,0.7-0.4,1l7,7c0.1-0.2,0.2-0.4,0.2-0.6c0.1-0.1,0.1-0.3,0.2-0.4L16.8,69.1z"/>
		<path class="st0" d="M24.2,75c0.1-0.3,0.3-0.7,0.4-1l-6.9-6.9c-0.2,0.3-0.3,0.6-0.5,1L24.2,75z"/>
		<path class="st0" d="M19.7,63.2c-0.2,0.3-0.3,0.6-0.5,0.9l6.8,6.8c0.1-0.3,0.3-0.6,0.4-0.8c0,0,0-0.1,0.1-0.1L19.7,63.2z"/>
		<path class="st0" d="M25.1,72.9c0.1-0.3,0.3-0.6,0.5-1l-6.9-6.9c-0.2,0.3-0.3,0.6-0.5,0.9L25.1,72.9z"/>
		<path class="st0" d="M27,69c0.2-0.3,0.3-0.6,0.5-0.9l-6.8-6.8c-0.2,0.3-0.3,0.6-0.5,0.9L27,69z"/>
		<g>
			<polygon class="st0" points="95.3,132.9 95.3,133.9 96.3,133.9 			"/>
			<path class="st0" d="M28,67.1c0.2-0.3,0.3-0.6,0.5-0.9l-6.8-6.8c-0.2,0.3-0.4,0.6-0.5,0.9L28,67.1z"/>
		</g>
		<g>
			<polygon class="st0" points="99.2,133.9 95.3,130 95.3,131.4 97.8,133.9 			"/>
			<path class="st0" d="M29.1,65.2c0.2-0.3,0.3-0.6,0.5-0.9l-6.7-6.7c-0.2,0.3-0.4,0.6-0.5,0.9L29.1,65.2z"/>
		</g>
		<g>
			<path class="st0" d="M30.2,63.4c0.2-0.3,0.4-0.6,0.5-0.9l-6.7-6.7c-0.2,0.3-0.4,0.6-0.6,0.9L30.2,63.4z"/>
			<polygon class="st0" points="102.2,133.9 95.3,127 95.3,128.5 100.8,133.9 			"/>
		</g>
		<g>
			<path class="st0" d="M31.4,61.5c0.2-0.3,0.4-0.6,0.6-0.8L25.2,54c-0.2,0.3-0.4,0.6-0.6,0.8L31.4,61.5z"/>
			<polygon class="st0" points="105.1,133.9 95.3,124.1 95.3,125.5 103.7,133.9 			"/>
		</g>
		<g>
			<polygon class="st0" points="105.3,125.3 95.3,115.3 95.3,116.7 105.3,126.7 			"/>
			<path class="st0" d="M35,56.4c0.2-0.3,0.4-0.5,0.6-0.8l-6.7-6.7c-0.2,0.3-0.4,0.5-0.6,0.8L35,56.4z"/>
		</g>
		<g>
			<path class="st0" d="M33.8,58.1c0.2-0.3,0.4-0.5,0.6-0.8l-6.7-6.7c-0.2,0.3-0.4,0.5-0.6,0.8L33.8,58.1z"/>
			<polygon class="st0" points="105.3,128.2 95.3,118.2 95.3,119.6 105.3,129.6 			"/>
		</g>
		<g>
			<path class="st0" d="M32.5,59.8c0.2-0.3,0.4-0.6,0.6-0.8l-6.7-6.7c-0.2,0.3-0.4,0.6-0.6,0.8L32.5,59.8z"/>
			<polygon class="st0" points="105.3,131.2 95.3,121.2 95.3,122.6 105.3,132.6 			"/>
		</g>
		<g>
			<path class="st0" d="M36.3,54.7c0.2-0.3,0.4-0.5,0.6-0.8l-6.7-6.7c-0.2,0.3-0.4,0.5-0.6,0.8L36.3,54.7z"/>
			<polygon class="st0" points="105.3,122.3 95.3,112.3 95.3,113.7 105.3,123.7 			"/>
		</g>
		<g>
			<path class="st0" d="M114.7,105.3l-9.1-9.1c-0.3,0.1-0.7,0.3-1,0.4l8.8,8.8C113.9,105.3,114.3,105.3,114.7,105.3z"/>
			<path class="st0" d="M49.3,41.3c0.3-0.2,0.5-0.4,0.8-0.6l-6.9-6.9c-0.3,0.2-0.5,0.4-0.8,0.7L49.3,41.3z"/>
		</g>
		<g>
			<path class="st0" d="M47.7,42.6c0.3-0.2,0.5-0.4,0.7-0.7l-6.8-6.8c-0.2,0.2-0.5,0.5-0.7,0.7L47.7,42.6z"/>
			<path class="st0" d="M112.2,105.7l-8.6-8.6c-0.3,0.2-0.6,0.3-0.9,0.5l8.5,8.5C111.5,105.9,111.8,105.8,112.2,105.7z"/>
		</g>
		<g>
			<path class="st0" d="M46.2,44C46.2,44,46.2,44,46.2,44c0.3-0.3,0.5-0.5,0.7-0.7l-6.8-6.8c-0.2,0.2-0.5,0.5-0.7,0.7L46.2,44z"/>
			<path class="st0" d="M110.1,106.6l-8.4-8.4c-0.3,0.2-0.5,0.3-0.8,0.5c0,0,0,0-0.1,0.1l8.4,8.4
				C109.6,106.9,109.9,106.7,110.1,106.6z"/>
		</g>
		<g>
			<path class="st0" d="M44.7,45.4c0.2-0.2,0.5-0.5,0.7-0.7L38.6,38c-0.2,0.2-0.5,0.5-0.7,0.7L44.7,45.4z"/>
			<path class="st0" d="M100,99.4c-0.3,0.2-0.5,0.4-0.7,0.7l8.5,8.5c0.2-0.3,0.5-0.5,0.7-0.7L100,99.4z"/>
		</g>
		<g>
			<path class="st0" d="M37.2,39.4c-0.2,0.2-0.5,0.5-0.7,0.7l6.7,6.7c0.2-0.2,0.5-0.5,0.7-0.7L37.2,39.4z"/>
			<path class="st0" d="M107.1,109.4l-8.5-8.5c-0.2,0.3-0.4,0.5-0.6,0.8l8.6,8.6C106.7,109.9,106.9,109.7,107.1,109.4z"/>
		</g>
		<g>
			<path class="st0" d="M35,41.7l6.7,6.7c0.2-0.2,0.5-0.5,0.7-0.7l-6.7-6.7C35.5,41.2,35.3,41.4,35,41.7z"/>
			<path class="st0" d="M106,111.3l-8.7-8.7c-0.2,0.3-0.4,0.6-0.5,0.9l8.9,8.9C105.8,112,105.9,111.6,106,111.3z"/>
		</g>
		<g>
			<path class="st0" d="M96.3,104.5c-0.1,0.3-0.3,0.7-0.4,1l9.4,9.4v0c0-0.4,0-0.9,0.1-1.3L96.3,104.5z"/>
			<path class="st0" d="M33.6,43.2l6.7,6.7c0.2-0.2,0.4-0.5,0.7-0.7l-6.7-6.7C34.1,42.7,33.9,43,33.6,43.2z"/>
		</g>
		<g>
			<path class="st0" d="M32.3,44.8l6.7,6.7c0.2-0.3,0.4-0.5,0.7-0.8L32.9,44C32.7,44.3,32.5,44.5,32.3,44.8z"/>
			<path class="st0" d="M105.3,116.4l-9.8-9.8c-0.1,0.4-0.1,0.8-0.2,1.2l9.9,9.9V116.4z"/>
		</g>
		<g>
			<path class="st0" d="M30.9,46.4l6.7,6.7c0.2-0.3,0.4-0.5,0.6-0.8l-6.7-6.7C31.3,45.9,31.1,46.1,30.9,46.4z"/>
			<polygon class="st0" points="105.3,119.4 95.3,109.4 95.3,110.8 105.3,120.8 			"/>
		</g>
		<g>
			<polygon class="st0" points="117.7,90.6 116.3,90.6 131,105.2 132,105.2 132,104.9 			"/>
			<path class="st0" d="M59.5,33.8c0.3-0.2,0.6-0.4,0.9-0.5l-7.2-7.2c-0.3,0.2-0.6,0.4-0.8,0.6L59.5,33.8z"/>
		</g>
		<g>
			<path class="st0" d="M57.7,35c0.3-0.2,0.6-0.4,0.9-0.6l-7.1-7.1c-0.3,0.2-0.6,0.4-0.8,0.6L57.7,35z"/>
			<path class="st0" d="M129.4,105.2l-14.1-14.1c0,0.4-0.1,0.8-0.3,1.1l13,13H129.4z"/>
		</g>
		<g>
			<path class="st0" d="M56,36.2c0.2-0.1,0.3-0.2,0.5-0.4c0.1-0.1,0.2-0.1,0.3-0.2l-7.1-7.1c-0.3,0.2-0.5,0.4-0.8,0.6L56,36.2z"/>
			<path class="st0" d="M126.5,105.2l-12-12c-0.1,0.1-0.1,0.2-0.2,0.3c-0.1,0.1-0.2,0.2-0.3,0.3c0,0-0.1,0.1-0.1,0.1l11.2,11.2
				H126.5z"/>
		</g>
		<g>
			<path class="st0" d="M54.3,37.4c0.3-0.2,0.6-0.4,0.8-0.6l-7-7c-0.3,0.2-0.5,0.4-0.8,0.6L54.3,37.4z"/>
			<path class="st0" d="M123.5,105.2l-10.6-10.6c-0.3,0.2-0.6,0.3-1,0.4l10.2,10.2H123.5z"/>
		</g>
		<g>
			<path class="st0" d="M52.6,38.6c0.3-0.2,0.5-0.4,0.8-0.6l-7-7c-0.3,0.2-0.5,0.4-0.8,0.6L52.6,38.6z"/>
			<path class="st0" d="M120.6,105.2l-10-10c-0.4,0-0.9,0-1.3,0.1l9.9,9.9H120.6z"/>
		</g>
		<g>
			<path class="st0" d="M50.9,39.9c0.1-0.1,0.2-0.1,0.3-0.2c0.2-0.1,0.4-0.3,0.5-0.4l-6.9-6.9c-0.3,0.2-0.5,0.4-0.8,0.6L50.9,39.9z"
				/>
			<path class="st0" d="M117.7,105.2l-9.7-9.7c-0.3,0-0.5,0.1-0.8,0.1c-0.1,0-0.3,0.1-0.4,0.1l9.5,9.5H117.7z"/>
		</g>
		<path class="st0" d="M86.4,22.5c0.4-0.1,0.8-0.2,1.1-0.3l-8.7-8.7c-0.4,0.1-0.7,0.2-1.1,0.4L86.4,22.5z"/>
		<path class="st0" d="M84.1,23.1c0.4-0.1,0.7-0.2,1.1-0.3l-8.6-8.6c-0.3,0.1-0.7,0.3-1,0.4L84.1,23.1z"/>
		<path class="st0" d="M81.8,23.7c0.4-0.1,0.7-0.2,1.1-0.3L74.5,15c-0.3,0.1-0.7,0.3-1,0.4L81.8,23.7z"/>
		<path class="st0" d="M79.6,24.4c0.4-0.1,0.7-0.2,1.1-0.3l-8.3-8.3c-0.3,0.1-0.7,0.3-1,0.4L79.6,24.4z"/>
		<path class="st0" d="M77.4,25.2c0.3-0.1,0.7-0.2,1-0.4l-8.1-8.1c-0.3,0.1-0.7,0.3-1,0.4L77.4,25.2z"/>
		<path class="st0" d="M75.2,26c0.3-0.1,0.7-0.3,1-0.4l-8-8c-0.3,0.1-0.6,0.3-1,0.4L75.2,26z"/>
		<path class="st0" d="M73.1,26.8c0.3-0.1,0.7-0.3,1-0.4l-7.8-7.8c-0.3,0.2-0.6,0.3-1,0.5L73.1,26.8z"/>
		<path class="st0" d="M71.1,27.7c0.3-0.1,0.7-0.3,1-0.4l-7.7-7.7c-0.3,0.2-0.6,0.3-0.9,0.5L71.1,27.7z"/>
		<g>
			<polygon class="st0" points="132,91.6 132,90.6 131,90.6 			"/>
			<path class="st0" d="M61.5,21l7.6,7.6c0.3-0.2,0.6-0.3,1-0.4l-7.6-7.6C62.1,20.7,61.8,20.9,61.5,21z"/>
		</g>
		<g>
			<path class="st0" d="M67.1,29.6c0.3-0.2,0.6-0.3,0.9-0.5l-7.5-7.5c-0.3,0.2-0.6,0.3-0.9,0.5L67.1,29.6z"/>
			<polygon class="st0" points="132,93.1 129.5,90.6 128,90.6 132,94.5 			"/>
		</g>
		<g>
			<path class="st0" d="M65.1,30.6c0.3-0.2,0.6-0.3,0.9-0.5l-7.4-7.4c-0.3,0.2-0.6,0.4-0.9,0.5L65.1,30.6z"/>
			<polygon class="st0" points="132,96.1 126.5,90.6 125.1,90.6 132,97.5 			"/>
		</g>
		<g>
			<path class="st0" d="M63.2,31.6c0.3-0.2,0.6-0.3,0.9-0.5l-7.4-7.4c-0.3,0.2-0.6,0.4-0.9,0.5L63.2,31.6z"/>
			<polygon class="st0" points="132,99 123.6,90.6 122.2,90.6 132,100.4 			"/>
		</g>
		<g>
			<path class="st0" d="M61.4,32.7c0.3-0.2,0.5-0.3,0.8-0.5c0,0,0.1,0,0.1-0.1L55,24.9c-0.3,0.2-0.6,0.4-0.9,0.6L61.4,32.7z"/>
			<polygon class="st0" points="132,101.9 120.6,90.6 119.2,90.6 132,103.3 			"/>
		</g>
		<path class="st0" d="M90.4,10.4c-0.4,0.1-0.8,0.2-1.2,0.3l9.7,9.7c0.4,0,0.9-0.1,1.3-0.1L90.4,10.4z"/>
		<path class="st0" d="M88,10.9c-0.4,0.1-0.8,0.2-1.1,0.3l9.5,9.5c0,0,0.1,0,0.1,0c0.4,0,0.8-0.1,1.2-0.1L88,10.9z"/>
		<path class="st0" d="M93.8,21c0.4-0.1,0.8-0.1,1.2-0.2l-9.4-9.4c-0.4,0.1-0.7,0.2-1.1,0.3L93.8,21z"/>
		<path class="st0" d="M91.3,21.4c0.4-0.1,0.8-0.2,1.2-0.2l-9.1-9.1c-0.4,0.1-0.7,0.2-1.1,0.3L91.3,21.4z"/>
		<path class="st0" d="M88.8,21.9c0.4-0.1,0.8-0.2,1.2-0.2l-8.9-8.9c-0.4,0.1-0.7,0.2-1.1,0.3L88.8,21.9z"/>
		<polygon class="st0" points="132,18.3 132,16.8 123.4,8.2 122,8.2 		"/>
		<polygon class="st0" points="132,15.3 132,13.9 126.3,8.2 124.9,8.2 		"/>
		<polygon class="st0" points="132,12.4 132,11 129.2,8.2 127.8,8.2 		"/>
		<path class="st0" d="M106,8.4c-0.4,0-0.9,0.1-1.3,0.1l18.8,18.8h1.4L106,8.4z"/>
		<path class="st0" d="M108.8,8.3c-0.5,0-0.9,0-1.4,0l18.9,18.9h1.4L108.8,8.3z"/>
		<path class="st0" d="M111.7,8.2h-0.2c-0.4,0-0.8,0-1.2,0l19,19h1.4L111.7,8.2z"/>
		<polygon class="st0" points="132,25.6 114.6,8.2 113.2,8.2 132,27 		"/>
		<polygon class="st0" points="132,24.1 132,22.7 117.6,8.2 116.1,8.2 		"/>
		<polygon class="st0" points="132,21.2 132,19.8 120.5,8.2 119.1,8.2 		"/>
		<path class="st0" d="M95.4,9.5c-0.4,0.1-0.8,0.1-1.2,0.2L104.5,20c0.2,0,0.3,0,0.5,0c0.3,0,0.6,0,0.9,0L95.4,9.5z"/>
		<path class="st0" d="M92.9,9.9c-0.4,0.1-0.8,0.2-1.2,0.2l10,10c0.4,0,0.9,0,1.3-0.1L92.9,9.9z"/>
		<path class="st0" d="M95.4,9.5c-0.4,0.1-0.8,0.1-1.2,0.2L104.5,20c0.2,0,0.3,0,0.5,0c0.3,0,0.6,0,0.9,0L95.4,9.5z"/>
		<g>
			<path class="st0" d="M108.8,19.9L98,9.1c-0.4,0.1-0.8,0.1-1.2,0.2l10.6,10.6c0.2,0,0.4,0,0.6,0C108.3,19.9,108.5,19.9,108.8,19.9
				z"/>
			<path class="st0" d="M115.3,26.4c0,0.3,0,0.5,0,0.8h0.8L115.3,26.4z"/>
		</g>
		<path class="st0" d="M100.6,8.8c-0.4,0-0.8,0.1-1.3,0.1l11.5,11.5c0.9,0.4,1.7,0.9,2.3,1.6c0.7,0.7,1.2,1.5,1.6,2.3l2.9,2.9h1.4
			L100.6,8.8z"/>
		<path class="st0" d="M103.3,8.6c-0.2,0-0.3,0-0.5,0c-0.3,0-0.6,0.1-0.8,0.1l18.6,18.6h1.4L103.3,8.6z"/>
	</g>
</g>
<g>
	<g>
		<rect x="129.3" y="90.1" transform="matrix(0.707 -0.7073 0.7073 0.707 -26.5492 119.4177)" class="st0" width="3" height="3.3"/>
	</g>
	<g>
		<path class="st0" d="M107.3,135.9h-14v-27c0-2.2,0.5-4.3,1.6-6.3c0.9-1.8,2.3-3.5,4-4.9c0.3-0.2,0.6-0.5,0.9-0.7
			c2-1.6,4.4-2.7,6.9-3.3c1.3-0.3,2.7-0.5,4-0.5c0.7,0,1.4-0.3,1.9-0.8l0.2-0.2c0.4-0.5,0.6-1.1,0.6-1.7v-2H134v18.7h-19
			c-4.2,0-7.7,3.4-7.7,7.7C107.3,114.9,107.3,135.9,107.3,135.9z M97.3,131.9h6v-17c0-6.4,5.2-11.7,11.7-11.7h15V92.6h-13
			c-0.3,0.8-0.7,1.6-1.2,2.2c-0.1,0.2-0.3,0.3-0.4,0.5c-1.3,1.3-2.9,2-4.7,2c-1,0-2,0.1-3,0.4c-2,0.5-3.9,1.4-5.5,2.6
			c-0.3,0.2-0.5,0.4-0.7,0.5c-1.3,1.1-2.3,2.4-3,3.7c-0.8,1.4-1.1,2.9-1.1,4.4L97.3,131.9L97.3,131.9z M18.7,135.9H5.3v-23.5
			c0-26.8,10-52.4,28.2-72.1C51.7,20.8,76.2,8.8,102.7,6.6c2.9-0.2,5.9-0.4,8.8-0.4H134v23h-20.7v-2c0-1.4-0.6-2.8-1.6-3.8
			c-1-1-2.3-1.6-3.8-1.6c-1,0-2,0-2.9,0.1c-2.7,0.1-5.5,0.3-8.4,0.6c-2.6,0.3-5.2,0.8-7.7,1.3c-2.5,0.5-4.8,1.2-7.1,1.9
			c-2.3,0.7-4.5,1.5-6.7,2.3c-2.1,0.8-4.2,1.7-6.3,2.8c-2,1-4,2-5.8,3.1c-1.9,1.1-3.7,2.2-5.5,3.5c-1.7,1.2-3.5,2.5-5.2,3.8
			c-1.7,1.3-3.3,2.7-4.8,4.1c-1.6,1.5-3.1,3-4.5,4.5c-1.4,1.5-2.8,3.1-4.2,4.8c-1.3,1.6-2.6,3.3-3.9,5.1c-1.2,1.7-2.4,3.6-3.5,5.4
			c-1.1,1.9-2.2,3.8-3.2,5.8c-1.1,2.1-2,4.2-2.8,6.2c-0.9,2.1-1.7,4.3-2.4,6.6c-0.7,2.3-1.4,4.7-2,7c-0.6,2.5-1.1,5-1.4,7.6
			c-0.4,2.8-0.7,5.5-0.8,8.2c-0.1,1.5-0.1,3.1-0.1,4.7L18.7,135.9L18.7,135.9z M9.3,131.9h5.3v-20.7c0-1.7,0-3.3,0.1-4.9
			c0.1-2.8,0.4-5.7,0.8-8.5c0.4-2.6,0.9-5.3,1.5-7.9c0.6-2.5,1.3-5,2.1-7.4c0.8-2.4,1.6-4.7,2.5-6.9c0.8-2.1,1.8-4.2,2.9-6.4
			c1-2.1,2.2-4.1,3.4-6.1c1.2-2,2.4-3.9,3.7-5.7c1.3-1.9,2.7-3.6,4.1-5.3c1.4-1.8,2.9-3.4,4.4-5c1.5-1.6,3.1-3.1,4.7-4.7
			c1.6-1.5,3.3-2.9,5.1-4.3c1.8-1.4,3.6-2.8,5.4-4c1.9-1.3,3.8-2.5,5.8-3.6c2-1.2,4-2.3,6.1-3.3c2.2-1,4.4-2,6.5-2.9
			c2.3-0.9,4.6-1.7,7-2.4c2.4-0.7,4.9-1.4,7.4-1.9c2.6-0.6,5.3-1,8-1.4c3-0.4,5.9-0.6,8.7-0.7c1,0,2-0.1,3.1-0.1
			c2.5,0,4.8,1,6.6,2.7c1.3,1.3,2.1,2.9,2.5,4.6H130v-15h-18.5c-2.9,0-5.7,0.1-8.5,0.4c-52.5,4.3-93.7,49-93.7,101.8V131.9z"/>
	</g>
</g>
</svg>
