<?xml version="1.0" encoding="iso-8859-1"?>
<!-- Generator: Adobe Illustrator 22.0.1, SVG Export Plug-In . SVG Version: 6.00 Build 0)  -->
<svg version="1.1" id="&#x421;&#x43B;&#x43E;&#x439;_1"
	 xmlns="http://www.w3.org/2000/svg" xmlns:xlink="http://www.w3.org/1999/xlink" x="0px" y="0px" viewBox="0 0 180.6 73.097"
	 style="enable-background:new 0 0 180.6 73.097;" xml:space="preserve">
<path style="fill:#445F87;" d="M180.6,30.834c0-8.038-4.393-14.334-10-14.334c-0.087,0-0.172,0.015-0.259,0.018l0-0.002
	l-0.026,0.003c-0.443,0.017-0.876,0.076-1.301,0.17l-14.57,1.9C150.702,7.406,142.125,0,132.665,0c-0.503,0-1.001,0.02-1.496,0.059
	l-0.006-0.041L43.186,12.051c-11.466,0.084-20.934,10.546-23.134,24.697l-10.2,1.408C4.315,38.265,0,44.521,0,52.488
	c0,8.038,4.393,14.334,10,14.334h0.134l30.633-4.13v10.406l95.417-11.818v0.549l2.657-0.924c5.768-2.005,10.664-6.718,13.871-13.307
	l18.155-2.448l0-0.001C176.345,44.95,180.6,38.742,180.6,30.834z M4,52.488c0-5.601,2.748-10.333,6-10.333l9.626-1.314
	c-0.022,0.412-0.042,0.825-0.052,1.242l-0.054,2.341l0.999-0.135l11.479,2.744l92.431-12.419l-0.261-1.978
	c-0.13-0.99-0.193-1.92-0.193-2.844c0-1.108,0.086-2.185,0.24-3.226l21.079-2.749l10.306-1.344l0,0l7.353-0.959
	c-1.471,2.49-2.352,5.728-2.352,9.32c0,4.563,1.418,8.561,3.669,11.168L9.881,62.82C6.681,62.707,4,58.021,4,52.488z
	 M141.841,20.233l-16.549,2.158c1.739-4.556,5.023-7.642,8.787-7.642C137.094,14.749,139.929,16.8,141.841,20.233z M110.797,32.112
	l0.774,0.193L32.203,42.968l-0.685-0.163L110.797,32.112z M146.048,19.685c-2.555-5.552-7.034-8.936-11.969-8.936
	c-7.777,0-14.104,8.542-14.104,19.043c0,0.162,0.011,0.33,0.014,0.494l-7.002-1.75C113.905,14.868,122.495,4,132.665,4
	c7.519,0,14.441,5.985,17.744,15.116L146.048,19.685z M43.462,16.05l75.339-10.304c-5.487,5.109-9.213,13.208-9.814,22.574
	L23.704,39.823c1.181-13.308,9.643-23.772,19.622-23.772H43.462z M164.6,30.834c0-5.077,2.26-9.428,5.104-10.2l0.973-0.127
	c3.218,0.075,5.922,4.77,5.922,10.327c0,5.601-2.748,10.333-6,10.333S164.6,36.436,164.6,30.834z M44.767,62.152l91.417-12.326
	v7.424L44.767,68.572V62.152z M140.184,55.913V49.38l7.516-0.964C145.657,51.683,143.063,54.271,140.184,55.913z"/>
</svg>
