<?xml version="1.0" encoding="iso-8859-1"?>
<!-- Generator: Adobe Illustrator 22.0.1, SVG Export Plug-In . SVG Version: 6.00 Build 0)  -->
<svg version="1.1" id="&#x421;&#x43B;&#x43E;&#x439;_1"
	 xmlns="http://www.w3.org/2000/svg" xmlns:xlink="http://www.w3.org/1999/xlink" x="0px" y="0px" viewBox="0 0 159.809 159.801"
	 style="enable-background:new 0 0 159.809 159.801;" xml:space="preserve">
<g>
	<path style="fill:#445F87;" d="M79.901,11.316c-37.818,0-68.585,30.767-68.585,68.585c0,37.818,30.767,68.585,68.585,68.585
		c37.818,0,68.585-30.767,68.585-68.585C148.485,42.083,117.719,11.316,79.901,11.316z M79.901,145.485
		c-36.164,0-65.585-29.421-65.585-65.585c0-36.164,29.421-65.585,65.585-65.585c36.164,0,65.585,29.421,65.585,65.585
		C145.485,116.065,116.065,145.485,79.901,145.485z"/>
	<path style="fill:#445F87;" d="M157.777,81.948c-0.547-0.547-0.848-1.274-0.848-2.048s0.301-1.501,0.859-2.06
		c1.459-1.46,2.184-3.485,1.989-5.554c-1.507-15.999-7.734-31.028-18.011-43.463c-1.333-1.613-3.282-2.538-5.355-2.538
		c-1.597,0-2.896-1.3-2.896-2.904c0-2.065-0.925-4.015-2.537-5.349C118.554,7.763,103.522,1.538,87.506,0.031
		c-2.048-0.192-4.031,0.508-5.485,1.922l-0.072,0.071c-1.129,1.13-2.967,1.129-4.096,0l-0.132-0.128
		c-1.449-1.377-3.412-2.054-5.425-1.865C56.283,1.538,41.25,7.765,28.82,18.043c-1.61,1.334-2.534,3.283-2.534,5.347
		c0,1.597-1.3,2.897-2.897,2.897c-2.064,0-4.013,0.924-5.347,2.536C7.766,41.25,1.538,56.283,0.031,72.295
		c-0.192,2.029,0.502,4.016,1.907,5.469l0.086,0.088c1.129,1.129,1.129,2.967,0,4.096l-0.151,0.157
		c-1.361,1.447-2.03,3.402-1.842,5.399c1.506,16.009,7.731,31.041,18.001,43.471c1.332,1.613,3.282,2.539,5.356,2.539
		c1.597,0,2.897,1.3,2.897,2.903c0,2.065,0.924,4.015,2.537,5.35c12.434,10.271,27.466,16.496,43.473,18.002
		c1.977,0.185,3.904-0.464,5.344-1.79l0.213-0.203c1.093-1.094,3.001-1.094,4.095,0l0.156,0.151c1.286,1.21,2.975,1.873,4.738,1.873
		c0.22,0,0.44-0.011,0.662-0.031c16.007-1.506,31.039-7.731,43.472-18.003c1.613-1.333,2.538-3.283,2.538-5.355
		c0-1.597,1.3-2.896,2.905-2.896c2.064,0,4.013-0.924,5.347-2.535c10.275-12.421,16.504-27.452,18.011-43.466
		c0.194-2.069-0.53-4.094-1.99-5.555L157.777,81.948z M155.795,87.139c-1.432,15.212-7.349,29.49-17.109,41.291
		c-0.571,0.689-1.397,1.085-2.274,1.085c-3.803,0-6.896,3.094-6.896,6.903c0,0.869-0.396,1.695-1.086,2.266
		c-11.812,9.759-26.093,15.673-41.299,17.104c-0.872,0.081-1.736-0.222-2.35-0.836l-0.157-0.152c-1.284-1.208-2.952-1.87-4.723-1.87
		c-1.746,0-3.392,0.644-4.667,1.819l-0.212,0.202c-0.614,0.615-1.471,0.918-2.35,0.837c-15.206-1.431-29.487-7.345-41.299-17.103
		c-0.69-0.571-1.086-1.397-1.086-2.273c0-3.803-3.094-6.896-6.903-6.896c-0.87,0-1.696-0.396-2.266-1.086
		c-9.758-11.811-15.672-26.091-17.104-41.3c-0.083-0.878,0.222-1.734,0.837-2.35l0.151-0.157c2.511-2.67,2.489-6.869-0.065-9.512
		l-0.086-0.088c-0.615-0.615-0.92-1.471-0.837-2.351c1.431-15.211,7.348-29.493,17.11-41.299c0.571-0.69,1.396-1.085,2.265-1.085
		c3.803,0,6.897-3.094,6.897-6.897c0-0.869,0.396-1.694,1.084-2.265C43.178,11.361,57.46,5.444,72.672,4.014
		c0.877-0.086,1.735,0.222,2.35,0.836l0.132,0.128c2.673,2.54,6.903,2.521,9.553-0.056l0.073-0.072
		c0.614-0.614,1.473-0.918,2.351-0.836c15.215,1.431,29.496,7.345,41.299,17.103c0.69,0.571,1.086,1.397,1.086,2.273
		c0,3.803,3.094,6.897,6.903,6.897c0.869,0,1.695,0.396,2.266,1.086c9.764,11.814,15.68,26.092,17.111,41.29
		c0.083,0.879-0.223,1.737-0.847,2.362c-1.303,1.302-2.02,3.034-2.02,4.876c0,1.842,0.717,3.573,2.02,4.876l1.414-1.414
		l-1.404,1.424C155.572,85.401,155.878,86.259,155.795,87.139z"/>
</g>
<g>
	<defs>
		<path id="SVGID_1_" d="M79.901,16.6C44.941,16.6,16.6,44.94,16.6,79.9c0,34.96,28.341,63.301,63.301,63.301
			c34.96,0,63.3-28.341,63.3-63.301C143.201,44.94,114.861,16.6,79.901,16.6z M79.9,107.911c-15.47,0-28.01-12.541-28.01-28.011
			S64.431,51.89,79.9,51.89c15.469,0,28.011,12.541,28.011,28.011S95.37,107.911,79.9,107.911z"/>
	</defs>
	<clipPath id="SVGID_2_">
		<use xlink:href="#SVGID_1_"  style="overflow:visible;"/>
	</clipPath>
	<g style="clip-path:url(#SVGID_2_);">
		<g>
			<path style="fill:#445F87;" d="M11.485,21.265c-1.713,0-3.543-0.104-3.85-0.122l0.178-2.995c1.696,0.101,4.739,0.195,5.686,0.022
				c1.89-0.346,4.657-1.707,7.333-3.023c3.765-1.852,7.658-3.766,10.697-3.798c2.938-0.021,6.458,1.71,10.2,3.554
				c3.236,1.594,6.583,3.243,8.787,3.243c0.013,0,0.026,0,0.04,0c2.076-0.019,5.231-1.65,8.282-3.228
				c3.535-1.829,6.874-3.556,9.679-3.569c2.865-0.027,6.313,1.724,9.958,3.563c3.147,1.588,6.402,3.23,8.539,3.233
				c0.002,0,0.004,0,0.006,0c2.16,0,5.449-1.646,8.63-3.237c3.659-1.831,7.116-3.56,9.994-3.56c0.015,0,0.029,0,0.045,0
				c2.797,0.017,6.126,1.741,9.649,3.565c3.06,1.584,6.224,3.222,8.303,3.231c0.006,0,0.012,0,0.017,0
				c2.013,0,5.093-1.622,8.072-3.19c3.863-2.034,7.516-3.955,10.567-3.596c3.429,0.402,9.606,6.063,10.81,7.193l-2.055,2.187
				c-2.694-2.53-7.3-6.189-9.104-6.4c-2.124-0.245-5.684,1.62-8.82,3.271c-3.453,1.818-6.716,3.536-9.47,3.536
				c-0.01,0-0.021,0-0.03,0c-2.803-0.013-6.138-1.739-9.668-3.567c-3.055-1.582-6.213-3.217-8.289-3.229c-0.009,0-0.018,0-0.026,0
				c-2.169,0-5.465,1.648-8.651,3.243c-3.653,1.827-7.104,3.554-9.973,3.554c-0.004,0-0.007,0-0.01,0
				c-2.849-0.004-6.268-1.729-9.886-3.555c-3.159-1.594-6.425-3.242-8.574-3.242c-0.006,0-0.013,0-0.02,0
				c-2.083,0.01-5.251,1.648-8.315,3.233c-3.518,1.819-6.841,3.538-9.633,3.563c-0.021,0-0.043,0-0.065,0
				c-2.904,0-6.407-1.726-10.113-3.552c-3.262-1.607-6.636-3.298-8.842-3.245c-2.358,0.025-6.102,1.866-9.405,3.49
				c-2.992,1.471-5.817,2.861-8.117,3.282C13.445,21.23,12.485,21.265,11.485,21.265z"/>
		</g>
		<g>
			<path style="fill:#445F87;" d="M11.485,35.634c-1.713,0-3.543-0.104-3.85-0.122l0.178-2.995c1.696,0.1,4.739,0.196,5.686,0.022
				c1.891-0.346,4.659-1.708,7.335-3.024c3.764-1.851,7.656-3.766,10.694-3.798c2.911-0.029,6.457,1.71,10.2,3.554
				c3.237,1.595,6.583,3.243,8.787,3.243c0.013,0,0.026,0,0.04,0c2.076-0.019,5.231-1.65,8.282-3.229
				c3.535-1.829,6.874-3.555,9.678-3.569c2.866-0.025,6.313,1.724,9.958,3.564c3.147,1.588,6.402,3.23,8.539,3.233
				c0.002,0,0.005,0,0.007,0c2.16,0,5.449-1.646,8.631-3.237c3.677-1.84,7.123-3.577,10.036-3.56
				c2.798,0.018,6.126,1.741,9.65,3.565c3.06,1.584,6.224,3.223,8.303,3.232c0.006,0,0.012,0,0.017,0
				c2.013,0,5.093-1.622,8.073-3.191c3.862-2.034,7.515-3.954,10.566-3.596c3.43,0.402,9.606,6.063,10.81,7.194l-2.055,2.187
				c-2.694-2.53-7.301-6.189-9.104-6.401c-2.119-0.249-5.684,1.62-8.819,3.271c-3.454,1.818-6.717,3.536-9.471,3.536
				c-0.01,0-0.021,0-0.03,0c-2.803-0.013-6.138-1.74-9.669-3.568c-3.054-1.582-6.212-3.217-8.289-3.229c-0.008,0-0.017,0-0.025,0
				c-2.168,0-5.463,1.648-8.65,3.243c-3.652,1.828-7.104,3.554-9.973,3.554c-0.004,0-0.007,0-0.011,0
				c-2.849-0.004-6.268-1.729-9.886-3.555c-3.169-1.599-6.435-3.277-8.593-3.242c-2.083,0.01-5.25,1.649-8.314,3.233
				c-3.518,1.82-6.841,3.539-9.633,3.564c-0.021,0-0.043,0-0.065,0c-2.904,0-6.407-1.726-10.114-3.552
				c-3.239-1.596-6.587-3.246-8.795-3.246c-0.016,0-0.031,0-0.046,0c-2.357,0.025-6.101,1.866-9.403,3.49
				c-2.992,1.472-5.819,2.862-8.119,3.283C13.445,35.599,12.485,35.634,11.485,35.634z"/>
		</g>
		<g>
			<path style="fill:#445F87;" d="M11.485,50.003c-1.713,0-3.543-0.104-3.85-0.122l0.178-2.995c1.695,0.101,4.739,0.195,5.686,0.022
				c1.891-0.346,4.659-1.707,7.336-3.024c3.764-1.851,7.656-3.765,10.694-3.797c2.911-0.007,6.457,1.71,10.199,3.554
				c3.236,1.595,6.583,3.244,8.787,3.244c0.014,0,0.027,0,0.04,0c2.077-0.019,5.231-1.65,8.282-3.228
				c3.535-1.829,6.874-3.556,9.679-3.569c2.865-0.024,6.313,1.724,9.958,3.563c3.147,1.588,6.402,3.23,8.539,3.233
				c0.002,0,0.005,0,0.007,0c2.16,0,5.449-1.646,8.63-3.237c3.659-1.831,7.115-3.56,9.993-3.56c0.015,0,0.029,0,0.045,0
				c2.797,0.017,6.126,1.741,9.649,3.565c3.06,1.584,6.224,3.222,8.303,3.231c0.006,0,0.012,0,0.017,0
				c2.013,0,5.094-1.622,8.073-3.19c3.863-2.034,7.515-3.954,10.566-3.596c3.429,0.402,9.606,6.063,10.81,7.193l-2.055,2.187
				c-2.694-2.53-7.3-6.189-9.104-6.4c-2.137-0.245-5.685,1.621-8.819,3.271c-3.454,1.818-6.717,3.536-9.471,3.536
				c-0.01,0-0.021,0-0.03,0c-2.803-0.013-6.138-1.739-9.668-3.567c-3.055-1.582-6.213-3.217-8.289-3.229c-0.009,0-0.018,0-0.026,0
				c-2.169,0-5.464,1.648-8.65,3.243c-3.653,1.828-7.104,3.554-9.973,3.554c-0.004,0-0.008,0-0.011,0
				c-2.849-0.004-6.268-1.729-9.886-3.555c-3.159-1.594-6.425-3.242-8.574-3.242c-0.006,0-0.013,0-0.02,0
				c-2.083,0.01-5.251,1.648-8.315,3.233c-3.518,1.819-6.841,3.538-9.633,3.563c-0.022,0-0.044,0-0.066,0
				c-2.904,0-6.407-1.726-10.114-3.552c-3.261-1.607-6.634-3.274-8.841-3.245c-2.357,0.025-6.1,1.866-9.402,3.49
				c-2.993,1.472-5.819,2.862-8.12,3.283C13.445,49.967,12.485,50.003,11.485,50.003z"/>
		</g>
		<g>
			<path style="fill:#445F87;" d="M11.485,64.372c-1.713,0-3.543-0.104-3.85-0.122l0.178-2.995c1.696,0.101,4.739,0.195,5.686,0.022
				c1.89-0.346,4.657-1.707,7.333-3.023c3.765-1.852,7.658-3.766,10.697-3.798c2.938-0.016,6.458,1.71,10.2,3.554
				c3.236,1.594,6.583,3.243,8.787,3.243c0.013,0,0.026,0,0.04,0c2.076-0.019,5.23-1.65,8.281-3.228
				c3.535-1.829,6.875-3.556,9.68-3.569c0.011,0,0.023,0,0.035,0c2.863,0,6.294,1.731,9.926,3.564
				c3.147,1.587,6.401,3.229,8.538,3.233c0.001,0,0.004,0,0.005,0c2.16,0,5.449-1.646,8.63-3.237c3.659-1.831,7.116-3.56,9.994-3.56
				c0.015,0,0.029,0,0.045,0c2.797,0.017,6.127,1.74,9.651,3.565c3.06,1.584,6.222,3.222,8.301,3.231c0.006,0,0.012,0,0.018,0
				c2.012,0,5.092-1.622,8.071-3.19c3.863-2.034,7.516-3.954,10.567-3.596c3.429,0.402,9.606,6.063,10.81,7.193l-2.055,2.187
				c-2.694-2.53-7.3-6.189-9.104-6.4c-2.124-0.249-5.684,1.62-8.82,3.271c-3.453,1.818-6.716,3.536-9.47,3.536
				c-0.01,0-0.021,0-0.03,0c-2.802-0.013-6.137-1.74-9.666-3.567c-3.055-1.582-6.214-3.217-8.291-3.229
				c-2.136-0.003-5.479,1.642-8.678,3.243c-3.653,1.827-7.104,3.554-9.973,3.554c-0.004,0-0.007,0-0.01,0
				c-2.849-0.005-6.266-1.729-9.884-3.555c-3.159-1.594-6.426-3.242-8.575-3.242c-0.007,0-0.014,0-0.021,0
				c-2.083,0.009-5.252,1.648-8.316,3.233c-3.518,1.82-6.84,3.538-9.632,3.563c-0.021,0-0.043,0-0.065,0
				c-2.904,0-6.407-1.726-10.113-3.552c-3.239-1.596-6.588-3.246-8.795-3.246c-0.016,0-0.031,0-0.047,0
				c-2.358,0.025-6.102,1.866-9.405,3.49c-2.992,1.471-5.817,2.861-8.117,3.282C13.445,64.336,12.485,64.372,11.485,64.372z"/>
		</g>
		<g>
			<path style="fill:#445F87;" d="M11.485,78.74c-1.713,0-3.543-0.104-3.85-0.122l0.178-2.995c1.696,0.101,4.739,0.196,5.686,0.022
				c1.89-0.346,4.657-1.707,7.333-3.023c3.765-1.852,7.658-3.767,10.697-3.798c2.938,0.004,6.458,1.71,10.2,3.554
				c3.236,1.594,6.583,3.243,8.787,3.243c0.013,0,0.026,0,0.04,0c2.076-0.019,5.23-1.65,8.281-3.228
				c3.535-1.829,6.875-3.556,9.68-3.569c2.858-0.052,6.313,1.724,9.959,3.563c3.147,1.588,6.401,3.23,8.539,3.233
				c0.001,0,0.004,0,0.005,0c2.16,0,5.449-1.646,8.63-3.237c3.659-1.831,7.116-3.56,9.994-3.56c0.015,0,0.029,0,0.045,0
				c2.797,0.017,6.126,1.74,9.65,3.565c3.06,1.584,6.223,3.222,8.302,3.231c0.006,0,0.012,0,0.017,0c2.013,0,5.093-1.622,8.072-3.19
				c3.863-2.034,7.516-3.953,10.567-3.596c3.429,0.402,9.606,6.063,10.81,7.193l-2.055,2.187c-2.694-2.53-7.3-6.189-9.104-6.4
				c-2.124-0.242-5.684,1.621-8.82,3.271c-3.453,1.818-6.716,3.536-9.47,3.536c-0.01,0-0.021,0-0.03,0
				c-2.803-0.013-6.137-1.739-9.667-3.567c-3.055-1.582-6.214-3.217-8.29-3.229c-0.009,0-0.018,0-0.026,0
				c-2.169,0-5.465,1.648-8.651,3.243c-3.653,1.827-7.104,3.554-9.973,3.554c-0.004,0-0.007,0-0.01,0
				c-2.849-0.005-6.267-1.729-9.885-3.555c-3.16-1.594-6.426-3.242-8.575-3.242c-0.006,0-0.013,0-0.02,0
				c-2.083,0.009-5.251,1.648-8.316,3.233c-3.518,1.82-6.84,3.538-9.632,3.563c-0.021,0-0.043,0-0.065,0
				c-2.904,0-6.407-1.726-10.113-3.552c-3.262-1.607-6.636-3.319-8.842-3.245c-2.358,0.025-6.102,1.866-9.405,3.49
				c-2.992,1.471-5.817,2.861-8.117,3.282C13.445,78.705,12.485,78.74,11.485,78.74z"/>
		</g>
		<g>
			<path style="fill:#445F87;" d="M11.485,93.108c-1.713,0-3.543-0.104-3.85-0.122l0.178-2.994c1.695,0.1,4.738,0.193,5.687,0.021
				c1.89-0.346,4.658-1.707,7.335-3.023c3.764-1.852,7.656-3.766,10.694-3.798c2.923-0.021,6.457,1.71,10.2,3.554
				c3.236,1.595,6.582,3.243,8.786,3.243c0.014,0,0.027,0,0.04,0c2.077-0.019,5.231-1.65,8.282-3.229
				c3.535-1.828,6.874-3.556,9.68-3.568c0.011,0,0.022,0,0.033,0c2.863,0,6.294,1.731,9.926,3.563
				c3.147,1.588,6.401,3.23,8.538,3.233c0.003,0,0.005,0,0.007,0c2.16,0,5.449-1.646,8.63-3.237c3.659-1.83,7.115-3.56,9.993-3.56
				c0.015,0,0.029,0,0.045,0c2.797,0.017,6.127,1.74,9.651,3.565c3.06,1.584,6.222,3.222,8.301,3.231c0.006,0,0.012,0,0.017,0
				c2.012,0,5.093-1.622,8.072-3.19c3.863-2.034,7.516-3.964,10.567-3.596c3.43,0.402,9.605,6.063,10.81,7.193l-2.055,2.187
				c-2.694-2.53-7.3-6.189-9.104-6.4c-2.124-0.251-5.685,1.62-8.82,3.271c-3.453,1.818-6.717,3.536-9.471,3.536
				c-0.01,0-0.02,0-0.029,0c-2.802-0.013-6.137-1.739-9.666-3.567c-3.055-1.582-6.214-3.218-8.291-3.229c-0.009,0-0.018,0-0.026,0
				c-2.169,0-5.464,1.648-8.65,3.243c-3.653,1.827-7.104,3.554-9.973,3.554c-0.004,0-0.008,0-0.011,0
				c-2.849-0.005-6.267-1.729-9.885-3.555c-3.159-1.594-6.426-3.242-8.575-3.242c-0.006,0-0.013,0-0.02,0
				c-2.083,0.01-5.251,1.648-8.315,3.233c-3.518,1.819-6.84,3.538-9.632,3.563c-0.022,0-0.044,0-0.066,0
				c-2.904,0-6.407-1.726-10.113-3.552c-3.238-1.596-6.586-3.245-8.794-3.245c-0.016,0-0.031,0-0.047,0
				c-2.357,0.025-6.1,1.866-9.402,3.489c-2.993,1.472-5.819,2.862-8.12,3.283C13.444,93.073,12.485,93.108,11.485,93.108z"/>
		</g>
		<g>
			<path style="fill:#445F87;" d="M11.485,107.478c-1.713,0-3.543-0.104-3.85-0.122l0.178-2.994c1.695,0.1,4.738,0.193,5.687,0.021
				c1.89-0.347,4.657-1.707,7.333-3.023c3.765-1.852,7.657-3.767,10.696-3.799c2.923,0.007,6.458,1.71,10.201,3.555
				c3.255,1.604,6.588,3.228,8.826,3.243c2.076-0.02,5.23-1.65,8.28-3.229c3.535-1.829,6.875-3.557,9.681-3.569
				c0.011,0,0.022,0,0.033,0c2.863,0,6.294,1.731,9.926,3.564c3.147,1.588,6.401,3.23,8.538,3.233c0.002,0,0.004,0,0.006,0
				c2.16,0,5.449-1.646,8.631-3.237c3.678-1.841,7.124-3.589,10.037-3.561c2.798,0.018,6.127,1.741,9.651,3.566
				c3.06,1.584,6.223,3.222,8.302,3.231c0.006,0,0.011,0,0.017,0c2.011,0,5.092-1.622,8.072-3.191
				c3.863-2.033,7.516-3.953,10.567-3.597c3.43,0.404,9.606,6.064,10.81,7.195l-2.055,2.187c-2.694-2.53-7.301-6.189-9.105-6.402
				c-2.118-0.236-5.683,1.62-8.819,3.272c-3.454,1.818-6.718,3.536-9.472,3.536c-0.009,0-0.019,0-0.028,0
				c-2.803-0.014-6.137-1.74-9.667-3.567c-3.055-1.582-6.214-3.218-8.291-3.23c-0.008,0-0.017,0-0.025,0
				c-2.168,0-5.463,1.648-8.65,3.243c-3.653,1.828-7.104,3.555-9.974,3.555c-0.004,0-0.007,0-0.01,0
				c-2.849-0.005-6.267-1.729-9.885-3.556c-3.159-1.594-6.426-3.242-8.575-3.242c-0.006,0-0.013,0-0.02,0
				c-2.083,0.01-5.252,1.648-8.316,3.234c-3.517,1.819-6.839,3.538-9.631,3.563c-2.928-0.021-6.444-1.712-10.179-3.552
				c-3.239-1.597-6.587-3.246-8.795-3.246c-0.016,0-0.031,0-0.047,0c-2.358,0.025-6.101,1.866-9.404,3.49
				c-2.992,1.472-5.818,2.861-8.118,3.283C13.445,107.442,12.485,107.478,11.485,107.478z"/>
		</g>
		<g>
			<path style="fill:#445F87;" d="M11.485,121.846c-1.713,0-3.543-0.104-3.85-0.122l0.178-2.994
				c1.695,0.101,4.738,0.193,5.687,0.021c1.89-0.346,4.658-1.707,7.335-3.023c3.764-1.852,7.656-3.766,10.694-3.798
				c2.923-0.02,6.457,1.71,10.2,3.554c3.236,1.595,6.582,3.243,8.786,3.243c0.014,0,0.027,0,0.04,0
				c2.077-0.019,5.231-1.65,8.282-3.229c3.535-1.828,6.874-3.556,9.68-3.568c0.011,0,0.022,0,0.033,0
				c2.863,0,6.293,1.731,9.925,3.563c3.147,1.588,6.402,3.23,8.539,3.233c0.002,0,0.005,0,0.007,0c2.16,0,5.449-1.646,8.63-3.237
				c3.659-1.83,7.115-3.56,9.993-3.56c0.015,0,0.029,0,0.045,0c2.797,0.017,6.126,1.74,9.65,3.565
				c3.06,1.584,6.223,3.222,8.302,3.231c0.006,0,0.012,0,0.017,0c2.012,0,5.093-1.622,8.072-3.19
				c3.863-2.033,7.516-3.963,10.567-3.596c3.429,0.401,9.606,6.063,10.81,7.193l-2.055,2.187c-2.694-2.531-7.3-6.189-9.104-6.4
				c-2.124-0.253-5.685,1.62-8.82,3.271c-3.453,1.818-6.717,3.536-9.471,3.536c-0.01,0-0.02,0-0.029,0
				c-2.803-0.013-6.137-1.739-9.667-3.567c-3.055-1.582-6.214-3.217-8.29-3.229c-0.009,0-0.018,0-0.026,0
				c-2.169,0-5.464,1.648-8.65,3.243c-3.653,1.827-7.104,3.554-9.973,3.554c-0.004,0-0.008,0-0.011,0
				c-2.849-0.004-6.268-1.729-9.886-3.555c-3.159-1.594-6.425-3.242-8.574-3.242c-0.006,0-0.013,0-0.02,0
				c-2.083,0.01-5.251,1.648-8.315,3.233c-3.518,1.819-6.84,3.538-9.632,3.563c-0.022,0-0.044,0-0.066,0
				c-2.904,0-6.407-1.726-10.113-3.552c-3.238-1.596-6.586-3.245-8.794-3.245c-0.016,0-0.031,0-0.047,0
				c-2.357,0.025-6.1,1.866-9.402,3.489c-2.993,1.472-5.819,2.862-8.12,3.283C13.444,121.811,12.485,121.846,11.485,121.846z"/>
		</g>
		<g>
			<path style="fill:#445F87;" d="M11.485,136.215c-1.713,0-3.543-0.104-3.85-0.122l0.178-2.994
				c1.695,0.101,4.738,0.193,5.687,0.021c1.89-0.346,4.658-1.707,7.335-3.024c3.764-1.851,7.656-3.766,10.694-3.798
				c2.923,0.008,6.458,1.71,10.201,3.555c3.236,1.595,6.582,3.243,8.786,3.243c0.013,0,0.026,0,0.04,0
				c2.076-0.02,5.23-1.65,8.281-3.229c3.535-1.829,6.874-3.556,9.679-3.569c0.011,0,0.021,0,0.032,0
				c2.864,0,6.295,1.731,9.927,3.564c3.147,1.588,6.402,3.23,8.539,3.233c0.003,0,0.005,0,0.007,0c2.16,0,5.45-1.646,8.631-3.237
				c3.678-1.841,7.15-3.574,10.036-3.561c2.798,0.017,6.127,1.741,9.651,3.566c3.06,1.584,6.223,3.222,8.302,3.231
				c0.006,0,0.012,0,0.017,0c2.012,0,5.093-1.622,8.073-3.191c3.863-2.033,7.515-3.95,10.566-3.597
				c3.43,0.404,9.606,6.064,10.81,7.195l-2.055,2.187c-2.694-2.53-7.301-6.189-9.105-6.402c-2.124-0.244-5.684,1.62-8.818,3.272
				c-3.454,1.818-6.717,3.536-9.472,3.536c-0.01,0-0.02,0-0.029,0c-2.803-0.013-6.137-1.739-9.667-3.567
				c-3.055-1.582-6.214-3.218-8.29-3.23c-0.009,0-0.018,0-0.025,0c-2.169,0-5.464,1.648-8.65,3.243
				c-3.653,1.828-7.104,3.555-9.974,3.555c-0.004,0-0.008,0-0.011,0c-2.849-0.005-6.268-1.729-9.886-3.556
				c-3.169-1.599-6.435-3.225-8.593-3.242c-2.083,0.01-5.251,1.648-8.315,3.233c-3.518,1.82-6.84,3.539-9.632,3.564
				c-0.021,0-0.043,0-0.065,0c-2.904,0-6.407-1.726-10.114-3.552c-3.239-1.597-6.587-3.246-8.795-3.246c-0.016,0-0.031,0-0.047,0
				c-2.357,0.025-6.1,1.866-9.402,3.49c-2.992,1.472-5.819,2.862-8.12,3.283C13.444,136.18,12.485,136.215,11.485,136.215z"/>
		</g>
		<g>
			<path style="fill:#445F87;" d="M11.485,150.583c-1.713,0-3.543-0.104-3.85-0.122l0.178-2.994c1.695,0.1,4.738,0.193,5.687,0.021
				c1.89-0.346,4.658-1.707,7.335-3.023c3.764-1.852,7.656-3.766,10.694-3.798c2.923-0.019,6.457,1.71,10.2,3.554
				c3.236,1.595,6.582,3.243,8.786,3.243c0.014,0,0.027,0,0.04,0c2.077-0.019,5.231-1.65,8.282-3.229
				c3.535-1.828,6.874-3.556,9.68-3.568c0.011,0,0.022,0,0.033,0c2.863,0,6.293,1.731,9.925,3.563
				c3.147,1.588,6.402,3.23,8.539,3.233c0.002,0,0.005,0,0.007,0c2.16,0,5.449-1.646,8.63-3.237c3.659-1.83,7.115-3.56,9.993-3.56
				c0.015,0,0.029,0,0.045,0c2.797,0.017,6.126,1.74,9.65,3.565c3.06,1.584,6.223,3.222,8.302,3.231c0.006,0,0.012,0,0.017,0
				c2.012,0,5.093-1.622,8.073-3.19c3.863-2.033,7.515-3.95,10.566-3.597c3.429,0.402,9.606,6.063,10.81,7.194l-2.055,2.187
				c-2.694-2.531-7.3-6.189-9.104-6.4c-2.124-0.255-5.684,1.62-8.819,3.271c-3.454,1.818-6.717,3.536-9.472,3.536
				c-0.01,0-0.02,0-0.029,0c-2.803-0.013-6.137-1.739-9.667-3.567c-3.055-1.582-6.214-3.217-8.29-3.229c-0.009,0-0.018,0-0.026,0
				c-2.169,0-5.464,1.648-8.65,3.243c-3.653,1.827-7.104,3.554-9.973,3.554c-0.004,0-0.008,0-0.011,0
				c-2.849-0.004-6.268-1.729-9.886-3.555c-3.159-1.594-6.425-3.242-8.574-3.242c-0.006,0-0.013,0-0.02,0
				c-2.083,0.01-5.251,1.648-8.315,3.233c-3.518,1.819-6.84,3.538-9.632,3.563c-0.022,0-0.044,0-0.066,0
				c-2.904,0-6.407-1.726-10.113-3.552c-3.238-1.596-6.586-3.245-8.794-3.245c-0.016,0-0.031,0-0.047,0
				c-2.357,0.025-6.1,1.866-9.402,3.489c-2.993,1.472-5.819,2.862-8.12,3.283C13.444,150.548,12.485,150.583,11.485,150.583z"/>
		</g>
	</g>
</g>
<g>
	<path style="fill:#445F87;" d="M79.901,15.099c-35.731,0-64.801,29.07-64.801,64.801s29.07,64.801,64.801,64.801
		s64.801-29.069,64.801-64.801S115.632,15.099,79.901,15.099z M79.901,141.701c-34.077,0-61.801-27.724-61.801-61.801
		s27.724-61.801,61.801-61.801s61.801,27.724,61.801,61.801S113.978,141.701,79.901,141.701z"/>
	<path style="fill:#445F87;" d="M79.9,49.348c-16.846,0-30.551,13.706-30.551,30.553s13.705,30.553,30.551,30.553
		s30.552-13.706,30.552-30.553S96.746,49.348,79.9,49.348z M79.9,107.453c-15.192,0-27.551-12.36-27.551-27.553
		c0-15.193,12.359-27.553,27.551-27.553s27.552,12.36,27.552,27.553C107.452,95.093,95.092,107.453,79.9,107.453z"/>
	<path style="fill:#445F87;" d="M79.901,55.766c-13.308,0-24.134,10.827-24.134,24.134s10.827,24.134,24.134,24.134
		s24.134-10.826,24.134-24.134S93.208,55.766,79.901,55.766z M79.901,101.034c-11.653,0-21.134-9.48-21.134-21.134
		s9.481-21.134,21.134-21.134s21.134,9.481,21.134,21.134S91.554,101.034,79.901,101.034z"/>
	<polygon style="fill:#445F87;" points="82.275,79.134 91.041,64.882 86.403,64.882 78.787,77.518 74.32,77.518 74.32,64.882 
		70.108,64.882 70.108,94.919 74.32,94.919 74.32,81.177 78.787,81.177 86.785,94.919 91.593,94.919 82.275,79.22 	"/>
</g>
</svg>
