<?xml version="1.0" encoding="iso-8859-1"?>
<!-- Generator: Adobe Illustrator 22.0.1, SVG Export Plug-In . SVG Version: 6.00 Build 0)  -->
<svg version="1.1" id="&#x421;&#x43B;&#x43E;&#x439;_1"
	 xmlns="http://www.w3.org/2000/svg" xmlns:xlink="http://www.w3.org/1999/xlink" x="0px" y="0px" viewBox="0 0 59.296 184.928"
	 style="enable-background:new 0 0 59.296 184.928;" xml:space="preserve">
<path style="fill:#445F87;" d="M43.525,153.02v-1.428h-0.411v-14.184l0.466-0.66h11v-8.759h-8.877l-0.116-0.207l0.116-0.207h8.877
	v-8.759h-11l-1.038-1.472h-1.504V39.006h4.759v-2.552h4.89v-8.089h-4.89v-1.147h-6.188v-0.76h10.515v-9.495h-7.313V7.065
	c0-1.304-1.165-2.771-3.563-4.484c-3.118-2.226-8.865-2.548-9.51-2.577L29.648,0l-0.091,0.004c-0.645,0.029-6.392,0.351-9.508,2.578
	c-2.398,1.712-3.564,3.179-3.564,4.483v9.898H9.172v9.495h10.515v0.76H13.5v1.147H8.61v8.089h4.89v2.552h4.759v78.339h-1.502
	l-1.039,1.472H4.716v8.759h8.879l0.116,0.207l-0.117,0.207H4.716v8.759h11.002l0.441,0.625l0.023,14.219h-0.411v1.428H0v12.372
	h9.281v2.143h6.603c0.117,1.034,0.407,2.23,1.075,3.144c0.479,0.651,1.326,1.442,2.398,2.443c1.454,1.357,3.263,3.047,4.207,4.479
	c1.449,2.201,1.778,2.811,1.783,2.811c0,0,0-0.001,0-0.002l0.52,1.208h0.182v3.311h7.202v-3.245l0.234,0.015l0.52-1.213
	c0.012-0.022,0.302-0.584,1.815-2.884c0.943-1.432,2.752-3.12,4.205-4.478c1.073-1.002,1.921-1.794,2.401-2.447
	c0.668-0.912,0.958-2.107,1.075-3.142h6.516v-2.143h9.281V153.02H43.525z M31.053,177.618h-1.006h-1.718
	c-0.419-0.678-0.955-1.502-1.425-2.216c-1.205-1.831-3.208-3.701-4.817-5.204c-0.772-0.721-1.646-1.537-1.902-1.886
	c-0.159-0.217-0.27-0.72-0.327-1.277h9.791v-2.143h0v2.143h9.878c-0.058,0.556-0.169,1.06-0.327,1.275
	c-0.258,0.352-1.134,1.169-1.906,1.891c-1.608,1.502-3.609,3.371-4.814,5.201C32.007,176.116,31.472,176.94,31.053,177.618z
	 M12.61,32.454v-0.089h1.389v0.089H12.61z M17.5,35.006v-2.552H17v-0.089h0.5v-1.147h6.187v-0.5h11.922v0.5h6.188v1.147h0.5v0.089
	h-0.5v2.552h-4.759v0.5H22.259v-0.5H17.5z M20.485,20.963V7.489c0.192-0.248,0.698-0.802,1.889-1.652
	c1.602-1.145,5.268-1.726,7.274-1.832c1.42,0.077,5.482,0.552,7.275,1.832c1.19,0.851,1.696,1.405,1.888,1.652v13.475h0.5v1.495
	h-3.702v0.5H23.687v-0.5h-3.702v-1.495H20.485z M46.124,20.963v1.495h-3.813v-1.495H46.124z M46.686,32.365v0.089h-1.39v-0.089
	H46.686z M35.609,27.718H23.687v-1.76h11.922V27.718z M16.985,20.963v1.495h-3.813v-1.495H16.985z M22.259,117.844V38.506h14.779
	v79.338H22.259z M18.829,121.345h3.43v-0.5h14.779v0.5h3.43l1.038,1.472h9.074v0.759h-7.219l-0.777,1.384h-3.47v0.501H20.182v-0.501
	h-3.47l-0.779-1.384H8.716v-0.759h9.074L18.829,121.345z M8.716,131.99h7.218l0.779-1.385h3.469v-0.5h18.932v0.5h3.47l0.777,1.385
	h7.219v0.759h-9.074l-1.038,1.472h-1.354v0.499H20.182v-0.499h-1.353l-1.039-1.472H8.716V131.99z M39.114,152.092H20.182v-14.373
	h18.932V152.092z M13.281,161.892v-0.5H4v-4.372h15.771v-1.428h0.411v-0.5h18.932v0.5h0.411v1.428h15.771v4.372h-9.281v0.5H13.281z"
	/>
</svg>
