<?xml version="1.0" encoding="iso-8859-1"?>
<!-- Generator: Adobe Illustrator 22.0.1, SVG Export Plug-In . SVG Version: 6.00 Build 0)  -->
<svg version="1.1" id="&#x421;&#x43B;&#x43E;&#x439;_1"
	 xmlns="http://www.w3.org/2000/svg" xmlns:xlink="http://www.w3.org/1999/xlink" x="0px" y="0px" viewBox="0 0 25.003 52.001"
	 style="enable-background:new 0 0 25.003 52.001;" xml:space="preserve">
<g>
	<path style="fill:#495E83;" d="M12.501,34.395c-3.061,0-5.552,2.438-5.552,5.433c0,2.996,2.49,5.433,5.552,5.433
		c3.062,0,5.552-2.437,5.552-5.433C18.053,36.832,15.563,34.395,12.501,34.395z M12.501,44.102c-2.408,0-4.368-1.918-4.368-4.274
		s1.959-4.274,4.368-4.274c2.408,0,4.368,1.917,4.368,4.274S14.91,44.102,12.501,44.102z"/>
	<path style="fill:#495E83;" d="M25.003,23.375v-0.597c0-0.299-0.113-0.582-0.305-0.792v-1.625h-3.426v1.214h-0.169
		c-0.663-0.847-1.673-1.283-2.258-1.477L18.684,7.661c0-0.87-0.434-1.642-1.101-2.121h5.454c0.3,0,0.588-0.09,0.829-0.255
		c0.393-0.264,0.628-0.7,0.628-1.168c0-0.466-0.232-0.902-0.611-1.158c-0.242-0.172-0.542-0.267-0.845-0.267h-7.361V1.075h-1.613V0
		h-1.561h-1.56v1.075H9.327v1.617H1.966c-0.303,0-0.603,0.094-0.834,0.26c-0.39,0.264-0.622,0.7-0.622,1.166
		c0,0.468,0.235,0.904,0.622,1.164C1.378,5.45,1.667,5.54,1.966,5.54H7.42C6.753,6.018,6.319,6.788,6.319,7.653l-0.16,12.446
		c-0.586,0.194-1.596,0.63-2.259,1.477H3.731v-1.214H0.305v1.627C0.109,22.206,0,22.484,0,22.778v0.597
		c0,0.42,0.222,0.792,0.563,1.006C0.225,24.596,0,24.968,0,25.392v0.597c0,0.292,0.112,0.573,0.305,0.789v1.695h2.079v4.681
		c-0.143,0.202-0.277,0.405-0.397,0.601c-0.082,0.131-0.161,0.264-0.243,0.411c-0.073,0.13-0.145,0.26-0.208,0.384c0,0,0,0,0,0
		c-0.001,0.002-0.003,0.004-0.004,0.007c-0.087,0.17-0.162,0.342-0.241,0.513c-0.049,0.107-0.103,0.207-0.148,0.316
		c0,0.001-0.001,0.002-0.001,0.003c0,0.001-0.001,0.001-0.001,0.002c-0.12,0.288-0.229,0.578-0.322,0.859
		c-0.05,0.147-0.097,0.297-0.14,0.444c0,0,0,0.001,0,0.002c0,0.001-0.001,0.003-0.001,0.004c-0.081,0.283-0.153,0.572-0.214,0.858
		l0,0.002c0,0.001-0.001,0.002-0.001,0.003l-0.005,0.03c-0.003,0.014-0.006,0.029-0.008,0.044c-0.024,0.109-0.043,0.22-0.058,0.319
		c-0.022,0.114-0.041,0.231-0.054,0.351C0.317,38.4,0.306,38.493,0.297,38.58c-0.056,0.455-0.084,0.925-0.084,1.396
		c0,6.63,5.513,12.025,12.288,12.025c6.776,0,12.288-5.395,12.288-12.025c0-0.471-0.028-0.941-0.083-1.385
		c-0.01-0.097-0.021-0.19-0.039-0.284c-0.013-0.12-0.032-0.235-0.052-0.335c-0.018-0.115-0.037-0.227-0.061-0.336
		c-0.003-0.014-0.005-0.028-0.008-0.041l-0.006-0.033c0-0.001,0-0.001,0-0.002l-0.001-0.004c-0.063-0.292-0.135-0.581-0.215-0.861
		c-0.044-0.15-0.091-0.3-0.137-0.435c-0.091-0.286-0.198-0.572-0.326-0.872c0,0-0.001-0.001-0.001-0.002
		c0-0.001-0.001-0.002-0.001-0.003c-0.119-0.275-0.25-0.554-0.39-0.829c-0.068-0.133-0.143-0.266-0.217-0.399
		c-0.076-0.137-0.156-0.271-0.234-0.395c-0.123-0.201-0.258-0.405-0.401-0.607v-4.681h2.079v-1.695
		c0.193-0.216,0.305-0.496,0.305-0.788v-0.597c0-0.42-0.222-0.791-0.563-1.007C24.778,24.171,25.003,23.798,25.003,23.375z
		 M23.804,22.75c0.015,0.011,0.015,0.023,0.015,0.028v0.597c0,0.024-0.019,0.043-0.068,0.043h-0.592v0.003H12.502v0.869h2.8v0.188
		h-2.801H9.701v-0.188h2.801v-0.869H1.821l0-0.003H1.229c-0.025,0-0.044-0.019-0.044-0.043v-0.597c0-0.005,0-0.016,0.032-0.042
		l0.002-0.001h1.328v0h1.996l0,0h2.468v0.003h3.023v-0.003h2.468V22.21v-0.344v-0.525h-2.468v-0.055h2.468v-0.869h-1.94l0.266-0.112
		V19.22h1.675h1.675v1.084l0.266,0.112h-1.94v0.869h2.467v0.055h-2.467v0.525v0.344v0.525h2.467v0.003h3.023v-0.003h2.468l0,0h1.996
		v0h1.323L23.804,22.75z M12.502,26.029v0.87h2.467v1.268h3.023v-1.268h3.44v0.735h0.003v4.088
		c-1.172-1.216-2.589-2.182-4.167-2.833l-0.11-0.046h-4.656H7.846l-0.11,0.046c-1.579,0.651-2.995,1.617-4.167,2.833v-4.088h0.003
		v-0.735h3.44v1.268h3.023v-1.268h2.468L12.502,26.029H1.218l-0.014-0.008c-0.008-0.005-0.02-0.017-0.02-0.032v-0.597
		c0-0.025,0.019-0.043,0.068-0.043h0.592h10.657h10.681h0.574h0.018c0.025,0,0.044,0.019,0.044,0.043v0.597
		c0,0.015-0.012,0.028-0.02,0.033l-0.013,0.008H12.502z M15.857,26.9h0.179v0.397h-0.179V26.9z M16.925,26.9h0.179v0.397h-0.179
		V26.9z M7.9,26.9h0.179v0.397H7.9V26.9z M8.967,26.9h0.179v0.397H8.967V26.9z M1.845,24.291h0.33v0.188h-0.33V24.291z
		 M8.282,24.479v-0.188h0.53v0.188H8.282z M7.394,24.479H3.063v-0.188h4.331V24.479z M16.721,24.291v0.188H16.19v-0.188H16.721z
		 M23.158,24.479h-0.33v-0.188h0.33V24.479z M21.94,24.479h-4.331v-0.188h4.331V24.479z M8.967,21.866v-0.395h0.179v0.395H8.967z
		 M7.9,21.471h0.179v0.395H7.9V21.471z M1.806,4.328C1.735,4.281,1.694,4.204,1.694,4.117c0-0.084,0.043-0.166,0.123-0.22
		c0.03-0.022,0.072-0.029,0.111-0.035h10.573h10.57c0.042,0.006,0.084,0.013,0.125,0.042c0.069,0.047,0.112,0.128,0.112,0.213
		c0,0.087-0.041,0.164-0.118,0.215c-0.037,0.026-0.081,0.034-0.125,0.04H12.501H1.938C1.894,4.367,1.849,4.358,1.806,4.328z
		 M12.501,2.245h1.99v0.748h-1.99h-1.99V2.245H12.501z M10.826,18.351v-0.082h0.4h1.276h1.276h0.4v0.082h-1.676H10.826z
		 M12.114,17.302h0.388h0.388V17.4h-0.388h-0.388V17.302z M14.773,7.545c0.217,0,0.394,0.174,0.394,0.388v5.565h-0.856V7.545H14.773
		z M11.225,14.368v1.032h-0.777v-1.032H11.225z M13.283,13.456h-0.782H11.72v-0.412h0.782h0.782V13.456z M13.778,14.368h0.777v1.032
		h-0.777V14.368z M12.67,12.175h-0.169h-0.169v-0.33h0.169h0.169V12.175z M13.778,16.269h1.308
		c-0.072,0.096-0.182,0.163-0.313,0.163h-0.995V16.269z M13.422,10.976h-0.921h-0.921V7.545h0.921h0.921V10.976z M10.23,7.545h0.462
		v5.954H9.837V7.933C9.837,7.719,10.013,7.545,10.23,7.545z M11.225,16.269v0.163H10.23c-0.131,0-0.241-0.067-0.313-0.163H11.225z
		 M12.114,14.369h0.388h0.388v2.063h-0.388h-0.388V14.369z M13.778,17.4v-0.099h0.995c0.707,0,1.282-0.563,1.282-1.255V7.933
		c0-0.459-0.265-0.844-0.64-1.064h0.196c0.34,0,0.617,0.259,0.617,0.577v8.967c0,0.545-0.47,0.987-1.048,0.987h-0.113V17.4H13.778z
		 M12.501,5.241h2.552v0.759h-1.188v0.676h-1.364h-1.364V6.001H9.949V5.241H12.501z M8.776,7.446c0-0.318,0.277-0.577,0.617-0.577
		h0.196c-0.376,0.219-0.64,0.604-0.64,1.064v8.114c0,0.692,0.575,1.255,1.282,1.255h0.995V17.4H9.937v0.001H9.824
		c-0.578,0-1.049-0.443-1.049-0.987V7.446z M15.857,21.866v-0.395h0.179v0.395H15.857z M16.925,21.866v-0.395h0.179v0.395H16.925z
		 M22.655,21.521v0.345h-0.199v-0.345H22.655z M18.134,21.102c0.012,0.002,0.905,0.209,1.605,0.764h-1.747v-0.793L18.134,21.102z
		 M17.667,20.602H17.12l-2.055-0.869V19.22h0.001v-0.95h0.113c1.068,0,1.937-0.833,1.937-1.857V7.446
		c0-0.48-0.247-0.903-0.623-1.166C17.077,6.481,17.5,7.023,17.5,7.669L17.667,20.602z M12.501,1.159h0.376v0.218h-0.376h-0.376
		V1.159H12.501z M7.503,7.661c0-0.64,0.423-1.18,1.008-1.381C8.135,6.543,7.887,6.966,7.887,7.446v8.967
		c0,1.024,0.869,1.857,1.937,1.857h0.113v0.95h0.001v0.512l-2.055,0.869H7.336L7.503,7.661z M6.869,21.102l0.142-0.03v0.793H5.263
		C5.965,21.308,6.859,21.105,6.869,21.102z M2.546,21.866H2.348v-0.345h0.199V21.866z M2.348,27.313v-0.415h0.336v0.415H2.348z
		 M23.187,37.014c0.064,0.224,0.122,0.458,0.174,0.695c0.005,0.023,0.012,0.045,0.017,0.069c0.002,0.011,0.004,0.023,0.007,0.034
		l0.01,0.057c0.021,0.092,0.036,0.188,0.055,0.301c0.018,0.092,0.033,0.187,0.043,0.284l0.009,0.058
		c0.013,0.065,0.019,0.129,0.028,0.208c0.05,0.409,0.076,0.833,0.076,1.258c0,5.991-4.981,10.866-11.104,10.866
		c-6.123,0-11.104-4.875-11.104-10.866c0-0.426,0.025-0.849,0.077-1.27c0.007-0.066,0.013-0.131,0.026-0.195l0.009-0.059
		c0.01-0.097,0.025-0.191,0.046-0.299c0.016-0.098,0.031-0.193,0.052-0.285l0.016-0.087c0.055-0.256,0.12-0.516,0.192-0.768
		c0.039-0.134,0.081-0.267,0.129-0.409c0.005-0.014,0.011-0.029,0.016-0.043c0.077-0.238,0.164-0.476,0.274-0.732
		c0.107-0.249,0.226-0.503,0.354-0.754c0.06-0.118,0.127-0.236,0.197-0.364c0.066-0.118,0.135-0.234,0.21-0.354
		c0.138-0.225,0.292-0.454,0.459-0.681l0.017-0.024c1.18-1.608,2.771-2.868,4.612-3.65h4.415h4.415
		c1.841,0.782,3.433,2.042,4.612,3.65l0.017,0.023c0.167,0.228,0.321,0.457,0.463,0.688c0.071,0.113,0.14,0.228,0.206,0.346
		c0.067,0.12,0.135,0.241,0.199,0.367c0.074,0.145,0.137,0.289,0.204,0.434c0.05,0.107,0.102,0.205,0.15,0.319
		c0.109,0.26,0.207,0.523,0.293,0.785C23.106,36.746,23.147,36.879,23.187,37.014z M22.32,27.313v-0.415h0.335v0.415H22.32z"/>
	<path style="fill:#495E83;" d="M22.333,36.145c0-0.646-0.537-1.171-1.197-1.171c-0.43,0-0.791,0.235-1.002,0.57
		c-0.781-1.327-1.91-2.431-3.267-3.193c0.343-0.206,0.585-0.56,0.585-0.982c0-0.646-0.537-1.171-1.197-1.171
		s-1.197,0.525-1.197,1.171c0,0.079,0.031,0.149,0.046,0.224c-0.823-0.25-1.698-0.385-2.604-0.385s-1.78,0.135-2.604,0.385
		c0.015-0.075,0.046-0.144,0.046-0.224c0-0.646-0.537-1.171-1.197-1.171c-0.66,0-1.197,0.525-1.197,1.171
		c0,0.422,0.242,0.776,0.585,0.982c-1.357,0.762-2.486,1.865-3.267,3.192c-0.211-0.334-0.572-0.569-1.002-0.569
		c-0.66,0-1.197,0.525-1.197,1.171c0,0.646,0.537,1.171,1.197,1.171c0.078,0,0.147-0.03,0.221-0.044
		c-0.257,0.808-0.395,1.666-0.395,2.556c0,0.883,0.137,1.734,0.39,2.537c-0.073-0.013-0.14-0.043-0.216-0.043
		c-0.66,0-1.197,0.525-1.197,1.171c0,0.646,0.537,1.171,1.197,1.171c0.426,0,0.784-0.231,0.996-0.561
		c0.778,1.326,1.905,2.43,3.259,3.193c-0.335,0.208-0.57,0.557-0.57,0.973c0,0.646,0.537,1.171,1.197,1.171
		c0.66,0,1.197-0.525,1.197-1.171c0-0.073-0.029-0.136-0.042-0.205c0.822,0.249,1.695,0.384,2.6,0.384s1.778-0.135,2.6-0.384
		c-0.013,0.069-0.042,0.132-0.042,0.205c0,0.646,0.537,1.171,1.197,1.171s1.197-0.525,1.197-1.171c0-0.416-0.236-0.765-0.571-0.973
		c1.354-0.764,2.48-1.867,3.259-3.194c0.212,0.329,0.57,0.561,0.996,0.561c0.66,0,1.197-0.525,1.197-1.171
		c0-0.646-0.537-1.171-1.197-1.171c-0.077,0-0.144,0.029-0.216,0.043c0.253-0.802,0.39-1.654,0.39-2.537
		c0-0.889-0.139-1.748-0.395-2.556c0.074,0.014,0.143,0.044,0.221,0.044C21.796,37.316,22.333,36.79,22.333,36.145z M16.256,31.067
		c0.17,0,0.309,0.135,0.309,0.302c0,0.166-0.138,0.302-0.309,0.302s-0.309-0.135-0.309-0.302
		C15.947,31.202,16.086,31.067,16.256,31.067z M8.747,31.067c0.17,0,0.308,0.135,0.308,0.302c0,0.166-0.138,0.302-0.308,0.302
		c-0.17,0-0.308-0.135-0.308-0.302C8.439,31.202,8.577,31.067,8.747,31.067z M3.866,36.447c-0.17,0-0.309-0.136-0.309-0.302
		c0-0.166,0.138-0.302,0.309-0.302c0.17,0,0.308,0.135,0.308,0.302C4.175,36.311,4.037,36.447,3.866,36.447z M3.866,43.795
		c-0.17,0-0.309-0.135-0.309-0.302c0-0.166,0.138-0.302,0.309-0.302c0.17,0,0.308,0.136,0.308,0.302
		C4.175,43.659,4.037,43.795,3.866,43.795z M8.747,48.571c-0.17,0-0.308-0.136-0.308-0.302c0-0.166,0.138-0.302,0.308-0.302
		c0.17,0,0.308,0.136,0.308,0.302C9.056,48.435,8.917,48.571,8.747,48.571z M16.256,48.571c-0.17,0-0.309-0.136-0.309-0.302
		c0-0.166,0.139-0.302,0.309-0.302s0.309,0.136,0.309,0.302C16.564,48.435,16.426,48.571,16.256,48.571z M21.445,43.493
		c0,0.167-0.138,0.302-0.308,0.302c-0.17,0-0.309-0.135-0.309-0.302c0-0.166,0.139-0.302,0.309-0.302
		C21.307,43.191,21.445,43.327,21.445,43.493z M12.501,47.29c-4.204,0-7.625-3.348-7.625-7.462c0-4.114,3.42-7.461,7.625-7.461
		c4.204,0,7.625,3.347,7.625,7.461C20.126,43.942,16.706,47.29,12.501,47.29z M20.828,36.145c0-0.166,0.139-0.302,0.309-0.302
		c0.17,0,0.308,0.135,0.308,0.302c0,0.166-0.138,0.302-0.308,0.302C20.967,36.447,20.828,36.311,20.828,36.145z"/>
</g>
</svg>
