<?xml version="1.0" encoding="iso-8859-1"?>
<!-- Generator: Adobe Illustrator 22.0.1, SVG Export Plug-In . SVG Version: 6.00 Build 0)  -->
<svg version="1.1" id="&#x421;&#x43B;&#x43E;&#x439;_1"
	 xmlns="http://www.w3.org/2000/svg" xmlns:xlink="http://www.w3.org/1999/xlink" x="0px" y="0px" viewBox="0 0 71.5 167.275"
	 style="enable-background:new 0 0 71.5 167.275;" xml:space="preserve">
<g>
	<path style="fill:#445F87;" d="M66.583,0H4.916C2.206,0,0,2.206,0,4.917s2.206,4.917,4.916,4.917h3.623l14.904,6.455l-1.547,34.289
		h-2.776c-4.206,0-7.628,3.422-7.628,7.628v14.919H6.033v7.562H5.096v7.375h2.032v41.93l-0.003,0.096l0.019,2.663h0.113
		c0.735,8.003,4.814,15.347,11.229,20.205l-2.112,4.141c-1.753,3.437-0.382,7.661,3.057,9.417c1.015,0.518,2.099,0.763,3.167,0.763
		c2.55-0.001,5.013-1.397,6.248-3.819l2.567-5.034c2.868,0.436,5.799,0.437,8.672,0l2.567,5.033c1.752,3.438,5.976,4.81,9.417,3.057
		c3.437-1.755,4.808-5.979,3.056-9.416l-2.111-4.142c6.413-4.857,10.492-12.201,11.228-20.204h0.137l-0.003-44.688h2.158v-7.375
		h-1.067v-7.562h-4.975V58.206c0-4.206-3.422-7.628-7.627-7.628h-2.865l-1.176-34.7l13.954-6.044h3.806
		c2.711,0,4.917-2.206,4.917-4.917S69.294,0,66.583,0z M40.744,12.612V9.834h6.889L40.744,12.612z M60.378,129.675l-0.023,1.029
		c-0.187,8.043-4.304,15.503-11.013,19.953l-1.486,0.986l2.479,4.863c-0.559-0.29-1.184-0.469-1.856-0.469
		c-1.729,0-3.199,1.088-3.788,2.611l-2.409-4.724l-1.494,0.31c-3.317,0.687-6.771,0.685-10.076,0l-1.495-0.311l-2.553,5.005
		c-0.509-1.667-2.043-2.891-3.874-2.891c-0.547,0-1.067,0.112-1.544,0.308l2.398-4.702l-1.487-0.986
		c-6.71-4.45-10.828-11.91-11.015-19.953l-0.002-5.618c1.316-6.449,5.121-12.184,10.74-15.91l1.115-0.739l-2.531-4.963
		c0.66,0.462,1.46,0.738,2.325,0.738c2.112,0,3.833-1.623,4.029-3.685l2.67,5.234l1.122-0.233c3.354-0.698,6.917-0.698,10.275,0
		l1.121,0.233l2.478-4.858c0.357,1.881,2.008,3.309,3.993,3.309c1.05,0,2-0.411,2.722-1.066l-2.7,5.291l1.115,0.739
		c5.646,3.744,9.463,9.515,10.761,16.002L60.378,129.675z M48.479,161.173c-0.59,0-1.069-0.479-1.069-1.067s0.479-1.068,1.069-1.068
		c0.589,0,1.068,0.479,1.068,1.068S49.067,161.173,48.479,161.173z M22.791,161.173c-0.589,0-1.069-0.479-1.069-1.067
		s0.479-1.068,1.069-1.068c0.589,0,1.068,0.479,1.068,1.068S23.38,161.173,22.791,161.173z M48.479,99.077
		c0.589,0,1.068,0.479,1.068,1.068s-0.479,1.067-1.068,1.067c-0.59,0-1.069-0.479-1.069-1.067S47.889,99.077,48.479,99.077z
		 M46.882,93.793c-1.651,0.536-2.995,1.684-3.783,3.229l-2.733,5.357c-3.039-0.504-6.196-0.504-9.233,0L28.4,97.022
		c-1.072-2.103-3.14-3.364-5.339-3.521h25.312C47.872,93.542,47.372,93.634,46.882,93.793z M19.658,94.185
		c-1.547,0.788-2.694,2.132-3.23,3.784c-0.537,1.651-0.397,3.413,0.392,4.96l2.304,4.516c-3.338,2.448-6.037,5.559-7.984,9.081
		l-0.008-23.024h10.946C21.256,93.567,20.435,93.789,19.658,94.185z M22.791,99.077c0.589,0,1.068,0.479,1.068,1.068
		s-0.479,1.067-1.068,1.067c-0.589,0-1.069-0.479-1.069-1.067S22.202,99.077,22.791,99.077z M15.72,76.626v0.745h-5.688v-0.246
		h5.458v-0.499H15.72z M52.375,107.444l2.305-4.516c1.629-3.194,0.354-7.117-2.838-8.744c-0.753-0.384-1.557-0.61-2.373-0.684
		h10.907l0.002,23.055C58.428,113.022,55.724,109.899,52.375,107.444z M61.466,77.125v0.246h-5.688v-0.745h0.713v0.499H61.466z
		 M49.926,87.563h0.103h5.75h4.597l0,2.937H47.031L49.926,87.563z M11.13,90.5l-0.001-2.937h4.591h5.75h0.127l2.866,2.937H11.13z
		 M39.723,17.626c-0.283,0.56-0.457,1.184-0.457,1.854c0,2.286,1.859,4.146,4.146,4.146c0.79,0,1.522-0.234,2.151-0.619
		l2.121,62.558l-0.166,0.169c0.013-0.133,0.04-0.262,0.04-0.399c0-2.286-1.86-4.146-4.146-4.146s-4.146,1.86-4.146,4.146
		c0,0.809,0.242,1.559,0.645,2.198h-8.323c0.403-0.639,0.645-1.389,0.645-2.198c0-2.286-1.86-4.146-4.146-4.146
		c-2.285,0-4.145,1.86-4.145,4.146c0,0.129,0.026,0.25,0.038,0.375l-0.158-0.161l2.806-62.201c0.455,0.172,0.943,0.279,1.458,0.279
		c2.286,0,4.146-1.86,4.146-4.146c0-0.669-0.174-1.293-0.458-1.854H39.723z M30.755,12.685l-7.07-2.851h7.07V12.685z M19.119,54.578
		h3.097L21.47,71.102v-1.163h-5.75v1.469h-0.229V58.206C15.491,56.206,17.118,54.578,19.119,54.578z M52.864,54.578
		c2,0,3.627,1.627,3.627,3.628v13.201h-0.713v-1.469h-5.623l-0.521-15.36H52.864z M66.583,5.834H36.744v8.792h-1.989V5.834H4.916
		C4.411,5.834,4,5.423,4,4.917S4.411,4,4.916,4h61.667C67.089,4,67.5,4.411,67.5,4.917S67.089,5.834,66.583,5.834z"/>
	<path style="fill:#445F87;" d="M35.749,108.626c-11.855,0-21.5,9.645-21.5,21.5s9.645,21.5,21.5,21.5
		c11.855,0,21.5-9.645,21.5-21.5S47.604,108.626,35.749,108.626z M35.749,148.626c-10.201,0-18.5-8.299-18.5-18.5
		s8.299-18.5,18.5-18.5s18.5,8.299,18.5,18.5S45.95,148.626,35.749,148.626z"/>
	<path style="fill:#445F87;" d="M35.749,76.626c1.473,0,2.671-1.198,2.671-2.671V24.046c0-1.472-1.198-2.67-2.671-2.67
		s-2.67,1.198-2.67,2.67v49.909C33.079,75.428,34.276,76.626,35.749,76.626z"/>
</g>
</svg>
