<?xml version="1.0" encoding="iso-8859-1"?>
<!-- Generator: Adobe Illustrator 22.0.1, SVG Export Plug-In . SVG Version: 6.00 Build 0)  -->
<svg version="1.1" id="&#x421;&#x43B;&#x43E;&#x439;_1"
	 xmlns="http://www.w3.org/2000/svg" xmlns:xlink="http://www.w3.org/1999/xlink" x="0px" y="0px" viewBox="0 0 142.24 175.52"
	 style="enable-background:new 0 0 142.24 175.52;" xml:space="preserve">
<g>
	<path style="fill:#445F87;" d="M129.639,150.321c-1.928-1.097-1.881-2.208-1.59-3.071l0.389-0.79
		c8.776-7.44,13.802-18.263,13.802-29.762c0-11.492-5.011-22.3-13.765-29.73l-0.544-1.248c-0.106-0.521-0.163-1.583,1.71-2.653
		c3.101-1.771,5.215-4.426,5.954-7.478c0.667-2.749,0.164-5.687-1.377-8.056c-2.875-4.445-7.533-5.814-13.8-7.263
		c-2.522-0.582-4.313-1.894-5.328-3.895l-0.221-0.505V27.87h13.938V17.09h-14.824c0.166-0.534,0.256-1.102,0.256-1.69v-0.7h5.539
		c2.757,0,5-2.243,5-5V7.74c0-2.757-2.243-5-5-5H53.597l-0.809-0.531C50.591,0.764,48.036,0,45.399,0H6.04C2.709,0,0,2.709,0,6.04
		v6.57h47.655l5.112,2.047l11.852,2.739l-0.297,0.712L8.059,22.807c-2.081,0.177-3.71,1.953-3.71,4.042
		c0,1.106,0.46,2.178,1.263,2.94c0.751,0.714,1.758,1.113,2.779,1.113c0.066,0,0.133-0.001,0.2-0.005l43.2-1.97
		c0.743-0.038,1.447-0.38,1.89-0.893l2.234-2.426l21.745-1.034v3.296h13.949v27.987l-0.21,0.482
		c-1.012,2.025-2.808,3.348-5.339,3.932c-6.266,1.448-10.923,2.816-13.798,7.259c-1.543,2.374-2.045,5.312-1.379,8.061
		c0.74,3.052,2.855,5.707,5.951,7.474c1.864,1.071,1.812,2.131,1.705,2.654l-0.546,1.252c-8.748,7.425-13.753,18.231-13.753,29.73
		c0,11.511,5.041,22.337,13.798,29.748l0.391,0.8c0.287,0.866,0.329,1.979-1.591,3.075c-6.994,3.993-6.903,10.745-4.702,15.313
		c3.267,6.79,13.42,9.883,21.473,9.883h19.261c8.053,0,18.206-3.093,21.474-9.886C136.536,161.062,136.619,154.308,129.639,150.321z
		 M51.08,24.956L8.368,26.89l0.028-0.097l44.407-3.709L51.08,24.956z M111.366,171.52h-16.26v-17.196
		c2.622,0.566,5.341,0.872,8.13,0.872c2.789,0,5.507-0.305,8.13-0.872V171.52z M103.236,152.195c-8.039,0-15.459-2.69-21.416-7.211
		c-0.137-0.282-0.293-0.563-0.467-0.839l-0.428-0.485c-8.062-6.684-12.685-16.511-12.685-26.96c0-10.464,4.62-20.29,12.674-26.96
		l0.022-0.018l0.2-0.001v-0.164l0.145-0.12l0.403-0.924c5.981-4.584,13.451-7.317,21.552-7.317c8.099,0,15.568,2.731,21.547,7.314
		l0.404,0.927l0.367,0.304c8.062,6.676,12.686,16.503,12.686,26.96c0,10.449-4.624,20.275-12.687,26.96l-0.329,0.273l-0.484,0.983
		C118.768,149.478,111.315,152.195,103.236,152.195z M66.966,13.83l-12.857-2.945L48.425,8.61H4V6.04C4,4.915,4.915,4,6.04,4h39.359
		c1.854,0,3.648,0.536,5.193,1.552l1.811,1.188h67.376c0.552,0,1,0.449,1,1V9.7c0,0.551-0.448,1-1,1h-9.539v0.495H96.229V10.7
		H83.016l-1.06,3.13H72.96v0.496h-2.727l0.207-0.496H66.966z M108.55,17.09v0.497H97.92V17.09c-0.932,0-1.69-0.758-1.69-1.69v-1.205
		h14.011V15.4C110.24,16.332,109.481,17.09,108.55,17.09z M85.884,14.7h6.345v0.7c0,0.588,0.09,1.156,0.256,1.69h-7.411L85.884,14.7
		z M81.66,23.87v-2.78h16.26v-0.503h10.63v0.503h16.259v2.78H112.87v0.499H93.609V23.87H81.66z M95.106,57.837
		c0.135-0.289,0.27-0.579,0.373-0.855l0.13-0.702V27.37h15.261V56.28l0.122,0.696c0.104,0.28,0.239,0.569,0.374,0.857v21.234
		c-2.622-0.566-5.341-0.872-8.13-0.872c-2.789,0-5.507,0.306-8.13,0.872V57.837z M119.519,64.168
		c6.309,1.459,9.444,2.604,11.345,5.542c0.959,1.475,1.26,3.229,0.846,4.937c-0.484,2-1.886,3.71-4.052,4.947
		c-2.08,1.188-3.322,2.838-3.655,4.707c-2.961-1.905-6.196-3.419-9.636-4.46v-18.13C115.632,62.748,117.297,63.655,119.519,64.168z
		 M67.427,21.057l1.569-3.763l3.964,0.008v3.491L67.427,21.057z M74.771,74.648c-0.414-1.708-0.114-3.462,0.848-4.942
		c1.899-2.934,5.034-4.08,11.342-5.538c2.219-0.512,3.882-1.419,5.146-2.456v18.13c-3.441,1.041-6.676,2.555-9.639,4.461
		c-0.332-1.868-1.571-3.518-3.647-4.71C76.656,78.357,75.255,76.647,74.771,74.648z M75.741,163.901
		c-0.74-1.535-2.705-6.801,3.082-10.105c2.069-1.182,3.311-2.839,3.647-4.708c2.962,1.906,6.197,3.419,9.637,4.461v17.935
		C84.479,171.122,77.734,168.046,75.741,163.901z M130.737,163.902c-1.993,4.145-8.741,7.221-16.371,7.581v-17.935
		c3.44-1.041,6.674-2.554,9.636-4.459c0.334,1.869,1.58,3.526,3.655,4.707C133.431,157.093,131.474,162.367,130.737,163.902z"/>
	<path style="fill:#445F87;" d="M135.308,116.695c0-17.684-14.387-32.07-32.071-32.07c-17.684,0-32.071,14.387-32.071,32.07
		c0,17.685,14.387,32.071,32.071,32.071C120.921,148.767,135.308,134.38,135.308,116.695z M74.166,116.695
		c0-16.029,13.041-29.07,29.071-29.07c16.03,0,29.071,13.041,29.071,29.07c0,16.03-13.041,29.071-29.071,29.071
		C87.207,145.767,74.166,132.726,74.166,116.695z"/>
	<path style="fill:#445F87;" d="M129.585,116.695c0-14.528-11.82-26.349-26.349-26.349s-26.348,11.82-26.348,26.349
		s11.819,26.349,26.348,26.349S129.585,131.224,129.585,116.695z M79.889,116.695c0-12.874,10.474-23.349,23.348-23.349
		s23.349,10.475,23.349,23.349s-10.475,23.349-23.349,23.349S79.889,129.569,79.889,116.695z"/>
	<path style="fill:#445F87;" d="M82.65,79.98c0.996,0.585,2.057,0.883,3.105,0.883c0.638,0,1.271-0.11,1.882-0.332
		c1.615-0.586,2.848-1.873,3.471-3.624c0.586-1.648,0.557-3.528-0.084-5.292c-1.358-3.742-5.091-5.834-8.319-4.663
		c-3.228,1.173-4.748,5.172-3.388,8.916C79.958,77.632,81.142,79.092,82.65,79.98z M83.729,69.773
		c0.281-0.102,0.571-0.15,0.863-0.15c1.45,0,2.952,1.196,3.613,3.018c0.403,1.11,0.43,2.268,0.077,3.261
		c-0.317,0.892-0.91,1.534-1.669,1.81c-0.758,0.276-1.625,0.164-2.441-0.317c-0.909-0.535-1.631-1.44-2.035-2.549
		C81.342,72.656,82.057,70.38,83.729,69.773z"/>
	<path style="fill:#445F87;" d="M115.366,76.907c0.623,1.75,1.855,3.037,3.47,3.623c0.611,0.222,1.244,0.333,1.882,0.333
		c1.048,0,2.109-0.297,3.104-0.883c1.509-0.888,2.692-2.347,3.334-4.111c1.359-3.744-0.16-7.743-3.389-8.917
		c-3.229-1.17-6.959,0.921-8.318,4.663C114.809,73.379,114.779,75.259,115.366,76.907z M118.27,72.64
		c0.661-1.821,2.163-3.018,3.612-3.018c0.292,0,0.581,0.048,0.861,0.15c1.674,0.608,2.388,2.883,1.594,5.072
		c-0.404,1.109-1.127,2.015-2.036,2.55c-0.813,0.48-1.68,0.593-2.44,0.316c-0.759-0.275-1.351-0.917-1.668-1.809
		C117.839,74.908,117.866,73.75,118.27,72.64z"/>
	<path style="fill:#445F87;" d="M91.108,156.484c-0.623-1.751-1.856-3.038-3.471-3.624c-1.615-0.587-3.387-0.39-4.987,0.551
		c-1.508,0.888-2.692,2.348-3.333,4.111c-0.641,1.764-0.67,3.643-0.083,5.291c0.623,1.75,1.856,3.037,3.471,3.624
		c0.608,0.221,1.234,0.325,1.858,0.325c2.69,0,5.357-1.949,6.46-4.986v-0.001C91.665,160.012,91.694,158.133,91.108,156.484z
		 M88.205,160.752L88.205,160.752c-0.795,2.188-2.806,3.475-4.475,2.865c-0.759-0.275-1.352-0.918-1.669-1.81
		c-0.354-0.993-0.326-2.151,0.077-3.261c0.403-1.109,1.125-2.015,2.035-2.55c0.523-0.308,1.067-0.465,1.591-0.465
		c0.293,0,0.579,0.05,0.851,0.148c0.758,0.275,1.351,0.918,1.668,1.81C88.635,158.483,88.607,159.642,88.205,160.752z"/>
	<path style="fill:#445F87;" d="M118.837,152.86c-1.615,0.586-2.848,1.873-3.471,3.624c-0.587,1.648-0.558,3.527,0.083,5.291v0.001
		c0.641,1.763,1.824,3.223,3.332,4.11c0.996,0.585,2.057,0.883,3.105,0.883c0.638,0,1.271-0.11,1.881-0.332
		c1.616-0.587,2.849-1.874,3.472-3.624c0.587-1.648,0.558-3.527-0.084-5.292C125.794,153.777,122.059,151.688,118.837,152.86z
		 M124.413,161.808c-0.317,0.892-0.91,1.534-1.67,1.81c-0.759,0.277-1.625,0.163-2.44-0.316c-0.908-0.534-1.63-1.439-2.033-2.549
		c-0.403-1.11-0.431-2.269-0.077-3.262c0.317-0.892,0.909-1.534,1.669-1.81c1.669-0.612,3.679,0.678,4.475,2.865
		C124.739,159.656,124.767,160.814,124.413,161.808z"/>
</g>
</svg>
