<?xml version="1.0" encoding="iso-8859-1"?>
<!-- Generator: Adobe Illustrator 22.0.1, SVG Export Plug-In . SVG Version: 6.00 Build 0)  -->
<svg version="1.1" id="&#x421;&#x43B;&#x43E;&#x439;_1"
	 xmlns="http://www.w3.org/2000/svg" xmlns:xlink="http://www.w3.org/1999/xlink" x="0px" y="0px" viewBox="0 0 179.11 114.777"
	 style="enable-background:new 0 0 179.11 114.777;" xml:space="preserve">
<path style="fill:#445F87;" d="M177.11,0.293h-33.262h-2v1.859h-71.13V2V0h-2H54.631h-2v2v12.521v2h0.783v26.104h-5.826
	c-5.736,0-10.957,2.969-13.904,7.828H16.326V29.299v-2h-2h-9.39h-2v2v11.174H2H0v2v57.131v2h2h0.936v11.173v2h2h9.39h2v-2V91.623
	h17.36c2.945,4.864,8.143,7.828,13.902,7.828h14h14c5.758,0,10.957-2.964,13.901-7.828h17.36v21.154v2h2h9.391h2v-2v-11.173h0.935h2
	v-2V42.473v-2h-2h-0.935V29.299v-2h-2h-9.391h-2v2v21.154H89.491c-2.947-4.859-8.167-7.828-13.903-7.828h-5.652V16.521h0.782v-2
	v-0.152h71.13v1.86h2h33.262h2v-2V2.293v-2H177.11z M87.183,53.587h0.012c0.747,1.622,1.175,3.42,1.175,5.32v24.261
	c0,1.826-0.392,3.561-1.085,5.134l0-0.026c-0.442,0.907-0.936,1.759-1.484,2.546c-2.334,3.107-6.037,5.129-10.213,5.129H47.587
	c-4.166,0-7.861-2.012-10.196-5.106c-0.555-0.794-1.055-1.653-1.501-2.569l0,0.026c-0.693-1.573-1.085-3.308-1.085-5.134V58.907
	c0-1.9,0.428-3.698,1.175-5.32h0.013c0.523-1.029,1.114-1.981,1.773-2.848c2.347-2.817,5.877-4.614,9.821-4.614h6.327v0h15.522v0
	h6.152c3.946,0,7.479,1.799,9.826,4.619C86.071,51.61,86.661,52.56,87.183,53.587z M110.349,50.953V30.798h6.392v10.174h-0.001
	v60.13h0.001v10.175h-6.392V91.123h0.001L110.349,50.953L110.349,50.953z M107.349,53.953v34.17H90.561
	c0.518-1.56,0.808-3.223,0.808-4.955V58.907c0-1.732-0.291-3.394-0.808-4.954H107.349z M12.826,91.123v20.154H6.435v-10.175h0.001
	v-60.13H6.435V30.798h6.391v20.155h-0.001v40.17H12.826z M32.613,88.123H15.826v-34.17h16.787c-0.518,1.56-0.808,3.223-0.808,4.954
	v24.261C31.805,84.9,32.096,86.563,32.613,88.123z M145.349,3.793h30.261v8.935h-30.261V3.793z M142.348,10.87h-72.13V5.652h72.13
	V10.87z M66.802,12.685H56.131V3.5h11.087v8.753h-0.416V12.685z M56.914,43.125V16.021h9.522v27.104H56.914z"/>
</svg>
