<?xml version="1.0" encoding="iso-8859-1"?>
<!-- Generator: Adobe Illustrator 22.0.1, SVG Export Plug-In . SVG Version: 6.00 Build 0)  -->
<svg version="1.1" id="&#x421;&#x43B;&#x43E;&#x439;_1"
	 xmlns="http://www.w3.org/2000/svg" xmlns:xlink="http://www.w3.org/1999/xlink" x="0px" y="0px" viewBox="0 0 129.573 146.707"
	 style="enable-background:new 0 0 129.573 146.707;" xml:space="preserve">
<path style="fill:#445F87;" d="M128.987,71.577l-1.183-1.184l-2.285-2.285l-0.586-0.586h-0.828h-16.208h-0.83l-0.584,0.586
	l-3.469,3.469l-0.586,0.586v0.829v0.117h-7.485l-0.028-8.382l-0.006-1.465h0.766h2v-2V59.79h3.267h2v-2V36.839v-2h-2h-1.113v-6.241
	c0-2.236-1.818-4.055-4.054-4.055H80.017v-1.472v-2h-2h-1.054V2V0h-2H54.61h-2v2v19.071h-1.052h-2v2v1.472h-15.76
	c-2.235,0-4.054,1.819-4.054,4.055v6.241h-1.112h-2v2V57.79v2h2H31.9v1.472v2h2h0.764l-0.005,1.465l-0.029,8.382h-7.484v-0.117
	v-0.829l-0.585-0.586l-1.735-1.734l-1.734-1.735l-0.586-0.586h-0.829H5.47H4.641l-0.586,0.586l-2.583,2.583l-0.886,0.886L0,72.163
	v0.829v54.039v0.828l0.586,0.586l1.293,1.293l2.176,2.176l0.586,0.586H5.47h16.207h0.829l0.586-0.586l3.469-3.469l0.585-0.586
	v-0.467h9.833l2.738,13.253c0.725,3.512,3.856,6.062,7.443,6.062h17.627h17.626c3.588,0,6.718-2.55,7.444-6.062l2.738-13.253h9.833
	v0.467l0.586,0.586l3.469,3.469l0.584,0.586h0.83h16.208h0.828l0.586-0.586l1.734-1.734l1.735-1.735l0.585-0.586v-0.828V72.992
	v-0.829L128.987,71.577z M73.463,3.502v18.069H56.11V3.502H73.463z M53.057,24.571h0.053v0.001h23.353v-0.001h0.053v0.472H53.057
	V24.571z M33.799,28.043h16.258h29.458h16.26c0.015,0,0.028,0.008,0.043,0.009c0.195,0.137,0.365,0.307,0.503,0.503
	c0.001,0.015,0.009,0.028,0.009,0.043v6.741h-6.997H76.517H53.057H40.241h-6.997v-6.741c0-0.016,0.008-0.029,0.009-0.045
	c0.137-0.195,0.307-0.364,0.501-0.501C33.77,28.051,33.783,28.043,33.799,28.043z M104.929,123.892V76.609h1v-2.996l2.59-2.591
	h14.965l2.591,2.591v52.796L123.483,129h-14.966l-2.589-2.591v-2.518H104.929z M82.413,143.207H47.16
	c-1.935,0-3.624-1.376-4.015-3.272l-3.315-16.043h-2.792V76.609h1.081l0.036-10.374H91.42l0.036,10.374h0.69v47.283h-2.401
	l-3.315,16.043C86.037,141.831,84.349,143.207,82.413,143.207z M24.842,76.609v47.283h-1.195v2.518L21.057,129H6.091L3.5,126.41
	V73.613l2.591-2.591h14.965l2.59,2.591v2.996H24.842z M99.33,38.339h0.112v17.951h-2.267h-7.843V38.339H99.33z M86.333,56.289
	h-6.816V38.339h6.816V56.289z M76.517,56.289H53.057V38.339h23.459V56.289z M50.057,56.289h-6.816V38.339h6.816V56.289z
	 M40.241,56.289H32.4h-2.269V38.339h0.113h9.997V56.289z M35.4,59.289h4.841h12.816h23.459h12.816h4.843v0.472h-1.012H36.41H35.4
	V59.289z M101.929,76.609v47.283h-6.782V76.609H101.929z M90.164,63.234H39.41v-0.473h50.754V63.234z M27.842,123.892V76.609h6.196
	v47.283H27.842z"/>
</svg>
