<?xml version="1.0" encoding="utf-8"?>
<!-- Generator: Adobe Illustrator 22.0.1, SVG Export Plug-In . SVG Version: 6.00 Build 0)  -->
<svg version="1.1" id="Слой_1" xmlns="http://www.w3.org/2000/svg" xmlns:xlink="http://www.w3.org/1999/xlink" x="0px" y="0px"
	 viewBox="0 0 128.6 182.7" style="enable-background:new 0 0 128.6 182.7;" xml:space="preserve">
<style type="text/css">
	.st0{fill:#445F87;}
</style>
<g>
	<path class="st0" d="M35.8,75h-10v2.9h-3.5v9.2h3.5h10h4.1v-9.2h-4.1V75z M25.3,84.1v-3.2h0.5v3.2H25.3z M28.8,84.1v-3.2h4v3.2
		H28.8z M36.9,80.9v3.2h-1.1v-3.2H36.9z"/>
	<path class="st0" d="M102.3,75h-10v2.9h-3.5v9.2h3.5h10h4.1v-9.2h-4.1V75z M91.8,84.1v-3.2h0.5v3.2H91.8z M95.3,84.1v-3.2h4v3.2
		H95.3z M103.4,80.9v3.2h-1.1v-3.2H103.4z"/>
	<path class="st0" d="M1.3,9.2c0,3.4,2.8,6.3,6.3,6.3H59v-3H7.5c-1.8,0-3.3-1.5-3.3-3.3S5.8,6,7.5,6H59V3H7.5C4.1,3,1.3,5.8,1.3,9.2
		z"/>
	<path class="st0" d="M121,3H69.5v3H121c1.8,0,3.3,1.5,3.3,3.3s-1.5,3.3-3.3,3.3H69.5v3H121c3.4,0,6.3-2.8,6.3-6.3S124.5,3,121,3z"
		/>
</g>
<g>
	<g>
		<polygon class="st0" points="1.5,157.5 13.7,169.7 13.7,168.3 1.5,156.1 		"/>
		<polygon class="st0" points="1.5,160.5 13.7,172.7 13.7,171.2 1.5,159.1 		"/>
		<polygon class="st0" points="1.5,163.4 13.7,175.6 13.7,174.2 1.5,162 		"/>
		<polygon class="st0" points="1.5,166.4 13.7,178.5 13.7,177.1 1.5,165 		"/>
		<polygon class="st0" points="1.5,167.9 1.5,168.2 2.7,169.4 2.7,170.5 13.4,181.2 13.7,181.2 13.7,180.1 		"/>
		<polygon class="st0" points="10.5,181.2 11.9,181.2 2.7,172 2.7,173.4 		"/>
		<polygon class="st0" points="7.6,181.2 9,181.2 2.7,174.9 2.7,176.4 		"/>
		<polygon class="st0" points="4.6,181.2 6,181.2 2.7,177.9 2.7,179.3 		"/>
		<path class="st0" d="M23.8,159.2c0.3-0.1,0.7-0.3,1-0.4l-5.5-5.5c-0.3,0.1-0.7,0.3-1,0.4L23.8,159.2z"/>
		<path class="st0" d="M21.6,160c0.3-0.1,0.7-0.3,1-0.4l-5.5-5.5c-0.4,0.1-0.7,0.2-1.1,0.4L21.6,160z"/>
		<path class="st0" d="M19.5,160.8c0.3-0.1,0.7-0.2,1-0.4l-5.6-5.6c-0.4,0.1-0.8,0.2-1.1,0.3L19.5,160.8z"/>
		<path class="st0" d="M17.3,161.6c0.3-0.1,0.7-0.2,1.1-0.4l-5.9-5.9c-0.3,0-0.6,0-0.8,0c-0.2,0-0.4,0-0.5,0L17.3,161.6z"/>
		<g>
			<path class="st0" d="M26.8,157.9l-5.5-5.5c-0.3,0.1-0.7,0.3-1,0.4l5.5,5.5C26.2,158.2,26.5,158.1,26.8,157.9z"/>
			<polygon class="st0" points="1.5,132.6 1.5,133.6 2.5,133.6 			"/>
		</g>
		<path class="st0" d="M15.1,162.3c0.3-0.1,0.7-0.2,1.1-0.4l-6.6-6.6c-0.5,0-1,0-1.4,0L15.1,162.3z"/>
		<g>
			<path class="st0" d="M30.8,156l-5.5-5.5c-0.3,0.2-0.6,0.3-0.9,0.5l5.5,5.5C30.1,156.3,30.5,156.1,30.8,156z"/>
			<polygon class="st0" points="1.5,126.7 1.5,128.1 7,133.6 8.4,133.6 			"/>
		</g>
		<g>
			<polygon class="st0" points="1.5,129.7 1.5,131.1 4,133.6 5.4,133.6 			"/>
			<path class="st0" d="M28.8,157l-5.5-5.5c-0.3,0.2-0.6,0.3-1,0.5l5.5,5.5C28.2,157.3,28.5,157.1,28.8,157z"/>
		</g>
		<g>
			<polygon class="st0" points="1.5,123.8 1.5,125.2 9.9,133.6 11.3,133.6 			"/>
			<path class="st0" d="M32.7,155l-5.5-5.5c-0.3,0.2-0.6,0.3-0.9,0.5l5.5,5.5C32.1,155.3,32.4,155.1,32.7,155z"/>
		</g>
		<g>
			<polygon class="st0" points="1.5,122.2 12.8,133.6 14.3,133.6 1.5,120.8 			"/>
			<path class="st0" d="M34.6,154l-5.5-5.5c-0.3,0.2-0.6,0.3-0.9,0.5l5.5,5.5C34,154.3,34.3,154.1,34.6,154z"/>
		</g>
		<path class="st0" d="M6.6,155.3c-0.5,0-1,0-1.4,0l8.5,8.5v-1.1c0,0,0.1,0,0.3-0.1L6.6,155.3z"/>
		<g>
			<polygon class="st0" points="15.8,133.6 16.3,133.6 16.8,133.2 2.7,119.1 2.7,119.6 2.2,120 			"/>
			<path class="st0" d="M36.6,153l-5.6-5.6c-0.3,0.2-0.6,0.3-0.9,0.5l5.5,5.5C36,153.3,36.3,153.1,36.6,153z"/>
		</g>
		<g>
			<polygon class="st0" points="2.7,116.1 2.7,117.5 17.7,132.6 18.6,132 			"/>
			<path class="st0" d="M38.6,152.1l-5.8-5.8c-0.3,0.2-0.6,0.4-0.9,0.5l5.7,5.7C38,152.3,38.3,152.2,38.6,152.1z"/>
		</g>
		<g>
			<polygon class="st0" points="2.7,113.2 2.7,114.6 19.5,131.4 20.3,130.8 14.2,124.7 13.7,124.7 13.7,124.2 			"/>
			<path class="st0" d="M41.4,151.9l-6.7-6.7c-0.3,0.2-0.6,0.4-0.9,0.5l6.1,6.1C40.4,151.8,40.9,151.8,41.4,151.9z"/>
			<path class="st0" d="M46.2,156.7c1.9,2.6,5.9,7.3,10.8,10.8L46.2,156.7z"/>
		</g>
		<path class="st0" d="M13.7,165.4l-10-10c-0.6,0-1,0-1.4,0l11.4,11.4V165.4z"/>
		<g>
			<path class="st0" d="M71.5,173.2L61,162.7c-2.2-1.3-3.9-2.8-5.2-4.3c-0.8-1-1.6-2.1-2.3-3.1l-13.7-13.7c-0.3,0.2-0.5,0.4-0.8,0.6
				l30.7,30.7C70.3,172.9,70.9,173.1,71.5,173.2z"/>
			<polygon class="st0" points="24.7,127.8 25.6,127.2 21.2,122.9 20.3,123.4 			"/>
			<polygon class="st0" points="4.7,107.7 13.7,116.8 13.7,115.3 6.1,107.7 			"/>
		</g>
		<g>
			<polygon class="st0" points="13.7,119.7 13.7,118.3 3.1,107.7 2.7,107.7 2.7,108.7 			"/>
			<polygon class="st0" points="23,129 23.8,128.4 19.4,124 18.5,124.6 			"/>
			<path class="st0" d="M67.7,172.3l-29.5-29.5c-0.3,0.2-0.5,0.4-0.8,0.6l28.4,28.4C66.4,172,67,172.1,67.7,172.3z"/>
		</g>
		<g>
			<polygon class="st0" points="7.6,107.7 13.7,113.8 13.7,112.4 9,107.7 			"/>
			<polygon class="st0" points="26.5,126.6 27.3,126 23,121.7 22.1,122.2 			"/>
			<path class="st0" d="M50.3,149.1l-8.8-8.8c-0.1,0.1-0.3,0.2-0.4,0.3c-0.1,0.1-0.3,0.2-0.4,0.3l10.7,10.7
				C51,150.7,50.6,149.9,50.3,149.1z"/>
			<path class="st0" d="M74.9,173.7l-8.4-8.4c-0.8-0.3-1.6-0.6-2.3-0.9l9.1,9.1C73.8,173.5,74.4,173.6,74.9,173.7z"/>
		</g>
		<g>
			<polygon class="st0" points="28.2,125.4 29.1,124.8 24.7,120.5 23.9,121.1 			"/>
			<polygon class="st0" points="10.5,107.7 13.7,110.9 13.7,109.5 12,107.7 			"/>
			<path class="st0" d="M49.5,145.3l-6.3-6.3c-0.3,0.2-0.5,0.4-0.8,0.6l7.3,7.3C49.5,146.2,49.5,145.7,49.5,145.3z"/>
			<path class="st0" d="M78.1,173.9l-7.5-7.5c-0.6-0.1-1.3-0.3-1.9-0.5l7.9,7.9C77.1,173.8,77.6,173.9,78.1,173.9z"/>
		</g>
		<g>
			<path class="st0" d="M74.1,167c-0.6-0.1-1.1-0.1-1.6-0.2l7.2,7.2c0.5,0,0.9,0,1.4,0L74.1,167z"/>
			<polygon class="st0" points="30,124.2 30.8,123.7 26.5,119.4 25.7,119.9 			"/>
			<path class="st0" d="M50.2,143.1l-5.3-5.3c-0.3,0.2-0.6,0.3-0.9,0.5l5.6,5.6C49.9,143.5,50.1,143.2,50.2,143.1z"/>
			<polygon class="st0" points="13.7,107.9 13.7,107.7 13.5,107.7 			"/>
		</g>
		<g>
			<polygon class="st0" points="33.5,121.8 34.3,121.3 30.1,117.1 29.2,117.6 			"/>
			<path class="st0" d="M50.7,137.6L49,136c-0.3,0.1-0.7,0.2-1.1,0.4l2.7,2.7L50.7,137.6z"/>
			<path class="st0" d="M86.4,173.3l-6.1-6.1c-0.5,0-0.9,0-1.4,0l6.3,6.3C85.6,173.5,86,173.4,86.4,173.3z"/>
		</g>
		<g>
			<path class="st0" d="M83.8,173.7l-6.5-6.5c-0.5,0-1-0.1-1.5-0.1l6.7,6.7C82.9,173.8,83.4,173.8,83.8,173.7z"/>
			<polygon class="st0" points="31.7,123 32.6,122.5 28.3,118.2 27.5,118.8 			"/>
			<path class="st0" d="M50.6,140.5l-3.7-3.7c-0.3,0.1-0.6,0.3-0.9,0.5l4.6,4.6L50.6,140.5z"/>
		</g>
		<g>
			<polygon class="st0" points="20.1,105.5 21.5,105.5 19.4,103.4 19.4,104.8 			"/>
			<polygon class="st0" points="50.5,134.5 50.5,135.6 50.7,135.6 51.6,135.6 			"/>
			<polygon class="st0" points="31.9,115.9 31,116.5 35.2,120.7 36.1,120.1 			"/>
			<path class="st0" d="M88.8,172.8l-5.7-5.7c-0.4,0-0.9,0.1-1.3,0.1l5.9,5.9C88,173,88.4,172.9,88.8,172.8z"/>
			<path class="st0" d="M50.7,136.2l0-0.5c0,0-0.2,0-0.5,0L50.7,136.2z"/>
		</g>
		<g>
			<polygon class="st0" points="54.6,135.6 50.5,131.6 50.5,133 53.1,135.6 			"/>
			<polygon class="st0" points="33.7,114.7 32.8,115.3 37,119.5 37.8,118.9 			"/>
			<polygon class="st0" points="23,105.5 24.4,105.5 19.4,100.5 19.4,101.9 			"/>
			<path class="st0" d="M91,172.1l-5.3-5.3c-0.3,0.1-0.7,0.1-1,0.2c-0.1,0-0.1,0-0.2,0l5.5,5.5C90.3,172.4,90.7,172.2,91,172.1z"/>
		</g>
		<g>
			<polygon class="st0" points="57.5,135.6 50.5,128.6 50.5,130.1 56.1,135.6 			"/>
			<polygon class="st0" points="35.4,113.6 34.6,114.1 38.7,118.3 39.6,117.7 			"/>
			<path class="st0" d="M88.1,166.3c-0.4,0.1-0.7,0.2-1.1,0.3l5.1,5.1c0.3-0.1,0.7-0.3,1-0.4L88.1,166.3z"/>
			<polygon class="st0" points="25.9,105.5 27.4,105.5 19.4,97.5 19.4,98.9 			"/>
		</g>
		<g>
			<polygon class="st0" points="19.4,94.6 19.4,94.9 19.7,94.9 			"/>
			<polygon class="st0" points="37.2,112.4 36.4,113 40.5,117.1 41.3,116.5 			"/>
			<path class="st0" d="M90.3,165.5c-0.3,0.1-0.7,0.3-1,0.4l4.9,4.9c0.3-0.2,0.6-0.3,0.9-0.5L90.3,165.5z"/>
			<polygon class="st0" points="60.4,135.6 53,128.2 51.6,128.2 59,135.6 			"/>
			<polygon class="st0" points="30.3,105.5 19.7,94.9 19.4,94.9 19.4,96 28.9,105.5 			"/>
		</g>
		<g>
			<polygon class="st0" points="39.2,108.5 40,110.6 39.9,110.7 44,114.7 44.8,114.1 			"/>
			<polygon class="st0" points="34.8,105.5 36.2,105.5 25.6,94.9 24.1,94.9 			"/>
			<polygon class="st0" points="19.4,90.1 24.1,94.9 25.6,94.9 19.4,88.7 			"/>
			<path class="st0" d="M98.5,167.8l-4.4-4.4c-0.3,0.2-0.6,0.4-0.9,0.6l4.5,4.5C98,168.2,98.2,168,98.5,167.8z"/>
			<polygon class="st0" points="66.3,135.6 58.9,128.2 57.5,128.2 64.9,135.6 			"/>
		</g>
		<g>
			<polygon class="st0" points="69.3,135.6 61.9,128.2 60.5,128.2 67.9,135.6 			"/>
			<polygon class="st0" points="28.5,94.9 27.1,94.9 37.7,105.5 38,105.5 38.2,106 45.7,113.5 46.5,112.9 			"/>
			<polygon class="st0" points="19.4,87.2 27.1,94.9 28.5,94.9 19.4,85.8 			"/>
			<path class="st0" d="M100.2,166.6l-4.4-4.4c-0.3,0.2-0.5,0.4-0.8,0.6l4.4,4.4C99.6,166.9,99.9,166.7,100.2,166.6z"/>
		</g>
		<g>
			<polygon class="st0" points="39,111.3 38.2,111.8 42.2,115.9 43,115.3 			"/>
			<polygon class="st0" points="31.8,105.5 33.2,105.5 22.6,94.9 21.2,94.9 			"/>
			<polygon class="st0" points="63.4,135.6 56,128.2 54.6,128.2 62,135.6 			"/>
			<path class="st0" d="M92.2,164.5c-0.3,0.2-0.6,0.3-0.9,0.5l4.7,4.7c0.3-0.2,0.6-0.4,0.8-0.6L92.2,164.5z"/>
			<polygon class="st0" points="19.4,93 21.2,94.9 22.6,94.9 19.4,91.6 			"/>
		</g>
		<g>
			<polygon class="st0" points="78.1,135.6 78.1,135.6 70.7,128.2 69.3,128.2 76.7,135.6 			"/>
			<polygon class="st0" points="37.3,94.9 35.9,94.9 49,108 49,106.5 			"/>
			<polygon class="st0" points="78.2,135.8 78.1,135.8 78.1,137.1 83.4,142.4 84.4,142 			"/>
			<path class="st0" d="M121.6,179.2l-6.8-6.8c0,0.5,0,1,0,1.4l5.4,5.4H121.6z"/>
			<polygon class="st0" points="35.9,94.9 37.3,94.9 28,85.6 26.6,85.6 			"/>
			<path class="st0" d="M105.7,163.3l-5.3-5.3c-0.2,0.2-0.5,0.5-0.7,0.7l5.1,5.1C105.1,163.5,105.4,163.4,105.7,163.3z"/>
		</g>
		<g>
			<polygon class="st0" points="75.2,135.6 67.8,128.2 66.3,128.2 73.7,135.6 			"/>
			<polygon class="st0" points="78.1,138.6 78.1,140 81.1,143 81.8,143 82.3,142.8 			"/>
			<polygon class="st0" points="34.4,94.9 33,94.9 49,110.9 49,109.5 			"/>
			<polygon class="st0" points="33,94.9 34.4,94.9 25.1,85.6 23.7,85.6 			"/>
			<path class="st0" d="M118.7,179.2l-3.8-3.8c0,0.5,0,1,0,1.4l2.4,2.4H118.7z"/>
			<path class="st0" d="M103.8,164.3l-4.8-4.8c-0.2,0.2-0.5,0.5-0.7,0.7l4.7,4.7C103.2,164.6,103.5,164.4,103.8,164.3z"/>
		</g>
		<g>
			<polygon class="st0" points="72.2,135.6 64.8,128.2 63.4,128.2 70.8,135.6 			"/>
			<polygon class="st0" points="31.4,94.9 30,94.9 47.5,112.3 48.3,111.7 			"/>
			<polygon class="st0" points="78.1,141.5 78.1,142.9 78.2,143 79.6,143 			"/>
			<path class="st0" d="M114.9,178.3c0,0.5,0,0.8,0,0.8h0.8L114.9,178.3z"/>
			<polygon class="st0" points="30,94.9 31.4,94.9 22.1,85.6 20.7,85.6 			"/>
			<path class="st0" d="M101.9,165.4l-4.5-4.5c-0.3,0.2-0.5,0.4-0.8,0.6l4.5,4.5C101.4,165.7,101.7,165.5,101.9,165.4z"/>
		</g>
		<g>
			<polygon class="st0" points="78.1,132.7 73.6,128.2 72.2,128.2 78.1,134.1 			"/>
			<polygon class="st0" points="80.9,135.5 80.7,135.8 79.8,135.8 85.5,141.5 86.5,141.1 			"/>
			<polygon class="st0" points="41.8,96.4 41.8,97.4 41.8,97.4 41.8,96.4 40.3,94.9 38.9,94.9 49,105 49,103.6 			"/>
			<path class="st0" d="M124.6,179.2l-9.8-9.8c0,0.5,0,1,0,1.4l8.4,8.4H124.6z"/>
			<polygon class="st0" points="38.8,94.9 40.3,94.9 31,85.6 29.6,85.6 			"/>
			<path class="st0" d="M101.8,156.4c-0.2,0.2-0.4,0.5-0.7,0.8l5.7,5.7c0.4-0.1,0.7-0.3,1-0.4L101.8,156.4z"/>
		</g>
		<g>
			<polygon class="st0" points="2.7,111.6 13.7,122.6 13.7,121.2 2.7,110.2 			"/>
			<path class="st0" d="M36.4,144c-0.3,0.2-0.6,0.4-0.9,0.6l25.4,25.4c0.7,0.3,1.4,0.7,2.1,0.9c0.1,0.1,0.3,0.1,0.4,0.2L36.4,144z"
				/>
			<polygon class="st0" points="17.2,124.7 15.8,124.7 21.2,130.2 22.1,129.6 			"/>
		</g>
		<polygon class="st0" points="59,91.5 59,90.1 49,80.1 49,81.5 		"/>
		<path class="st0" d="M59,85.6v-1.4L37.9,63.1c0.4,0.9,0.8,1.8,1.2,2.6L59,85.6z"/>
		<g>
			<polygon class="st0" points="69.5,94.7 69.5,96.1 70.8,97.4 72.2,97.4 			"/>
			<polygon class="st0" points="79.6,104.8 79.6,106.2 91,117.6 91,116.2 			"/>
			<polygon class="st0" points="127.1,152.3 126.7,151.9 125.3,151.9 127.1,153.7 			"/>
			<path class="st0" d="M101.7,126.9l-1.1,0.3l6.9,6.9c0.4-0.1,0.8-0.1,1.3-0.2L101.7,126.9z"/>
		</g>
		<path class="st0" d="M59,88.6v-1.4L41.4,69.6c3.6,5.2,7.6,7.7,7.6,7.7v1.3L59,88.6z"/>
		<g>
			<path class="st0" d="M99.3,127.4l-1.1,0.3l6.7,6.7c0.4-0.1,0.8-0.2,1.2-0.2L99.3,127.4z"/>
			<polygon class="st0" points="79.6,107.7 79.6,109.1 91,120.5 91,119.1 			"/>
			<polygon class="st0" points="127.1,155.2 123.8,151.9 122.4,151.9 127.1,156.6 			"/>
		</g>
		<g>
			<polygon class="st0" points="79.6,110.6 79.6,111.2 83.4,115.9 83.4,115.9 91,123.4 91,122 			"/>
			<path class="st0" d="M96.9,128l-1.1,0.3l6.7,6.7c0.4-0.1,0.7-0.2,1.1-0.3L96.9,128z"/>
			<polygon class="st0" points="127.1,158.1 120.8,151.9 119.4,151.9 127.1,159.6 			"/>
		</g>
		<polygon class="st0" points="59,97.4 59,97.4 59,96 46.5,83.4 45,83.4 		"/>
		<path class="st0" d="M59,82.7v-1.4L36.5,58.8c0.2,0.7,0.4,1.3,0.6,2L59,82.7z"/>
		<g>
			<polygon class="st0" points="79.6,103.2 91,114.7 91,114.2 89,111.2 79.6,101.8 			"/>
			<polygon class="st0" points="69.5,91.8 69.5,93.2 73.7,97.4 75.1,97.4 			"/>
			<path class="st0" d="M104,126.3l-1.1,0.3l7.1,7.1c0.4,0,0.9-0.1,1.3-0.1L104,126.3z"/>
		</g>
		<polygon class="st0" points="59,94.5 59,93.1 49,83.1 49,83.4 48,83.4 		"/>
		<g>
			<polygon class="st0" points="83.4,117.4 83.3,118.7 90.9,126.4 90.9,125 			"/>
			<path class="st0" d="M94.6,128.6l-1.1,0.3l6.9,6.9c0.4-0.1,0.7-0.2,1.1-0.3L94.6,128.6z"/>
			<polygon class="st0" points="127.1,161.1 117.9,151.9 116.5,151.9 127.1,162.5 			"/>
		</g>
		<g>
			<path class="st0" d="M92.2,129.2l-1.1,0.3l7.1,7.1l0.5-0.2c0.2-0.1,0.3-0.1,0.5-0.2L92.2,129.2z"/>
			<polygon class="st0" points="83.2,120.2 83.2,121.6 90.9,129.3 90.9,127.9 			"/>
			<polygon class="st0" points="127.1,164 114.9,151.9 113.5,151.9 127.1,165.4 			"/>
		</g>
		<g>
			<polygon class="st0" points="82.9,128.7 82.9,130.1 91.8,139 92.9,138.6 			"/>
			<polygon class="st0" points="50.2,97.4 51.6,97.4 39.1,84.9 38.4,85.6 			"/>
			<path class="st0" d="M125.4,171.2l-18.5-18.5c-0.3,0.1-0.7,0.3-1,0.4l19.5,19.5V171.2z"/>
		</g>
		<g>
			<polygon class="st0" points="53.1,97.4 54.5,97.4 40.7,83.6 40,84.2 			"/>
			<polygon class="st0" points="83,125.9 83,127.2 93.9,138.2 95,137.8 			"/>
			<path class="st0" d="M125.4,168.2l-16.1-16.1c-0.4,0.1-0.8,0.1-1.2,0.2l17.3,17.3V168.2z"/>
		</g>
		<g>
			<polygon class="st0" points="56.1,97.4 57.5,97.4 43.5,83.4 42.1,83.4 			"/>
			<polygon class="st0" points="83.1,123 83.1,124.4 96.1,137.4 97.1,137 			"/>
			<path class="st0" d="M126.6,166.4L112,151.9h-0.4c-0.3,0-0.7,0-1,0.1l15.1,15.1L126.6,166.4z"/>
		</g>
		<g>
			<polygon class="st0" points="78.1,131.2 78.1,129.8 76.6,128.2 75.2,128.2 			"/>
			<path class="st0" d="M125.4,177.1l-10.7-10.7c0,0.5,0,0.9,0,1.4l10.7,10.7V177.1z"/>
			<polygon class="st0" points="82,133.6 81.5,134.5 87.6,140.7 88.6,140.3 			"/>
			<path class="st0" d="M103.2,154.9c-0.2,0.2-0.5,0.5-0.7,0.7l6.5,6.5c0.4-0.1,0.8-0.2,1.2-0.2L103.2,154.9z"/>
			<polygon class="st0" points="41.8,94.9 41.8,94.9 41.8,94.9 49,102.1 49,100.7 33.9,85.6 32.5,85.6 			"/>
		</g>
		<g>
			<polygon class="st0" points="82.8,131.5 82.8,132.2 82.5,132.7 89.7,139.9 90.7,139.5 			"/>
			<polygon class="st0" points="49,99.1 49,97.7 36.9,85.6 35.4,85.6 			"/>
			<path class="st0" d="M125.4,174.1l-10.7-10.7c0,0.5,0,0.9,0,1.4l10.7,10.7V174.1z"/>
			<path class="st0" d="M113.3,162.1l-8.4-8.4c-0.3,0.2-0.6,0.4-0.9,0.6l7.7,7.7C112.3,161.9,112.8,161.9,113.3,162.1z"/>
		</g>
		<g>
			<polygon class="st0" points="69.5,83 69.5,84.4 90.7,105.5 92.1,105.5 			"/>
			<polygon class="st0" points="111.3,124.7 110.3,124.7 110,124.8 118.7,133.6 120.2,133.6 			"/>
		</g>
		<g>
			<polygon class="st0" points="59,73.9 59,72.5 53.2,66.6 51.7,66.6 			"/>
			<path class="st0" d="M43.1,57.9c-0.1-0.5-0.1-1-0.2-1.6l-7.3-7.3c0,0.4,0,0.9-0.1,1.4L43.1,57.9z"/>
		</g>
		<g>
			<polygon class="st0" points="69.5,85.9 69.5,87.3 89.8,107.6 90.2,106.5 			"/>
			<polygon class="st0" points="108.8,125.1 107.6,125.4 115.8,133.6 117.2,133.6 			"/>
		</g>
		<g>
			<polygon class="st0" points="86.8,97.3 86.8,97.4 86.8,97.4 86.8,97.3 69.5,80 69.5,81.4 93.6,105.5 95,105.5 			"/>
			<polygon class="st0" points="114.3,124.7 112.9,124.7 121.7,133.6 123.1,133.6 			"/>
		</g>
		<g>
			<polygon class="st0" points="59,76.8 59,75.4 50.2,66.6 48.8,66.6 			"/>
			<path class="st0" d="M35.7,53.5l8,8c-0.1-0.5-0.2-1.1-0.3-1.7L35.6,52C35.6,52.5,35.6,52.9,35.7,53.5z"/>
		</g>
		<g>
			<polygon class="st0" points="59,70.9 59,69.5 56.1,66.6 54.7,66.6 			"/>
			<path class="st0" d="M42.8,54.7c0-0.5-0.1-1-0.1-1.5l-6.8-6.8c-0.1,0.4-0.1,0.8-0.2,1.2L42.8,54.7z"/>
		</g>
		<g>
			<polygon class="st0" points="59,79.8 59,78.3 47.3,66.6 45.9,66.6 			"/>
			<path class="st0" d="M44.8,65.5c-0.2-0.5-0.4-1.2-0.6-2l-8.3-8.3c0.1,0.6,0.2,1.1,0.3,1.7L44.8,65.5z"/>
		</g>
		<g>
			<polygon class="st0" points="69.5,77.1 69.5,78.5 86.8,95.7 86.8,94.9 86.8,94.9 86.8,95.8 96.5,105.5 98,105.5 			"/>
			<polygon class="st0" points="114.9,122.4 114.9,123.9 124.6,133.6 126,133.6 			"/>
		</g>
		<g>
			<polygon class="st0" points="59,68 59,66.6 59,66.6 57.6,66.6 			"/>
			<path class="st0" d="M42.7,51.7c0-0.5,0-0.9,0-1.4L36.4,44c-0.1,0.4-0.2,0.8-0.3,1.2L42.7,51.7z"/>
		</g>
		<g>
			<polygon class="st0" points="69.5,74.1 69.5,75.6 99.5,105.5 100.9,105.5 			"/>
			<polygon class="st0" points="127.1,131.7 114.9,119.5 114.9,120.9 127.1,133.1 			"/>
		</g>
		<path class="st0" d="M42.8,48.8c0-0.4,0.1-0.9,0.1-1.3l-5.9-5.9c-0.1,0.4-0.2,0.7-0.3,1.1L42.8,48.8z"/>
		<g>
			<polygon class="st0" points="81.8,83.4 80.4,83.4 102.4,105.5 103.8,105.5 			"/>
			<polygon class="st0" points="69.5,71.2 69.5,72.6 79.5,82.6 79.5,81.2 			"/>
			<polygon class="st0" points="127.1,128.7 114.9,116.6 114.9,118 127.1,130.1 			"/>
		</g>
		<path class="st0" d="M43.1,46.2c0.1-0.4,0.1-0.8,0.2-1.2l-5.5-5.5c-0.1,0.3-0.3,0.7-0.4,1L43.1,46.2z"/>
		<g>
			<polygon class="st0" points="69.5,68.3 69.5,69.7 79.5,79.7 79.5,78.3 			"/>
			<polygon class="st0" points="127.1,125.8 114.9,113.6 114.9,115 127.1,127.2 			"/>
			<polygon class="st0" points="84.7,83.4 83.3,83.4 105.4,105.5 106.8,105.5 			"/>
		</g>
		<path class="st0" d="M43.6,43.7c0.1-0.4,0.2-0.8,0.3-1.1l-5.2-5.2c-0.2,0.3-0.3,0.6-0.4,1L43.6,43.7z"/>
		<g>
			<polygon class="st0" points="69.5,88.8 69.5,90.3 76.7,97.4 78.1,97.4 			"/>
			<path class="st0" d="M106.4,125.7l-1.1,0.3l7.6,7.6c0.1,0,0.2,0,0.3,0h1.1L106.4,125.7z"/>
			<polygon class="st0" points="79.6,98.9 79.6,100.3 88.9,109.7 89.3,108.6 			"/>
		</g>
		<g>
			<path class="st0" d="M84.6,62.7c-0.1,0.4-0.2,0.8-0.3,1.1l4,4c0.2-0.3,0.4-0.6,0.5-0.9L84.6,62.7z"/>
			<polygon class="st0" points="107.5,85.6 106,85.6 109.2,88.7 109.2,87.3 			"/>
		</g>
		<path class="st0" d="M46.5,26.1L58,37.6h1v-0.4L46.5,24.7C46.5,25.1,46.5,25.6,46.5,26.1z"/>
		<g>
			<polygon class="st0" points="117.9,107.7 116.4,107.7 125.9,117.2 125.9,115.8 			"/>
			<path class="st0" d="M75.3,66.6l7.8,7.8c0.2-0.2,0.5-0.5,0.7-0.7l-7.1-7.1H75.3z"/>
			<polygon class="st0" points="109.2,100.5 109.2,99.1 95.7,85.6 94.3,85.6 			"/>
			<path class="st0" d="M46.3,37.6h1.4L42,31.8c-0.2,0.3-0.4,0.6-0.6,0.8L46.3,37.6z"/>
		</g>
		<g>
			<polygon class="st0" points="114.9,107.7 114.9,107.7 114.9,109.2 127.1,121.3 127.1,120.8 125.9,119.6 125.9,118.7 			"/>
			<polygon class="st0" points="109.2,103.4 109.2,102 92.7,85.6 91.3,85.6 			"/>
			<path class="st0" d="M45.2,39.4c0.2-0.4,0.3-0.7,0.5-0.9l-4.8-4.8c-0.2,0.3-0.4,0.6-0.5,0.9L45.2,39.4z"/>
			<path class="st0" d="M81.5,75.8c0.2-0.2,0.5-0.4,0.8-0.7l-8.5-8.5h-1.4L81.5,75.8z"/>
		</g>
		<g>
			<path class="st0" d="M78.2,66.6l6.3,6.3c0.2-0.2,0.4-0.5,0.7-0.8l-5.5-5.5H78.2z"/>
			<polygon class="st0" points="109.2,97.6 109.2,96.1 98.6,85.6 97.2,85.6 			"/>
			<polygon class="st0" points="120.8,107.7 119.4,107.7 125.9,114.3 125.9,112.9 			"/>
			<path class="st0" d="M49.2,37.6h1.4l-7.4-7.4c-0.2,0.3-0.4,0.5-0.6,0.8L49.2,37.6z"/>
		</g>
		<g>
			<path class="st0" d="M70.8,66.6h-1.3v0.1L79.9,77c0.2-0.1,0.5-0.3,0.8-0.6L70.8,66.6z"/>
			<polygon class="st0" points="127.1,122.8 114.9,110.7 114.9,112.1 127.1,124.3 			"/>
			<polygon class="st0" points="87.6,83.4 86.2,83.4 108.3,105.5 109.2,105.5 109.2,105 			"/>
		</g>
		<g>
			<polygon class="st0" points="101.6,85.6 100.2,85.6 109.2,94.6 109.2,93.2 			"/>
			<path class="st0" d="M81.2,66.6l4.7,4.7c0.2-0.3,0.4-0.5,0.6-0.8l-3.9-3.9H81.2z"/>
			<path class="st0" d="M52.2,37.6h1.4l-9.1-9.1c-0.2,0.2-0.4,0.5-0.6,0.8L52.2,37.6z"/>
			<polygon class="st0" points="123.7,107.7 122.3,107.7 125.9,111.3 125.9,109.9 			"/>
		</g>
		<g>
			<path class="st0" d="M84,65c-0.1,0.4-0.3,0.8-0.4,1l3.5,3.5c0.2-0.3,0.4-0.6,0.6-0.8L84,65z"/>
			<polygon class="st0" points="125.9,108.4 125.9,107.7 125.3,107.7 			"/>
			<polygon class="st0" points="103.1,85.6 109.2,91.7 109.2,90.3 104.5,85.6 			"/>
			<path class="st0" d="M55.1,37.6h1.4L45.9,27c-0.2,0.2-0.4,0.5-0.7,0.7L55.1,37.6z"/>
		</g>
		<g>
			<polygon class="st0" points="109.2,85.8 109.2,85.6 109,85.6 			"/>
			<path class="st0" d="M84.9,61.5l4.5,4.5c0.2-0.3,0.3-0.6,0.5-0.9l-4.7-4.7C85,60.7,85,61.1,84.9,61.5z"/>
		</g>
		<path class="st0" d="M85.5,57.7c-0.1,0.4-0.1,0.8-0.2,1.2l5,5c0.1-0.3,0.3-0.7,0.4-1L85.5,57.7z"/>
		<polygon class="st0" points="59,32.7 59,31.3 48,20.2 46.6,20.2 		"/>
		<path class="st0" d="M85.7,55c0,0.5-0.1,0.9-0.1,1.3l5.5,5.5c0.1-0.3,0.2-0.7,0.4-1.1L85.7,55z"/>
		<polygon class="st0" points="59,29.8 59,28.3 51,20.2 49.5,20.2 		"/>
		<g>
			<polygon class="st0" points="69.5,35.9 69.5,37.3 69.8,37.6 71.2,37.6 			"/>
			<path class="st0" d="M85.9,52.2c0,0.5,0,0.9,0,1.4l6,6c0.1-0.4,0.2-0.7,0.3-1.1L85.9,52.2z"/>
		</g>
		<polygon class="st0" points="59,26.8 59,25.4 53.9,20.2 52.5,20.2 		"/>
		<path class="st0" d="M46.5,23.1L59,35.6v-1.4L46.5,21.7C46.5,22.1,46.5,22.6,46.5,23.1z"/>
		<path class="st0" d="M44.3,41.5c0.1-0.4,0.3-0.7,0.4-1l-5-5c-0.2,0.3-0.3,0.6-0.5,0.9L44.3,41.5z"/>
		<path class="st0" d="M74.5,20.2h-1.4l16.4,16.4c-0.6-1.2-1.2-2.2-1.8-3.2L74.5,20.2z"/>
		<path class="st0" d="M71.5,20.2h-1.4l21.4,21.4c-0.2-0.8-0.5-1.5-0.8-2.2L71.5,20.2z"/>
		<path class="st0" d="M69.5,21.2v1.4l23,23c-0.1-0.6-0.2-1.2-0.4-1.8L69.5,21.2z"/>
		<path class="st0" d="M69.5,24.1v1.4l12,12h0.8c0,0,0.5,0.6,1.1,1.9l9.5,9.5c0-0.5-0.1-1.1-0.2-1.6L69.5,24.1z"/>
		<g>
			<path class="st0" d="M85,44l8,8c0-0.5,0-0.9,0-1.4L84.5,42C84.7,42.6,84.8,43.2,85,44z"/>
			<polygon class="st0" points="69.5,27.1 69.5,28.5 78.6,37.6 80.1,37.6 			"/>
		</g>
		<g>
			<polygon class="st0" points="69.5,30 69.5,31.4 75.7,37.6 77.1,37.6 			"/>
			<path class="st0" d="M85.4,45.9c0.1,0.5,0.2,1.1,0.2,1.6l7.1,7.1c0-0.4,0.1-0.9,0.1-1.3L85.4,45.9z"/>
		</g>
		<polygon class="st0" points="59,20.9 59,20.2 58.4,20.2 		"/>
		<path class="st0" d="M82,24.9l-4.6-4.6H76l6.3,6.3c-0.1-0.1-0.2-0.2-0.3-0.3C82,25.8,82,25.3,82,24.9z"/>
		<g>
			<polygon class="st0" points="69.5,33 69.5,34.4 72.8,37.6 74.2,37.6 			"/>
			<path class="st0" d="M85.8,49.2c0,0.5,0.1,1,0.1,1.5l6.5,6.5c0.1-0.4,0.1-0.8,0.2-1.2L85.8,49.2z"/>
		</g>
		<path class="st0" d="M80.4,20.2H79l3.1,3.1c0-0.5,0-1,0-1.4L80.4,20.2z"/>
		<polygon class="st0" points="59,23.9 59,22.5 56.8,20.2 55.4,20.2 		"/>
	</g>
	<g>
		<polygon class="st0" points="1.5,157.5 13.7,169.7 13.7,168.3 1.5,156.1 		"/>
		<polygon class="st0" points="1.5,160.5 13.7,172.7 13.7,171.2 1.5,159.1 		"/>
		<polygon class="st0" points="1.5,163.4 13.7,175.6 13.7,174.2 1.5,162 		"/>
		<polygon class="st0" points="1.5,166.4 13.7,178.5 13.7,177.1 1.5,165 		"/>
		<polygon class="st0" points="1.5,167.9 1.5,168.2 2.7,169.4 2.7,170.5 13.4,181.2 13.7,181.2 13.7,180.1 		"/>
		<polygon class="st0" points="10.5,181.2 11.9,181.2 2.7,172 2.7,173.4 		"/>
		<polygon class="st0" points="7.6,181.2 9,181.2 2.7,174.9 2.7,176.4 		"/>
		<polygon class="st0" points="4.6,181.2 6,181.2 2.7,177.9 2.7,179.3 		"/>
		<path class="st0" d="M23.8,159.2c0.3-0.1,0.7-0.3,1-0.4l-5.5-5.5c-0.3,0.1-0.7,0.3-1,0.4L23.8,159.2z"/>
		<path class="st0" d="M21.6,160c0.3-0.1,0.7-0.3,1-0.4l-5.5-5.5c-0.4,0.1-0.7,0.2-1.1,0.4L21.6,160z"/>
		<path class="st0" d="M19.5,160.8c0.3-0.1,0.7-0.2,1-0.4l-5.6-5.6c-0.4,0.1-0.8,0.2-1.1,0.3L19.5,160.8z"/>
		<path class="st0" d="M17.3,161.6c0.3-0.1,0.7-0.2,1.1-0.4l-5.9-5.9c-0.3,0-0.6,0-0.8,0c-0.2,0-0.4,0-0.5,0L17.3,161.6z"/>
		<g>
			<path class="st0" d="M26.8,157.9l-5.5-5.5c-0.3,0.1-0.7,0.3-1,0.4l5.5,5.5C26.2,158.2,26.5,158.1,26.8,157.9z"/>
			<polygon class="st0" points="1.5,132.6 1.5,133.6 2.5,133.6 			"/>
		</g>
		<path class="st0" d="M15.1,162.3c0.3-0.1,0.7-0.2,1.1-0.4l-6.6-6.6c-0.5,0-1,0-1.4,0L15.1,162.3z"/>
		<g>
			<path class="st0" d="M30.8,156l-5.5-5.5c-0.3,0.2-0.6,0.3-0.9,0.5l5.5,5.5C30.1,156.3,30.5,156.1,30.8,156z"/>
			<polygon class="st0" points="1.5,126.7 1.5,128.1 7,133.6 8.4,133.6 			"/>
		</g>
		<g>
			<polygon class="st0" points="1.5,129.7 1.5,131.1 4,133.6 5.4,133.6 			"/>
			<path class="st0" d="M28.8,157l-5.5-5.5c-0.3,0.2-0.6,0.3-1,0.5l5.5,5.5C28.2,157.3,28.5,157.1,28.8,157z"/>
		</g>
		<g>
			<polygon class="st0" points="1.5,123.8 1.5,125.2 9.9,133.6 11.3,133.6 			"/>
			<path class="st0" d="M32.7,155l-5.5-5.5c-0.3,0.2-0.6,0.3-0.9,0.5l5.5,5.5C32.1,155.3,32.4,155.1,32.7,155z"/>
		</g>
		<g>
			<polygon class="st0" points="1.5,122.2 12.8,133.6 14.3,133.6 1.5,120.8 			"/>
			<path class="st0" d="M34.6,154l-5.5-5.5c-0.3,0.2-0.6,0.3-0.9,0.5l5.5,5.5C34,154.3,34.3,154.1,34.6,154z"/>
		</g>
		<path class="st0" d="M6.6,155.3c-0.5,0-1,0-1.4,0l8.5,8.5v-1.1c0,0,0.1,0,0.3-0.1L6.6,155.3z"/>
		<g>
			<polygon class="st0" points="15.8,133.6 16.3,133.6 16.8,133.2 2.7,119.1 2.7,119.6 2.2,120 			"/>
			<path class="st0" d="M36.6,153l-5.6-5.6c-0.3,0.2-0.6,0.3-0.9,0.5l5.5,5.5C36,153.3,36.3,153.1,36.6,153z"/>
		</g>
		<g>
			<polygon class="st0" points="2.7,116.1 2.7,117.5 17.7,132.6 18.6,132 			"/>
			<path class="st0" d="M38.6,152.1l-5.8-5.8c-0.3,0.2-0.6,0.4-0.9,0.5l5.7,5.7C38,152.3,38.3,152.2,38.6,152.1z"/>
		</g>
		<g>
			<polygon class="st0" points="2.7,113.2 2.7,114.6 19.5,131.4 20.3,130.8 14.2,124.7 13.7,124.7 13.7,124.2 			"/>
			<path class="st0" d="M41.4,151.9l-6.7-6.7c-0.3,0.2-0.6,0.4-0.9,0.5l6.1,6.1C40.4,151.8,40.9,151.8,41.4,151.9z"/>
			<path class="st0" d="M46.2,156.7c1.9,2.6,5.9,7.3,10.8,10.8L46.2,156.7z"/>
		</g>
		<path class="st0" d="M13.7,165.4l-10-10c-0.6,0-1,0-1.4,0l11.4,11.4V165.4z"/>
		<g>
			<path class="st0" d="M71.5,173.2L61,162.7c-2.2-1.3-3.9-2.8-5.2-4.3c-0.8-1-1.6-2.1-2.3-3.1l-13.7-13.7c-0.3,0.2-0.5,0.4-0.8,0.6
				l30.7,30.7C70.3,172.9,70.9,173.1,71.5,173.2z"/>
			<polygon class="st0" points="24.7,127.8 25.6,127.2 21.2,122.9 20.3,123.4 			"/>
			<polygon class="st0" points="4.7,107.7 13.7,116.8 13.7,115.3 6.1,107.7 			"/>
		</g>
		<g>
			<polygon class="st0" points="13.7,119.7 13.7,118.3 3.1,107.7 2.7,107.7 2.7,108.7 			"/>
			<polygon class="st0" points="23,129 23.8,128.4 19.4,124 18.5,124.6 			"/>
			<path class="st0" d="M67.7,172.3l-29.5-29.5c-0.3,0.2-0.5,0.4-0.8,0.6l28.4,28.4C66.4,172,67,172.1,67.7,172.3z"/>
		</g>
		<g>
			<polygon class="st0" points="7.6,107.7 13.7,113.8 13.7,112.4 9,107.7 			"/>
			<polygon class="st0" points="26.5,126.6 27.3,126 23,121.7 22.1,122.2 			"/>
			<path class="st0" d="M50.3,149.1l-8.8-8.8c-0.1,0.1-0.3,0.2-0.4,0.3c-0.1,0.1-0.3,0.2-0.4,0.3l10.7,10.7
				C51,150.7,50.6,149.9,50.3,149.1z"/>
			<path class="st0" d="M74.9,173.7l-8.4-8.4c-0.8-0.3-1.6-0.6-2.3-0.9l9.1,9.1C73.8,173.5,74.4,173.6,74.9,173.7z"/>
		</g>
		<g>
			<polygon class="st0" points="28.2,125.4 29.1,124.8 24.7,120.5 23.9,121.1 			"/>
			<polygon class="st0" points="10.5,107.7 13.7,110.9 13.7,109.5 12,107.7 			"/>
			<path class="st0" d="M49.5,145.3l-6.3-6.3c-0.3,0.2-0.5,0.4-0.8,0.6l7.3,7.3C49.5,146.2,49.5,145.7,49.5,145.3z"/>
			<path class="st0" d="M78.1,173.9l-7.5-7.5c-0.6-0.1-1.3-0.3-1.9-0.5l7.9,7.9C77.1,173.8,77.6,173.9,78.1,173.9z"/>
		</g>
		<g>
			<path class="st0" d="M74.1,167c-0.6-0.1-1.1-0.1-1.6-0.2l7.2,7.2c0.5,0,0.9,0,1.4,0L74.1,167z"/>
			<polygon class="st0" points="30,124.2 30.8,123.7 26.5,119.4 25.7,119.9 			"/>
			<path class="st0" d="M50.2,143.1l-5.3-5.3c-0.3,0.2-0.6,0.3-0.9,0.5l5.6,5.6C49.9,143.5,50.1,143.2,50.2,143.1z"/>
			<polygon class="st0" points="13.7,107.9 13.7,107.7 13.5,107.7 			"/>
		</g>
		<g>
			<polygon class="st0" points="33.5,121.8 34.3,121.3 30.1,117.1 29.2,117.6 			"/>
			<path class="st0" d="M50.7,137.6L49,136c-0.3,0.1-0.7,0.2-1.1,0.4l2.7,2.7L50.7,137.6z"/>
			<path class="st0" d="M86.4,173.3l-6.1-6.1c-0.5,0-0.9,0-1.4,0l6.3,6.3C85.6,173.5,86,173.4,86.4,173.3z"/>
		</g>
		<g>
			<path class="st0" d="M83.8,173.7l-6.5-6.5c-0.5,0-1-0.1-1.5-0.1l6.7,6.7C82.9,173.8,83.4,173.8,83.8,173.7z"/>
			<polygon class="st0" points="31.7,123 32.6,122.5 28.3,118.2 27.5,118.8 			"/>
			<path class="st0" d="M50.6,140.5l-3.7-3.7c-0.3,0.1-0.6,0.3-0.9,0.5l4.6,4.6L50.6,140.5z"/>
		</g>
		<g>
			<polygon class="st0" points="20.1,105.5 21.5,105.5 19.4,103.4 19.4,104.8 			"/>
			<polygon class="st0" points="50.5,134.5 50.5,135.6 50.7,135.6 51.6,135.6 			"/>
			<polygon class="st0" points="31.9,115.9 31,116.5 35.2,120.7 36.1,120.1 			"/>
			<path class="st0" d="M88.8,172.8l-5.7-5.7c-0.4,0-0.9,0.1-1.3,0.1l5.9,5.9C88,173,88.4,172.9,88.8,172.8z"/>
			<path class="st0" d="M50.7,136.2l0-0.5c0,0-0.2,0-0.5,0L50.7,136.2z"/>
		</g>
		<g>
			<polygon class="st0" points="54.6,135.6 50.5,131.6 50.5,133 53.1,135.6 			"/>
			<polygon class="st0" points="33.7,114.7 32.8,115.3 37,119.5 37.8,118.9 			"/>
			<polygon class="st0" points="23,105.5 24.4,105.5 19.4,100.5 19.4,101.9 			"/>
			<path class="st0" d="M91,172.1l-5.3-5.3c-0.3,0.1-0.7,0.1-1,0.2c-0.1,0-0.1,0-0.2,0l5.5,5.5C90.3,172.4,90.7,172.2,91,172.1z"/>
		</g>
		<g>
			<polygon class="st0" points="57.5,135.6 50.5,128.6 50.5,130.1 56.1,135.6 			"/>
			<polygon class="st0" points="35.4,113.6 34.6,114.1 38.7,118.3 39.6,117.7 			"/>
			<path class="st0" d="M88.1,166.3c-0.4,0.1-0.7,0.2-1.1,0.3l5.1,5.1c0.3-0.1,0.7-0.3,1-0.4L88.1,166.3z"/>
			<polygon class="st0" points="25.9,105.5 27.4,105.5 19.4,97.5 19.4,98.9 			"/>
		</g>
		<g>
			<polygon class="st0" points="19.4,94.6 19.4,94.9 19.7,94.9 			"/>
			<polygon class="st0" points="37.2,112.4 36.4,113 40.5,117.1 41.3,116.5 			"/>
			<path class="st0" d="M90.3,165.5c-0.3,0.1-0.7,0.3-1,0.4l4.9,4.9c0.3-0.2,0.6-0.3,0.9-0.5L90.3,165.5z"/>
			<polygon class="st0" points="60.4,135.6 53,128.2 51.6,128.2 59,135.6 			"/>
			<polygon class="st0" points="30.3,105.5 19.7,94.9 19.4,94.9 19.4,96 28.9,105.5 			"/>
		</g>
		<g>
			<polygon class="st0" points="39.2,108.5 40,110.6 39.9,110.7 44,114.7 44.8,114.1 			"/>
			<polygon class="st0" points="34.8,105.5 36.2,105.5 25.6,94.9 24.1,94.9 			"/>
			<polygon class="st0" points="19.4,90.1 24.1,94.9 25.6,94.9 19.4,88.7 			"/>
			<path class="st0" d="M98.5,167.8l-4.4-4.4c-0.3,0.2-0.6,0.4-0.9,0.6l4.5,4.5C98,168.2,98.2,168,98.5,167.8z"/>
			<polygon class="st0" points="66.3,135.6 58.9,128.2 57.5,128.2 64.9,135.6 			"/>
		</g>
		<g>
			<polygon class="st0" points="69.3,135.6 61.9,128.2 60.5,128.2 67.9,135.6 			"/>
			<polygon class="st0" points="28.5,94.9 27.1,94.9 37.7,105.5 38,105.5 38.2,106 45.7,113.5 46.5,112.9 			"/>
			<polygon class="st0" points="19.4,87.2 27.1,94.9 28.5,94.9 19.4,85.8 			"/>
			<path class="st0" d="M100.2,166.6l-4.4-4.4c-0.3,0.2-0.5,0.4-0.8,0.6l4.4,4.4C99.6,166.9,99.9,166.7,100.2,166.6z"/>
		</g>
		<g>
			<polygon class="st0" points="39,111.3 38.2,111.8 42.2,115.9 43,115.3 			"/>
			<polygon class="st0" points="31.8,105.5 33.2,105.5 22.6,94.9 21.2,94.9 			"/>
			<polygon class="st0" points="63.4,135.6 56,128.2 54.6,128.2 62,135.6 			"/>
			<path class="st0" d="M92.2,164.5c-0.3,0.2-0.6,0.3-0.9,0.5l4.7,4.7c0.3-0.2,0.6-0.4,0.8-0.6L92.2,164.5z"/>
			<polygon class="st0" points="19.4,93 21.2,94.9 22.6,94.9 19.4,91.6 			"/>
		</g>
		<g>
			<polygon class="st0" points="78.1,135.6 78.1,135.6 70.7,128.2 69.3,128.2 76.7,135.6 			"/>
			<polygon class="st0" points="37.3,94.9 35.9,94.9 49,108 49,106.5 			"/>
			<polygon class="st0" points="78.2,135.8 78.1,135.8 78.1,137.1 83.4,142.4 84.4,142 			"/>
			<path class="st0" d="M121.6,179.2l-6.8-6.8c0,0.5,0,1,0,1.4l5.4,5.4H121.6z"/>
			<polygon class="st0" points="35.9,94.9 37.3,94.9 28,85.6 26.6,85.6 			"/>
			<path class="st0" d="M105.7,163.3l-5.3-5.3c-0.2,0.2-0.5,0.5-0.7,0.7l5.1,5.1C105.1,163.5,105.4,163.4,105.7,163.3z"/>
		</g>
		<g>
			<polygon class="st0" points="75.2,135.6 67.8,128.2 66.3,128.2 73.7,135.6 			"/>
			<polygon class="st0" points="78.1,138.6 78.1,140 81.1,143 81.8,143 82.3,142.8 			"/>
			<polygon class="st0" points="34.4,94.9 33,94.9 49,110.9 49,109.5 			"/>
			<polygon class="st0" points="33,94.9 34.4,94.9 25.1,85.6 23.7,85.6 			"/>
			<path class="st0" d="M118.7,179.2l-3.8-3.8c0,0.5,0,1,0,1.4l2.4,2.4H118.7z"/>
			<path class="st0" d="M103.8,164.3l-4.8-4.8c-0.2,0.2-0.5,0.5-0.7,0.7l4.7,4.7C103.2,164.6,103.5,164.4,103.8,164.3z"/>
		</g>
		<g>
			<polygon class="st0" points="72.2,135.6 64.8,128.2 63.4,128.2 70.8,135.6 			"/>
			<polygon class="st0" points="31.4,94.9 30,94.9 47.5,112.3 48.3,111.7 			"/>
			<polygon class="st0" points="78.1,141.5 78.1,142.9 78.2,143 79.6,143 			"/>
			<path class="st0" d="M114.9,178.3c0,0.5,0,0.8,0,0.8h0.8L114.9,178.3z"/>
			<polygon class="st0" points="30,94.9 31.4,94.9 22.1,85.6 20.7,85.6 			"/>
			<path class="st0" d="M101.9,165.4l-4.5-4.5c-0.3,0.2-0.5,0.4-0.8,0.6l4.5,4.5C101.4,165.7,101.7,165.5,101.9,165.4z"/>
		</g>
		<g>
			<polygon class="st0" points="78.1,132.7 73.6,128.2 72.2,128.2 78.1,134.1 			"/>
			<polygon class="st0" points="80.9,135.5 80.7,135.8 79.8,135.8 85.5,141.5 86.5,141.1 			"/>
			<polygon class="st0" points="41.8,96.4 41.8,97.4 41.8,97.4 41.8,96.4 40.3,94.9 38.9,94.9 49,105 49,103.6 			"/>
			<path class="st0" d="M124.6,179.2l-9.8-9.8c0,0.5,0,1,0,1.4l8.4,8.4H124.6z"/>
			<polygon class="st0" points="38.8,94.9 40.3,94.9 31,85.6 29.6,85.6 			"/>
			<path class="st0" d="M101.8,156.4c-0.2,0.2-0.4,0.5-0.7,0.8l5.7,5.7c0.4-0.1,0.7-0.3,1-0.4L101.8,156.4z"/>
		</g>
		<g>
			<polygon class="st0" points="2.7,111.6 13.7,122.6 13.7,121.2 2.7,110.2 			"/>
			<path class="st0" d="M36.4,144c-0.3,0.2-0.6,0.4-0.9,0.6l25.4,25.4c0.7,0.3,1.4,0.7,2.1,0.9c0.1,0.1,0.3,0.1,0.4,0.2L36.4,144z"
				/>
			<polygon class="st0" points="17.2,124.7 15.8,124.7 21.2,130.2 22.1,129.6 			"/>
		</g>
		<polygon class="st0" points="59,91.5 59,90.1 49,80.1 49,81.5 		"/>
		<path class="st0" d="M59,85.6v-1.4L37.9,63.1c0.4,0.9,0.8,1.8,1.2,2.6L59,85.6z"/>
		<g>
			<polygon class="st0" points="69.5,94.7 69.5,96.1 70.8,97.4 72.2,97.4 			"/>
			<polygon class="st0" points="79.6,104.8 79.6,106.2 91,117.6 91,116.2 			"/>
			<polygon class="st0" points="127.1,152.3 126.7,151.9 125.3,151.9 127.1,153.7 			"/>
			<path class="st0" d="M101.7,126.9l-1.1,0.3l6.9,6.9c0.4-0.1,0.8-0.1,1.3-0.2L101.7,126.9z"/>
		</g>
		<path class="st0" d="M59,88.6v-1.4L41.4,69.6c3.6,5.2,7.6,7.7,7.6,7.7v1.3L59,88.6z"/>
		<g>
			<path class="st0" d="M99.3,127.4l-1.1,0.3l6.7,6.7c0.4-0.1,0.8-0.2,1.2-0.2L99.3,127.4z"/>
			<polygon class="st0" points="79.6,107.7 79.6,109.1 91,120.5 91,119.1 			"/>
			<polygon class="st0" points="127.1,155.2 123.8,151.9 122.4,151.9 127.1,156.6 			"/>
		</g>
		<g>
			<polygon class="st0" points="79.6,110.6 79.6,111.2 83.4,115.9 83.4,115.9 91,123.4 91,122 			"/>
			<path class="st0" d="M96.9,128l-1.1,0.3l6.7,6.7c0.4-0.1,0.7-0.2,1.1-0.3L96.9,128z"/>
			<polygon class="st0" points="127.1,158.1 120.8,151.9 119.4,151.9 127.1,159.6 			"/>
		</g>
		<polygon class="st0" points="59,97.4 59,97.4 59,96 46.5,83.4 45,83.4 		"/>
		<path class="st0" d="M59,82.7v-1.4L36.5,58.8c0.2,0.7,0.4,1.3,0.6,2L59,82.7z"/>
		<g>
			<polygon class="st0" points="79.6,103.2 91,114.7 91,114.2 89,111.2 79.6,101.8 			"/>
			<polygon class="st0" points="69.5,91.8 69.5,93.2 73.7,97.4 75.1,97.4 			"/>
			<path class="st0" d="M104,126.3l-1.1,0.3l7.1,7.1c0.4,0,0.9-0.1,1.3-0.1L104,126.3z"/>
		</g>
		<polygon class="st0" points="59,94.5 59,93.1 49,83.1 49,83.4 48,83.4 		"/>
		<g>
			<polygon class="st0" points="83.4,117.4 83.3,118.7 90.9,126.4 90.9,125 			"/>
			<path class="st0" d="M94.6,128.6l-1.1,0.3l6.9,6.9c0.4-0.1,0.7-0.2,1.1-0.3L94.6,128.6z"/>
			<polygon class="st0" points="127.1,161.1 117.9,151.9 116.5,151.9 127.1,162.5 			"/>
		</g>
		<g>
			<path class="st0" d="M92.2,129.2l-1.1,0.3l7.1,7.1l0.5-0.2c0.2-0.1,0.3-0.1,0.5-0.2L92.2,129.2z"/>
			<polygon class="st0" points="83.2,120.2 83.2,121.6 90.9,129.3 90.9,127.9 			"/>
			<polygon class="st0" points="127.1,164 114.9,151.9 113.5,151.9 127.1,165.4 			"/>
		</g>
		<g>
			<polygon class="st0" points="82.9,128.7 82.9,130.1 91.8,139 92.9,138.6 			"/>
			<polygon class="st0" points="50.2,97.4 51.6,97.4 39.1,84.9 38.4,85.6 			"/>
			<path class="st0" d="M125.4,171.2l-18.5-18.5c-0.3,0.1-0.7,0.3-1,0.4l19.5,19.5V171.2z"/>
		</g>
		<g>
			<polygon class="st0" points="53.1,97.4 54.5,97.4 40.7,83.6 40,84.2 			"/>
			<polygon class="st0" points="83,125.9 83,127.2 93.9,138.2 95,137.8 			"/>
			<path class="st0" d="M125.4,168.2l-16.1-16.1c-0.4,0.1-0.8,0.1-1.2,0.2l17.3,17.3V168.2z"/>
		</g>
		<g>
			<polygon class="st0" points="56.1,97.4 57.5,97.4 43.5,83.4 42.1,83.4 			"/>
			<polygon class="st0" points="83.1,123 83.1,124.4 96.1,137.4 97.1,137 			"/>
			<path class="st0" d="M126.6,166.4L112,151.9h-0.4c-0.3,0-0.7,0-1,0.1l15.1,15.1L126.6,166.4z"/>
		</g>
		<g>
			<polygon class="st0" points="78.1,131.2 78.1,129.8 76.6,128.2 75.2,128.2 			"/>
			<path class="st0" d="M125.4,177.1l-10.7-10.7c0,0.5,0,0.9,0,1.4l10.7,10.7V177.1z"/>
			<polygon class="st0" points="82,133.6 81.5,134.5 87.6,140.7 88.6,140.3 			"/>
			<path class="st0" d="M103.2,154.9c-0.2,0.2-0.5,0.5-0.7,0.7l6.5,6.5c0.4-0.1,0.8-0.2,1.2-0.2L103.2,154.9z"/>
			<polygon class="st0" points="41.8,94.9 41.8,94.9 41.8,94.9 49,102.1 49,100.7 33.9,85.6 32.5,85.6 			"/>
		</g>
		<g>
			<polygon class="st0" points="82.8,131.5 82.8,132.2 82.5,132.7 89.7,139.9 90.7,139.5 			"/>
			<polygon class="st0" points="49,99.1 49,97.7 36.9,85.6 35.4,85.6 			"/>
			<path class="st0" d="M125.4,174.1l-10.7-10.7c0,0.5,0,0.9,0,1.4l10.7,10.7V174.1z"/>
			<path class="st0" d="M113.3,162.1l-8.4-8.4c-0.3,0.2-0.6,0.4-0.9,0.6l7.7,7.7C112.3,161.9,112.8,161.9,113.3,162.1z"/>
		</g>
		<g>
			<polygon class="st0" points="69.5,83 69.5,84.4 90.7,105.5 92.1,105.5 			"/>
			<polygon class="st0" points="111.3,124.7 110.3,124.7 110,124.8 118.7,133.6 120.2,133.6 			"/>
		</g>
		<g>
			<polygon class="st0" points="59,73.9 59,72.5 53.2,66.6 51.7,66.6 			"/>
			<path class="st0" d="M43.1,57.9c-0.1-0.5-0.1-1-0.2-1.6l-7.3-7.3c0,0.4,0,0.9-0.1,1.4L43.1,57.9z"/>
		</g>
		<g>
			<polygon class="st0" points="69.5,85.9 69.5,87.3 89.8,107.6 90.2,106.5 			"/>
			<polygon class="st0" points="108.8,125.1 107.6,125.4 115.8,133.6 117.2,133.6 			"/>
		</g>
		<g>
			<polygon class="st0" points="86.8,97.3 86.8,97.4 86.8,97.4 86.8,97.3 69.5,80 69.5,81.4 93.6,105.5 95,105.5 			"/>
			<polygon class="st0" points="114.3,124.7 112.9,124.7 121.7,133.6 123.1,133.6 			"/>
		</g>
		<g>
			<polygon class="st0" points="59,76.8 59,75.4 50.2,66.6 48.8,66.6 			"/>
			<path class="st0" d="M35.7,53.5l8,8c-0.1-0.5-0.2-1.1-0.3-1.7L35.6,52C35.6,52.5,35.6,52.9,35.7,53.5z"/>
		</g>
		<g>
			<polygon class="st0" points="59,70.9 59,69.5 56.1,66.6 54.7,66.6 			"/>
			<path class="st0" d="M42.8,54.7c0-0.5-0.1-1-0.1-1.5l-6.8-6.8c-0.1,0.4-0.1,0.8-0.2,1.2L42.8,54.7z"/>
		</g>
		<g>
			<polygon class="st0" points="59,79.8 59,78.3 47.3,66.6 45.9,66.6 			"/>
			<path class="st0" d="M44.8,65.5c-0.2-0.5-0.4-1.2-0.6-2l-8.3-8.3c0.1,0.6,0.2,1.1,0.3,1.7L44.8,65.5z"/>
		</g>
		<g>
			<polygon class="st0" points="69.5,77.1 69.5,78.5 86.8,95.7 86.8,94.9 86.8,94.9 86.8,95.8 96.5,105.5 98,105.5 			"/>
			<polygon class="st0" points="114.9,122.4 114.9,123.9 124.6,133.6 126,133.6 			"/>
		</g>
		<g>
			<polygon class="st0" points="59,68 59,66.6 59,66.6 57.6,66.6 			"/>
			<path class="st0" d="M42.7,51.7c0-0.5,0-0.9,0-1.4L36.4,44c-0.1,0.4-0.2,0.8-0.3,1.2L42.7,51.7z"/>
		</g>
		<g>
			<polygon class="st0" points="69.5,74.1 69.5,75.6 99.5,105.5 100.9,105.5 			"/>
			<polygon class="st0" points="127.1,131.7 114.9,119.5 114.9,120.9 127.1,133.1 			"/>
		</g>
		<path class="st0" d="M42.8,48.8c0-0.4,0.1-0.9,0.1-1.3l-5.9-5.9c-0.1,0.4-0.2,0.7-0.3,1.1L42.8,48.8z"/>
		<g>
			<polygon class="st0" points="81.8,83.4 80.4,83.4 102.4,105.5 103.8,105.5 			"/>
			<polygon class="st0" points="69.5,71.2 69.5,72.6 79.5,82.6 79.5,81.2 			"/>
			<polygon class="st0" points="127.1,128.7 114.9,116.6 114.9,118 127.1,130.1 			"/>
		</g>
		<path class="st0" d="M43.1,46.2c0.1-0.4,0.1-0.8,0.2-1.2l-5.5-5.5c-0.1,0.3-0.3,0.7-0.4,1L43.1,46.2z"/>
		<g>
			<polygon class="st0" points="69.5,68.3 69.5,69.7 79.5,79.7 79.5,78.3 			"/>
			<polygon class="st0" points="127.1,125.8 114.9,113.6 114.9,115 127.1,127.2 			"/>
			<polygon class="st0" points="84.7,83.4 83.3,83.4 105.4,105.5 106.8,105.5 			"/>
		</g>
		<path class="st0" d="M43.6,43.7c0.1-0.4,0.2-0.8,0.3-1.1l-5.2-5.2c-0.2,0.3-0.3,0.6-0.4,1L43.6,43.7z"/>
		<g>
			<polygon class="st0" points="69.5,88.8 69.5,90.3 76.7,97.4 78.1,97.4 			"/>
			<path class="st0" d="M106.4,125.7l-1.1,0.3l7.6,7.6c0.1,0,0.2,0,0.3,0h1.1L106.4,125.7z"/>
			<polygon class="st0" points="79.6,98.9 79.6,100.3 88.9,109.7 89.3,108.6 			"/>
		</g>
		<g>
			<path class="st0" d="M84.6,62.7c-0.1,0.4-0.2,0.8-0.3,1.1l4,4c0.2-0.3,0.4-0.6,0.5-0.9L84.6,62.7z"/>
			<polygon class="st0" points="107.5,85.6 106,85.6 109.2,88.7 109.2,87.3 			"/>
		</g>
		<path class="st0" d="M46.5,26.1L58,37.6h1v-0.4L46.5,24.7C46.5,25.1,46.5,25.6,46.5,26.1z"/>
		<g>
			<polygon class="st0" points="117.9,107.7 116.4,107.7 125.9,117.2 125.9,115.8 			"/>
			<path class="st0" d="M75.3,66.6l7.8,7.8c0.2-0.2,0.5-0.5,0.7-0.7l-7.1-7.1H75.3z"/>
			<polygon class="st0" points="109.2,100.5 109.2,99.1 95.7,85.6 94.3,85.6 			"/>
			<path class="st0" d="M46.3,37.6h1.4L42,31.8c-0.2,0.3-0.4,0.6-0.6,0.8L46.3,37.6z"/>
		</g>
		<g>
			<polygon class="st0" points="114.9,107.7 114.9,107.7 114.9,109.2 127.1,121.3 127.1,120.8 125.9,119.6 125.9,118.7 			"/>
			<polygon class="st0" points="109.2,103.4 109.2,102 92.7,85.6 91.3,85.6 			"/>
			<path class="st0" d="M45.2,39.4c0.2-0.4,0.3-0.7,0.5-0.9l-4.8-4.8c-0.2,0.3-0.4,0.6-0.5,0.9L45.2,39.4z"/>
			<path class="st0" d="M81.5,75.8c0.2-0.2,0.5-0.4,0.8-0.7l-8.5-8.5h-1.4L81.5,75.8z"/>
		</g>
		<g>
			<path class="st0" d="M78.2,66.6l6.3,6.3c0.2-0.2,0.4-0.5,0.7-0.8l-5.5-5.5H78.2z"/>
			<polygon class="st0" points="109.2,97.6 109.2,96.1 98.6,85.6 97.2,85.6 			"/>
			<polygon class="st0" points="120.8,107.7 119.4,107.7 125.9,114.3 125.9,112.9 			"/>
			<path class="st0" d="M49.2,37.6h1.4l-7.4-7.4c-0.2,0.3-0.4,0.5-0.6,0.8L49.2,37.6z"/>
		</g>
		<g>
			<path class="st0" d="M70.8,66.6h-1.3v0.1L79.9,77c0.2-0.1,0.5-0.3,0.8-0.6L70.8,66.6z"/>
			<polygon class="st0" points="127.1,122.8 114.9,110.7 114.9,112.1 127.1,124.3 			"/>
			<polygon class="st0" points="87.6,83.4 86.2,83.4 108.3,105.5 109.2,105.5 109.2,105 			"/>
		</g>
		<g>
			<polygon class="st0" points="101.6,85.6 100.2,85.6 109.2,94.6 109.2,93.2 			"/>
			<path class="st0" d="M81.2,66.6l4.7,4.7c0.2-0.3,0.4-0.5,0.6-0.8l-3.9-3.9H81.2z"/>
			<path class="st0" d="M52.2,37.6h1.4l-9.1-9.1c-0.2,0.2-0.4,0.5-0.6,0.8L52.2,37.6z"/>
			<polygon class="st0" points="123.7,107.7 122.3,107.7 125.9,111.3 125.9,109.9 			"/>
		</g>
		<g>
			<path class="st0" d="M84,65c-0.1,0.4-0.3,0.8-0.4,1l3.5,3.5c0.2-0.3,0.4-0.6,0.6-0.8L84,65z"/>
			<polygon class="st0" points="125.9,108.4 125.9,107.7 125.3,107.7 			"/>
			<polygon class="st0" points="103.1,85.6 109.2,91.7 109.2,90.3 104.5,85.6 			"/>
			<path class="st0" d="M55.1,37.6h1.4L45.9,27c-0.2,0.2-0.4,0.5-0.7,0.7L55.1,37.6z"/>
		</g>
		<g>
			<polygon class="st0" points="109.2,85.8 109.2,85.6 109,85.6 			"/>
			<path class="st0" d="M84.9,61.5l4.5,4.5c0.2-0.3,0.3-0.6,0.5-0.9l-4.7-4.7C85,60.7,85,61.1,84.9,61.5z"/>
		</g>
		<path class="st0" d="M85.5,57.7c-0.1,0.4-0.1,0.8-0.2,1.2l5,5c0.1-0.3,0.3-0.7,0.4-1L85.5,57.7z"/>
		<polygon class="st0" points="59,32.7 59,31.3 48,20.2 46.6,20.2 		"/>
		<path class="st0" d="M85.7,55c0,0.5-0.1,0.9-0.1,1.3l5.5,5.5c0.1-0.3,0.2-0.7,0.4-1.1L85.7,55z"/>
		<polygon class="st0" points="59,29.8 59,28.3 51,20.2 49.5,20.2 		"/>
		<g>
			<polygon class="st0" points="69.5,35.9 69.5,37.3 69.8,37.6 71.2,37.6 			"/>
			<path class="st0" d="M85.9,52.2c0,0.5,0,0.9,0,1.4l6,6c0.1-0.4,0.2-0.7,0.3-1.1L85.9,52.2z"/>
		</g>
		<polygon class="st0" points="59,26.8 59,25.4 53.9,20.2 52.5,20.2 		"/>
		<path class="st0" d="M46.5,23.1L59,35.6v-1.4L46.5,21.7C46.5,22.1,46.5,22.6,46.5,23.1z"/>
		<path class="st0" d="M44.3,41.5c0.1-0.4,0.3-0.7,0.4-1l-5-5c-0.2,0.3-0.3,0.6-0.5,0.9L44.3,41.5z"/>
		<path class="st0" d="M74.5,20.2h-1.4l16.4,16.4c-0.6-1.2-1.2-2.2-1.8-3.2L74.5,20.2z"/>
		<path class="st0" d="M71.5,20.2h-1.4l21.4,21.4c-0.2-0.8-0.5-1.5-0.8-2.2L71.5,20.2z"/>
		<path class="st0" d="M69.5,21.2v1.4l23,23c-0.1-0.6-0.2-1.2-0.4-1.8L69.5,21.2z"/>
		<path class="st0" d="M69.5,24.1v1.4l12,12h0.8c0,0,0.5,0.6,1.1,1.9l9.5,9.5c0-0.5-0.1-1.1-0.2-1.6L69.5,24.1z"/>
		<g>
			<path class="st0" d="M85,44l8,8c0-0.5,0-0.9,0-1.4L84.5,42C84.7,42.6,84.8,43.2,85,44z"/>
			<polygon class="st0" points="69.5,27.1 69.5,28.5 78.6,37.6 80.1,37.6 			"/>
		</g>
		<g>
			<polygon class="st0" points="69.5,30 69.5,31.4 75.7,37.6 77.1,37.6 			"/>
			<path class="st0" d="M85.4,45.9c0.1,0.5,0.2,1.1,0.2,1.6l7.1,7.1c0-0.4,0.1-0.9,0.1-1.3L85.4,45.9z"/>
		</g>
		<polygon class="st0" points="59,20.9 59,20.2 58.4,20.2 		"/>
		<path class="st0" d="M82,24.9l-4.6-4.6H76l6.3,6.3c-0.1-0.1-0.2-0.2-0.3-0.3C82,25.8,82,25.3,82,24.9z"/>
		<g>
			<polygon class="st0" points="69.5,33 69.5,34.4 72.8,37.6 74.2,37.6 			"/>
			<path class="st0" d="M85.8,49.2c0,0.5,0.1,1,0.1,1.5l6.5,6.5c0.1-0.4,0.1-0.8,0.2-1.2L85.8,49.2z"/>
		</g>
		<path class="st0" d="M80.4,20.2H79l3.1,3.1c0-0.5,0-1,0-1.4L80.4,20.2z"/>
		<polygon class="st0" points="59,23.9 59,22.5 56.8,20.2 55.4,20.2 		"/>
	</g>
</g>
<path class="st0" d="M127.4,119v-12.7h-14v17h-3.1l-17.9,4.3l0.1-13.8l-2.3-3.3l1.3-3.4h19.1l0-22.9H90.8l-2.5-2.2H81V78
	c2.6-1.9,11.7-9.4,13.2-23.1c1.8-15.3-7.4-25.6-10.7-29.3c0-3.5,0-5.4,0-5.4l0-1.5H71v-3.3h6.1V3H71V0H57.5v3h-6.1v12.5h6.1v3.3H45
	l0,1.5c0,0,0,1.9,0,5.4c-3.4,3.7-12.5,14-10.7,29.3C35.9,68.7,44.9,76.1,47.5,78v3.9h-7.2l-2.5,2.2H17.9l0,22.9H37l1.2,3l-20.4,13.2
	h-2.6v-17h-14V119L0,120.1v13.5l0,0v21.8l0,0v13.5l1.2,1.2v12.7h14v-18.9c1.7-0.5,5.2-1.7,9-3.2c3.6-1.4,7.2-3.3,10.1-4.8
	c2.2-1.1,4.4-2.3,5.2-2.5c2.4-0.4,3,0.5,4.2,2.3l0.3,0.4c0.1,0.1,8.3,12.2,18.5,16.2c11.1,4.2,26.5,5.1,36-2.5
	c7.8-6.3,12-6.9,14.8-6.2c0,6,0.2,15.5,0.2,15.6l0,1.5h13.5V168l1.7-1.2v-15v-1.5v-15.3v-1.5v-13.5L127.4,119z M107.7,104H89.6
	l-2.7,6.8l2.6,3.9l-0.1,16.7l21.1-5.2h5.9v-17h8v11l1.2,1.2v10.7h-12.4c-5.2,0-10.2,1-15,2.9l-16.6,6.6h-1.9v-4.2l2,0l2.7-4.6
	l0.7-17.3l-3.9-4.7V98.9h7.2l0-2.5h19.4L107.7,104L107.7,104z M111.6,150.4c-2.6,0-5.1,0.6-7.3,1.8c-1.3,0.7-2.4,1.6-3.1,2.5
	c-3.1,3.7-9.3,10-16.7,10.8C70.4,167,61,162.3,57,157.4c-4.2-5.1-6.1-10.5-6-12c0-0.6,0.1-0.9,0.2-1.1l0.8-0.2l0.2-7h24.4v7.4h5.5
	l17.2-6.8c4.4-1.8,9.1-2.6,13.9-2.6h0.3v15.3L111.6,150.4L111.6,150.4z M3,135.1h8.7v18.7c0,0-0.1,0-0.1,0c-4.2,0-7,0-8.6,0.1
	L3,135.1L3,135.1z M14.7,135.1h2l33.8-23V98.9h7v13.8h-2v5.4h-4.2v8.6H49v7.7c-1.8,0.5-4.9,1.7-8.8,5c-5.1,4.2-18,11.9-25.5,13.9
	C14.7,153.3,14.7,135.1,14.7,135.1z M71,39.1h10.5c0.9,1.5,2.9,5.9,2.8,13c-0.1,6.9-1.4,11.3-2,13H71V39.1z M71,98.9h7v12.9l3.8,4.6
	l-0.6,15.4l-1.4,2.5l-0.3,0v-7.5h-2.4v-8.6H73v-5.4h-2C71,112.7,71,98.9,71,98.9z M52,129.7h24.6v4.4H52C52,134.1,52,129.7,52,129.7
	z M58.6,115.7H70v2.4H58.6V115.7z M73,121.2h1.2v5.6H54.4v-5.6h1.2H73z M57.5,65.1H46.2c-0.6-1.7-1.9-6.1-2-13
	c-0.1-7.1,2-11.5,2.8-13h10.5L57.5,65.1L57.5,65.1z M80.6,21.7c0,1,0,2.5,0,4.5v0.6l0.6,0.6c2.9,3.2,11.8,12.9,10.2,27.1
	C89.7,68.9,78.8,75.9,78.7,76L78,76.4v8.5h9.1l2.5,2.2h18.1v6.3H85.3l0,2.5l-14.3,0V68.1h13.3l0.4-0.8c0.1-0.2,2.5-5.2,2.6-15.1
	c0.2-10.1-3.6-15.2-3.8-15.4l-0.4-0.6H71V21.7C71,21.7,80.6,21.7,80.6,21.7z M74.2,6v6.5H71V6C71,6,74.2,6,74.2,6z M68,6v6.5h-7.5V6
	C60.5,6,68,6,68,6z M54.4,12.5V6h3.1v6.5H54.4z M68,15.5v97.2h-7.5V15.5C60.5,15.5,68,15.5,68,15.5z M20.9,87.1h18.1l2.5-2.2h9.1
	l0-8.5L49.8,76c-0.1-0.1-10.9-7.1-12.6-21.4c-1.6-14.3,7.3-23.9,10.2-27.1l0.6-0.6v-0.6c0-2,0-3.5,0-4.5h9.5v14.3H45.5L45,36.7
	c-0.2,0.2-4,5.4-3.8,15.4c0.2,9.9,2.5,14.9,2.6,15.1l0.4,0.8h13.3v27.8l-7,0l-7.2,0v-2.5H20.9L20.9,87.1L20.9,87.1z M3,121.4
	l1.2-1.2v-11h8v17h6.5l23.1-15L39,104H20.9v-7.6h19.4v2.5l7.3,0v11.6l-31.7,21.6H3V121.4z M125.6,165.3l-1.7,1.2v11.2h-7.5
	c-0.1-3.2-0.2-10.6-0.2-15.2v-1.1l-1-0.4c-3.6-1.3-8.7-1.6-18.7,6.4c-8.5,6.8-22.7,5.9-33,2c-7.8-3-15-11.8-17.1-15l-0.3-0.4
	c-1.3-1.9-2.9-4.4-7.2-3.6c-1.2,0.2-3,1.1-6,2.8c-2.8,1.5-6.3,3.3-9.7,4.7c-5.2,2-9.8,3.5-9.9,3.5l-1.1,0.3v18.1h-8v-11L3,167.6
	v-10.7c1.6,0,4.4-0.1,8.6-0.1c7.5,0,25.1-10.6,30.5-15.1c3.2-2.6,5.6-3.7,7.1-4.2l-0.2,4.7c-0.5,0.5-0.9,1.4-1,3
	c-0.2,2.7,2.3,8.8,6.7,14.1c4.5,5.5,14.9,10.9,30.2,9.2c8.4-0.9,15.3-7.8,18.7-11.9c0.6-0.7,1.3-1.3,2.3-1.8
	c1.7-0.9,3.7-1.4,5.8-1.4h13.9L125.6,165.3L125.6,165.3z M125.6,150.4h-9.1v-15.3h9.1V150.4z"/>
</svg>
