<?xml version="1.0" encoding="utf-8"?>
<!-- Generator: Adobe Illustrator 22.0.1, SVG Export Plug-In . SVG Version: 6.00 Build 0)  -->
<svg version="1.1" id="Слой_1" xmlns="http://www.w3.org/2000/svg" xmlns:xlink="http://www.w3.org/1999/xlink" x="0px" y="0px"
	 viewBox="0 0 145 137" style="enable-background:new 0 0 145 137;" xml:space="preserve">
<style type="text/css">
	.st0{fill:#445F87;}
</style>
<path class="st0" d="M145,73.7V60l-2-2.5V42.9h-12.4v23l-35,0l-0.2-0.3l6.1-7.2l6.1,6.1l14-13.4l-1.4-1.4l2.6-2.6l-2.2-2.2l-2.7-2.7
	l0,0l-1-1l-2.6,2.6l-1.7-1.7l2.6-2.6l-2.9-2.9l-1.9-1.9l0,0l-1-1l-2.6,2.6L99.6,29l2.6-2.6l-1.9-1.9l-2.9-2.9l0,0l-1-1l-2.6,2.6
	l-1.5-1.5l4.9-4.9l-3.4-3.4l-3.8-3.8l0,0l-2-2l-4.9,4.9l-4-4l2.6-2.6l-1.6-1.6L76.9,1l0,0l-1-1l-2.6,2.6L71.7,1L58.1,14.6l6.3,6.4
	c-3.9,3.3-16.1,13.7-21.8,19.5c-1.9,1.9-18.7,19.6-18.9,22c0,0.4-0.1,0.8-0.1,1.2c0,0.3,0,0.7,0,0.8c-0.4,0.4-0.8,0.9-1.1,1.3l-8,0
	v-23H2v14.6L0,60v13.7h0.9v32.5H0v13.7l2,2.5V137h12.4V114l116.2-0.1v23H143v-14.6l2-2.5v-13.7h-1.5V73.7H145z M91,14.8l-2.7,2.7
	l-1.1-1.1l2.7-2.7L91,14.8z M3,61.1l2-2.5V45.9h6.4v22.9l12.5,0l0.4-0.6c0.2-0.3,0.8-1.1,1.3-1.5c0.9-0.9,0.9-2,0.9-2.9
	c0-0.2,0-0.4,0-0.7c1.1-2,11.4-13.6,18.1-20.4c6.7-6.8,22.7-20.2,22.8-20.4l1.2-1l-6.5-6.6l9.4-9.4l45.7,45.9l-9.7,9.3l-6.4-6.4
	l-9.6,11.3l2.2,3.5l39.7,0v-23h6.4v12.7l2,2.5v9.6H86.8l0.2-2.5L104,48.4L74.2,18.9l-4.8,4.3C68.6,23.9,55.5,34,47,42.1
	c-11.4,10.8-18.2,22-19.1,23.5l-4.9,5.1H3V61.1z M76.5,52.4l-0.8,0.8l-0.5-0.5l0.8-0.8L76.5,52.4z M38.3,84.6l-0.5-0.5l49.3-48.2
	l0.5,0.5L38.3,84.6z M59.8,68.8l-0.8,0.8l-0.5-0.5l0.8-0.8L59.8,68.8z M43,85.2l-0.8,0.8l-0.5-0.5l0.8-0.8L43,85.2z M36.5,80.3
	l0.8-0.8l0.5,0.5L37,80.8L36.5,80.3z M53.3,63.9l0.8-0.8l0.5,0.5l-0.8,0.8L53.3,63.9z M70,47.4l0.8-0.8l0.5,0.5l-0.8,0.8L70,47.4z
	 M83.3,34.3l1.1-1.1l0.6,0.6l-1.1,1.1L83.3,34.3z M89.7,38.5l0.4,0.4l-1.2,1.2l-0.4-0.4L89.7,38.5z M3.9,73.7h1.2v32.5H3.9V73.7z
	 M142,118.8l-2,2.5V134h-6.4v-23L11.4,111V134H5v-12.7l-2-2.5v-9.6h17.5c6.8,0,13.4-0.2,19.4-3.1c5.1-2.4,9.8-5.4,14.3-9
	c10.5,12.7,35.3,12.2,36.7,12.1H142V118.8z M140.5,106.2H90.8l0,0c-0.3,0-26.2,0.7-35.2-12.1l-1-1.4l-1.3,1.1
	c-4.5,3.9-9.5,7.1-14.8,9.6c-5.5,2.6-11.4,2.8-18.1,2.8H8.1V73.7h16.3l5.9-6.2l0.2-0.3c0.1-0.1,6.9-11.9,18.6-23
	c8.6-8.2,22-18.6,22.2-18.7l2.8-2.5l8.1,8.1L79,34.2l2.7,2.7l-8.2,8l-2.6-2.6l-5.1,5l2.6,2.6L56.7,61.4l-2.6-2.6l-5.1,5l2.6,2.6
	L39.9,77.9l-2.6-2.6l-5.1,5l2.6,2.6l-1.2,1.2l4.7,4.8l1.2-1.2l2.6,2.6l5.1-5l-2.6-2.6l11.7-11.4l2.6,2.6l5.1-5l-2.6-2.6l11.7-11.4
	l2.6,2.6l5.1-5l-2.6-2.6l8.2-8l2.5,2.5l3.4-3.3l7.6,7.6L84.2,66.9l-0.7,6.8h57V106.2z"/>
<g>
	<g>
		<polygon class="st0" points="4.8,135.5 6.2,135.5 3.5,132.8 3.5,134.2 		"/>
		<polygon class="st0" points="7.8,135.5 9.2,135.5 3.5,129.8 3.5,131.2 		"/>
		<polygon class="st0" points="10.7,135.5 12.1,135.5 3.5,126.9 3.5,128.3 		"/>
		<polygon class="st0" points="12.9,134.8 12.9,133.3 3.5,123.9 3.5,125.3 		"/>
		<polygon class="st0" points="12.9,131.8 12.9,130.4 1.5,119 1.5,119.3 3.5,121.8 3.5,122.4 		"/>
		<polygon class="st0" points="1.5,111.6 12.9,123 12.9,121.6 1.5,110.2 		"/>
		<polygon class="st0" points="1.5,117.5 12.9,128.9 12.9,127.5 1.5,116 		"/>
		<polygon class="st0" points="12.9,120.1 12.9,118.6 1.9,107.7 1.5,107.7 1.5,108.6 		"/>
		<polygon class="st0" points="1.5,114.5 12.9,125.9 12.9,124.5 1.5,113.1 		"/>
		<polygon class="st0" points="12.9,115.7 4.9,107.7 3.5,107.7 12.9,117.1 		"/>
		<polygon class="st0" points="12.9,114.2 12.9,112.8 7.8,107.7 6.4,107.7 		"/>
		<polygon class="st0" points="14.2,112.5 15.7,112.5 10.8,107.7 9.3,107.7 		"/>
		<polygon class="st0" points="17.2,112.5 18.6,112.5 13.7,107.7 12.3,107.7 		"/>
		<polygon class="st0" points="23.1,112.5 24.5,112.5 19.6,107.7 18.2,107.7 		"/>
		<polygon class="st0" points="20.1,112.5 21.5,112.5 16.6,107.7 15.2,107.7 		"/>
		<path class="st0" d="M22.5,107.6c-0.5,0-0.9,0-1.4,0l4.9,4.9l1.4,0L22.5,107.6z"/>
		<path class="st0" d="M30.8,107.1c-0.4,0.1-0.8,0.1-1.3,0.2l5.2,5.2l1.4,0L30.8,107.1z"/>
		<path class="st0" d="M25.4,107.6c-0.5,0-0.9,0-1.4,0l4.9,4.9l1.4,0L25.4,107.6z"/>
		<path class="st0" d="M33.3,106.7c-0.4,0.1-0.8,0.2-1.2,0.2l5.6,5.6l1.4,0L33.3,106.7z"/>
		<path class="st0" d="M28.2,107.4c-0.4,0-0.9,0.1-1.3,0.1l5,5l1.4,0L28.2,107.4z"/>
		<g>
			<polygon class="st0" points="12.1,72.2 13.5,72.2 1.7,60.3 1.5,60.5 1.5,61.6 			"/>
			<path class="st0" d="M43.7,102.4c-0.3,0.2-0.6,0.4-0.9,0.5l9.6,9.6l1.4,0L43.7,102.4z"/>
		</g>
		<g>
			<polygon class="st0" points="1.5,63.1 1.5,64.5 9.2,72.2 10.6,72.2 			"/>
			<path class="st0" d="M41.8,103.4c-0.3,0.2-0.6,0.3-0.9,0.5l8.6,8.6l1.4,0L41.8,103.4z"/>
		</g>
		<g>
			<polygon class="st0" points="1.5,66 1.5,67.4 6.3,72.2 7.7,72.2 			"/>
			<path class="st0" d="M39.9,104.4c-0.2,0.1-0.4,0.2-0.6,0.3c-0.1,0.1-0.2,0.1-0.3,0.2l7.7,7.7l1.4,0L39.9,104.4z"/>
		</g>
		<g>
			<polygon class="st0" points="14.5,67.3 13.1,67.3 18,72.2 19.4,72.2 			"/>
			<polygon class="st0" points="3.5,57.7 12.9,67.1 12.9,65.7 3.5,56.3 			"/>
			<path class="st0" d="M47.4,100.1c-0.3,0.2-0.6,0.4-0.9,0.6l11.8,11.8l1.4,0L47.4,100.1z"/>
		</g>
		<g>
			<polygon class="st0" points="3,58.7 2.3,59.5 15.1,72.2 16.5,72.2 			"/>
			<path class="st0" d="M45.6,101.3c-0.3,0.2-0.6,0.4-0.9,0.5l10.7,10.7l1.4,0L45.6,101.3z"/>
		</g>
		<g>
			<polygon class="st0" points="1.5,69 1.5,70.4 3.3,72.2 4.7,72.2 			"/>
			<path class="st0" d="M37.8,105.3c-0.3,0.1-0.7,0.3-1,0.4l6.8,6.8l1.4,0L37.8,105.3z"/>
		</g>
		<g>
			<polygon class="st0" points="1.5,71.9 1.5,72.2 1.8,72.2 			"/>
			<path class="st0" d="M35.7,106.1c-0.4,0.1-0.7,0.2-1.1,0.3l6.1,6.1l1.4,0L35.7,106.1z"/>
		</g>
		<g>
			<polygon class="st0" points="3.5,54.7 12.9,64.2 12.9,62.7 3.5,53.3 			"/>
			<polygon class="st0" points="17.5,67.3 16.1,67.3 21,72.2 22.4,72.2 			"/>
			<path class="st0" d="M49.1,99c-0.3,0.2-0.6,0.4-0.8,0.6l13,13l1.4,0L49.1,99z"/>
		</g>
		<g>
			<path class="st0" d="M50.8,97.7c-0.3,0.2-0.5,0.4-0.8,0.6l14.2,14.2l1.4,0L50.8,97.7z"/>
			<polygon class="st0" points="20.4,67.3 19,67.3 23.8,72.1 24.5,71.4 			"/>
			<polygon class="st0" points="3.5,51.8 12.9,61.2 12.9,59.8 3.5,50.4 			"/>
		</g>
		<g>
			<path class="st0" d="M24.6,65.6C24.6,65.6,24.6,65.6,24.6,65.6c-0.2,0.2-0.5,0.5-0.7,0.7l2.8,2.8l0.7-0.7L24.6,65.6z"/>
			<polygon class="st0" points="3.5,45.9 12.9,55.3 12.9,53.9 3.5,44.5 			"/>
			<path class="st0" d="M54.1,95.1c-0.3,0.2-0.5,0.4-0.8,0.6l16.8,16.8l1.4,0L54.1,95.1z"/>
		</g>
		<g>
			<path class="st0" d="M23.2,67.2c-0.1,0.1-0.1,0.1-0.1,0.1l-1.2,0l3.3,3.3l0.7-0.7L23.2,67.2z"/>
			<path class="st0" d="M52.5,96.4c-0.3,0.2-0.5,0.4-0.8,0.6l15.5,15.5l1.4,0L52.5,96.4z"/>
			<polygon class="st0" points="3.5,48.9 12.9,58.3 12.9,56.9 3.5,47.4 			"/>
		</g>
		<g>
			<path class="st0" d="M25.1,63.1c0,0.5,0,1,0,1.4l3.1,3.1l0.7-0.7L25.1,63.1z"/>
			<polygon class="st0" points="4.9,44.4 12.9,52.4 12.9,51 6.3,44.4 			"/>
			<path class="st0" d="M64.9,103c-1-0.4-1.9-0.9-2.8-1.4l11,11l1.4,0L64.9,103z"/>
		</g>
		<g>
			<path class="st0" d="M26.1,61.2c-0.2,0.3-0.4,0.6-0.6,0.8l4,4c0.1-0.2,0.3-0.5,0.5-0.9L26.1,61.2z"/>
			<path class="st0" d="M69.6,104.7c-0.7-0.2-1.4-0.5-2.1-0.7l8.5,8.5l1.4,0L69.6,104.7z"/>
			<polygon class="st0" points="7.8,44.4 12.9,49.5 12.9,48 9.2,44.4 			"/>
		</g>
		<g>
			<path class="st0" d="M28.7,58c-0.2,0.3-0.4,0.5-0.6,0.8l3.7,3.7c0.2-0.3,0.4-0.5,0.6-0.8L28.7,58z"/>
			<path class="st0" d="M77.3,106.6c-0.6-0.1-1.2-0.2-1.7-0.3l6.3,6.3l1.4,0L77.3,106.6z"/>
		</g>
		<g>
			<polygon class="st0" points="10.8,44.4 12.9,46.5 12.9,45.1 12.2,44.4 			"/>
			<path class="st0" d="M27.4,59.6c-0.2,0.3-0.4,0.5-0.6,0.8l3.8,3.8c0.2-0.3,0.4-0.5,0.6-0.9L27.4,59.6z"/>
			<path class="st0" d="M73.7,105.8c-0.6-0.1-1.3-0.3-1.9-0.5l7.1,7.1l1.4,0L73.7,105.8z"/>
		</g>
		<g>
			<path class="st0" d="M31.4,54.8c-0.2,0.3-0.4,0.5-0.7,0.8l3.4,3.4c0.2-0.3,0.4-0.5,0.6-0.8L31.4,54.8z"/>
			<path class="st0" d="M84.1,107.4c-0.5,0-1-0.1-1.6-0.1l5.2,5.2l1.4,0L84.1,107.4z"/>
		</g>
		<g>
			<path class="st0" d="M90.2,107.7c-0.3,0-0.8,0-1.4,0l4.8,4.8l1.4,0L90.2,107.7z"/>
			<path class="st0" d="M34.2,51.7c-0.2,0.2-0.4,0.5-0.7,0.7l3.2,3.2c0.2-0.3,0.4-0.5,0.6-0.8L34.2,51.7z"/>
		</g>
		<g>
			<path class="st0" d="M30.1,56.4c-0.2,0.3-0.4,0.5-0.7,0.8l3.5,3.5c0.2-0.3,0.4-0.5,0.6-0.8L30.1,56.4z"/>
			<path class="st0" d="M80.8,107.1c-0.5-0.1-1.1-0.1-1.6-0.2l5.6,5.6l1.4,0L80.8,107.1z"/>
		</g>
		<g>
			<path class="st0" d="M87.2,107.6c-0.5,0-1,0-1.5-0.1l5,5l1.4,0L87.2,107.6z"/>
			<path class="st0" d="M32.8,53.2c-0.2,0.3-0.4,0.5-0.7,0.7l3.3,3.3c0.2-0.3,0.4-0.5,0.6-0.8L32.8,53.2z"/>
		</g>
		<g>
			<path class="st0" d="M37,48.6c-0.2,0.2-0.5,0.5-0.7,0.7l3,3c0.2-0.3,0.4-0.5,0.6-0.8L37,48.6z"/>
			<polygon class="st0" points="96.1,107.7 94.7,107.7 99.5,112.5 100.9,112.5 			"/>
		</g>
		<g>
			<path class="st0" d="M39.8,45.5c-0.2,0.2-0.5,0.5-0.7,0.7l3,3c0.2-0.2,0.4-0.5,0.7-0.7L39.8,45.5z"/>
			<polygon class="st0" points="102,107.7 100.5,107.7 105.4,112.5 106.8,112.5 			"/>
		</g>
		<g>
			<path class="st0" d="M41.3,44c-0.2,0.2-0.5,0.5-0.7,0.7l2.9,2.9c0.2-0.2,0.5-0.5,0.7-0.7L41.3,44z"/>
			<polygon class="st0" points="104.9,107.7 103.5,107.7 108.3,112.5 109.7,112.5 			"/>
			<polygon class="st0" points="132.1,134.8 132.1,135.5 132.7,135.5 			"/>
		</g>
		<g>
			<path class="st0" d="M42.7,42.5c-0.2,0.2-0.5,0.5-0.7,0.7l3,3c0.2-0.2,0.5-0.5,0.7-0.7L42.7,42.5z"/>
			<polygon class="st0" points="107.8,107.7 106.4,107.7 111.3,112.5 112.7,112.5 			"/>
			<polygon class="st0" points="135.7,135.5 132.1,131.9 132.1,133.3 134.3,135.5 			"/>
		</g>
		<g>
			<path class="st0" d="M38.4,47.1c-0.2,0.2-0.5,0.5-0.7,0.7l3,3c0.2-0.2,0.4-0.5,0.7-0.8L38.4,47.1z"/>
			<polygon class="st0" points="99,107.7 97.6,107.7 102.4,112.5 103.9,112.5 			"/>
		</g>
		<g>
			<path class="st0" d="M46.4,44.7c0.2-0.2,0.5-0.5,0.7-0.7l-3-3c-0.2,0.2-0.4,0.4-0.5,0.5c-0.1,0.1-0.1,0.1-0.2,0.2L46.4,44.7z"/>
			<polygon class="st0" points="110.8,107.7 109.4,107.7 114.2,112.5 115.6,112.5 			"/>
			<polygon class="st0" points="138.6,135.5 132.1,129 132.1,130.4 137.2,135.5 			"/>
		</g>
		<g>
			<polygon class="st0" points="132.1,126 132.1,127.4 140.2,135.5 141.5,135.5 141.5,135.4 			"/>
			<path class="st0" d="M47.9,43.3c0,0,0.1-0.1,0.1-0.1c0.2-0.2,0.4-0.4,0.6-0.6l-3-3c-0.2,0.2-0.5,0.5-0.7,0.7L47.9,43.3z"/>
			<polygon class="st0" points="113.7,107.7 112.3,107.7 117.1,112.5 118.6,112.5 			"/>
		</g>
		<g>
			<path class="st0" d="M49.5,41.9c0.2-0.2,0.5-0.4,0.7-0.7l-3-3c-0.2,0.2-0.5,0.5-0.7,0.7L49.5,41.9z"/>
			<polygon class="st0" points="116.7,107.7 115.3,107.7 120.1,112.5 121.5,112.5 			"/>
			<polygon class="st0" points="141.5,132.5 132.1,123.1 132.1,124.5 141.5,133.9 			"/>
		</g>
		<g>
			<path class="st0" d="M51,40.5c0.2-0.2,0.5-0.4,0.7-0.7l-3-3c-0.2,0.2-0.5,0.5-0.7,0.7L51,40.5z"/>
			<polygon class="st0" points="119.6,107.7 118.2,107.7 123,112.5 124.4,112.5 			"/>
			<polygon class="st0" points="141.5,129.5 132.1,120.1 132.1,121.5 141.5,131 			"/>
		</g>
		<g>
			<path class="st0" d="M52.5,39.1c0.2-0.2,0.5-0.4,0.8-0.7l-3.1-3.1c-0.2,0.2-0.5,0.5-0.7,0.7L52.5,39.1z"/>
			<polygon class="st0" points="85.3,70.5 85.2,71.7 85.7,72.2 87.1,72.2 			"/>
			<polygon class="st0" points="141.5,126.6 132.1,117.2 132.1,118.6 141.5,128 			"/>
			<polygon class="st0" points="122.6,107.7 121.1,107.7 126,112.5 127.4,112.5 			"/>
		</g>
		<g>
			<polygon class="st0" points="128.4,107.7 127,107.7 131.8,112.5 132.1,112.5 132.1,112.7 141.5,122.1 141.5,121.8 142,121.2 			
				"/>
			<path class="st0" d="M55.7,36.3c0.3-0.2,0.5-0.4,0.8-0.7l-3.1-3.1c-0.2,0.2-0.5,0.4-0.7,0.7L55.7,36.3z"/>
			<polygon class="st0" points="86.9,66.1 86.2,66.9 91.6,72.2 93,72.2 			"/>
		</g>
		<g>
			<polygon class="st0" points="88.2,64.5 87.6,65.3 94.5,72.2 95.9,72.2 			"/>
			<polygon class="st0" points="143.3,119.6 131.4,107.7 130,107.7 142.7,120.4 			"/>
			<path class="st0" d="M57.3,35c0.3-0.2,0.5-0.4,0.8-0.6l-3.2-3.2c-0.2,0.2-0.5,0.4-0.8,0.7L57.3,35z"/>
		</g>
		<g>
			<polygon class="st0" points="89.6,62.9 88.9,63.7 97.4,72.2 98.9,72.2 			"/>
			<polygon class="st0" points="143.5,116.8 134.3,107.7 132.9,107.7 143.5,118.3 			"/>
			<path class="st0" d="M58.9,33.6c0.3-0.2,0.5-0.4,0.8-0.6l-3.2-3.2c-0.3,0.2-0.5,0.4-0.8,0.7L58.9,33.6z"/>
		</g>
		<g>
			<polygon class="st0" points="99.9,67.4 98.5,67.4 103.3,72.2 104.7,72.2 			"/>
			<polygon class="st0" points="95,63.8 95.6,63.1 92.3,59.8 91.7,60.5 			"/>
			<path class="st0" d="M62.1,31c0.3-0.2,0.5-0.4,0.8-0.6l-3.3-3.3c-0.2,0.2-0.5,0.4-0.8,0.7L62.1,31z"/>
			<polygon class="st0" points="143.5,111 140.2,107.7 138.8,107.7 143.5,112.4 			"/>
		</g>
		<g>
			<polygon class="st0" points="85.6,67.8 85.5,69.1 88.6,72.2 90,72.2 			"/>
			<path class="st0" d="M54.1,37.7c0.3-0.2,0.5-0.4,0.8-0.7l-3.1-3.1c-0.2,0.2-0.5,0.4-0.7,0.7L54.1,37.7z"/>
			<polygon class="st0" points="125.5,107.7 124.1,107.7 128.9,112.5 130.3,112.5 			"/>
			<polygon class="st0" points="141.5,123.7 132.1,114.2 132.1,115.7 141.5,125.1 			"/>
		</g>
		<g>
			<polygon class="st0" points="93.6,65.4 94.3,64.7 90.9,61.3 90.3,62.1 			"/>
			<polygon class="st0" points="97,67.4 95.5,67.4 100.4,72.2 101.8,72.2 			"/>
			<polygon class="st0" points="143.5,113.9 137.3,107.7 135.8,107.7 143.5,115.3 			"/>
			<path class="st0" d="M60.5,32.3c0.3-0.2,0.5-0.4,0.8-0.6L58,28.4c-0.2,0.2-0.5,0.4-0.8,0.7L60.5,32.3z"/>
		</g>
		<g>
			<polygon class="st0" points="96.4,55 95.7,55.8 99,59 99.7,58.3 			"/>
			<path class="st0" d="M67,27c0.3-0.2,0.5-0.4,0.8-0.6L64.4,23c-0.2,0.2-0.5,0.4-0.8,0.6L67,27z"/>
			<polygon class="st0" points="108.7,67.4 107.3,67.4 112.2,72.2 113.6,72.2 			"/>
		</g>
		<g>
			<polygon class="st0" points="96.3,62.2 97,61.5 93.7,58.2 93,58.9 			"/>
			<polygon class="st0" points="102.8,67.4 101.4,67.4 106.3,72.2 107.7,72.2 			"/>
			<polygon class="st0" points="143.5,108 143.1,107.7 141.7,107.7 143.5,109.4 			"/>
			<path class="st0" d="M63.7,29.7c0.3-0.2,0.5-0.4,0.8-0.6l-3.3-3.3c-0.2,0.2-0.5,0.4-0.8,0.7L63.7,29.7z"/>
		</g>
		<g>
			<polygon class="st0" points="95,56.6 94.4,57.4 97.7,60.6 98.3,59.9 			"/>
			<polygon class="st0" points="105.8,67.4 104.4,67.4 109.2,72.2 110.6,72.2 			"/>
			<path class="st0" d="M65.4,28.3c0.3-0.2,0.5-0.4,0.8-0.6l-3.4-3.4c-0.2,0.2-0.5,0.4-0.8,0.7L65.4,28.3z"/>
		</g>
		<g>
			<polygon class="st0" points="97.7,53.4 97.1,54.2 100.4,57.5 101,56.7 			"/>
			<path class="st0" d="M68.6,25.7c0.3-0.2,0.6-0.4,0.8-0.6L66,21.6c-0.2,0.2-0.5,0.4-0.8,0.6L68.6,25.7z"/>
			<polygon class="st0" points="111.7,67.4 110.3,67.4 115.1,72.2 116.5,72.2 			"/>
		</g>
		<g>
			<path class="st0" d="M35.6,50.1c-0.2,0.2-0.4,0.5-0.7,0.7L38,54c0.2-0.3,0.4-0.5,0.6-0.8L35.6,50.1z"/>
			<polygon class="st0" points="93.1,107.7 91.7,107.7 96.6,112.5 98,112.5 			"/>
		</g>
		<g>
			<polygon class="st0" points="117.6,67.4 116.1,67.4 121,72.2 122.4,72.2 			"/>
			<polygon class="st0" points="100.4,50.2 99.8,51 109.5,60.7 110.2,60 			"/>
			<polygon class="st0" points="61.8,13 71.8,23.1 72.6,22.4 62.5,12.3 			"/>
		</g>
		<g>
			<polygon class="st0" points="123.4,67.4 122,67.4 126.9,72.2 128.3,72.2 			"/>
			<polygon class="st0" points="65.4,9.4 64.7,10.1 112.5,57.8 113.2,57.1 			"/>
		</g>
		<g>
			<polygon class="st0" points="126.4,67.4 125,67.4 129.8,72.2 131.2,72.2 			"/>
			<polygon class="st0" points="66.9,7.9 66.2,8.6 114,56.4 114.7,55.7 			"/>
		</g>
		<g>
			<polygon class="st0" points="101.8,48.7 101.1,49.4 111,59.3 111.7,58.6 			"/>
			<polygon class="st0" points="63.3,11.5 73.4,21.7 74.1,21 64,10.8 			"/>
			<polygon class="st0" points="120.5,67.4 119.1,67.4 123.9,72.2 125.3,72.2 			"/>
		</g>
		<g>
			<polygon class="st0" points="69.8,4.9 69.1,5.6 117,53.5 117.7,52.8 			"/>
			<polygon class="st0" points="132.1,67.2 132.1,67.4 130.9,67.4 135.7,72.2 137.1,72.2 			"/>
		</g>
		<g>
			<polygon class="st0" points="68.4,6.4 67.7,7.1 115.5,55 116.2,54.3 			"/>
			<polygon class="st0" points="129.3,67.4 127.9,67.4 132.7,72.2 134.2,72.2 			"/>
		</g>
		<g>
			<polygon class="st0" points="99.1,51.8 98.4,52.6 108,62.2 108.7,61.5 			"/>
			<polygon class="st0" points="114.6,67.4 113.2,67.4 118,72.2 119.5,72.2 			"/>
			<path class="st0" d="M60.3,14.5l10,10c0,0,0.1-0.1,0.1-0.1l0.7-0.6l-10-10L60.3,14.5z"/>
		</g>
		<polygon class="st0" points="132.1,61.3 132.1,62.7 141.6,72.2 143,72.2 		"/>
		<g>
			<polygon class="st0" points="132.1,64.2 132.1,65.6 138.6,72.2 140,72.2 			"/>
			<polygon class="st0" points="71.3,3.5 70.6,4.2 118.5,52.1 119.2,51.4 			"/>
		</g>
		<polygon class="st0" points="132.1,59.8 143.5,71.2 143.5,69.8 132.1,58.3 		"/>
		<polygon class="st0" points="132.1,56.8 143.5,68.2 143.5,66.8 132.1,55.4 		"/>
		<polygon class="st0" points="132.1,50.9 143.5,62.4 143.5,60.9 132.1,49.5 		"/>
		<polygon class="st0" points="132.8,44.4 132.1,44.4 132.1,45.1 141.5,54.5 141.5,53.1 		"/>
		<polygon class="st0" points="141.5,56 132.1,46.6 132.1,48 141.5,57.4 		"/>
		<polygon class="st0" points="135.7,44.4 134.3,44.4 141.5,51.5 141.5,50.1 		"/>
		<polygon class="st0" points="132.1,53.9 143.5,65.3 143.5,63.9 132.1,52.5 		"/>
		<polygon class="st0" points="141.5,45.6 141.5,44.4 140.2,44.4 		"/>
		<polygon class="st0" points="138.7,44.4 137.3,44.4 141.5,48.6 141.5,47.2 		"/>
	</g>
	<g>
		<polygon class="st0" points="4.8,135.5 6.2,135.5 3.5,132.8 3.5,134.2 		"/>
		<polygon class="st0" points="7.8,135.5 9.2,135.5 3.5,129.8 3.5,131.2 		"/>
		<polygon class="st0" points="10.7,135.5 12.1,135.5 3.5,126.9 3.5,128.3 		"/>
		<polygon class="st0" points="12.9,134.8 12.9,133.3 3.5,123.9 3.5,125.3 		"/>
		<polygon class="st0" points="12.9,131.8 12.9,130.4 1.5,119 1.5,119.3 3.5,121.8 3.5,122.4 		"/>
		<polygon class="st0" points="1.5,111.6 12.9,123 12.9,121.6 1.5,110.2 		"/>
		<polygon class="st0" points="1.5,117.5 12.9,128.9 12.9,127.5 1.5,116 		"/>
		<polygon class="st0" points="12.9,120.1 12.9,118.6 1.9,107.7 1.5,107.7 1.5,108.6 		"/>
		<polygon class="st0" points="1.5,114.5 12.9,125.9 12.9,124.5 1.5,113.1 		"/>
		<polygon class="st0" points="12.9,115.7 4.9,107.7 3.5,107.7 12.9,117.1 		"/>
		<polygon class="st0" points="12.9,114.2 12.9,112.8 7.8,107.7 6.4,107.7 		"/>
		<polygon class="st0" points="14.2,112.5 15.7,112.5 10.8,107.7 9.3,107.7 		"/>
		<polygon class="st0" points="17.2,112.5 18.6,112.5 13.7,107.7 12.3,107.7 		"/>
		<polygon class="st0" points="23.1,112.5 24.5,112.5 19.6,107.7 18.2,107.7 		"/>
		<polygon class="st0" points="20.1,112.5 21.5,112.5 16.6,107.7 15.2,107.7 		"/>
		<path class="st0" d="M22.5,107.6c-0.5,0-0.9,0-1.4,0l4.9,4.9l1.4,0L22.5,107.6z"/>
		<path class="st0" d="M30.8,107.1c-0.4,0.1-0.8,0.1-1.3,0.2l5.2,5.2l1.4,0L30.8,107.1z"/>
		<path class="st0" d="M25.4,107.6c-0.5,0-0.9,0-1.4,0l4.9,4.9l1.4,0L25.4,107.6z"/>
		<path class="st0" d="M33.3,106.7c-0.4,0.1-0.8,0.2-1.2,0.2l5.6,5.6l1.4,0L33.3,106.7z"/>
		<path class="st0" d="M28.2,107.4c-0.4,0-0.9,0.1-1.3,0.1l5,5l1.4,0L28.2,107.4z"/>
		<g>
			<polygon class="st0" points="12.1,72.2 13.5,72.2 1.7,60.3 1.5,60.5 1.5,61.6 			"/>
			<path class="st0" d="M43.7,102.4c-0.3,0.2-0.6,0.4-0.9,0.5l9.6,9.6l1.4,0L43.7,102.4z"/>
		</g>
		<g>
			<polygon class="st0" points="1.5,63.1 1.5,64.5 9.2,72.2 10.6,72.2 			"/>
			<path class="st0" d="M41.8,103.4c-0.3,0.2-0.6,0.3-0.9,0.5l8.6,8.6l1.4,0L41.8,103.4z"/>
		</g>
		<g>
			<polygon class="st0" points="1.5,66 1.5,67.4 6.3,72.2 7.7,72.2 			"/>
			<path class="st0" d="M39.9,104.4c-0.2,0.1-0.4,0.2-0.6,0.3c-0.1,0.1-0.2,0.1-0.3,0.2l7.7,7.7l1.4,0L39.9,104.4z"/>
		</g>
		<g>
			<polygon class="st0" points="14.5,67.3 13.1,67.3 18,72.2 19.4,72.2 			"/>
			<polygon class="st0" points="3.5,57.7 12.9,67.1 12.9,65.7 3.5,56.3 			"/>
			<path class="st0" d="M47.4,100.1c-0.3,0.2-0.6,0.4-0.9,0.6l11.8,11.8l1.4,0L47.4,100.1z"/>
		</g>
		<g>
			<polygon class="st0" points="3,58.7 2.3,59.5 15.1,72.2 16.5,72.2 			"/>
			<path class="st0" d="M45.6,101.3c-0.3,0.2-0.6,0.4-0.9,0.5l10.7,10.7l1.4,0L45.6,101.3z"/>
		</g>
		<g>
			<polygon class="st0" points="1.5,69 1.5,70.4 3.3,72.2 4.7,72.2 			"/>
			<path class="st0" d="M37.8,105.3c-0.3,0.1-0.7,0.3-1,0.4l6.8,6.8l1.4,0L37.8,105.3z"/>
		</g>
		<g>
			<polygon class="st0" points="1.5,71.9 1.5,72.2 1.8,72.2 			"/>
			<path class="st0" d="M35.7,106.1c-0.4,0.1-0.7,0.2-1.1,0.3l6.1,6.1l1.4,0L35.7,106.1z"/>
		</g>
		<g>
			<polygon class="st0" points="3.5,54.7 12.9,64.2 12.9,62.7 3.5,53.3 			"/>
			<polygon class="st0" points="17.5,67.3 16.1,67.3 21,72.2 22.4,72.2 			"/>
			<path class="st0" d="M49.1,99c-0.3,0.2-0.6,0.4-0.8,0.6l13,13l1.4,0L49.1,99z"/>
		</g>
		<g>
			<path class="st0" d="M50.8,97.7c-0.3,0.2-0.5,0.4-0.8,0.6l14.2,14.2l1.4,0L50.8,97.7z"/>
			<polygon class="st0" points="20.4,67.3 19,67.3 23.8,72.1 24.5,71.4 			"/>
			<polygon class="st0" points="3.5,51.8 12.9,61.2 12.9,59.8 3.5,50.4 			"/>
		</g>
		<g>
			<path class="st0" d="M24.6,65.6C24.6,65.6,24.6,65.6,24.6,65.6c-0.2,0.2-0.5,0.5-0.7,0.7l2.8,2.8l0.7-0.7L24.6,65.6z"/>
			<polygon class="st0" points="3.5,45.9 12.9,55.3 12.9,53.9 3.5,44.5 			"/>
			<path class="st0" d="M54.1,95.1c-0.3,0.2-0.5,0.4-0.8,0.6l16.8,16.8l1.4,0L54.1,95.1z"/>
		</g>
		<g>
			<path class="st0" d="M23.2,67.2c-0.1,0.1-0.1,0.1-0.1,0.1l-1.2,0l3.3,3.3l0.7-0.7L23.2,67.2z"/>
			<path class="st0" d="M52.5,96.4c-0.3,0.2-0.5,0.4-0.8,0.6l15.5,15.5l1.4,0L52.5,96.4z"/>
			<polygon class="st0" points="3.5,48.9 12.9,58.3 12.9,56.9 3.5,47.4 			"/>
		</g>
		<g>
			<path class="st0" d="M25.1,63.1c0,0.5,0,1,0,1.4l3.1,3.1l0.7-0.7L25.1,63.1z"/>
			<polygon class="st0" points="4.9,44.4 12.9,52.4 12.9,51 6.3,44.4 			"/>
			<path class="st0" d="M64.9,103c-1-0.4-1.9-0.9-2.8-1.4l11,11l1.4,0L64.9,103z"/>
		</g>
		<g>
			<path class="st0" d="M26.1,61.2c-0.2,0.3-0.4,0.6-0.6,0.8l4,4c0.1-0.2,0.3-0.5,0.5-0.9L26.1,61.2z"/>
			<path class="st0" d="M69.6,104.7c-0.7-0.2-1.4-0.5-2.1-0.7l8.5,8.5l1.4,0L69.6,104.7z"/>
			<polygon class="st0" points="7.8,44.4 12.9,49.5 12.9,48 9.2,44.4 			"/>
		</g>
		<g>
			<path class="st0" d="M28.7,58c-0.2,0.3-0.4,0.5-0.6,0.8l3.7,3.7c0.2-0.3,0.4-0.5,0.6-0.8L28.7,58z"/>
			<path class="st0" d="M77.3,106.6c-0.6-0.1-1.2-0.2-1.7-0.3l6.3,6.3l1.4,0L77.3,106.6z"/>
		</g>
		<g>
			<polygon class="st0" points="10.8,44.4 12.9,46.5 12.9,45.1 12.2,44.4 			"/>
			<path class="st0" d="M27.4,59.6c-0.2,0.3-0.4,0.5-0.6,0.8l3.8,3.8c0.2-0.3,0.4-0.5,0.6-0.9L27.4,59.6z"/>
			<path class="st0" d="M73.7,105.8c-0.6-0.1-1.3-0.3-1.9-0.5l7.1,7.1l1.4,0L73.7,105.8z"/>
		</g>
		<g>
			<path class="st0" d="M31.4,54.8c-0.2,0.3-0.4,0.5-0.7,0.8l3.4,3.4c0.2-0.3,0.4-0.5,0.6-0.8L31.4,54.8z"/>
			<path class="st0" d="M84.1,107.4c-0.5,0-1-0.1-1.6-0.1l5.2,5.2l1.4,0L84.1,107.4z"/>
		</g>
		<g>
			<path class="st0" d="M90.2,107.7c-0.3,0-0.8,0-1.4,0l4.8,4.8l1.4,0L90.2,107.7z"/>
			<path class="st0" d="M34.2,51.7c-0.2,0.2-0.4,0.5-0.7,0.7l3.2,3.2c0.2-0.3,0.4-0.5,0.6-0.8L34.2,51.7z"/>
		</g>
		<g>
			<path class="st0" d="M30.1,56.4c-0.2,0.3-0.4,0.5-0.7,0.8l3.5,3.5c0.2-0.3,0.4-0.5,0.6-0.8L30.1,56.4z"/>
			<path class="st0" d="M80.8,107.1c-0.5-0.1-1.1-0.1-1.6-0.2l5.6,5.6l1.4,0L80.8,107.1z"/>
		</g>
		<g>
			<path class="st0" d="M87.2,107.6c-0.5,0-1,0-1.5-0.1l5,5l1.4,0L87.2,107.6z"/>
			<path class="st0" d="M32.8,53.2c-0.2,0.3-0.4,0.5-0.7,0.7l3.3,3.3c0.2-0.3,0.4-0.5,0.6-0.8L32.8,53.2z"/>
		</g>
		<g>
			<path class="st0" d="M37,48.6c-0.2,0.2-0.5,0.5-0.7,0.7l3,3c0.2-0.3,0.4-0.5,0.6-0.8L37,48.6z"/>
			<polygon class="st0" points="96.1,107.7 94.7,107.7 99.5,112.5 100.9,112.5 			"/>
		</g>
		<g>
			<path class="st0" d="M39.8,45.5c-0.2,0.2-0.5,0.5-0.7,0.7l3,3c0.2-0.2,0.4-0.5,0.7-0.7L39.8,45.5z"/>
			<polygon class="st0" points="102,107.7 100.5,107.7 105.4,112.5 106.8,112.5 			"/>
		</g>
		<g>
			<path class="st0" d="M41.3,44c-0.2,0.2-0.5,0.5-0.7,0.7l2.9,2.9c0.2-0.2,0.5-0.5,0.7-0.7L41.3,44z"/>
			<polygon class="st0" points="104.9,107.7 103.5,107.7 108.3,112.5 109.7,112.5 			"/>
			<polygon class="st0" points="132.1,134.8 132.1,135.5 132.7,135.5 			"/>
		</g>
		<g>
			<path class="st0" d="M42.7,42.5c-0.2,0.2-0.5,0.5-0.7,0.7l3,3c0.2-0.2,0.5-0.5,0.7-0.7L42.7,42.5z"/>
			<polygon class="st0" points="107.8,107.7 106.4,107.7 111.3,112.5 112.7,112.5 			"/>
			<polygon class="st0" points="135.7,135.5 132.1,131.9 132.1,133.3 134.3,135.5 			"/>
		</g>
		<g>
			<path class="st0" d="M38.4,47.1c-0.2,0.2-0.5,0.5-0.7,0.7l3,3c0.2-0.2,0.4-0.5,0.7-0.8L38.4,47.1z"/>
			<polygon class="st0" points="99,107.7 97.6,107.7 102.4,112.5 103.9,112.5 			"/>
		</g>
		<g>
			<path class="st0" d="M46.4,44.7c0.2-0.2,0.5-0.5,0.7-0.7l-3-3c-0.2,0.2-0.4,0.4-0.5,0.5c-0.1,0.1-0.1,0.1-0.2,0.2L46.4,44.7z"/>
			<polygon class="st0" points="110.8,107.7 109.4,107.7 114.2,112.5 115.6,112.5 			"/>
			<polygon class="st0" points="138.6,135.5 132.1,129 132.1,130.4 137.2,135.5 			"/>
		</g>
		<g>
			<polygon class="st0" points="132.1,126 132.1,127.4 140.2,135.5 141.5,135.5 141.5,135.4 			"/>
			<path class="st0" d="M47.9,43.3c0,0,0.1-0.1,0.1-0.1c0.2-0.2,0.4-0.4,0.6-0.6l-3-3c-0.2,0.2-0.5,0.5-0.7,0.7L47.9,43.3z"/>
			<polygon class="st0" points="113.7,107.7 112.3,107.7 117.1,112.5 118.6,112.5 			"/>
		</g>
		<g>
			<path class="st0" d="M49.5,41.9c0.2-0.2,0.5-0.4,0.7-0.7l-3-3c-0.2,0.2-0.5,0.5-0.7,0.7L49.5,41.9z"/>
			<polygon class="st0" points="116.7,107.7 115.3,107.7 120.1,112.5 121.5,112.5 			"/>
			<polygon class="st0" points="141.5,132.5 132.1,123.1 132.1,124.5 141.5,133.9 			"/>
		</g>
		<g>
			<path class="st0" d="M51,40.5c0.2-0.2,0.5-0.4,0.7-0.7l-3-3c-0.2,0.2-0.5,0.5-0.7,0.7L51,40.5z"/>
			<polygon class="st0" points="119.6,107.7 118.2,107.7 123,112.5 124.4,112.5 			"/>
			<polygon class="st0" points="141.5,129.5 132.1,120.1 132.1,121.5 141.5,131 			"/>
		</g>
		<g>
			<path class="st0" d="M52.5,39.1c0.2-0.2,0.5-0.4,0.8-0.7l-3.1-3.1c-0.2,0.2-0.5,0.5-0.7,0.7L52.5,39.1z"/>
			<polygon class="st0" points="85.3,70.5 85.2,71.7 85.7,72.2 87.1,72.2 			"/>
			<polygon class="st0" points="141.5,126.6 132.1,117.2 132.1,118.6 141.5,128 			"/>
			<polygon class="st0" points="122.6,107.7 121.1,107.7 126,112.5 127.4,112.5 			"/>
		</g>
		<g>
			<polygon class="st0" points="128.4,107.7 127,107.7 131.8,112.5 132.1,112.5 132.1,112.7 141.5,122.1 141.5,121.8 142,121.2 			
				"/>
			<path class="st0" d="M55.7,36.3c0.3-0.2,0.5-0.4,0.8-0.7l-3.1-3.1c-0.2,0.2-0.5,0.4-0.7,0.7L55.7,36.3z"/>
			<polygon class="st0" points="86.9,66.1 86.2,66.9 91.6,72.2 93,72.2 			"/>
		</g>
		<g>
			<polygon class="st0" points="88.2,64.5 87.6,65.3 94.5,72.2 95.9,72.2 			"/>
			<polygon class="st0" points="143.3,119.6 131.4,107.7 130,107.7 142.7,120.4 			"/>
			<path class="st0" d="M57.3,35c0.3-0.2,0.5-0.4,0.8-0.6l-3.2-3.2c-0.2,0.2-0.5,0.4-0.8,0.7L57.3,35z"/>
		</g>
		<g>
			<polygon class="st0" points="89.6,62.9 88.9,63.7 97.4,72.2 98.9,72.2 			"/>
			<polygon class="st0" points="143.5,116.8 134.3,107.7 132.9,107.7 143.5,118.3 			"/>
			<path class="st0" d="M58.9,33.6c0.3-0.2,0.5-0.4,0.8-0.6l-3.2-3.2c-0.3,0.2-0.5,0.4-0.8,0.7L58.9,33.6z"/>
		</g>
		<g>
			<polygon class="st0" points="99.9,67.4 98.5,67.4 103.3,72.2 104.7,72.2 			"/>
			<polygon class="st0" points="95,63.8 95.6,63.1 92.3,59.8 91.7,60.5 			"/>
			<path class="st0" d="M62.1,31c0.3-0.2,0.5-0.4,0.8-0.6l-3.3-3.3c-0.2,0.2-0.5,0.4-0.8,0.7L62.1,31z"/>
			<polygon class="st0" points="143.5,111 140.2,107.7 138.8,107.7 143.5,112.4 			"/>
		</g>
		<g>
			<polygon class="st0" points="85.6,67.8 85.5,69.1 88.6,72.2 90,72.2 			"/>
			<path class="st0" d="M54.1,37.7c0.3-0.2,0.5-0.4,0.8-0.7l-3.1-3.1c-0.2,0.2-0.5,0.4-0.7,0.7L54.1,37.7z"/>
			<polygon class="st0" points="125.5,107.7 124.1,107.7 128.9,112.5 130.3,112.5 			"/>
			<polygon class="st0" points="141.5,123.7 132.1,114.2 132.1,115.7 141.5,125.1 			"/>
		</g>
		<g>
			<polygon class="st0" points="93.6,65.4 94.3,64.7 90.9,61.3 90.3,62.1 			"/>
			<polygon class="st0" points="97,67.4 95.5,67.4 100.4,72.2 101.8,72.2 			"/>
			<polygon class="st0" points="143.5,113.9 137.3,107.7 135.8,107.7 143.5,115.3 			"/>
			<path class="st0" d="M60.5,32.3c0.3-0.2,0.5-0.4,0.8-0.6L58,28.4c-0.2,0.2-0.5,0.4-0.8,0.7L60.5,32.3z"/>
		</g>
		<g>
			<polygon class="st0" points="96.4,55 95.7,55.8 99,59 99.7,58.3 			"/>
			<path class="st0" d="M67,27c0.3-0.2,0.5-0.4,0.8-0.6L64.4,23c-0.2,0.2-0.5,0.4-0.8,0.6L67,27z"/>
			<polygon class="st0" points="108.7,67.4 107.3,67.4 112.2,72.2 113.6,72.2 			"/>
		</g>
		<g>
			<polygon class="st0" points="96.3,62.2 97,61.5 93.7,58.2 93,58.9 			"/>
			<polygon class="st0" points="102.8,67.4 101.4,67.4 106.3,72.2 107.7,72.2 			"/>
			<polygon class="st0" points="143.5,108 143.1,107.7 141.7,107.7 143.5,109.4 			"/>
			<path class="st0" d="M63.7,29.7c0.3-0.2,0.5-0.4,0.8-0.6l-3.3-3.3c-0.2,0.2-0.5,0.4-0.8,0.7L63.7,29.7z"/>
		</g>
		<g>
			<polygon class="st0" points="95,56.6 94.4,57.4 97.7,60.6 98.3,59.9 			"/>
			<polygon class="st0" points="105.8,67.4 104.4,67.4 109.2,72.2 110.6,72.2 			"/>
			<path class="st0" d="M65.4,28.3c0.3-0.2,0.5-0.4,0.8-0.6l-3.4-3.4c-0.2,0.2-0.5,0.4-0.8,0.7L65.4,28.3z"/>
		</g>
		<g>
			<polygon class="st0" points="97.7,53.4 97.1,54.2 100.4,57.5 101,56.7 			"/>
			<path class="st0" d="M68.6,25.7c0.3-0.2,0.6-0.4,0.8-0.6L66,21.6c-0.2,0.2-0.5,0.4-0.8,0.6L68.6,25.7z"/>
			<polygon class="st0" points="111.7,67.4 110.3,67.4 115.1,72.2 116.5,72.2 			"/>
		</g>
		<g>
			<path class="st0" d="M35.6,50.1c-0.2,0.2-0.4,0.5-0.7,0.7L38,54c0.2-0.3,0.4-0.5,0.6-0.8L35.6,50.1z"/>
			<polygon class="st0" points="93.1,107.7 91.7,107.7 96.6,112.5 98,112.5 			"/>
		</g>
		<g>
			<polygon class="st0" points="117.6,67.4 116.1,67.4 121,72.2 122.4,72.2 			"/>
			<polygon class="st0" points="100.4,50.2 99.8,51 109.5,60.7 110.2,60 			"/>
			<polygon class="st0" points="61.8,13 71.8,23.1 72.6,22.4 62.5,12.3 			"/>
		</g>
		<g>
			<polygon class="st0" points="123.4,67.4 122,67.4 126.9,72.2 128.3,72.2 			"/>
			<polygon class="st0" points="65.4,9.4 64.7,10.1 112.5,57.8 113.2,57.1 			"/>
		</g>
		<g>
			<polygon class="st0" points="126.4,67.4 125,67.4 129.8,72.2 131.2,72.2 			"/>
			<polygon class="st0" points="66.9,7.9 66.2,8.6 114,56.4 114.7,55.7 			"/>
		</g>
		<g>
			<polygon class="st0" points="101.8,48.7 101.1,49.4 111,59.3 111.7,58.6 			"/>
			<polygon class="st0" points="63.3,11.5 73.4,21.7 74.1,21 64,10.8 			"/>
			<polygon class="st0" points="120.5,67.4 119.1,67.4 123.9,72.2 125.3,72.2 			"/>
		</g>
		<g>
			<polygon class="st0" points="69.8,4.9 69.1,5.6 117,53.5 117.7,52.8 			"/>
			<polygon class="st0" points="132.1,67.2 132.1,67.4 130.9,67.4 135.7,72.2 137.1,72.2 			"/>
		</g>
		<g>
			<polygon class="st0" points="68.4,6.4 67.7,7.1 115.5,55 116.2,54.3 			"/>
			<polygon class="st0" points="129.3,67.4 127.9,67.4 132.7,72.2 134.2,72.2 			"/>
		</g>
		<g>
			<polygon class="st0" points="99.1,51.8 98.4,52.6 108,62.2 108.7,61.5 			"/>
			<polygon class="st0" points="114.6,67.4 113.2,67.4 118,72.2 119.5,72.2 			"/>
			<path class="st0" d="M60.3,14.5l10,10c0,0,0.1-0.1,0.1-0.1l0.7-0.6l-10-10L60.3,14.5z"/>
		</g>
		<polygon class="st0" points="132.1,61.3 132.1,62.7 141.6,72.2 143,72.2 		"/>
		<g>
			<polygon class="st0" points="132.1,64.2 132.1,65.6 138.6,72.2 140,72.2 			"/>
			<polygon class="st0" points="71.3,3.5 70.6,4.2 118.5,52.1 119.2,51.4 			"/>
		</g>
		<polygon class="st0" points="132.1,59.8 143.5,71.2 143.5,69.8 132.1,58.3 		"/>
		<polygon class="st0" points="132.1,56.8 143.5,68.2 143.5,66.8 132.1,55.4 		"/>
		<polygon class="st0" points="132.1,50.9 143.5,62.4 143.5,60.9 132.1,49.5 		"/>
		<polygon class="st0" points="132.8,44.4 132.1,44.4 132.1,45.1 141.5,54.5 141.5,53.1 		"/>
		<polygon class="st0" points="141.5,56 132.1,46.6 132.1,48 141.5,57.4 		"/>
		<polygon class="st0" points="135.7,44.4 134.3,44.4 141.5,51.5 141.5,50.1 		"/>
		<polygon class="st0" points="132.1,53.9 143.5,65.3 143.5,63.9 132.1,52.5 		"/>
		<polygon class="st0" points="141.5,45.6 141.5,44.4 140.2,44.4 		"/>
		<polygon class="st0" points="138.7,44.4 137.3,44.4 141.5,48.6 141.5,47.2 		"/>
	</g>
</g>
</svg>
