<?xml version="1.0" encoding="iso-8859-1"?>
<!-- Generator: Adobe Illustrator 22.0.1, SVG Export Plug-In . SVG Version: 6.00 Build 0)  -->
<svg version="1.1" id="&#x421;&#x43B;&#x43E;&#x439;_1"
	 xmlns="http://www.w3.org/2000/svg" xmlns:xlink="http://www.w3.org/1999/xlink" x="0px" y="0px" viewBox="0 0 184.44 111.1"
	 style="enable-background:new 0 0 184.44 111.1;" xml:space="preserve">
<g>
	<path style="fill:#445F87;" d="M178.88,47.17h-44.908c-1.1-1.416-2.809-2.28-4.642-2.28h-14.54v-2.46h25.13h2v-2v-2.191h0.45h0.449
		v1.351h2h2.451h2v-2v-0.271h0.45h2v-2v-13.71v-2h-2h-0.45V19.55v-2h-2h-2.451h-2v1.349h-0.449h-0.45v-2.12v-2h-2h-12.431v-2.83v-2
		h-2H124.6v-3.87c0-3.352-2.566-6.079-5.72-6.079h-56.5c-3.154,0-5.72,2.727-5.72,6.079v3.87h-0.89h-2v2V24.02v0.837l0.499,0.492
		v0.171h0.174L65.39,36.297V44.5c-0.835-2.018-2.824-3.44-5.14-3.44h-2.7h-2v1.71H7.13c-2.796,0-5.07,2.269-5.07,5.059v3.32H2H0v2
		v35.38v2h2h0.06v4.66c0,2.796,2.274,5.071,5.07,5.071h48.42v0.639h2h2.7c2.866,0,5.234-2.18,5.528-4.969h3.202v10.299
		c0,2.686,2.189,4.871,4.88,4.871h31.99c2.685,0,4.87-2.185,4.87-4.871V98.77h18.61c1.802,0,3.492-0.838,4.592-2.21h44.958
		c3.065,0,5.56-2.491,5.56-5.55V52.729C184.44,49.664,181.945,47.17,178.88,47.17z M62.381,3.502h56.499
		c0.169,0,0.332,0.023,0.49,0.059c0.737,0.396,1.332,1.046,1.697,1.851c0.014,0.102,0.031,0.203,0.031,0.308v4.728H60.164V5.72
		c0-0.107,0.017-0.209,0.031-0.312c0.365-0.803,0.959-1.451,1.694-1.847C62.048,3.525,62.211,3.502,62.381,3.502z M130.089,95.135
		c-0.058,0.02-0.116,0.039-0.176,0.055V48.474c0.057,0.014,0.112,0.034,0.168,0.052c0.632,0.356,1.152,0.88,1.503,1.515
		c0.073,0.226,0.123,0.462,0.125,0.711v7.114v28.098v6.948c-0.002,0.253-0.052,0.492-0.128,0.721
		C131.233,94.263,130.717,94.783,130.089,95.135z M75.153,104.293c0-0.289,0.235-0.523,0.524-0.523s0.524,0.234,0.524,0.523
		c0,0.29-0.235,0.525-0.524,0.525S75.153,104.583,75.153,104.293z M103.913,104.933c-0.29,0-0.525-0.235-0.525-0.524
		s0.235-0.524,0.525-0.524c0.289,0,0.524,0.235,0.524,0.524S104.202,104.933,103.913,104.933z M103.913,100.884
		c-1.944,0-3.525,1.581-3.525,3.524c0,1.418,0.847,2.636,2.057,3.194H76.849c1.365-0.486,2.352-1.779,2.352-3.31
		c0-1.942-1.581-3.523-3.524-3.523c-1.418,0-2.635,0.847-3.194,2.057V77.232c0.486,1.365,1.779,2.35,3.309,2.35
		c1.943,0,3.524-1.581,3.524-3.524c0-1.417-0.846-2.634-2.055-3.193h25.591c-1.364,0.487-2.349,1.779-2.349,3.309
		c0,1.943,1.581,3.524,3.524,3.524c1.418,0,2.636-0.847,3.194-2.057v25.595C106.736,101.87,105.443,100.884,103.913,100.884z
		 M62.304,47.028v48.329c-0.005,0.686-0.348,1.29-0.87,1.66V44.942c0.526,0.373,0.872,0.983,0.872,1.675v0.411H62.304z
		 M5.563,90.026L5.563,90.026l0-38.377h0v-3.817c0-0.863,0.702-1.565,1.565-1.565h48.926v0.232h-3.836v7.582h3.836v34.401h-3.836
		v7.582h3.836v0.694H7.128c-0.863,0-1.565-0.702-1.565-1.565V90.026z M56.054,51.081h-0.836v-1.582h0.836V51.081z M56.054,93.064
		h-0.836v-1.582h0.836V93.064z M116.302,72.617c-0.387,0-0.701-0.314-0.701-0.701s0.314-0.702,0.701-0.702s0.702,0.315,0.702,0.702
		S116.689,72.617,116.302,72.617z M118.208,68.758h2.064v6.313h-2.063c1.071-0.649,1.796-1.815,1.796-3.156
		C120.004,70.574,119.279,69.408,118.208,68.758z M123.272,92.045v-2.95h0.001V54.66h-0.001v-2.875h-3v2.875h-1.824v-6.266h8.466
		V95.27h-8.466v-6.175h1.824v2.95H123.272z M107.003,38.934v1.757H68.887v-8.936c5.097,3.596,12.414,5.637,20.351,5.637
		c7.637,0,14.7-1.898,19.771-5.252c-1.099,2.08-1.996,4.181-2.629,6.285l1.691,0.509H107.003z M57.269,16.146h66.723v0.074h0.363
		v1.692h0.283v0.364h13.782v20.658h-29.044c0.894-2.834,2.308-5.781,4.13-8.552c0.867-1.318,1.831-2.607,2.859-3.823l0.078-0.091
		c0.239-0.279,0.479-0.558,0.735-0.841c2.068-2.325,4.349-4.358,6.776-6.043l-1.711-2.465c-2.223,1.543-4.318,3.367-6.258,5.4
		H57.269V16.146z M113.361,25.52c-0.7,0.874-1.367,1.769-1.99,2.685h-2.09l-0.412,0.334c-4.527,3.665-11.866,5.853-19.631,5.853
		c-7.775,0-15.114-2.188-19.632-5.852l-0.413-0.335h-3.306v3.538l-6.01-6.223H113.361z M76.316,76.058
		c0,0.289-0.235,0.524-0.524,0.524c-0.29,0-0.525-0.235-0.525-0.524s0.235-0.524,0.525-0.524
		C76.081,75.534,76.316,75.769,76.316,76.058z M72.483,74.884v-0.646c0-0.757,0.616-1.373,1.374-1.373h0.465
		C73.465,73.261,72.802,73.988,72.483,74.884z M107.222,74.705c-0.395-0.857-1.123-1.521-2.019-1.841h0.645
		c0.758,0,1.374,0.616,1.374,1.373V74.705z M104.552,76.173c0,0.289-0.235,0.524-0.524,0.524s-0.524-0.235-0.524-0.524
		c0-0.29,0.235-0.525,0.524-0.525S104.552,75.883,104.552,76.173z M105.848,69.865H73.857c-2.412,0-4.374,1.962-4.374,4.373v18.189
		h-2.384V50.028h1.788v-6.336h42.399v4.702h4.161v9.266h4.824v8.099h-3.967c-3.392,0-6.151,2.765-6.151,6.162
		c0,3.392,2.76,6.151,6.151,6.151h3.967v8.023h-4.824v9.175h-5.226V74.238C110.222,71.827,108.26,69.865,105.848,69.865z
		 M135.544,90.545h-0.834v-1.582h0.834V90.545z M134.71,53.284h0.834v1.582h-0.834V53.284z M72.527,106.558
		c-0.026-0.106-0.044-0.215-0.044-0.329v-0.467c0.396,0.858,1.125,1.522,2.022,1.841h-0.648c-0.107,0-0.211-0.015-0.311-0.039
		C73.125,107.319,72.776,106.975,72.527,106.558z M105.848,107.603h-0.467c0.858-0.396,1.522-1.125,1.841-2.022v0.648
		c0,0.107-0.015,0.21-0.038,0.31c-0.25,0.426-0.602,0.777-1.028,1.026C106.056,107.588,105.954,107.603,105.848,107.603z
		 M178.883,93.064h-40.339v-7.101h-3.834V57.866h3.834V50.67h40.339c0.206,0,0.402,0.04,0.59,0.097
		c0.574,0.32,1.045,0.79,1.366,1.363c0.058,0.19,0.098,0.387,0.098,0.596v38.284c0,0.207-0.04,0.403-0.097,0.592
		c-0.325,0.578-0.802,1.051-1.384,1.371C179.273,93.026,179.083,93.064,178.883,93.064z"/>
	<path style="fill:#445F87;" d="M89.853,74.502c-8.689,0-15.732,7.043-15.732,15.731c0,8.688,7.044,15.731,15.732,15.731
		c8.687,0,15.731-7.044,15.731-15.731C105.584,81.545,98.539,74.502,89.853,74.502z M98.617,90.234c0,3.193-1.723,5.985-4.282,7.517
		l-0.668-5.05l-2.974,0.396l0.364,2.748l-0.94-2.537l-2.813,1.041l1.706,4.606c-4.157-0.398-7.475-3.711-7.879-7.868l4.884,2.013
		l1.146-2.773l-2.588-1.067l2.696,0.458l0.504-2.957l-5.485-0.932c1.521-2.604,4.338-4.362,7.565-4.362
		c1.589,0,3.077,0.432,4.363,1.174l-4.72,3.631l1.827,2.379l2.25-1.731l-1.769,2.134l2.311,1.914l3.674-4.433
		C98.314,87.662,98.617,88.912,98.617,90.234z M89.853,77.618c2.844,0,5.463,0.958,7.576,2.552l-0.699,0.538
		c-1.937-1.403-4.309-2.24-6.878-2.24c-4.724,0-8.796,2.806-10.666,6.834l-0.872-0.148C80.272,80.722,84.703,77.618,89.853,77.618z
		 M89.853,102.849c-6.957,0-12.617-5.66-12.617-12.616c0-0.248,0.023-0.491,0.037-0.736l0.834,0.344
		c-0.004,0.131-0.02,0.26-0.02,0.392c0,6.487,5.277,11.765,11.764,11.765c0.095,0,0.186-0.012,0.28-0.014l0.309,0.835
		C90.244,102.829,90.051,102.849,89.853,102.849z M94.871,101.802l-0.117-0.887c4.044-1.863,6.863-5.944,6.863-10.681
		c0-2.268-0.656-4.381-1.772-6.179l0.574-0.692c1.292,1.979,2.05,4.337,2.05,6.871C102.468,95.406,99.336,99.857,94.871,101.802z"/>
</g>
</svg>
