<?xml version="1.0" encoding="iso-8859-1"?>
<!-- Generator: Adobe Illustrator 22.0.1, SVG Export Plug-In . SVG Version: 6.00 Build 0)  -->
<svg version="1.1" id="&#x421;&#x43B;&#x43E;&#x439;_1"
	 xmlns="http://www.w3.org/2000/svg" xmlns:xlink="http://www.w3.org/1999/xlink" x="0px" y="0px" viewBox="0 0 154.739 155.316"
	 style="enable-background:new 0 0 154.739 155.316;" xml:space="preserve">
<g>
	<path style="fill:#445F87;" d="M152.739,130.706h-32.338c7.532-1.89,13.134-8.697,13.134-16.806c0-7.592-4.91-14.044-11.715-16.39
		c0.197,0.035,0.394,0.054,0.593,0.054c1.27,0,2.421-0.717,3.003-1.871c0.573-1.135,0.457-2.478-0.302-3.503l-6.287-8.527
		l10.58,0.512c0.056,0.003,0.114,0.004,0.172,0.004c1.457,0,2.741-0.935,3.194-2.326c0.452-1.387-0.036-2.895-1.214-3.753
		l-8.512-6.294l10.273-2.632c1.439-0.362,2.458-1.609,2.525-3.102c0.069-1.498-0.837-2.836-2.251-3.332l-10.005-3.509l9.036-5.539
		c1.273-0.777,1.877-2.272,1.5-3.72c-0.376-1.445-1.633-2.455-3.127-2.512l-10.593-0.404l7.002-7.951
		c0.888-1.016,1.094-2.4,0.543-3.615c-0.548-1.206-1.743-1.985-3.046-1.985c-0.299,0-0.601,0.041-0.895,0.12l-10.236,2.74
		l1.866-4.149l4.423-9.83l-7.655,7.589L89.36,52.825l-1.421,1.409l1.408,1.42c2.104,2.122,3.255,4.937,3.242,7.925
		c-0.012,2.99-1.188,5.794-3.31,7.898c-2.109,2.091-4.906,3.243-7.877,3.243c-3.007,0-5.829-1.176-7.946-3.311l-1.409-1.42
		l-1.42,1.408L47.855,93.975l-7.59,7.524l9.797-4.27l3.825-1.668l-2.854,10.204c-0.287,1.026-0.087,2.095,0.548,2.933
		c0.64,0.842,1.649,1.346,2.701,1.346c0.794,0,1.571-0.292,2.187-0.821l8.029-6.898l0.285,10.581
		c0.044,1.84,1.527,3.288,3.378,3.288c1.158,0,2.219-0.593,2.84-1.587l5.639-8.967l3.391,10.047c0.474,1.393,1.725,2.291,3.19,2.291
		c1.54,0,2.847-0.999,3.252-2.486l2.743-10.252l6.197,8.599c0.653,0.896,1.643,1.403,2.723,1.403c0.265,0,0.525-0.039,0.781-0.1
		c0.54,7.553,5.92,13.771,13.059,15.564H2H0v2v20.61v2h2h11.399h2v-2v-3.799H139.34v3.799v2h2h11.399h2v-2v-20.61v-2H152.739z
		 M111.29,93.741l9.511,3.454c-1.471-0.407-3.014-0.642-4.613-0.642c-1.295,0-2.551,0.156-3.764,0.431L111.29,93.741z
		 M97.643,111.671c-0.372,0-0.75-0.162-1.017-0.529l-6.446-8.944c-0.26-0.356-0.642-0.522-1.021-0.522
		c-0.535,0-1.063,0.333-1.231,0.935l-3.419,10.655c-0.167,0.619-0.693,0.935-1.221,0.935c-0.5,0-1.001-0.284-1.197-0.861
		l-3.811-10.734c-0.19-0.56-0.695-0.858-1.205-0.858c-0.406,0-0.814,0.19-1.065,0.588l-6.154,9.335
		c-0.257,0.411-0.66,0.597-1.058,0.597c-0.633,0-1.256-0.468-1.274-1.241l-0.299-11.02c-0.016-0.741-0.62-1.234-1.259-1.234
		c-0.283,0-0.57,0.096-0.818,0.312l-9.213,7.185c-0.254,0.218-0.54,0.313-0.818,0.313c-0.768,0-1.47-0.727-1.224-1.609l2.971-10.619
		c0.236-0.847-0.425-1.607-1.214-1.607c-0.166,0-0.338,0.033-0.509,0.108l-2.68,0.9l19.636-18.888
		c2.383,2.403,6.654,3.607,9.792,3.607c3.102,0,7.907-2.027,10.284-4.384c4.781-4.74,5.948-15.013,1.208-19.795l17.051-17.154
		l-0.811,1.837c-0.391,0.862,0.268,1.789,1.142,1.789c0.108,0,0.22-0.015,0.334-0.045l11.227-3.702
		c0.118-0.031,0.234-0.047,0.345-0.047c1.018,0,1.671,1.254,0.926,2.106l-7.286,8.275c-0.699,0.805-0.156,2.059,0.905,2.098
		l11.868,0.704c1.253,0.047,1.674,1.687,0.61,2.337l-9.399,5.761c-0.911,0.566-0.768,1.924,0.236,2.272l10.696,4.218
		c1.18,0.413,1.108,2.108-0.102,2.413l-10.686,2.738c-1.028,0.263-1.293,1.605-0.438,2.241l8.866,7.407
		c0.991,0.722,0.461,2.277-0.74,2.277c-0.024,0-0.046-0.001-0.07-0.002l-11.017-0.532c-0.022-0.001-0.044-0.002-0.067-0.002
		c-1.021,0-1.618,1.173-1.003,2.016l6.544,9.724c0.647,0.874-0.045,2.02-1.01,2.02c-0.142,0-0.289-0.025-0.439-0.078l-10.37-3.765
		c-0.147-0.053-0.294-0.078-0.436-0.078c-0.826,0-1.49,0.829-1.188,1.689l3.073,10.692c0.311,0.893-0.403,1.689-1.204,1.689
		c-0.253,0-0.516-0.08-0.757-0.263L100.824,98c-0.237-0.176-0.5-0.255-0.757-0.255c-0.673,0-1.3,0.543-1.272,1.315l0.119,11.298
		C98.946,111.159,98.305,111.671,97.643,111.671z M101.123,101.156l1.933,1.462c-0.667,0.775-1.266,1.608-1.789,2.493
		L101.123,101.156z M102.474,113.9c0-3.495,1.322-6.672,3.476-9.094l3.623,2.741c0.597,0.45,1.297,0.689,2.026,0.689
		c1.092,0,2.126-0.537,2.765-1.438c0.635-0.892,0.789-2.003,0.426-3.047l-1.158-3.311c0.828-0.161,1.68-0.254,2.556-0.254
		c7.574,0,13.714,6.14,13.714,13.714c0,7.573-6.14,13.712-13.714,13.712C108.614,127.612,102.474,121.473,102.474,113.9z
		 M149.905,150.482h-5.73v-5.799H10.565v5.799h-5.73v-14.941h145.07V150.482z"/>
	<path style="fill:#445F87;" d="M56.846,74.449l8.821-8.762v0.001l3.147-3.126l23.607-23.449l-1.059-1.064
		c-4.722-4.75-11.009-7.38-17.703-7.403c-6.697-0.029-13.001,2.564-17.749,7.284c-4.755,4.718-7.386,11.004-7.408,17.702
		c-0.023,6.697,2.565,13.002,7.287,17.753L56.846,74.449z M58.024,40.058c4.162-4.138,9.679-6.413,15.545-6.413
		c0.025,0,0.053,0,0.08-0.001c5.391,0.019,10.482,1.957,14.493,5.489l-8.72,8.661c-3.639,0.051-7.173,1.5-9.763,4.09
		c-2.568,2.566-4.024,6.058-4.088,9.669l-8.675,8.617c-3.508-4.032-5.413-9.136-5.394-14.529
		C51.522,49.746,53.837,44.212,58.024,40.058z"/>
	<path style="fill:#445F87;" d="M36.208,128.188h1.985l0.015-1.984l0.197-25.743l80.679-80.132l1.419-1.409l-1.409-1.419
		C107.884,6.215,92.951,0,77.046,0c-15.752,0-30.582,6.113-41.76,17.216C18.883,33.508,13.477,57.804,21.324,79.471L0.659,98.138
		L0,98.733v0.889v26.566v2h2H36.208z M4.835,99.622l21.675-19.58c-7.691-18.98-4.789-43.144,11.886-59.706
		c11.17-11.095,24.06-16.068,38.65-16.068c14.719,0,28.439,6.127,37.793,14.642L33.577,99.622l-0.204,23.731H4.835V99.622z"/>
	<path style="fill:#445F87;" d="M19.942,96.008c-4.549,0-8.25,3.701-8.25,8.25s3.701,8.25,8.25,8.25c4.548,0,8.25-3.701,8.25-8.25
		S24.491,96.008,19.942,96.008z M19.942,109.508c-2.895,0-5.25-2.355-5.25-5.25c0-2.895,2.355-5.25,5.25-5.25
		c2.895,0,5.25,2.355,5.25,5.25C25.192,107.153,22.837,109.508,19.942,109.508z"/>
</g>
</svg>
