<?xml version="1.0" encoding="iso-8859-1"?>
<!-- Generator: Adobe Illustrator 22.0.1, SVG Export Plug-In . SVG Version: 6.00 Build 0)  -->
<svg version="1.1" id="&#x421;&#x43B;&#x43E;&#x439;_1"
	 xmlns="http://www.w3.org/2000/svg" xmlns:xlink="http://www.w3.org/1999/xlink" x="0px" y="0px" viewBox="0 0 178.913 31"
	 style="enable-background:new 0 0 178.913 31;" xml:space="preserve">
<path style="fill:#445F87;" d="M175.945,7.107h-0.532H154.46l-0.003-5.108L154.456,0h-1.999h-126h-1.999l-0.001,1.999l-0.003,5.108
	H3.503H2.969C1.332,7.107,0,8.438,0,10.076v10.452c0,1.637,1.332,2.969,2.969,2.969H3.5h8.272v1.52h2h10.685V29v2h2h126h2v-2v-3.949
	l0.013-0.034h10.672h2v-1.52h8.269h0.534c1.637,0,2.968-1.332,2.968-2.969V10.076C178.913,8.438,177.582,7.107,175.945,7.107z
	 M153.961,18.485v-7.877h17.401v9.39h-4.72v-1.513H153.961z M146.289,26.165h-3.935l4.683-21.331h2.586l0.004,4.272h0.407
	L146.289,26.165z M149.622,24.969v1.196h-0.262L149.622,24.969z M42.581,4.835h1.071L38.97,26.165h-1.071L42.581,4.835z
	 M34.827,26.165H30.97l4.612-21.331h3.927L34.827,26.165z M46.724,4.835h3.931l-4.682,21.331h-3.931L46.724,4.835z M53.727,4.835
	h1.071l-4.682,21.331h-1.071L53.727,4.835z M57.87,4.835h3.931l-4.682,21.331h-3.931L57.87,4.835z M64.873,4.835h1.071
	l-4.682,21.331H60.19L64.873,4.835z M69.016,4.835h3.931l-4.682,21.331h-3.931L69.016,4.835z M76.019,4.835h1.071l-4.682,21.331
	h-1.071L76.019,4.835z M80.161,4.835h3.931l-4.681,21.331h-3.932L80.161,4.835z M87.164,4.835h1.071l-4.682,21.331h-1.07
	L87.164,4.835z M91.307,4.835h3.932l-4.682,21.331h-3.932L91.307,4.835z M98.31,4.835h1.072L94.7,26.165h-1.072L98.31,4.835z
	 M102.452,4.835h3.932l-4.682,21.331H97.77L102.452,4.835z M109.455,4.835h1.073l-4.682,21.331h-1.072L109.455,4.835z
	 M113.599,4.835h3.931l-4.682,21.331h-3.932L113.599,4.835z M120.601,4.835h1.073l-4.682,21.331h-1.073L120.601,4.835z
	 M124.744,4.835h3.932l-4.682,21.331h-3.931L124.744,4.835z M131.747,4.835h1.072l-4.682,21.331h-1.073L131.747,4.835z
	 M135.89,4.835h3.932l-4.682,21.331h-3.932L135.89,4.835z M142.893,4.835h1.073l-4.682,21.331h-1.072L142.893,4.835z M24.953,18.485
	H12.272v1.513H5.003v-9.39h19.95V18.485z M27.957,20.658l3.476-15.823h1.079l-3.931,18.182h-0.624V20.658z M150.051,23.017
	l0.906-4.128v4.128H150.051z M176.913,20.528c0,0.004-0.002,0.007-0.002,0.01V10.066c0,0.004,0.002,0.007,0.002,0.01V20.528z"/>
</svg>
