<?xml version="1.0" encoding="iso-8859-1"?>
<!-- Generator: Adobe Illustrator 22.0.1, SVG Export Plug-In . SVG Version: 6.00 Build 0)  -->
<svg version="1.1" id="&#x421;&#x43B;&#x43E;&#x439;_1"
	 xmlns="http://www.w3.org/2000/svg" xmlns:xlink="http://www.w3.org/1999/xlink" x="0px" y="0px" viewBox="0 0 169.906 149.775"
	 style="enable-background:new 0 0 169.906 149.775;" xml:space="preserve">
<g>
	
		<rect x="34.594" y="89.466" transform="matrix(0.2174 -0.9761 0.9761 0.2174 -44.4803 126.4548)" style="fill:#445F87;" width="44.053" height="3"/>
	<path style="fill:#445F87;" d="M167.906,59.991h-0.5c-0.738,0-1.376,0.404-1.722,0.999c-0.347-0.595-0.984-0.999-1.722-0.999H163.1
		c-0.732,0-1.373,0.394-1.722,0.981c-0.349-0.587-0.989-0.981-1.722-0.981h-0.861c-0.733,0-1.374,0.395-1.722,0.982
		c-0.349-0.588-0.989-0.982-1.723-0.982h-0.86c-0.738,0-1.376,0.405-1.723,1c-0.346-0.595-0.984-1-1.723-1h-0.5
		c-1.104,0-2,0.896-2,2s0.896,2,2,2h0.5c0.738,0,1.376-0.405,1.723-1c0.346,0.595,0.984,1,1.723,1h0.86
		c0.733,0,1.374-0.395,1.723-0.982c0.348,0.588,0.988,0.982,1.722,0.982h0.861c0.732,0,1.373-0.394,1.722-0.981
		c0.349,0.587,0.989,0.981,1.722,0.981h0.861c0.738,0,1.376-0.404,1.722-0.999c0.347,0.595,0.984,0.999,1.722,0.999h0.5
		c1.104,0,2-0.896,2-2S169.011,59.991,167.906,59.991z"/>
	<path style="fill:#445F87;" d="M157.743,78.182c-0.522-0.522-1.258-0.687-1.923-0.512c0.176-0.666,0.011-1.402-0.511-1.924
		l-0.608-0.608c-0.519-0.518-1.252-0.69-1.912-0.523c0.17-0.662-0.005-1.395-0.523-1.913l-0.609-0.609
		c-0.519-0.519-1.25-0.692-1.911-0.523c0.169-0.662-0.005-1.394-0.523-1.912l-0.609-0.609c-0.522-0.522-1.26-0.687-1.926-0.511
		c0.176-0.666,0.011-1.404-0.512-1.926l-0.012-0.012h0.437v-2v-5.397v-2h-0.289c0.409-0.506,0.534-1.159,0.376-1.76
		c0.168,0.044,0.339,0.075,0.511,0.075c0.512,0,1.024-0.195,1.415-0.586l0.608-0.609c0.518-0.518,0.691-1.25,0.522-1.911
		c0.66,0.168,1.394-0.004,1.912-0.523l0.609-0.609c0.519-0.518,0.692-1.25,0.523-1.912c0.662,0.169,1.396-0.005,1.913-0.524
		l0.608-0.609c0.521-0.522,0.686-1.258,0.511-1.923c0.167,0.044,0.337,0.074,0.509,0.074c0.512,0,1.022-0.195,1.413-0.585
		l0.354-0.354c0.781-0.78,0.782-2.047,0.002-2.828s-2.046-0.783-2.828-0.002l-0.354,0.354c-0.523,0.521-0.688,1.258-0.513,1.924
		c-0.666-0.175-1.402-0.01-1.924,0.513l-0.608,0.609c-0.518,0.518-0.691,1.25-0.522,1.911c-0.659-0.167-1.394,0.005-1.912,0.523
		l-0.609,0.609c-0.519,0.518-0.692,1.25-0.523,1.912c-0.662-0.168-1.396,0.005-1.913,0.524l-0.608,0.609
		c-0.521,0.522-0.686,1.259-0.51,1.924c-0.665-0.176-1.402-0.011-1.924,0.51l-0.354,0.354c-0.626,0.625-0.742,1.56-0.365,2.31
		h-1.677v-0.114l-1.016-0.575l-6.603-3.735l-0.459-0.26h-0.526h-29.751h-0.968v-0.003l-2.003,0.003l-2.342,0.004l-5.108-4.882
		l-0.581-0.554h-0.801H63.422l-2.404-3.034l-0.6-0.759h-0.967h-24.81h-1.086l6.324-12.73l0.209-0.42v-0.469V14.276
		c0-1.552-0.748-2.92-1.889-3.805h1.037c2.155,0,3.908-1.753,3.908-3.908V3.908C43.144,1.753,41.391,0,39.236,0H3.908
		C1.753,0,0,1.753,0,3.908v2.655c0,2.155,1.753,3.908,3.908,3.908h1.037c-1.141,0.885-1.889,2.253-1.889,3.805v15.399v0.456
		l0.198,0.41l10.747,22.368c-3.236,0.055-5.851,2.704-5.851,5.952v5.524c0,3.283,2.671,5.953,5.953,5.953h12.955l-0.706,3.192
		l-0.537,2.432h2.49H43.96l-7.659,34.4c-0.386,1.738,0.031,3.532,1.145,4.922c0.753,0.939,1.757,1.608,2.878,1.942
		c0.024,1.744,1.373,3.159,3.081,3.322c-0.758,2.275-1.346,5.446-0.045,8.039c0.719,1.434,2.319,3.251,5.86,3.769
		c3.214,0.472,7.318-0.052,11.663-0.605c7.639-0.973,16.296-2.074,19.326,2.701c4.42,6.971-1.226,11.631-1.877,12.134l2.414,3.189
		c3.252-2.462,8.032-9.279,2.841-17.466c-4.391-6.924-14.388-5.65-23.209-4.526c-4.065,0.518-7.906,1.008-10.578,0.616
		c-2.219-0.325-2.703-1.285-2.862-1.601c-0.842-1.671,0.017-4.512,0.733-6.218h1.403c1.792,0,3.265-1.392,3.394-3.151
		c2.444-0.29,4.448-2.071,4.995-4.529l6.363-28.568h2.374c1.451,0,2.686-0.989,3.001-2.406l2.328-10.459h24.955h2v-0.004h1.146h2
		v-0.001h0.968h29.751h0.515l0.451-0.249l6.605-3.646l1.033-0.57V66.6h1.771c-0.493,0.774-0.404,1.812,0.272,2.488l0.354,0.354
		c0.391,0.39,0.901,0.585,1.413,0.585c0.173,0,0.344-0.031,0.511-0.075c-0.176,0.666-0.012,1.404,0.511,1.926l0.609,0.609
		c0.518,0.518,1.249,0.69,1.911,0.523c-0.169,0.662,0.005,1.394,0.523,1.912l0.609,0.609c0.519,0.518,1.254,0.694,1.912,0.522
		c-0.169,0.662,0.005,1.394,0.523,1.912l0.608,0.608c0.391,0.391,0.902,0.586,1.414,0.586c0.172,0,0.342-0.03,0.509-0.074
		c-0.176,0.666-0.011,1.402,0.511,1.924l0.354,0.354c0.391,0.391,0.902,0.586,1.414,0.586s1.023-0.195,1.414-0.586
		c0.781-0.781,0.781-2.047,0-2.828L157.743,78.182z M66.288,70.967l1.765,0l-2.196,9.865h-1.766L66.288,70.967z M63.791,67.963
		l-2.836,12.735c-0.048,0.217-0.061,0.434-0.053,0.65l-6.858,30.791c-0.24,1.078-1.179,1.831-2.283,1.831h-9.761
		c-0.713,0-1.378-0.319-1.825-0.876s-0.613-1.275-0.458-1.972l8.606-38.662h-14.63l5.713-25.668h19.317l3.003,3.793h28.463
		l5.689,5.439l2.247-0.003V63.1H38.205v3h59.923v1.862l-26.334,0.003l0.001-0.003H63.791z M48.974,117.08h-5.15v-0.109h5.15V117.08z
		 M11.65,64.386v-5.525c0-1.134,0.778-2.081,1.825-2.361v2.88h16.517l-1.648,7.458h-14.24C12.751,66.838,11.65,65.738,11.65,64.386z
		 M6.557,14.276c0-0.735,0.598-1.333,1.333-1.333h27.365c0.735,0,1.333,0.598,1.333,1.333v15.039L24.369,53.408h-6.423L6.557,29.337
		V14.276z M30.173,72.462l5.672-25.668h0.489l-5.713,25.668H30.173z M28.779,52.908l3.84-7.73l-1.709,7.73H28.779z M140.451,63.101
		v-2.397h2.647v2.397H140.451z M104.918,57.771v1.576v0.712v1.575v0.713v1.575v0.712v1.576v0.712v1.04h-0.823V56.019h0.823v1.04
		V57.771z M111.64,67.963v-1.04v-0.712v-1.576v-0.712v-1.575v-0.713v-1.575v-0.712v-1.576v-0.712v-1.04h20.312l5.498,3.111v5.801
		l-5.49,3.031H111.64z M3.5,6.564V3.909C3.5,3.683,3.683,3.5,3.908,3.5h35.328c0.225,0,0.408,0.183,0.408,0.409v2.655
		c0,0.224-0.183,0.407-0.408,0.407H3.908C3.683,6.971,3.5,6.788,3.5,6.564z"/>
</g>
</svg>
