<?xml version="1.0" encoding="iso-8859-1"?>
<!-- Generator: Adobe Illustrator 22.0.1, SVG Export Plug-In . SVG Version: 6.00 Build 0)  -->
<svg version="1.1" id="&#x421;&#x43B;&#x43E;&#x439;_1"
	 xmlns="http://www.w3.org/2000/svg" xmlns:xlink="http://www.w3.org/1999/xlink" x="0px" y="0px" viewBox="0 0 160.812 128.736"
	 style="enable-background:new 0 0 160.812 128.736;" xml:space="preserve">
<g>
	<path style="fill:#445F87;" d="M25.537,15.379c4.24,0,7.69-3.449,7.69-7.689c0-4.24-3.45-7.69-7.69-7.69s-7.69,3.45-7.69,7.69
		C17.847,11.93,21.296,15.379,25.537,15.379z M25.537,4c2.035,0,3.69,1.655,3.69,3.69c0,2.034-1.655,3.689-3.69,3.689
		s-3.69-1.655-3.69-3.689C21.847,5.655,23.502,4,25.537,4z"/>
	<path style="fill:#445F87;" d="M26.944,22.915c0,4.24,3.45,7.689,7.69,7.689s7.69-3.449,7.69-7.689c0-4.24-3.45-7.69-7.69-7.69
		S26.944,18.674,26.944,22.915z M34.634,19.225c2.035,0,3.69,1.655,3.69,3.69c0,2.034-1.655,3.689-3.69,3.689
		s-3.69-1.655-3.69-3.689C30.944,20.88,32.6,19.225,34.634,19.225z"/>
	<path style="fill:#445F87;" d="M7.75,24.914c4.24,0,7.689-3.45,7.689-7.69c0-4.24-3.449-7.689-7.689-7.689
		c-4.241,0-7.691,3.449-7.691,7.689C0.059,21.464,3.509,24.914,7.75,24.914z M7.75,13.535c2.034,0,3.689,1.655,3.689,3.689
		c0,2.035-1.655,3.69-3.689,3.69c-2.035,0-3.691-1.655-3.691-3.69C4.059,15.19,5.714,13.535,7.75,13.535z"/>
	<polygon style="fill:#445F87;" points="66.87,81.413 63.218,81.413 63.218,94.604 57.547,94.604 57.547,81.413 53.895,81.413 
		53.895,97.608 65.356,97.608 65.548,101.693 68.336,101.693 68.504,94.821 66.87,94.725 	"/>
	<path style="fill:#445F87;" d="M75.112,90.904c-0.176,0.4-0.405,0.97-0.685,1.706c-0.28,0.737-0.5,1.29-0.661,1.658l-0.096-0.024
		c0.128-2.114,0.192-3.708,0.192-4.781v-3.604h-3.46v11.75h4.445c0.176-0.385,0.556-1.241,1.141-2.571
		c0.584-1.329,1.021-2.307,1.31-2.932c0.368-0.849,0.777-1.897,1.226-3.147h0.096c-0.145,2.964-0.216,4.653-0.216,5.07v3.58h3.46
		v-11.75h-4.469L75.112,90.904z"/>
	<polygon style="fill:#445F87;" points="92.1,90.111 88.399,90.111 88.399,85.858 84.747,85.858 84.747,97.608 88.399,97.608 
		88.399,92.947 92.1,92.947 92.1,97.608 95.752,97.608 95.752,85.858 92.1,85.858 	"/>
	<path style="fill:#445F87;" d="M108.583,94.148c-0.769-1.938-1.754-3.012-2.955-3.22l4.325-5.07H105.7l-2.979,4.686h-0.385v-4.686
		h-3.652v11.75h3.652v-4.661h0.36c1.105,0,1.914,0.688,2.427,2.066c0.528,1.441,0.881,2.307,1.058,2.595H110
		c-0.225-0.433-0.505-1.089-0.841-1.971C108.823,94.757,108.631,94.261,108.583,94.148z"/>
	<polygon style="fill:#445F87;" points="80.326,73.388 72.661,73.388 72.661,73.291 80.206,62.334 80.206,60.22 68.456,60.22 
		68.456,63.247 75.473,63.247 75.473,63.343 67.759,74.444 67.759,76.415 80.326,76.415 	"/>
	<path style="fill:#445F87;" d="M86.166,76.415v-6.776c0-0.416,0.04-0.721,0.12-0.913c0.353-0.913,0.977-1.369,1.874-1.369
		c1.233,0,1.851,0.849,1.851,2.547v6.512h3.652v-6.944c0-1.666-0.385-2.928-1.153-3.785c-0.77-0.856-1.786-1.285-3.052-1.285
		c-0.881,0-1.63,0.192-2.247,0.577c-0.616,0.384-1.077,0.825-1.382,1.321h-0.071l-0.169-1.634h-3.171
		c0.063,1.41,0.096,2.659,0.096,3.748v8.002H86.166z"/>
	<path style="fill:#445F87;" d="M0,37.818v69.579v4v17.339h160.812v-17.339v-4V37.818H0z M156.812,41.818v6.15l-3.241,2.284
		c-2.081,1.468-4.881,1.47-6.993-0.02c-3.116-2.2-7.307-2.198-10.443,0.015c-2.083,1.472-4.886,1.47-6.98-0.008
		c-3.118-2.202-7.309-2.205-10.444,0.007c-2.084,1.471-4.888,1.47-6.896,0.056l-0.085-0.064c-3.121-2.202-7.312-2.202-10.442,0.008
		c-2.084,1.473-4.887,1.472-6.98-0.007c-3.124-2.203-7.313-2.201-10.437,0.004c-2.086,1.474-4.89,1.474-6.974,0
		c-3.121-2.204-7.314-2.205-10.44,0.002c-2.084,1.472-4.886,1.473-6.981-0.005c-3.12-2.204-7.312-2.203-10.44,0.005
		c-2.086,1.473-4.887,1.474-6.981-0.006c-3.121-2.203-7.313-2.202-10.44,0.006c-2.085,1.474-4.887,1.473-6.978-0.005
		c-3.121-2.203-7.313-2.203-10.434,0L14.16,50.27c-2.083,1.449-4.865,1.44-6.938-0.025L4,47.97v-6.152H156.812z M156.812,124.736H4
		v-13.339h152.812V124.736z M4,107.397V51.643l1.491,1.052c3.12,2.203,7.312,2.205,10.434,0.001l0.042-0.03
		c2.082-1.448,4.863-1.438,6.942,0.029c3.12,2.204,7.313,2.205,10.441-0.004c2.085-1.472,4.888-1.471,6.982,0.006
		c3.118,2.203,7.31,2.202,10.44-0.006c2.085-1.472,4.887-1.472,6.979,0.006c3.119,2.202,7.312,2.203,10.438-0.004
		c2.086-1.473,4.888-1.473,6.974,0.001c3.12,2.204,7.314,2.204,10.44-0.002c2.083-1.472,4.886-1.473,6.982,0.006
		c3.119,2.204,7.312,2.203,10.442-0.007c2.082-1.473,4.886-1.472,6.896-0.056l0.086,0.064c3.12,2.201,7.312,2.201,10.443-0.009
		c2.085-1.471,4.887-1.471,6.98,0.008c3.12,2.201,7.312,2.203,10.449-0.012c2.086-1.47,4.884-1.469,6.995,0.019
		c1.558,1.099,3.384,1.649,5.21,1.649s3.653-0.55,5.212-1.648l1.513-1.066v55.759H4z"/>
</g>
</svg>
