<?xml version="1.0" encoding="iso-8859-1"?>
<!-- Generator: Adobe Illustrator 22.0.1, SVG Export Plug-In . SVG Version: 6.00 Build 0)  -->
<svg version="1.0" id="Layer_1" xmlns="http://www.w3.org/2000/svg" xmlns:xlink="http://www.w3.org/1999/xlink" x="0px" y="0px"
	 viewBox="0 0 426.814 341.334" style="enable-background:new 0 0 426.814 341.334;" xml:space="preserve">
<path d="M405.481,108.632V42.667c0-22.368-17.35-40.559-39.271-42.323L366.013,0h-24.592H248.45h-42.399h0.407h-42.397H121.95h-42.4
	H54.997h-12.33C19.136,0,0,19.135,0,42.667v256c0,23.531,19.135,42.667,42.667,42.667h320.147c23.531,0,42.667-19.135,42.667-42.667
	v-65.965c12.389-4.418,21.333-16.147,21.333-30.035v-64C426.814,124.779,417.87,113.05,405.481,108.632z M362.814,320H42.667
	c-11.76,0-21.333-9.573-21.333-21.333v-256c0-11.76,9.573-21.333,21.333-21.333h320.147c11.76,0,21.333,9.573,21.333,21.333v64h-64
	c-35.292,0-64,28.708-64,64s28.708,64,64,64h64v64h0C384.147,310.427,374.574,320,362.814,320z M405.481,202.667
	c0,5.885-4.781,10.667-10.667,10.667h-74.667c-23.531,0-42.667-19.135-42.667-42.667c0-23.531,19.135-42.667,42.667-42.667h74.667
	c5.885,0,10.667,4.781,10.667,10.667V202.667z"/>
<circle cx="324.477" cy="170.667" r="22"/>
</svg>
