<?xml version="1.0" encoding="utf-8"?>
<!-- Generator: Adobe Illustrator 22.0.1, SVG Export Plug-In . SVG Version: 6.00 Build 0)  -->
<svg version="1.1" id="Layer_1" xmlns="http://www.w3.org/2000/svg" xmlns:xlink="http://www.w3.org/1999/xlink" x="0px" y="0px"
	 viewBox="0 0 462 492" style="enable-background:new 0 0 462 492;" xml:space="preserve">
<g>
	<g>
		<path d="M360.9,244.9L176.9,429c-5.1,5.1-7.9,11.8-7.9,19c0,7.2,2.8,14,7.9,19l16.1,16.1c5.1,5.1,11.8,7.9,19,7.9
			c7.2,0,14-2.8,19-7.9L450.2,264c5.1-5.1,7.9-11.9,7.8-19.1c0-7.2-2.8-14-7.8-19.1L231.2,6.9c-5.1-5.1-11.8-7.9-19-7.9
			c-7.2,0-14,2.8-19,7.9L177.1,23c-10.5,10.5-10.5,27.6,0,38.1L360.9,244.9z"/>
	</g>
	<g>
		<g>
			<path d="M193.9,244.9L9.9,429C4.8,434,2,440.8,2,448c0,7.2,2.8,14,7.9,19L26,483.1c5.1,5.1,11.8,7.9,19,7.9s14-2.8,19-7.9
				L283.2,264c5.1-5.1,7.9-11.9,7.8-19.1c0-7.2-2.8-14-7.8-19.1L64.2,6.9C59.2,1.8,52.4-1,45.2-1c-7.2,0-14,2.8-19,7.9L10.1,23
				C-0.4,33.5-0.4,50.6,10.1,61L193.9,244.9z"/>
		</g>
	</g>
</g>
</svg>
