<?xml version="1.0" encoding="utf-8"?>
<!-- Generator: Adobe Illustrator 22.0.1, SVG Export Plug-In . SVG Version: 6.00 Build 0)  -->
<svg version="1.1" id="Слой_1" xmlns="http://www.w3.org/2000/svg" xmlns:xlink="http://www.w3.org/1999/xlink" x="0px" y="0px"
	 viewBox="0 0 91.7 97.8" style="enable-background:new 0 0 91.7 97.8;" xml:space="preserve">
<g>
	<path d="M46,55.4c11,0,20-9,20-20s-9-20-20-20s-20,9-20,20C26,46.5,35,55.4,46,55.4z M39,49.3l0.3-2.7c0.3-2.2,2.2-3.9,4.4-3.9h2.1
		c0.1,0,0.1,0,0.2,0s0.1,0,0.2,0h2.1c2.2,0,4.1,1.7,4.4,3.9l0.3,2.7c-2.1,1.1-4.5,1.8-7.1,1.8C43.5,51.1,41.1,50.4,39,49.3z
		 M46.1,38.4h-0.2c-2.2-0.1-4-1.8-4-4s1.8-4.1,4.1-4.1c2.2,0,4.1,1.8,4.1,4.1C50.1,36.5,48.3,38.3,46.1,38.4z M46,19.8
		c8.6,0,15.6,7,15.6,15.6c0,4.3-1.7,8.2-4.6,11V46c-0.4-2.9-2.1-5.3-4.5-6.6c1.1-1.4,1.8-3.2,1.8-5.2c0-4.6-3.8-8.4-8.4-8.4
		s-8.4,3.8-8.4,8.4c0,2,0.7,3.7,1.8,5.2c-2.4,1.3-4.1,3.7-4.5,6.6v0.4c-2.8-2.8-4.6-6.7-4.6-11C30.4,26.8,37.4,19.8,46,19.8z"/>
	<path d="M87.8,1.4H4.2C3,1.4,2,2.4,2,3.6v90.7c0,1.2,1,2.2,2.2,2.2h83.5c1.2,0,2.2-1,2.2-2.2V3.6C89.9,2.4,89,1.4,87.8,1.4z
		 M85.6,92.1H6.4V5.7h79.2V92.1z"/>
	<path d="M24.5,68.8h43c1.2,0,2.2-1,2.2-2.2s-1-2.2-2.2-2.2h-43c-1.2,0-2.2,1-2.2,2.2S23.3,68.8,24.5,68.8z"/>
	<path d="M24.5,82.6h43c1.2,0,2.2-1,2.2-2.2s-1-2.2-2.2-2.2h-43c-1.2,0-2.2,1-2.2,2.2C22.4,81.6,23.3,82.6,24.5,82.6z"/>
</g>
</svg>
