<?xml version="1.0" encoding="utf-8"?>
<!-- Generator: Adobe Illustrator 22.0.1, SVG Export Plug-In . SVG Version: 6.00 Build 0)  -->
<svg version="1.1" id="Layer_1" xmlns="http://www.w3.org/2000/svg" xmlns:xlink="http://www.w3.org/1999/xlink" x="0px" y="0px"
	 viewBox="0 0 30 32.3" style="enable-background:new 0 0 30 32.3;" xml:space="preserve">
<style type="text/css">
	.st0{fill:#EDEDED;}
</style>
<path id="icon-3" class="st0" d="M6.9,4.7C0.6,11.1,0.7,21.3,7,27.6c6.3,6.2,16.4,6.2,22.7,0c0.3-0.3,0.3-0.9,0-1.2
	c-0.3-0.3-0.8-0.3-1.2,0c-5.6,5.6-14.8,5.7-20.4,0C2.4,20.8,2.4,11.6,8.1,6s14.8-5.7,20.4,0c0,0,0,0,0,0c0.3,0.3,0.9,0.4,1.2,0
	c0.3-0.3,0.4-0.9,0-1.2c0,0,0,0,0,0C23.4-1.6,13.2-1.6,6.9,4.7z M23.9,13.3c0.5,0,0.9-0.4,0.9-0.9c0-0.5-0.4-0.9-0.9-0.9l0,0H0.9
	C0.4,11.6,0,12,0,12.5c0,0.5,0.4,0.9,0.9,0.9H23.9z M23.9,20.7c0.5,0,0.9-0.4,0.9-0.9c0-0.5-0.4-0.9-0.9-0.9l0,0H0.9
	C0.4,19,0,19.4,0,19.9c0,0.5,0.4,0.9,0.9,0.9H23.9z"/>
</svg>
