<?xml version="1.0" encoding="utf-8"?>
<!-- Generator: Adobe Illustrator 22.0.1, SVG Export Plug-In . SVG Version: 6.00 Build 0)  -->
<svg version="1.1" id="Layer_1" xmlns="http://www.w3.org/2000/svg" xmlns:xlink="http://www.w3.org/1999/xlink" x="0px" y="0px"
	 viewBox="0 0 34 34.4" style="enable-background:new 0 0 34 34.4;" xml:space="preserve">
<style type="text/css">
	.st0{fill:#EDEDED;}
</style>
<path id="icon-1" class="st0" d="M11.5,8.6V1.2c0-0.7-0.5-1.2-1.2-1.2C9.6,0,9.1,0.5,9.1,1.2v7.4c0,0.7,0.5,1.2,1.2,1.2
	C10.9,9.8,11.5,9.2,11.5,8.6L11.5,8.6z M24.9,8.6V1.2c0-0.7-0.5-1.2-1.2-1.2c-0.7,0-1.2,0.5-1.2,1.2v7.4c0,0.7,0.5,1.2,1.2,1.2
	S24.9,9.2,24.9,8.6L24.9,8.6z M10.8,26.2H6.4c-0.7,0-1.2,0.5-1.2,1.2c0,0.7,0.5,1.2,1.2,1.2c0,0,0,0,0,0h4.4c0.7,0,1.2-0.5,1.2-1.2
	C12,26.7,11.4,26.2,10.8,26.2C10.8,26.2,10.8,26.2,10.8,26.2z M5.2,21.9c0,0.7,0.5,1.2,1.2,1.2c0,0,0,0,0,0h4.4
	c0.7,0,1.2-0.5,1.2-1.2s-0.5-1.2-1.2-1.2H6.4C5.7,20.7,5.2,21.2,5.2,21.9z M19.2,15.2h-4.4c-0.7,0-1.2,0.5-1.2,1.2
	c0,0.7,0.5,1.2,1.2,1.2c0,0,0,0,0,0h4.4c0.7,0,1.2-0.5,1.2-1.2C20.4,15.7,19.9,15.2,19.2,15.2C19.2,15.2,19.2,15.2,19.2,15.2
	L19.2,15.2z M19.2,26.2h-4.4c-0.7,0-1.2,0.5-1.2,1.2c0,0.7,0.5,1.2,1.2,1.2c0,0,0,0,0,0h4.4c0.7,0,1.2-0.5,1.2-1.2
	C20.4,26.7,19.9,26.2,19.2,26.2C19.2,26.2,19.2,26.2,19.2,26.2L19.2,26.2z M19.2,20.7h-4.4c-0.7,0-1.2,0.5-1.2,1.2s0.5,1.2,1.2,1.2
	h4.4c0.7,0,1.2-0.5,1.2-1.2c0,0,0,0,0,0C20.4,21.2,19.9,20.7,19.2,20.7C19.2,20.7,19.2,20.7,19.2,20.7L19.2,20.7z M22,16.4
	c0,0.7,0.5,1.2,1.2,1.2h4.4c0.7,0,1.2-0.5,1.2-1.2c0-0.7-0.5-1.2-1.2-1.2c0,0,0,0,0,0h-4.4C22.6,15.2,22.1,15.7,22,16.4z M23.2,28.6
	h4.4c0.7,0,1.2-0.5,1.2-1.2c0-0.7-0.5-1.2-1.2-1.2c0,0,0,0,0,0h-4.4c-0.7,0-1.2,0.5-1.2,1.2S22.6,28.6,23.2,28.6L23.2,28.6z
	 M23.2,23.1h4.4c0.7,0,1.2-0.5,1.2-1.2s-0.5-1.2-1.2-1.2h-4.4c-0.7,0-1.2,0.5-1.2,1.2C22.1,22.5,22.6,23.1,23.2,23.1L23.2,23.1z
	 M29.5,4.6h-2.1c-0.7,0-1.2,0.5-1.2,1.2c0,0.7,0.5,1.2,1.2,1.2c0,0,0,0,0,0h2.1c1.1,0,2.1,0.9,2.1,2.1v21c0,1.1-0.9,2.1-2.1,2.1h-25
	c-1.1,0-2.1-0.9-2.1-2.1V9c0-1.1,0.9-2.1,2.1-2.1h2.1c0.7,0,1.2-0.5,1.2-1.2c0-0.7-0.5-1.2-1.2-1.2c0,0,0,0,0,0H4.5C2,4.6,0,6.6,0,9
	v21c0,2.5,2,4.4,4.5,4.4h25c2.5,0,4.5-2,4.5-4.4V9C34,6.6,32,4.6,29.5,4.6L29.5,4.6z M21.3,5.8c0-0.7-0.5-1.2-1.2-1.2h-6.2
	c-0.7,0-1.2,0.5-1.2,1.2c0,0.7,0.5,1.2,1.2,1.2c0,0,0,0,0,0H20C20.7,7,21.3,6.4,21.3,5.8C21.3,5.8,21.3,5.8,21.3,5.8L21.3,5.8z"/>
</svg>
