<?xml version="1.0" encoding="utf-8"?>
<!-- Generator: Adobe Illustrator 22.0.1, SVG Export Plug-In . SVG Version: 6.00 Build 0)  -->
<svg version="1.1" id="Capa_1" xmlns="http://www.w3.org/2000/svg" xmlns:xlink="http://www.w3.org/1999/xlink" x="0px" y="0px"
	 viewBox="0 0 507.7 507.7" style="enable-background:new 0 0 507.7 507.7;" xml:space="preserve">
<g>
	<path d="M164.5,500.8l87.6-151.6l1.8-3.2l1.8,3.2l87.6,151.6c2.5,4.3,7.1,6.9,12,6.9c0.7,0,1.3,0,1.8-0.1
		c5.6-0.7,10.1-4.7,11.6-10.2l25-93.9l0.5-2.1l2.1,0.6l94,25.3c1.2,0.3,2.4,0.5,3.6,0.5c4.3,0,8.4-2,11-5.4c3.4-4.5,3.8-10.5,1-15.4
		L413,245.8l-0.5-0.9l0.4-1c9.8-22.3,14.8-45.8,14.8-70C427.7,78,349.7,0,253.8,0S80,78,80,173.9c0,24.2,5,47.7,14.8,70l0.4,1
		l-0.5,0.9L1.9,407c-2.8,4.9-2.4,11,1,15.4c2.6,3.4,6.7,5.4,11,5.4c1.2,0,2.4-0.2,3.6-0.5l94-25.3l2.1-0.6l0.5,2.1l25,93.9
		c1.4,5.5,6,9.5,11.6,10.2l0,0l0,0c0.5,0.1,1.1,0.1,1.7,0.1C157.4,507.8,162,505.1,164.5,500.8z M462.6,387.4l2.6,4.4l-5-1.3
		l-72.1-19.4c-1.2-0.3-2.4-0.5-3.6-0.5c-2.4,0-4.9,0.6-7,1.9c-3.2,1.8-5.5,4.9-6.5,8.5l-19.2,72l-1.3,5l-2.6-4.5l-61.2-106l-1.5-2.6
		l2.9-0.6c42.8-8.6,80.6-33,106.5-68.9l1.9-2.7l1.6,2.8L462.6,387.4z M253.9,27.8c80.6,0,146.1,65.6,146.1,146.1
		S334.5,320,253.9,320s-146.1-65.5-146.1-146.1S173.3,27.8,253.9,27.8z M136.7,380.9c-0.9-3.5-3.3-6.6-6.5-8.5
		c-2.1-1.2-4.5-1.8-7-1.8c-1.2,0-2.4,0.2-3.6,0.5l-72.1,19.4l-5,1.3l2.6-4.4l64.3-111.6l1.6-2.8l1.9,2.7
		c25.9,35.8,63.7,60.2,106.5,68.9l2.9,0.6l-1.5,2.6l-61.2,106l-2.6,4.5l-1.3-5L136.7,380.9z"/>
	<path d="M347.1,134.6c-1.5-4.5-5.1-7.8-9.7-9L292,113.7l-0.8-0.2l-0.4-0.8l-24.9-41.9c-2.3-3.9-6.8-6.3-11.9-6.3
		c-5.1,0-9.6,2.3-11.9,6.2l-24.9,41.9l-0.4,0.8l-0.8,0.2l-45.4,11.9c-4.6,1.2-8.2,4.6-9.7,9.1s-0.6,9.3,2.3,13l30.4,38.1l0.5,0.6
		l-0.1,0.8l-3.3,49.8c-0.3,4.8,1.9,9.4,5.8,12.2c2.4,1.7,5.1,2.6,8,2.6c1.9,0,3.7-0.4,5.4-1.1l43.2-18.3l0.8-0.4l0.8,0.4l43.2,18.3
		c1.7,0.7,3.6,1.1,5.4,1.1c2.9,0,5.7-0.9,8.1-2.6c3.9-2.8,6.1-7.5,5.8-12.2l-3.3-49.8l-0.1-0.8l0.5-0.6l30.4-38.1
		C347.7,144,348.5,139.1,347.1,134.6z M307.7,149.6l-18.9,23.7c-2.2,2.7-3.2,6.1-3,9.6l2,30l0.2,3.5l-3.2-1.4l-25.5-10.8
		c-1.7-0.7-3.5-1.1-5.4-1.1s-3.7,0.4-5.4,1.1L223,215l-3.2,1.4l0.2-3.5l2-30c0.2-3.4-0.8-6.8-3-9.6l-18.9-23.7l-2-2.6l3.2-0.8
		l27.9-7.3c3.5-0.9,6.5-3.2,8.4-6.3l14.5-24.4l1.8-3.1l1.8,3.1l14.5,24.4c1.9,3.1,4.9,5.4,8.4,6.3l27.9,7.3l3.2,0.8L307.7,149.6z"/>
</g>
</svg>
