<?xml version="1.0" encoding="utf-8"?>
<!-- Generator: Adobe Illustrator 22.0.1, SVG Export Plug-In . SVG Version: 6.00 Build 0)  -->
<svg version="1.1" id="Layer_1" xmlns="http://www.w3.org/2000/svg" xmlns:xlink="http://www.w3.org/1999/xlink" x="0px" y="0px"
	 viewBox="0 0 400 480" style="enable-background:new 0 0 400 480;" xml:space="preserve">
<path d="M368,264c0-13.6-14.4-24-32-24c-17.6,0-32,10.4-32,24v24l-39.2-16.8c9.6-8.8,16-20,20-32l21.6-11.2c8-4,13.6-12,13.6-21.6
	V192c0-13.6-10.4-24-24-24h-3.2l-4.8,4.8V152h16v-24c0-49.6-32.8-93.6-80-107.2C222.4,8.8,212,0,200,0h-16c-12,0-22.4,8.8-24,20.8
	C112.8,34.4,80,78.4,80,128v24h16v20.8l-4.8-4.8H88c-13.6,0-24,10.4-24,24v14.4c0,8.8,4.8,17.6,13.6,21.6l21.6,11.2
	c4,12,10.4,23.2,20,32L52.8,300C20.8,314.4,0,345.6,0,380.8V480h400V247.2L368,292V264z M320,358.4v-73.6c10.4,4,21.6,4,32,0v28.8
	L320,358.4z M336,256c9.6,0,16,4.8,16,8s-6.4,8-16,8c-9.6,0-16-4.8-16-8S326.4,256,336,256z M304,325.6L252,364c-4,2.4-9.6,4-14.4,4
	h-27.2l2.4-9.6c0.8-3.2,4-6.4,8-6.4H232c12.8,0,24.8-6.4,32.8-16.8l25.6-36l14.4,6.4v20H304z M197.6,354.4l-5.6,20.8l-5.6-20.8
	c-2.4-11.2-12-18.4-23.2-18.4H152c-8,0-15.2-4-19.2-10.4l-24-33.6l24.8-11.2l23.2,12.8c21.6,12,47.2,12,68.8,0l23.2-12.8l24.8,11.2
	l-24,33.6c-4.8,6.4-12,10.4-19.2,10.4h-11.2C209.6,336,200,343.2,197.6,354.4L197.6,354.4z M173.6,368h-27.2
	c-4.8,0-10.4-1.6-14.4-4.8l-69.6-50.4l31.2-13.6l25.6,36c7.2,10.4,20,16.8,32.8,16.8h11.2c4,0,7.2,2.4,8,6.4L173.6,368z
	 M299.2,184.8c3.2,0.8,4.8,4,4.8,7.2v14.4c0,3.2-1.6,5.6-4.8,7.2l-11.2,5.6v-0.8V196L299.2,184.8z M97.6,136c3.2-9.6,12-16,22.4-16
	h144c10.4,0,19.2,6.4,22.4,16H97.6z M160,37.6V88h16V24c0-4.8,3.2-8,8-8h16c4.8,0,8,3.2,8,8v64h16V37.6
	c32.8,11.2,56.8,39.2,62.4,73.6C280,106.4,272,104,264,104H120c-8,0-16,2.4-22.4,7.2C103.2,76.8,127.2,48.8,160,37.6z M84.8,213.6
	c-2.4-1.6-4.8-4-4.8-7.2V192c0-3.2,2.4-6.4,4.8-7.2L96,196v22.4v0.8L84.8,213.6z M112,218.4V152h160v66.4
	c0,20.8-11.2,39.2-28.8,48.8l-24,12.8c-16.8,8.8-36.8,8.8-53.6,0l-24-12.8C123.2,257.6,112,238.4,112,218.4L112,218.4z M16,380
	c0-24,12-45.6,31.2-59.2l76,55.2c7.2,4.8,15.2,8,23.2,8H184v80h-24v-64h-57.6L96,374.4l-16,3.2l5.6,22.4H72v64H16V380z M144,416v16
	H88v-16H144z M88,448h56v16H88V448z M200,464v-80h37.6c8.8,0,16.8-2.4,23.2-8l43.2-31.2V380l-60,84H200z M384,296.8V464H264l104-144
	v-0.8L384,296.8z"/>
<path d="M368,448V341.6L296.8,448H368z M352,432h-24.8l24.8-37.6V432z"/>
</svg>
