<?xml version="1.0" encoding="utf-8"?>
<!-- Generator: Adobe Illustrator 22.0.1, SVG Export Plug-In . SVG Version: 6.00 Build 0)  -->
<svg version="1.1" id="Layer_1" xmlns="http://www.w3.org/2000/svg" xmlns:xlink="http://www.w3.org/1999/xlink" x="0px" y="0px"
	 viewBox="0 0 40.2 38" style="enable-background:new 0 0 40.2 38;" xml:space="preserve">
<style type="text/css">
	.st0{fill:#EDEDED;}
</style>
<path id="icon-2" class="st0" d="M11,13.6c-0.3,0.5-0.9,0.6-1.4,0.3C9.1,13.6,9,13,9.3,12.5c4.8-7.9,15.1-10.3,23-5.5
	c7.9,4.8,10.3,15.1,5.5,23s-15.1,10.3-23,5.5c-2.2-1.4-4.1-3.3-5.5-5.5c-0.3-0.5-0.1-1.1,0.3-1.4c0.5-0.3,1.1-0.1,1.4,0.3
	c4.2,6.9,13.3,9.1,20.2,4.8c6.9-4.2,9.1-13.3,4.8-20.2c-4.2-6.9-13.3-9.1-20.2-4.8C13.8,10,12.2,11.6,11,13.6z M22.4,13.4
	c0-0.6,0.5-1,1.1-0.9c0.5,0,0.9,0.4,0.9,0.9l0,7.4l4.3,3.8c0.4,0.4,0.5,1,0.1,1.4c-0.4,0.4-1,0.5-1.4,0.1l-4.7-4.1
	c-0.2-0.2-0.3-0.5-0.3-0.8L22.4,13.4L22.4,13.4L22.4,13.4z M16.8,2c-0.6,0-1-0.4-1-1s0.4-1,1-1H30c0.6,0,1,0.4,1,1s-0.4,1-1,1H16.8
	L16.8,2z M5.7,17.9c-0.6,0-1-0.4-1-1s0.4-1,1-1h9.6c0.6,0,1,0.4,1,1s-0.4,1-1,1H5.7z M3.3,22.3c-0.6,0-1-0.4-1-1s0.4-1,1-1h11.9
	c0.6,0,1,0.4,1,1s-0.4,1-1,1H3.3z M1,26.6c-0.6,0-1-0.4-1-1s0.4-1,1-1h14.3c0.6,0,1,0.4,1,1s-0.4,1-1,1H1z"/>
</svg>
