<?xml version="1.0" encoding="utf-8"?>
<!-- Generator: Adobe Illustrator 22.0.1, SVG Export Plug-In . SVG Version: 6.00 Build 0)  -->
<svg version="1.1" id="Capa_1" xmlns="http://www.w3.org/2000/svg" xmlns:xlink="http://www.w3.org/1999/xlink" x="0px" y="0px"
	 viewBox="0 0 268.8 186.5" style="enable-background:new 0 0 268.8 186.5;" xml:space="preserve">
<g>
	<path d="M265.2,85l-80-80c-4.9-4.9-12.8-4.9-17.7,0c-4.9,4.9-4.9,12.8,0,17.7l58.7,58.7H12.5C5.6,81.3,0,86.9,0,93.8
		c0,6.9,5.6,12.5,12.5,12.5h213.7L167.5,165c-4.9,4.9-4.9,12.8,0,17.7c2.4,2.4,5.6,3.7,8.8,3.7s6.4-1.2,8.8-3.7l80-80
		C270.1,97.8,270.1,89.9,265.2,85z"/>
</g>
</svg>
