<?xml version="1.0" encoding="utf-8"?>
<!-- Generator: Adobe Illustrator 22.0.1, SVG Export Plug-In . SVG Version: 6.00 Build 0)  -->
<svg version="1.1" id="SEO_and_Marketing" xmlns="http://www.w3.org/2000/svg" xmlns:xlink="http://www.w3.org/1999/xlink" x="0px"
	 y="0px" viewBox="0 0 48 48" style="enable-background:new 0 0 48 48;" xml:space="preserve">
<g>
	<g>
		<path d="M29.8,30.7H7.1c-0.9,0-1.7-0.6-1.9-1.5L0.1,10.5c-0.2-0.6,0-1.2,0.3-1.7c0.4-0.5,1-0.8,1.6-0.8h19.5c1.1,0,2,0.9,2,2
			s-0.9,2-2,2H4.6l4,14.8h19.7l7.6-25.3c0.3-0.8,1-1.4,1.9-1.4H46c1.1,0,2,0.9,2,2s-0.9,2-2,2h-6.7l-7.6,25.3
			C31.5,30.1,30.7,30.7,29.8,30.7z"/>
	</g>
	<g>
		<path d="M10.6,35.3c-3.5,0-6.4,2.8-6.4,6.3c0,3.5,2.9,6.3,6.4,6.3c3.5,0,6.4-2.8,6.4-6.3C17,38.2,14.1,35.3,10.6,35.3z"/>
		<path d="M25.9,35.3c-3.5,0-6.4,2.8-6.4,6.3c0,3.5,2.9,6.3,6.4,6.3s6.4-2.8,6.4-6.3C32.2,38.2,29.4,35.3,25.9,35.3z"/>
	</g>
</g>
</svg>
