<svg height="512pt" viewBox="-61 0 512 512" width="512pt" xmlns="http://www.w3.org/2000/svg"><path d="m270 137.171875v-107.171875h30v-30h-210v30h30v107.171875c-72.203125 30.113281-120 101.070313-120 179.828125 0 107.523438 87.476562 195 195 195s195-87.476562 195-195c0-78.757812-47.796875-149.714844-120-179.828125zm-120-107.171875h90v30h-90zm30 227v53.785156l-19.394531-19.390625-21.210938 21.210938 40.605469 40.609375v54.875c-6.070312-4.78125-12.824219-10.507813-19.582031-17.03125-18.4375-17.792969-40.417969-45.085938-40.417969-74.058594 0-46.425781 54.503906-88.078125 75.011719-102.105469 32.957031 22.503907 74.988281 62.058594 74.988281 102.105469 0 37.480469-35.519531 71.84375-60 91.078125v-54.863281l40.605469-40.609375-21.210938-21.210938-19.394531 19.390625v-53.785156zm30 224.3125v-36.109375c22.765625-15.210937 90-65.445313 90-128.203125 0-73.9375-93.339844-130.507812-97.3125-132.878906l-7.6875-4.589844-7.6875 4.589844c-3.972656 2.371094-97.3125 58.941406-97.3125 132.878906 0 62.757812 67.234375 112.992188 90 128.203125v36.109375c-83.976562-7.605469-150-78.386719-150-164.3125 0-69.652344 44.207031-132.101562 110.007812-155.398438l9.992188-3.539062v-68.0625h90v68.0625l9.992188 3.539062c65.800781 23.296876 110.007812 85.746094 110.007812 155.398438 0 85.925781-66.023438 156.707031-150 164.3125zm0 0"/></svg>