<?xml version="1.0" encoding="utf-8"?>
<!-- Generator: Adobe Illustrator 22.0.1, SVG Export Plug-In . SVG Version: 6.00 Build 0)  -->
<svg version="1.1" id="Layer_1" xmlns="http://www.w3.org/2000/svg" xmlns:xlink="http://www.w3.org/1999/xlink" x="0px" y="0px"
	 viewBox="0 0 24 24" style="enable-background:new 0 0 24 24;" xml:space="preserve">
<style type="text/css">
	.st0{fill:#FF0000;}
</style>
<path class="st0" d="M12,24C5.4,24,0,18.6,0,12S5.4,0,12,0s12,5.4,12,12S18.6,24,12,24z M12,0.8C5.8,0.8,0.8,5.8,0.8,12
	s5,11.2,11.2,11.2s11.2-5,11.2-11.2S18.2,0.8,12,0.8z M16.8,16.8c-0.1,0.1-0.2,0.1-0.3,0.1s-0.2,0-0.3-0.1L12,12.6l-4.2,4.2
	c-0.1,0.1-0.2,0.1-0.3,0.1s-0.2,0-0.3-0.1c-0.2-0.2-0.2-0.4,0-0.6l4.2-4.2L7.2,7.8c-0.2-0.2-0.2-0.4,0-0.6s0.4-0.2,0.6,0l4.2,4.2
	l4.2-4.2c0.2-0.2,0.4-0.2,0.6,0c0.2,0.2,0.2,0.4,0,0.6L12.6,12l4.2,4.2C16.9,16.4,16.9,16.6,16.8,16.8z"/>
</svg>
