<?xml version="1.0" encoding="utf-8"?>
<!-- Generator: Adobe Illustrator 22.0.1, SVG Export Plug-In . SVG Version: 6.00 Build 0)  -->
<svg version="1.1" id="Layer_1" xmlns="http://www.w3.org/2000/svg" xmlns:xlink="http://www.w3.org/1999/xlink" x="0px" y="0px"
	 viewBox="0 0 59 51" style="enable-background:new 0 0 59 51;" xml:space="preserve">
<style type="text/css">
	.st0{fill:#111111;}
</style>
<path class="st0" d="M58,27.9c0.7,1.8,0.8,4.9-1.2,6.9c0.2,3.5-0.7,5.9-2.6,7.3c0,1.8-0.8,3.9-2,5.3c-0.9,1-1.9,1.6-3,1.6h-23
	c-1,0-2.9-0.7-4.4-1.6c-0.3,2-2,3.6-4.1,3.6H4.1C1.8,51,0,49.1,0,46.9V21.1c0-2.3,1.8-4.1,4.1-4.1h13.7c2.3,0,4.1,1.9,4.1,4.1v1.6
	c4.3-2.5,6.1-6.6,8-13.5V2.3c0-0.3,0.1-0.5,0.3-0.7c1-1.1,2.4-1.6,3.8-1.6c2,0,4,1.1,5.4,3c2.4,3.2,2.9,8.2,1.5,13.9h10.8
	c2.5,0,7.4,2.8,7.4,6.4C59,24.4,58.9,26.7,58,27.9z M19.9,21.1c0-1.2-1-2.1-2.1-2.1H4.1c-1.2,0-2.1,1-2.1,2.1v25.8
	C2,48,2.9,49,4.1,49h13.7c1.2,0,2.1-1,2.1-2.1v-2.1V24.3V21.1z M51.6,18.9H39.5c-0.3,0-0.6-0.1-0.8-0.4c-0.2-0.3-0.2-0.6-0.2-0.9
	c1.7-5.5,1.4-10.4-0.8-13.4c-1.6-2.2-4.2-2.9-5.9-1.5v6.5c0,0.1,0,0.2,0,0.3C30,16.3,28,21.8,21.9,25v19.8c0.2,0.7,3,2.2,4.3,2.2h23
	c0.4,0,1-0.3,1.5-0.9c1-1.2,1.7-3.1,1.5-4.4c-0.1-0.4,0.1-0.8,0.5-1c1.6-0.9,2.3-3,2.1-6.2c0-0.3,0.1-0.6,0.4-0.8
	c1.9-1.6,1.3-4.6,0.8-5.5c-0.2-0.3-0.2-0.6-0.1-0.9c0.1-0.3,0.4-0.5,0.7-0.6c0.1-0.1,0.5-1.3,0.5-3.3C57,21,53.1,18.9,51.6,18.9z"/>
</svg>
