<?xml version="1.0" encoding="utf-8"?>
<!-- Generator: Adobe Illustrator 22.0.1, SVG Export Plug-In . SVG Version: 6.00 Build 0)  -->
<svg version="1.1" id="Layer_1" xmlns="http://www.w3.org/2000/svg" xmlns:xlink="http://www.w3.org/1999/xlink" x="0px" y="0px"
	 viewBox="0 0 54 55.1" style="enable-background:new 0 0 54 55.1;" xml:space="preserve">
<style type="text/css">
	.st0{fill:#111111;}
</style>
<path class="st0" d="M53.3,55.1H0.7c-0.4,0-0.7-0.3-0.7-0.7v-9.9c0-0.4,0.3-0.7,0.7-0.7s0.7,0.3,0.7,0.7v9.2h51.1v-9.2
	c0-0.4,0.3-0.7,0.7-0.7c0.4,0,0.7,0.3,0.7,0.7v9.9C54,54.8,53.7,55.1,53.3,55.1z M5.6,11.4c-0.4,0-0.7-0.3-0.7-0.7V5.5
	c0-0.4,0.3-0.7,0.7-0.7h15.6c0.4,0,0.7,0.3,0.7,0.7c0,0.4-0.3,0.7-0.7,0.7H6.3v4.5C6.3,11.1,6,11.4,5.6,11.4z M27,11.6
	c-0.4,0-0.7-0.3-0.7-0.7V4.9l-1.2,1.5c-0.1,0.2-0.4,0.3-0.6,0.3c-0.2,0-0.3-0.1-0.5-0.2c-0.3-0.2-0.4-0.7-0.1-1l2.5-3.1c0,0,0,0,0,0
	c0,0,0,0,0,0c0,0,0,0,0,0c0,0,0,0,0,0c0,0,0,0,0,0c0,0,0,0,0,0c0,0,0,0,0.1,0c0,0,0,0,0,0c0,0,0,0,0,0c0,0,0,0,0.1,0c0,0,0,0,0,0
	c0,0,0,0,0,0c0,0,0,0,0.1,0c0,0,0,0,0,0c0,0,0,0,0,0c0,0,0,0,0,0s0,0,0,0c0,0,0,0,0,0c0,0,0,0,0,0c0,0,0,0,0.1,0c0,0,0,0,0,0
	c0,0,0,0,0,0c0,0,0,0,0.1,0c0,0,0,0,0,0c0,0,0,0,0,0c0,0,0,0,0.1,0c0,0,0,0,0,0c0,0,0,0,0,0c0,0,0,0,0,0c0,0,0,0,0,0c0,0,0,0,0,0
	c0,0,0,0,0,0L30,5.5c0.2,0.3,0.2,0.8-0.1,1c-0.1,0.1-0.3,0.2-0.5,0.2c-0.2,0-0.4-0.1-0.6-0.3l-1.2-1.5v5.9
	C27.7,11.3,27.4,11.6,27,11.6z M47.6,10.7V6.2H33.3c-0.4,0-0.7-0.3-0.7-0.7c0-0.4,0.3-0.7,0.7-0.7h15c0.4,0,0.7,0.3,0.7,0.7v5.2
	c0,0.4-0.3,0.7-0.7,0.7C47.9,11.4,47.6,11.1,47.6,10.7z M48.3,43.7c0.4,0,0.7,0.3,0.7,0.7v5.2c0,0.4-0.3,0.7-0.7,0.7h-15
	c-0.4,0-0.7-0.3-0.7-0.7c0-0.4,0.3-0.7,0.7-0.7h14.3v-4.5C47.6,44,47.9,43.7,48.3,43.7z M27,43.8c0.4,0,0.7,0.3,0.7,0.7v5.6l1.2-1.5
	c0.2-0.3,0.7-0.4,1-0.1c0.3,0.2,0.4,0.7,0.1,1l-2.5,3.1c0,0,0,0,0,0c0,0,0,0,0,0c0,0,0,0-0.1,0.1c0,0,0,0,0,0c0,0,0,0,0,0
	c0,0,0,0,0,0c0,0-0.1,0-0.1,0.1c0,0,0,0,0,0c0,0,0,0,0,0c0,0,0,0,0,0c0,0,0,0,0,0c0,0,0,0,0,0c0,0-0.1,0-0.2,0c0,0,0,0,0,0l0,0l0,0
	l0,0h0v0c-0.1,0-0.1,0-0.2,0c0,0,0,0,0,0c0,0,0,0,0,0c0,0,0,0,0,0c0,0,0,0,0,0c0,0,0,0,0,0c0,0-0.1,0-0.1-0.1c0,0,0,0,0,0
	c0,0,0,0,0,0c0,0,0,0,0,0c0,0,0,0-0.1-0.1c0,0,0,0,0,0c0,0,0,0,0,0L24,49.6c-0.2-0.3-0.2-0.8,0.1-1c0.3-0.2,0.8-0.2,1,0.1l1.2,1.5
	v-5.6C26.3,44.2,26.6,43.8,27,43.8z M6.3,44.4v4.5h14.8c0.4,0,0.7,0.3,0.7,0.7c0,0.4-0.3,0.7-0.7,0.7H5.6c-0.4,0-0.7-0.3-0.7-0.7
	v-5.2c0-0.4,0.3-0.7,0.7-0.7C6,43.7,6.3,44,6.3,44.4z M0.1,14.6c0-0.8,0.6-1.4,1.4-1.4h50.8c0.8,0,1.4,0.6,1.4,1.4v2.9
	c0,0.7-0.5,1.2-1.1,1.4l-4.2,4.1l4.4,4.3h0.4v1.4h-0.7l-4.1,4l4.2,4c0.6,0.1,1.1,0.7,1.1,1.4v2.9c0,0.8-0.6,1.4-1.4,1.4H1.6
	c-0.8,0-1.4-0.6-1.4-1.4V38c0-0.4,0.2-0.8,0.4-1l-0.1-0.1l4.5-4.3l-4.1-4H0.7v-0.1l-0.3-0.2c-0.1-0.1-0.2-0.3-0.2-0.5
	c0-0.2,0.1-0.4,0.2-0.5l4.5-4.3l-4.5-4.3l0.1-0.1c-0.3-0.3-0.4-0.6-0.4-1V14.6z M1.6,40.9h50.8l0-2.9H1.6V40.9z M2.9,36.6h47.6
	l-3.3-3.2H6.2L2.9,36.6z M6.4,32H47l3.5-3.4H2.9L6.4,32z M2.6,27.2h48.2l-3.5-3.4H6.1L2.6,27.2z M6.5,22.4
	C6.5,22.4,6.5,22.4,6.5,22.4l40.4,0c0,0,0,0,0,0l3.6-3.5H2.9L6.5,22.4z M1.6,17.4h50.8l0-2.9H1.6V17.4z M53.3,11.4
	c-0.4,0-0.7-0.3-0.7-0.7V1.4H1.4v9.2c0,0.4-0.3,0.7-0.7,0.7S0,11,0,10.6V0.7C0,0.3,0.3,0,0.7,0h52.6C53.7,0,54,0.3,54,0.7v9.9
	C54,11,53.7,11.4,53.3,11.4z"/>
</svg>
