<?xml version="1.0" encoding="utf-8"?>
<!-- Generator: Adobe Illustrator 22.0.1, SVG Export Plug-In . SVG Version: 6.00 Build 0)  -->
<svg version="1.1" id="Layer_1" xmlns="http://www.w3.org/2000/svg" xmlns:xlink="http://www.w3.org/1999/xlink" x="0px" y="0px"
	 viewBox="0 0 54 54" style="enable-background:new 0 0 54 54;" xml:space="preserve">
<style type="text/css">
	.st0{fill:#111111;}
</style>
<path class="st0" d="M53.3,54H0.8c-0.4,0-0.7-0.3-0.7-0.7V24.4c0-0.4,0.3-0.7,0.7-0.7s0.7,0.3,0.7,0.7v28.2h51V24.4
	c0-0.4,0.3-0.7,0.7-0.7c0.4,0,0.7,0.3,0.7,0.7v28.9C54,53.7,53.7,54,53.3,54z M48.4,21.9c0.4,0,0.7,0.3,0.7,0.7v26
	c0,0.4-0.3,0.7-0.7,0.7H5.7C5.3,49.4,5,49,5,48.7v-26c0-0.4,0.3-0.7,0.7-0.7c0.4,0,0.7,0.3,0.7,0.7v25.3h41.2V22.6
	C47.7,22.2,48,21.9,48.4,21.9z M53.9,20c0,0.4-0.3,0.7-0.7,0.7c-2,0-2.8-1-3.5-1.9c-0.6-0.8-1-1.3-2.4-1.3c-1.4,0-2.1,0.6-2.9,1.4
	c-0.9,0.8-1.9,1.8-3.9,1.8c-2,0-3-0.9-3.9-1.8c-0.8-0.7-1.5-1.4-2.9-1.4S31.8,18.2,31,19c-0.9,0.8-1.9,1.8-3.9,1.8s-3-0.9-3.9-1.8
	c-0.8-0.7-1.5-1.4-2.9-1.4c-1.4,0-2.1,0.6-2.9,1.4c-0.9,0.8-1.9,1.8-3.9,1.8c-2,0-3-0.9-3.9-1.8c-0.8-0.7-1.5-1.4-2.9-1.4
	c-1.4,0-1.9,0.6-2.5,1.3c-0.7,0.8-1.6,1.8-3.6,1.8C0.3,20.8,0,20.4,0,20l0-8h0.1c0-0.1,0-0.2,0.1-0.3L7.5,0.3C7.7,0.1,7.9,0,8.1,0
	H46c0.2,0,0.5,0.1,0.6,0.3l7.3,11.4c0.1,0.2,0.1,0.5,0,0.7L53.9,20z M45.6,1.4H8.5l-6.4,9.9h49.8L45.6,1.4z M1.4,12.8l0,6.4
	c0.9-0.2,1.3-0.7,1.8-1.3c0.7-0.8,1.6-1.8,3.6-1.8c2,0,3,0.9,3.9,1.8c0.8,0.7,1.5,1.4,2.9,1.4s2.1-0.6,2.9-1.4
	c0.9-0.8,1.9-1.8,3.9-1.8s3,0.9,3.9,1.8c0.8,0.7,1.5,1.4,2.9,1.4c1.4,0,2.1-0.6,2.9-1.4c0.9-0.8,1.9-1.8,3.9-1.8c2,0,3,0.9,3.9,1.8
	c0.8,0.7,1.5,1.4,2.9,1.4c1.4,0,2.1-0.6,2.9-1.4c0.9-0.8,1.9-1.8,3.9-1.8c2,0,2.8,1,3.5,1.9c0.5,0.6,0.8,1.1,1.6,1.2l0-6.4H1.4z"/>
</svg>
