<?xml version="1.0" encoding="utf-8"?>
<!-- Generator: Adobe Illustrator 22.0.1, SVG Export Plug-In . SVG Version: 6.00 Build 0)  -->
<svg version="1.1" id="Layer_1" xmlns="http://www.w3.org/2000/svg" xmlns:xlink="http://www.w3.org/1999/xlink" x="0px" y="0px"
	 viewBox="0 0 64 64" style="enable-background:new 0 0 64 64;" xml:space="preserve">
<style type="text/css">
	.st0{fill:#111111;}
</style>
<path class="st0" d="M63.7,57.3c-0.1,0.5-0.6,0.8-1,0.8c-0.1,0-0.2,0-0.3,0c-0.6-0.2-0.9-0.8-0.8-1.3c0.2-0.6,0.3-1.2,0.3-1.8
	c0-0.6,0.5-1.1,1.1-1.1c0.6,0,1.1,0.4,1.1,1v0.1C64,55.7,63.9,56.5,63.7,57.3z M62.9,51.5c-0.6,0-1.1-0.5-1.1-1.1v-2.2
	c0-0.6,0.5-1.1,1.1-1.1c0.6,0,1.1,0.5,1.1,1.1v2.2C64,51,63.5,51.5,62.9,51.5z M62.9,45c-0.6,0-1.1-0.5-1.1-1.1v-2.2
	c0-0.6,0.5-1.1,1.1-1.1c0.6,0,1.1,0.5,1.1,1.1v2.2C64,44.5,63.5,45,62.9,45z M62.9,38.5c-0.6,0-1.1-0.5-1.1-1.1v-2.2
	c0-0.6,0.5-1.1,1.1-1.1c0.6,0,1.1,0.5,1.1,1.1v2.2C64,38.1,63.5,38.5,62.9,38.5z M62.9,32.1c-0.6,0-1.1-0.5-1.1-1.1v-2.2
	c0-0.6,0.5-1.1,1.1-1.1c0.6,0,1.1,0.5,1.1,1.1V31C64,31.6,63.5,32.1,62.9,32.1z M62.9,25.6c-0.6,0-1.1-0.5-1.1-1.1v-2.2
	c0-0.6,0.5-1.1,1.1-1.1c0.6,0,1.1,0.5,1.1,1.1v2.2C64,25.1,63.5,25.6,62.9,25.6z M62.9,19.1c-0.6,0-1.1-0.5-1.1-1.1v-2.2
	c0-0.6,0.5-1.1,1.1-1.1c0.6,0,1.1,0.5,1.1,1.1V18C64,18.6,63.5,19.1,62.9,19.1z M62.9,12.6c-0.6,0-1.1-0.5-1.1-1.1V9.4
	c0-0.6,0.5-1.1,1.1-1.1c0.6,0,1.1,0.5,1.1,1.1v2.2C64,12.1,63.5,12.6,62.9,12.6z M62.4,6.2c-0.2,0.1-0.3,0.1-0.5,0.1
	c-0.4,0-0.7-0.2-0.9-0.6c-0.3-0.5-0.7-1-1.1-1.5c-0.4-0.4-0.4-1.1,0-1.5c0.4-0.4,1.1-0.4,1.5,0c0.6,0.6,1.1,1.2,1.5,2
	C63.1,5.2,62.9,5.9,62.4,6.2z M61.2,59.9c0.4,0.4,0.4,1.1,0,1.5c-0.6,0.6-1.3,1.1-2,1.4C59.1,63,58.9,63,58.7,63
	c-0.4,0-0.7-0.2-0.9-0.6c-0.3-0.5-0.1-1.2,0.4-1.5c0.5-0.3,1.1-0.7,1.5-1.1C60.1,59.5,60.8,59.5,61.2,59.9z M56.9,2.4
	c-0.1,0-0.2,0-0.3,0c-0.6-0.2-1.2-0.2-1.8-0.2c-0.6,0-1.1-0.5-1.1-1.1c0-0.6,0.4-1.1,1-1.1h0.1c0.8,0,1.6,0.1,2.3,0.3
	c0.6,0.2,0.9,0.7,0.8,1.3C57.8,2.1,57.4,2.4,56.9,2.4z M53.9,52.7c0,0.6-0.5,1.1-1.1,1.1h-7.5c-0.6,0-1.1-0.5-1.1-1.1
	c0-0.6,0.5-1.1,1.1-1.1H50L39.3,40.8c-0.4-0.4-0.4-1.1,0-1.5c0.4-0.4,1.1-0.4,1.5,0l10.9,11c0,0,0,0,0,0v-5.2c0-0.6,0.5-1.1,1.1-1.1
	c0.6,0,1.1,0.5,1.1,1.1V52.7z M50.5,2.2h-2.2c-0.6,0-1.1-0.5-1.1-1.1c0-0.6,0.5-1.1,1.1-1.1h2.2c0.6,0,1.1,0.5,1.1,1.1
	C51.5,1.7,51,2.2,50.5,2.2z M44,2.2h-2.2c-0.6,0-1.1-0.5-1.1-1.1c0-0.6,0.5-1.1,1.1-1.1H44C44.6,0,45,0.5,45,1.1
	C45,1.7,44.6,2.2,44,2.2z M37.7,2.1c2,1.7,3.3,4.2,3.3,7v22.6c0,5-4.1,9.1-9.1,9.1H9.3c-3.4,0-6.4-1.9-8-4.7c-0.1,0-0.1,0-0.2,0
	c-0.6,0-1.1-0.5-1.1-1.1V33c0-0.2,0.1-0.4,0.2-0.5c0-0.2,0-0.5,0-0.7v-2.6C0.1,29,0,28.8,0,28.6v-2.2c0-0.2,0.1-0.3,0.1-0.5v-3.3
	C0.1,22.5,0,22.3,0,22.2V20c0-0.2,0.1-0.3,0.1-0.5v-3.3C0.1,16,0,15.9,0,15.7v-2.2c0-0.2,0.1-0.3,0.1-0.5V9.7C0.1,9.5,0,9.4,0,9.2v0
	c0-0.8,0.1-1.6,0.3-2.4c0-0.2,0.2-0.3,0.3-0.5C1,5.1,1.7,4,2.5,3c0.1-0.1,0.1-0.3,0.3-0.4C3.4,2,4,1.5,4.7,1.1C4.8,1.1,5,1.1,5.1,1
	c1.3-0.7,2.7-1,4.2-1h0.1h2.2h4.3H18h4.3h2.2h4.3H31h0.9c0.9,0,1.8,0.1,2.6,0.4C34.7,0.2,35,0,35.3,0h2.2c0.6,0,1.1,0.5,1.1,1.1
	C38.6,1.6,38.2,2,37.7,2.1z M31.9,2.2H31h-2.2h-4.3h-2.2H18h-2.2h-4.3H9.4H9.3c-3.9,0-7,3.1-7,7v22.6c0,3.9,3.1,7,7,7h22.6
	c3.9,0,7-3.1,7-7V9.1C38.8,5.3,35.7,2.2,31.9,2.2z M1.1,38.4c0.6,0,1.1,0.5,1.1,1.1v2.2c0,0.6-0.5,1.1-1.1,1.1
	c-0.6,0-1.1-0.5-1.1-1.1v-2.2C0,38.8,0.5,38.4,1.1,38.4z M1.1,44.8c0.6,0,1.1,0.5,1.1,1.1v2.2c0,0.6-0.5,1.1-1.1,1.1
	c-0.6,0-1.1-0.5-1.1-1.1v-2.2C0,45.3,0.5,44.8,1.1,44.8z M1.1,51.3c0.6,0,1.1,0.5,1.1,1.1v2.2c0,0.6-0.5,1.1-1.1,1.1
	c-0.6,0-1.1-0.5-1.1-1.1v-2.2C0,51.8,0.5,51.3,1.1,51.3z M1.6,57.8c0.5-0.3,1.2-0.1,1.5,0.4c0.3,0.5,0.7,1.1,1.1,1.5
	c0.4,0.4,0.4,1.1,0,1.5c-0.2,0.2-0.5,0.3-0.7,0.3c-0.3,0-0.6-0.1-0.8-0.3c-0.6-0.6-1.1-1.2-1.5-2C0.8,58.7,1,58.1,1.6,57.8z
	 M7.3,61.6c0.6,0.2,1.2,0.2,1.8,0.2c0.6,0,1.1,0.5,1.1,1.1c0,0.6-0.5,1.1-1.1,1.1h0c-0.8,0-1.6-0.1-2.4-0.3
	c-0.6-0.2-0.9-0.7-0.8-1.3C6.1,61.8,6.7,61.4,7.3,61.6z M13.5,61.8h2.2c0.6,0,1.1,0.5,1.1,1.1c0,0.6-0.5,1.1-1.1,1.1h-2.2
	c-0.6,0-1.1-0.5-1.1-1.1C12.4,62.3,12.9,61.8,13.5,61.8z M20,61.8h2.2c0.6,0,1.1,0.5,1.1,1.1c0,0.6-0.5,1.1-1.1,1.1H20
	c-0.6,0-1.1-0.5-1.1-1.1C18.9,62.3,19.4,61.8,20,61.8z M26.5,61.8h2.2c0.6,0,1.1,0.5,1.1,1.1c0,0.6-0.5,1.1-1.1,1.1h-2.2
	c-0.6,0-1.1-0.5-1.1-1.1C25.4,62.3,25.9,61.8,26.5,61.8z M32.9,61.8h2.2c0.6,0,1.1,0.5,1.1,1.1c0,0.6-0.5,1.1-1.1,1.1h-2.2
	c-0.6,0-1.1-0.5-1.1-1.1C31.9,62.3,32.3,61.8,32.9,61.8z M39.4,61.8h2.2c0.6,0,1.1,0.5,1.1,1.1c0,0.6-0.5,1.1-1.1,1.1h-2.2
	c-0.6,0-1.1-0.5-1.1-1.1C38.3,62.3,38.8,61.8,39.4,61.8z M45.9,61.8h2.2c0.6,0,1.1,0.5,1.1,1.1c0,0.6-0.5,1.1-1.1,1.1h-2.2
	c-0.6,0-1.1-0.5-1.1-1.1C44.8,62.3,45.3,61.8,45.9,61.8z M52.4,61.8h2.2c0.6,0,1.1,0.5,1.1,1.1c0,0.6-0.5,1.1-1.1,1.1h-2.2
	c-0.6,0-1.1-0.5-1.1-1.1C51.3,62.3,51.8,61.8,52.4,61.8z"/>
</svg>
