<?xml version="1.0" encoding="utf-8"?>
<!-- Generator: Adobe Illustrator 22.0.1, SVG Export Plug-In . SVG Version: 6.00 Build 0)  -->
<svg version="1.1" id="Layer_1" xmlns="http://www.w3.org/2000/svg" xmlns:xlink="http://www.w3.org/1999/xlink" x="0px" y="0px"
	 viewBox="0 0 64 54.3" style="enable-background:new 0 0 64 54.3;" xml:space="preserve">
<style type="text/css">
	.st0{fill:#111111;}
</style>
<path class="st0" d="M0,54.3V38.6h64v15.7H0z M61.7,40.9H2.3v11.2h59.4V40.9z M55.9,34.1c-0.1,0-0.2,0-0.3,0c-1.1-0.1-2.1-0.4-3-0.9
	c-0.2-0.1-0.3-0.2-0.5-0.3l-3.5-2.4c-0.2-0.1-0.4-0.2-0.5-0.2c-0.2,0-0.4,0.1-0.5,0.2L44,32.9c-0.2,0.1-0.3,0.2-0.5,0.3
	c-0.9,0.5-1.9,0.8-3,0.9c-0.1,0-0.2,0-0.3,0c-0.1,0-0.2,0-0.3,0c-1.1-0.1-2.1-0.4-3-0.9c-0.2-0.1-0.3-0.2-0.5-0.3l-3.5-2.4
	c-0.2-0.1-0.4-0.2-0.5-0.2c-0.2,0-0.4,0.1-0.5,0.2l-3.5,2.4c-0.2,0.1-0.3,0.2-0.5,0.3c-0.9,0.5-1.9,0.8-3,0.9c-0.1,0-0.2,0-0.3,0
	c-0.1,0-0.2,0-0.3,0c-1.1-0.1-2.1-0.3-3-0.9c-0.2-0.1-0.3-0.2-0.5-0.3l-3.5-2.4c-0.2-0.1-0.3-0.2-0.5-0.2c-0.2,0-0.4,0.1-0.5,0.2
	l-3.5,2.4c-0.2,0.1-0.3,0.2-0.5,0.3c-0.9,0.5-1.9,0.8-3,0.9c-0.1,0-0.2,0-0.3,0c-0.1,0-0.2,0-0.3,0H0V18.4h64v15.7h-7.8
	C56.1,34.1,56,34.1,55.9,34.1z M61.7,20.7H2.3v11.2h6.8c0.8,0,1.6-0.3,2.3-0.8l3.5-2.4c0.5-0.4,1.2-0.6,1.8-0.6
	c0.7,0,1.3,0.2,1.8,0.6L22,31c0.7,0.5,1.5,0.7,2.3,0.8h0.5c0.8,0,1.6-0.3,2.3-0.8l3.5-2.4c0.5-0.4,1.2-0.6,1.8-0.6s1.3,0.2,1.8,0.6
	l3.5,2.4c0.7,0.5,1.5,0.7,2.3,0.8h0.5c0.8,0,1.6-0.3,2.3-0.8l3.5-2.4c0.5-0.4,1.2-0.6,1.8-0.6c0.7,0,1.3,0.2,1.8,0.6l3.5,2.4
	c0.7,0.5,1.5,0.7,2.3,0.8h6.1V20.7z M54.6,15.7c-2-0.3-3-1.8-4-3.1c-1-1.4-1.7-2.2-3-2.2c-1.3,0-2,0.9-3,2.2
	c-1.1,1.5-2.3,3.2-4.8,3.2c-2.5,0-3.8-1.7-4.8-3.2c-1-1.4-1.7-2.2-3-2.2c-1.3,0-2,0.9-3,2.2c-1.1,1.5-2.3,3.2-4.8,3.2
	c-2.5,0-3.8-1.7-4.8-3.2c-1-1.4-1.7-2.2-3-2.2c-1.3,0-2,0.9-3,2.2c-0.9,1.3-1.9,2.7-3.8,3.1v0.1H0V0h63.9v15.8L54.6,15.7L54.6,15.7z
	 M61.7,13.5V2.3H2.3v11.2h6.3c1.3,0,2-0.9,3-2.2c1.1-1.5,2.3-3.2,4.8-3.2s3.8,1.7,4.8,3.2c1,1.4,1.7,2.2,3,2.2c1.3,0,2-0.9,3-2.2
	c1.1-1.5,2.3-3.2,4.8-3.2c2.5,0,3.8,1.7,4.8,3.2c1,1.4,1.7,2.2,3,2.2c1.3,0,2-0.9,3-2.2c1.1-1.5,2.3-3.2,4.8-3.2
	c2.5,0,3.8,1.7,4.8,3.2c1,1.4,1.7,2.2,3,2.2H61.7z"/>
</svg>
