<?xml version="1.0" encoding="utf-8"?>
<!-- Generator: Adobe Illustrator 22.0.1, SVG Export Plug-In . SVG Version: 6.00 Build 0)  -->
<svg version="1.1" id="Capa_1" xmlns="http://www.w3.org/2000/svg" xmlns:xlink="http://www.w3.org/1999/xlink" x="0px" y="0px"
	 viewBox="0 0 400 480" style="enable-background:new 0 0 400 480;" xml:space="preserve">
<g>
	<g>
		<g>
			<path d="M392,0H8C3.6,0,0,3.6,0,8v80c0,13.2,10.8,24,24,24h16v344c0,13.2,10.8,24,24,24h272c13.2,0,24-10.8,24-24V112h16
				c13.2,0,24-10.8,24-24V8C400,3.6,396.4,0,392,0z M344,456c0,4.4-3.6,8-8,8H64c-4.4,0-8-3.6-8-8V112h288V456z M384,88
				c0,4.4-3.6,8-8,8h-24H48H24c-4.4,0-8-3.6-8-8V16h368V88z"/>
		</g>
	</g>
	<g>
		<g>
			<path d="M328,32H72c-4.4,0-8,3.6-8,8v16c0,13.2,10.8,24,24,24h224c13.2,0,24-10.8,24-24V40C336,35.6,332.4,32,328,32z M320,56
				c0,4.4-3.6,8-8,8H88c-4.4,0-8-3.6-8-8v-8h240V56z"/>
		</g>
	</g>
	<g>
		<g>
			<rect x="296" y="144" width="16" height="16"/>
		</g>
	</g>
	<g>
		<g>
			<rect x="296" y="192" width="16" height="16"/>
		</g>
	</g>
	<g>
		<g>
			<rect x="296" y="240" width="16" height="16"/>
		</g>
	</g>
	<g>
		<g>
			<rect x="296" y="288" width="16" height="16"/>
		</g>
	</g>
	<g>
		<g>
			<rect x="296" y="336" width="16" height="16"/>
		</g>
	</g>
	<g>
		<g>
			<rect x="296" y="384" width="16" height="16"/>
		</g>
	</g>
	<g>
		<g>
			<rect x="88" y="144" width="16" height="16"/>
		</g>
	</g>
	<g>
		<g>
			<rect x="88" y="192" width="16" height="16"/>
		</g>
	</g>
	<g>
		<g>
			<rect x="88" y="240" width="16" height="16"/>
		</g>
	</g>
	<g>
		<g>
			<rect x="88" y="288" width="16" height="16"/>
		</g>
	</g>
	<g>
		<g>
			<rect x="88" y="336" width="16" height="16"/>
		</g>
	</g>
	<g>
		<g>
			<rect x="88" y="384" width="16" height="16"/>
		</g>
	</g>
	<g>
		<g>
			<path d="M256,325.7V152c0-4.4-3.6-8-8-8h-40c-4.4,0-8,3.6-8,8v24h-40c-4.4,0-8,3.6-8,8v32c0,4.4,3.6,8,8,8h40v16h-56
				c-4.4,0-8,3.6-8,8v32c0,4.4,3.6,8,8,8h56v16.5c-31.5,4-56,30.9-56,63.5c0,35.3,28.7,64,64,64s64-28.7,64-64
				C272,352.3,266.3,337.4,256,325.7z M208,416c-26.5,0-48-21.5-48-48s21.5-48,48-48c4.4,0,8-3.6,8-8v-32c0-4.4-3.6-8-8-8h-56v-16
				h56c4.4,0,8-3.6,8-8v-32c0-4.4-3.6-8-8-8h-40v-16h40c4.4,0,8-3.6,8-8v-24h24v168.8c0,2.1,0.8,4.1,2.3,5.6
				c8.9,9,13.7,21,13.7,33.6C256,394.5,234.5,416,208,416z"/>
		</g>
	</g>
	<g>
		<g>
			<polygon points="216,360 216,352 200,352 200,360 192,360 192,376 200,376 200,384 216,384 216,376 224,376 224,360 			"/>
		</g>
	</g>
</g>
</svg>
