<?xml version="1.0" encoding="utf-8"?>
<!-- Generator: Adobe Illustrator 22.0.1, SVG Export Plug-In . SVG Version: 6.00 Build 0)  -->
<svg version="1.1" id="Capa_1" xmlns="http://www.w3.org/2000/svg" xmlns:xlink="http://www.w3.org/1999/xlink" x="0px" y="0px"
	 viewBox="0 0 58.1 58.1" style="enable-background:new 0 0 58.1 58.1;" xml:space="preserve">
<style type="text/css">
	.st0{fill:#010002;}
</style>
<g>
	<path class="st0" d="M13.8,38.6c0.3,0.3,0.9,0.3,1.2,0l0.4-0.4c0.3-0.3,0.3-0.9,0-1.2l-1.1-1.1c-0.3-0.3-0.9-0.3-1.2,0l-0.4,0.4
		c-0.3,0.3-0.3,0.9,0,1.2C12.6,37.5,13.8,38.6,13.8,38.6z M13,36.7l0.4-0.4c0.1-0.1,0.3-0.1,0.4,0l1.1,1.1c0.1,0.1,0.1,0.3,0,0.4
		l-0.4,0.4c-0.1,0.1-0.3,0.1-0.4,0L13,37.1C12.9,37,12.9,36.8,13,36.7z M17.4,42c0.3,0.3,0.9,0.3,1.2,0l0.4-0.4
		c0.3-0.3,0.3-0.9,0-1.2l-1.1-1.1c-0.3-0.3-0.9-0.3-1.2,0l-0.4,0.4c-0.3,0.3-0.3,0.9,0,1.2L17.4,42z M16.7,40.1l0.4-0.4
		c0.1-0.1,0.3-0.1,0.4,0l1.1,1.1c0.1,0.1,0.1,0.3,0,0.4l-0.4,0.4c-0.1,0.1-0.3,0.1-0.4,0l-1.1-1.1C16.6,40.4,16.6,40.3,16.7,40.1z
		 M21.5,42.7c-0.3-0.3-0.9-0.3-1.2,0l-0.4,0.4c-0.3,0.3-0.3,0.9,0,1.2l1.1,1.1c0.3,0.3,0.9,0.3,1.2,0l0.4-0.4c0.3-0.3,0.3-0.9,0-1.2
		C22.6,43.8,21.5,42.7,21.5,42.7z M22.2,44.6L21.9,45c-0.1,0.1-0.3,0.1-0.4,0l-1.1-1.1c-0.1-0.1-0.1-0.3,0-0.4l0.4-0.4
		c0.1-0.1,0.3-0.1,0.4,0l1.1,1.1C22.3,44.3,22.3,44.5,22.2,44.6z M10.9,41.7c0.3,0.3,0.9,0.3,1.2,0l0.4-0.4c0.3-0.3,0.3-0.9,0-1.2
		L11.2,39c-0.3-0.3-0.9-0.3-1.2,0l-0.4,0.4c-0.3,0.3-0.3,0.9,0,1.2L10.9,41.7z M10.1,39.8l0.4-0.4c0.1-0.1,0.3-0.1,0.4,0l1.1,1.1
		c0.1,0.1,0.1,0.3,0,0.4l-0.4,0.4c-0.1,0.1-0.3,0.1-0.4,0l-1.1-1.1C10,40.1,10,39.9,10.1,39.8z M14.9,42.4c-0.3-0.3-0.9-0.3-1.2,0
		l-0.4,0.4c-0.3,0.3-0.3,0.9,0,1.2l1.1,1.1c0.3,0.3,0.9,0.3,1.2,0l0.4-0.4c0.3-0.3,0.3-0.9,0-1.2L14.9,42.4z M15.7,44.3l-0.4,0.4
		c-0.1,0.1-0.3,0.1-0.4,0l-1.1-1.1c-0.1-0.1-0.1-0.3,0-0.4l0.4-0.4c0.1-0.1,0.3-0.1,0.4,0l1.1,1.1C15.8,44,15.8,44.2,15.7,44.3z
		 M18.6,45.8c-0.3-0.3-0.9-0.3-1.2,0L17,46.3c-0.3,0.3-0.3,0.9,0,1.2l1.1,1.1c0.3,0.3,0.9,0.3,1.2,0l0.4-0.4c0.3-0.3,0.3-0.9,0-1.2
		L18.6,45.8z M19.3,47.7L19,48.1c-0.1,0.1-0.3,0.1-0.4,0L17.5,47c-0.1-0.1-0.1-0.3,0-0.4l0.4-0.4c0.1-0.1,0.3-0.1,0.4,0l1.1,1.1
		C19.4,47.4,19.4,47.6,19.3,47.7z M8.3,42.1c-0.3-0.3-0.9-0.3-1.2,0l-0.4,0.4c-0.3,0.3-0.3,0.9,0,1.2L8,44.8c0.3,0.3,0.9,0.3,1.2,0
		l0.4-0.4c0.3-0.3,0.3-0.9,0-1.2L8.3,42.1z M9.1,44l-0.4,0.4c-0.1,0.1-0.3,0.1-0.4,0l-1.1-1.1c-0.1-0.1-0.1-0.3,0-0.4l0.4-0.4
		c0.1-0.1,0.3-0.1,0.4,0l1.1,1.1C9.2,43.7,9.2,43.9,9.1,44z M12,45.5c-0.3-0.3-0.9-0.3-1.2,0L10.4,46c-0.3,0.3-0.3,0.9,0,1.2
		l1.1,1.1c0.3,0.3,0.9,0.3,1.2,0l0.4-0.4c0.3-0.3,0.3-0.9,0-1.2L12,45.5z M12.8,47.4l-0.4,0.4c-0.1,0.1-0.3,0.1-0.4,0l-1.1-1.1
		c-0.1-0.1-0.1-0.3,0-0.4l0.4-0.4c0.1-0.1,0.3-0.1,0.4,0l1.1,1.1C12.9,47.1,12.9,47.3,12.8,47.4z M15.7,48.9c-0.3-0.3-0.9-0.3-1.2,0
		l-0.4,0.4c-0.3,0.3-0.3,0.9,0,1.2l1.1,1.1c0.3,0.3,0.9,0.3,1.2,0l0.4-0.4c0.3-0.3,0.3-0.9,0-1.2L15.7,48.9z M16.4,50.8l-0.4,0.4
		c-0.1,0.1-0.3,0.1-0.4,0l-1.1-1.1c-0.1-0.1-0.1-0.3,0-0.4l0.4-0.4c0.1-0.1,0.3-0.1,0.4,0l1.1,1.1C16.5,50.5,16.5,50.7,16.4,50.8z
		 M27.1,20.5c-2-1.9-5.2-1.8-7.1,0.3l-18.7,20c-1.9,2-1.8,5.2,0.2,7.1l9.7,9c2,1.9,5.2,1.8,7.1-0.3l18.7-20c1.9-2,1.8-5.2-0.2-7.1
		C36.7,29.5,27.1,20.5,27.1,20.5z M35.4,35.2l-18.7,20c-1.1,1.2-3,1.3-4.1,0.2l-9.7-9c-1.2-1.1-1.2-2.9-0.1-4.1l18.7-20
		c1.1-1.2,3-1.3,4.1-0.2l9.7,9C36.5,32.1,36.5,34,35.4,35.2z M36.5,21.6c-2.1-2-4.7-3.4-7.5-4.2c-0.2,0-0.3,0-0.5,0.1
		c-0.1,0.1-0.3,0.2-0.3,0.4c-0.1,0.2,0,0.5,0.2,0.6c0.1,0.1,0.2,0.1,0.3,0.1c2.6,0.7,5,2.1,7,3.9c1.6,1.5,2.9,3.2,3.8,5.1
		c0,0.1,0.1,0.1,0.1,0.2c0.2,0.2,0.5,0.2,0.7,0.1c0.1,0,0.1-0.1,0.2-0.1c0.2-0.2,0.2-0.5,0.1-0.7C39.6,25,38.2,23.2,36.5,21.6z
		 M42.5,15.1c-3.9-3.6-8.7-6-13.9-6.9C28.3,8.1,28,8.4,28,8.7c0,0.2,0,0.4,0.2,0.6c0.1,0.1,0.2,0.1,0.3,0.2c5,0.9,9.5,3.1,13.2,6.6
		c3.4,3.2,5.9,7.3,7.2,11.8c0,0.1,0.1,0.2,0.2,0.3c0.2,0.1,0.4,0.2,0.6,0.1c0.1,0,0.2-0.1,0.3-0.2c0.2-0.2,0.2-0.4,0.1-0.6
		C48.7,22.7,46.1,18.5,42.5,15.1z M27.5,0c-0.3,0-0.6,0.2-0.7,0.6c0,0.2,0.1,0.4,0.2,0.5c0.1,0.1,0.2,0.2,0.4,0.2
		c7.4,0.7,14.3,3.8,19.8,9c4.8,4.5,8.2,10.3,9.8,16.7c0,0.1,0.1,0.2,0.2,0.3c0.2,0.1,0.4,0.2,0.6,0.1c0.1,0,0.2-0.1,0.3-0.2
		c0.1-0.2,0.2-0.4,0.2-0.6C56.5,20,53,14,48,9.3C42.3,4,35.2,0.8,27.5,0z M24.1,31.3c-0.6,0.7-0.6,1.7,0.1,2.3
		c0.7,0.6,1.7,0.6,2.3-0.1c0.6-0.7,0.6-1.7-0.1-2.3C25.7,30.6,24.7,30.7,24.1,31.3z M25.9,33.1c-0.3,0.4-0.9,0.4-1.3,0
		c-0.4-0.3-0.4-0.9,0-1.3c0.3-0.4,0.9-0.4,1.3,0C26.3,32.2,26.3,32.7,25.9,33.1z M23,30.5c0.1,0.1,0.2,0.1,0.3,0.1
		c0.1,0,0.3-0.1,0.4-0.2c0.2-0.2,0.2-0.5,0-0.7l-3-2.8c-0.2-0.2-0.5-0.2-0.7,0c-0.2,0.2-0.2,0.5,0,0.7L23,30.5z M28,34.1
		c-0.2-0.2-0.5-0.2-0.7,0c-0.2,0.2-0.2,0.5,0,0.7l3,2.8c0.1,0.1,0.2,0.1,0.3,0.1c0.1,0,0.3-0.1,0.4-0.2c0.2-0.2,0.2-0.5,0-0.7
		L28,34.1z M27.8,30.7l2.8-3c0.2-0.2,0.2-0.5,0-0.7c-0.2-0.2-0.5-0.2-0.7,0l-2.8,3c-0.2,0.2-0.2,0.5,0,0.7c0.1,0.1,0.2,0.1,0.3,0.1
		C27.6,30.8,27.7,30.8,27.8,30.7z M22.8,34.3l-2.8,3c-0.2,0.2-0.2,0.5,0,0.7c0.1,0.1,0.2,0.1,0.3,0.1c0.1,0,0.3-0.1,0.4-0.2l2.8-3
		c0.2-0.2,0.2-0.5,0-0.7C23.3,34.1,22.9,34.1,22.8,34.3z"/>
</g>
</svg>
