<?xml version="1.0" encoding="utf-8"?>
<!-- Generator: Adobe Illustrator 22.0.1, SVG Export Plug-In . SVG Version: 6.00 Build 0)  -->
<svg version="1.1" id="Layer_1" xmlns="http://www.w3.org/2000/svg" xmlns:xlink="http://www.w3.org/1999/xlink" x="0px" y="0px"
	 viewBox="0 0 54 53.1" style="enable-background:new 0 0 54 53.1;" xml:space="preserve">
<style type="text/css">
	.st0{fill:#111111;}
</style>
<path class="st0" d="M53.1,30.4h-1.3l0.2,0.1c0.2,0.1,0.3,0.4,0.3,0.6l1.2,11.2c0.1,1.1-0.2,2.1-1,2.9c-0.7,0.8-1.8,1.3-2.8,1.3h0.8
	v2.4c0,2.3-2.1,4.3-4.5,4.3c-2.4,0-4.5-1.9-4.5-4.2v-2.5h-27v2.4c0,2.3-2.1,4.3-4.5,4.3c-2.4,0-4.5-1.9-4.5-4.2v-2.5H4.3
	c-1.1,0-2.1-0.5-2.8-1.3c-0.7-0.8-1.1-1.9-1-2.9l1.2-11.4c0-0.2,0.1-0.4,0.2-0.5H0.9C0.4,30.4,0,30,0,29.5V0.9C0,0.4,0.4,0,0.9,0
	h52.2C53.6,0,54,0.4,54,0.9v28.6C54,30,53.6,30.4,53.1,30.4z M43.2,48.9c0,1.3,1.3,2.4,2.7,2.4c1.4,0,2.7-1.2,2.7-2.5v-2.4h-5.4
	V48.9z M7.2,48.9c0,1.3,1.3,2.4,2.7,2.4c1.4,0,2.7-1.2,2.7-2.5v-2.4H7.2V48.9z M2.8,44c0.4,0.4,0.9,0.7,1.5,0.7h45.3
	c0.6,0,1.1-0.2,1.5-0.7c0.4-0.4,0.6-1,0.5-1.5l-1.2-10.9l-2.3-2c-0.2-0.1-0.3-0.3-0.3-0.6l-0.5-4H6.6l-0.5,3.9
	c0,0.2-0.1,0.4-0.3,0.6l-0.4,0.3v0.6H4.7l-1.2,1L2.3,42.5C2.3,43,2.5,43.6,2.8,44z M13.7,8.9c-2.9,0-5.3,2-5.7,4.8l-1.2,9.5h40.3
	l-1.2-9.5c-0.3-2.8-2.7-4.8-5.7-4.8H13.7z M52.2,1.8H1.8v26.8h2.3l0.3-0.2l1.9-14.9c0.5-3.7,3.6-6.3,7.5-6.3h2.5V3.6
	c0-0.5,0.4-0.9,0.9-0.9c0.5,0,0.9,0.4,0.9,0.9v3.6h18V3.6c0-0.5,0.4-0.9,0.9-0.9c0.5,0,0.9,0.4,0.9,0.9v3.6h2.4c3.9,0,7,2.7,7.5,6.3
	l1.9,15l0.8,0.7v-0.6h1.8V1.8z M11.9,18.1c-0.2,0.2-0.4,0.3-0.6,0.3c-0.2,0-0.5-0.1-0.6-0.3c-0.3-0.4-0.3-0.9,0-1.3l6.8-6.5
	c0.4-0.3,0.9-0.3,1.3,0c0.3,0.4,0.3,0.9,0,1.3L11.9,18.1z M11.8,13.8c-0.2,0.2-0.4,0.3-0.6,0.3c-0.2,0-0.5-0.1-0.6-0.3
	c-0.3-0.4-0.3-0.9,0-1.3l2.3-2.2c0.4-0.3,0.9-0.3,1.3,0c0.3,0.4,0.3,0.9,0,1.3L11.8,13.8z M11.2,31.3c2.4,0,4.3,1.9,4.3,4.2
	c0,2.3-1.9,4.2-4.3,4.2c-2.4,0-4.3-1.9-4.3-4.2C7,33.2,8.9,31.3,11.2,31.3z M11.2,38c1.4,0,2.5-1.1,2.5-2.5c0-1.4-1.1-2.5-2.5-2.5
	c-1.4,0-2.5,1.1-2.5,2.5C8.8,36.9,9.9,38,11.2,38z M18.9,26.8h16.2c0.5,0,0.9,0.4,0.9,0.9v4.5V34v1.8v1.8V42c0,0.5-0.4,0.9-0.9,0.9
	H18.9c-0.5,0-0.9-0.4-0.9-0.9v-4.5v-1.8V34v-1.8v-4.5C18,27.2,18.4,26.8,18.9,26.8z M19.8,41.1h14.4v-3.6H19.8V41.1z M19.8,35.7
	h14.4V34H19.8V35.7z M19.8,32.2h14.4v-3.6H19.8V32.2z M42.7,31.3c2.4,0,4.3,1.9,4.3,4.2c0,2.3-1.9,4.2-4.3,4.2
	c-2.4,0-4.3-1.9-4.3-4.2C38.5,33.2,40.4,31.3,42.7,31.3z M42.7,38c1.4,0,2.5-1.1,2.5-2.5c0-1.4-1.1-2.5-2.5-2.5
	c-1.4,0-2.5,1.1-2.5,2.5C40.3,36.9,41.4,38,42.7,38z"/>
</svg>
