<?xml version="1.0" encoding="utf-8"?>
<!-- Generator: Adobe Illustrator 22.0.1, SVG Export Plug-In . SVG Version: 6.00 Build 0)  -->
<svg version="1.1" id="Layer_1" xmlns="http://www.w3.org/2000/svg" xmlns:xlink="http://www.w3.org/1999/xlink" x="0px" y="0px"
	 viewBox="0 0 52 60" style="enable-background:new 0 0 52 60;" xml:space="preserve">
<style type="text/css">
	.st0{fill:#111111;}
</style>
<path class="st0" d="M51,54h-7v5c0,0.6-0.4,1-1,1H1c-0.6,0-1-0.4-1-1V20c0-0.2,0.1-0.5,0.2-0.7l11.2-13C11.7,6.1,11.9,6,12.2,6h1.4
	L19,0.3C19.2,0.1,19.5,0,19.7,0H51c0.6,0,1,0.4,1,1v52C52,53.6,51.6,54,51,54z M2.3,20H12V8.8L2.3,20z M14,8v13c0,0.6-0.4,1-1,1H2
	v36h40V8H14.2C14.1,8,14.1,8,14,8z M50,2H20.2l-3.8,4H43c0.6,0,1,0.4,1,1v45h6V2z"/>
</svg>
