<?xml version="1.0" encoding="utf-8"?>
<!-- Generator: Adobe Illustrator 22.0.1, SVG Export Plug-In . SVG Version: 6.00 Build 0)  -->
<svg version="1.1" id="Layer_1" xmlns="http://www.w3.org/2000/svg" xmlns:xlink="http://www.w3.org/1999/xlink" x="0px" y="0px"
	 viewBox="0 0 71 74" style="enable-background:new 0 0 71 74;" xml:space="preserve">
<style type="text/css">
	.st0{fill:#111111;}
</style>
<path class="st0" d="M70,13h-2c-0.6,0-1-0.4-1-1c0-0.6,0.4-1,1-1h2c0.5,0,1,0.4,1,1C71,12.5,70.6,13,70,13z M65.5,6.8
	c-0.2,0.2-0.4,0.3-0.7,0.3c-0.3,0-0.5-0.1-0.7-0.3c-0.4-0.4-0.4-1,0-1.4l1.2-1.2c0.4-0.4,1-0.4,1.4,0c0.4,0.4,0.4,1,0,1.4L65.5,6.8z
	 M58,19c-3.2,0-5.8-2.6-5.8-5.9c0-3.2,2.6-5.9,5.8-5.9c3.2,0,5.8,2.6,5.8,5.9C63.9,16.4,61.3,19,58,19z M58,9.3
	c-2.1,0-3.9,1.7-3.9,3.9c0,2.1,1.7,3.9,3.9,3.9c2.1,0,3.9-1.7,3.9-3.9C61.9,11,60.2,9.3,58,9.3z M59.1,4c-0.6,0-1-0.4-1-1V1
	c0-0.6,0.4-1,1-1c0.5,0,1,0.4,1,1v2C60.1,3.5,59.6,4,59.1,4z M50,22.4c-0.2,0.2-0.4,0.3-0.7,0.3c-0.3,0-0.5-0.1-0.7-0.3
	c-0.4-0.4-0.4-1,0-1.4l1.8-1.8c0.4-0.4,1-0.4,1.4,0c0.4,0.4,0.4,1,0,1.4L50,22.4z M50.8,7.5c-0.3,0-0.5-0.1-0.7-0.3l-1.6-1.6
	c-0.4-0.4-0.4-1,0-1.4c0.4-0.4,1-0.4,1.4,0l1.6,1.6c0.4,0.4,0.4,1,0,1.4C51.4,7.4,51.1,7.5,50.8,7.5z M51.1,12c0,0.5-0.4,1-1,1h-2
	c-0.6,0-1-0.4-1-1c0-0.6,0.4-1,1-1h2C50.7,11,51.1,11.4,51.1,12z M59.5,44.7v3.6c0,0.5-0.4,1-1,1c-0.6,0-1-0.4-1-1
	c0-5.5-5.7-6.1-8.1-6.1c-3.7,0-7.7,1.7-7.7,6.6c0,0.5-0.4,1-1,1c-0.6,0-1-0.4-1-1c0-4.3-2.1-6.5-6.1-6.6v10v6v9.8
	c0,3.1-3.1,6.2-6.2,6.2h-0.6c-3.2,0-5.1-3.1-5.1-6.2V66c0-0.6,0.4-1,1-1c0.5,0,1,0.4,1,1v1.8c0,2.1,1.2,4.2,3.1,4.2h0.6
	c2,0,4.2-2.1,4.2-4.2V58v-6v-10h-0.5c-4,0-5.9,2.1-5.9,6.7c0,0.5-0.4,1-1,1c-0.6,0-1-0.4-1-1c0-5.4-3.7-6.5-6.8-6.5
	c-4.6,0-6.7,1.9-6.7,6.1c0,0.5-0.4,1-1,1c-0.6,0-1-0.4-1-1v-3.6c0-12.9,10-22.6,23.4-22.6h0.5v-6c0-0.6,0.4-1,1-1c0.5,0,1,0.4,1,1v6
	c0,0,0,0,0,0C47.4,22.3,59.5,32.8,59.5,44.7z M33.3,24.1h-2.1c-11.4,0-20.1,7.7-21.3,18.3c1.3-1.3,3.4-2.1,6.5-2.1
	c3.6,0,6.3,1.4,7.7,3.8c1.4-3.2,4.4-4,7-4h2.1c3.7,0,6.3,1.5,7.6,4.3c1.5-2.6,4.6-4.1,8.6-4.1c3.5,0,6.2,1,8,2.7
	C56.3,32.7,45.5,24.1,33.3,24.1z M30.8,5.6c-0.6,0-1-0.4-1-1v-2c0-0.6,0.4-1,1-1c0.5,0,1,0.4,1,1v2C31.8,5.2,31.4,5.6,30.8,5.6z
	 M26.8,13.6c-0.6,0-1-0.4-1-1v-4c0-0.6,0.4-1,1-1c0.5,0,1,0.4,1,1v4C27.8,13.2,27.4,13.6,26.8,13.6z M20.9,5.6c-0.6,0-1-0.4-1-1v-2
	c0-0.6,0.4-1,1-1c0.5,0,1,0.4,1,1v2C21.9,5.2,21.4,5.6,20.9,5.6z M16.9,13.6c-0.6,0-1-0.4-1-1v-4c0-0.6,0.4-1,1-1c0.5,0,1,0.4,1,1v4
	C17.9,13.2,17.4,13.6,16.9,13.6z M10.9,5.6c-0.6,0-1-0.4-1-1v-2c0-0.6,0.4-1,1-1c0.5,0,1,0.4,1,1v2C11.9,5.2,11.5,5.6,10.9,5.6z
	 M7,13.6c-0.6,0-1-0.4-1-1v-4c0-0.6,0.4-1,1-1c0.5,0,1,0.4,1,1v4C8,13.2,7.5,13.6,7,13.6z M1,5.6c-0.6,0-1-0.4-1-1v-2
	c0-0.6,0.4-1,1-1c0.5,0,1,0.4,1,1v2C2,5.2,1.5,5.6,1,5.6z M58.1,26.9v-4c0-0.6,0.4-1,1-1c0.5,0,1,0.4,1,1v4c0,0.5-0.4,1-1,1
	C58.5,27.9,58.1,27.5,58.1,26.9z M65.4,19.7l2.1,2.2c0.4,0.4,0.4,1,0,1.4c-0.2,0.2-0.4,0.3-0.7,0.3c-0.3,0-0.5-0.1-0.7-0.3L64,21.1
	c-0.4-0.4-0.4-1,0-1.4C64.4,19.3,65,19.3,65.4,19.7z"/>
</svg>
