<?xml version="1.0" encoding="utf-8"?>
<!-- Generator: Adobe Illustrator 22.0.1, SVG Export Plug-In . SVG Version: 6.00 Build 0)  -->
<svg version="1.1" id="Layer_1" xmlns="http://www.w3.org/2000/svg" xmlns:xlink="http://www.w3.org/1999/xlink" x="0px" y="0px"
	 viewBox="0 0 64 32" style="enable-background:new 0 0 64 32;" xml:space="preserve">
<style type="text/css">
	.st0{fill:#111111;}
</style>
<path class="st0" d="M48.1,32c-4.7,0-9.2-2.1-12.2-5.8c-0.4-0.5-0.3-1.1,0.1-1.5c0.5-0.4,1.1-0.3,1.5,0.1c2.6,3.2,6.5,5,10.6,5
	c7.6,0,13.7-6.2,13.7-13.8c0-7.6-6.2-13.8-13.7-13.8c-4.1,0-8,1.8-10.6,5c-0.4,0.5-1.1,0.5-1.5,0.1c-0.5-0.4-0.5-1.1-0.1-1.5
	c3-3.7,7.5-5.8,12.2-5.8C56.9,0,64,7.2,64,16S56.9,32,48.1,32z M16.8,17.3v-3.3c0-2.1,2-3.8,4.4-3.8h23.4c2.4,0,4.4,1.7,4.4,3.8v3.3
	c0,2.1-2,3.8-4.4,3.8H21.2C18.8,21.1,16.8,19.4,16.8,17.3z M46.9,17.3v-3.3c0-0.9-1-1.6-2.3-1.6H21.2c-1.2,0-2.3,0.7-2.3,1.6v3.3
	c0,0.9,1,1.6,2.3,1.6h23.4C45.8,19,46.9,18.2,46.9,17.3z M26.4,7.2c-2.6-3.2-6.5-5-10.6-5C8.3,2.2,2.2,8.4,2.2,16
	c0,7.6,6.2,13.8,13.7,13.8c4.1,0,8-1.8,10.6-5c0.4-0.5,1.1-0.5,1.5-0.1c0.5,0.4,0.5,1.1,0.1,1.5c-3,3.7-7.5,5.8-12.2,5.8
	C7.1,32,0,24.8,0,16S7.1,0,15.9,0c4.8,0,9.2,2.1,12.2,5.8C28.5,6.3,28.4,7,28,7.3C27.5,7.7,26.8,7.7,26.4,7.2z"/>
</svg>
