<?xml version="1.0" encoding="utf-8"?>
<!-- Generator: Adobe Illustrator 22.0.1, SVG Export Plug-In . SVG Version: 6.00 Build 0)  -->
<svg version="1.1" id="Layer_1" xmlns="http://www.w3.org/2000/svg" xmlns:xlink="http://www.w3.org/1999/xlink" x="0px" y="0px"
	 viewBox="0 0 255 395.1" style="enable-background:new 0 0 255 395.1;" xml:space="preserve">
<g>
	<g>
		<path d="M186.4,161.3c-5.5-5.5-12.8-8.5-20.6-8.5c-7.8,0-15.1,3-20.6,8.5c-3.2,3.2-3.2,8.3,0,11.5c3.2,3.2,8.3,3.2,11.5,0
			c2.4-2.4,5.7-3.8,9.1-3.8s6.7,1.3,9.1,3.8c1.6,1.6,3.7,2.4,5.7,2.4s4.1-0.8,5.7-2.4C189.6,169.6,189.6,164.5,186.4,161.3z"/>
	</g>
</g>
<g>
	<g>
		<path d="M109.4,161.3c-5.5-5.5-12.8-8.5-20.6-8.5c-7.8,0-15.1,3-20.6,8.5c-3.2,3.2-3.2,8.3,0,11.5c3.2,3.2,8.3,3.2,11.5,0
			c2.4-2.4,5.7-3.8,9.1-3.8s6.7,1.3,9.1,3.8c1.6,1.6,3.7,2.4,5.7,2.4c2.1,0,4.2-0.8,5.7-2.4C112.5,169.6,112.5,164.5,109.4,161.3z"
			/>
	</g>
</g>
<g>
	<g>
		<path d="M149.9,214.5c-3.2-3.2-8.3-3.2-11.5,0c-6.1,6.1-16.1,6.1-22.2,0c-3.2-3.2-8.3-3.2-11.5,0c-3.2,3.2-3.2,8.3,0,11.5
			c6,6,14,9.3,22.6,9.3s16.5-3.3,22.6-9.3C153.1,222.8,153.1,217.7,149.9,214.5z"/>
	</g>
</g>
<g>
	<g>
		<path d="M132.8,179.1h-11c-4.5,0-8.1,3.6-8.1,8.1c0,4.5,3.6,8.1,8.1,8.1h11c4.5,0,8.1-3.6,8.1-8.1
			C140.9,182.8,137.3,179.1,132.8,179.1z"/>
	</g>
</g>
<g>
	<g>
		<path d="M254.6,144.8c0-10.9-6.1-20.3-15.1-25l10.5-14.4c4.9-6.7,5.8-15.3,2.4-22.9s-10.3-12.7-18.6-13.6
			c-4.4-0.5-8.4,2.7-8.9,7.2c-0.5,4.5,2.7,8.4,7.2,8.9c3.5,0.4,5,2.9,5.5,4c0.5,1.1,1.4,3.9-0.7,6.8l-17.6,24.1
			c-2.1,2.9-5.1,2.9-6.3,2.8c-1.2-0.1-4.1-0.8-5.5-4l-12.4-27.9c2.8-2.5,5-5.5,6.5-9l8.3,0.9c0.3,0,0.6,0,0.9,0c4.1,0,7.6-3.1,8-7.2
			c0.5-4.5-2.7-8.4-7.2-8.9l-8.3-0.9c-2.5-12-13.1-21-25.9-21c-0.9,0-1.9,0.1-2.8,0.1l-12.4-27.9c-3.4-7.6-10.3-12.7-18.6-13.6
			c-8.3-0.9-16.2,2.6-21.1,9.3l-17.6,24.1c-4.9,6.7-5.8,15.3-2.4,22.9c3.4,7.6,10.3,12.7,18.6,13.6l30.4,3.2c0.4,2.1,1.1,4.1,2,6
			c-20.6,20.2-55.5,39.9-108.7,28c7.5-23.9,25.2-43.7,48.7-53.6c4.1-1.7,6.1-6.5,4.3-10.6s-6.5-6.1-10.6-4.3
			C56,55.2,33.3,83.4,26.8,116.6C11.9,117.3,0,129.7,0,144.8c0,12.9,8.6,23.8,20.4,27.2c-1.7,27.6,10.9,54.5,33.5,70.9l6.4,4.7
			c-23.7,10.6-39.8,34.4-39.8,61.3v17.6c0,4.5,3.6,8.1,8.1,8.1s8.1-3.6,8.1-8.1v-17.6c0-19.7,11.4-37.3,28.4-45.7
			c5.2,29.6,31.1,52.2,62.2,52.2c25.4,0,48.3-15.1,58.2-38.6c1.7-4.1-0.2-8.9-4.3-10.6c-4.1-1.7-8.9,0.2-10.6,4.3
			c-7.4,17.4-24.4,28.7-43.3,28.7c-22.1,0-40.8-15.4-45.7-36.1l9.2,6.7c10.9,7.9,23.7,11.9,36.5,11.9s25.6-4,36.5-11.9l14.5-10.5
			c23.1,5.2,39.7,25.9,39.7,49.7v70.3h-22v-57.7c0-4.5-3.6-8.1-8.1-8.1s-8.1,3.6-8.1,8.1v57.7H75v-57.7c0-4.5-3.6-8.1-8.1-8.1
			s-8.1,3.6-8.1,8.1v57.7h-22v-23.1c0-4.5-3.6-8.1-8.1-8.1s-8.1,3.6-8.1,8.1v31.2c0,4.5,3.6,8.1,8.1,8.1H226c4.5,0,8.1-3.6,8.1-8.1
			v-78.4c0-26.9-16.1-50.8-39.8-61.3l6.4-4.7c22.5-16.4,35.1-43.2,33.5-70.9C246.1,168.6,254.6,157.7,254.6,144.8z M22.2,155.3
			c-3.6-2.1-6-6-6-10.4c0-5.4,3.5-9.9,8.4-11.5L22.2,155.3z M177.6,60.8c5.6,0,10.2,4.6,10.2,10.2s-4.6,10.2-10.2,10.2
			s-10.2-4.6-10.2-10.2S172,60.8,177.6,60.8z M153.5,60.3l-30.4-3.2c-3.5-0.4-5-2.9-5.5-4s-1.4-3.9,0.7-6.8l17.6-24.1
			c2.1-2.9,5.1-2.9,6.3-2.8c1.2,0.1,4.1,0.8,5.5,4L160,51.3C157.2,53.8,155,56.9,153.5,60.3z M191.2,229.8l-36.9,26.8
			c-16.1,11.7-37.8,11.7-53.9,0l-36.9-26.8c-19-13.8-29.1-36.8-26.6-60.1l4.8-43c0-0.2,0-0.3,0.1-0.5c12.5,2.8,24.1,4.1,34.9,4.1
			c30.6,0,54.3-10,72.2-22.6c4.7,5.7,12.5,13.7,23.6,20.1c4.2,2.4,9.6,0.7,11.5-3.8c1.7-3.8,0.1-8.2-3.4-10.3
			c-9-5.2-15.4-11.7-19.1-16.2c1.2-1.1,2.4-2.2,3.6-3.4c3.8,2.1,8.1,3.3,12.7,3.3c0.9,0,1.9-0.1,2.8-0.1l12.4,27.9
			c3.4,7.6,10.3,12.7,18.6,13.6c0.8,0.1,1.7,0.1,2.5,0.1c0.1,0,0.3,0,0.4,0l3.4,30.8C220.3,193,210.2,216.1,191.2,229.8z
			 M232.5,155.3l-2.4-21.9c4.9,1.6,8.4,6.1,8.4,11.5C238.4,149.3,236,153.2,232.5,155.3z"/>
	</g>
</g>
</svg>
