<?xml version="1.0" encoding="utf-8"?>
<!-- Generator: Adobe Illustrator 22.0.1, SVG Export Plug-In . SVG Version: 6.00 Build 0)  -->
<svg version="1.1" id="Layer_1" xmlns="http://www.w3.org/2000/svg" xmlns:xlink="http://www.w3.org/1999/xlink" x="0px" y="0px"
	 viewBox="0 0 259 427" style="enable-background:new 0 0 259 427;" xml:space="preserve">
<g>
	<g>
		<path d="M208.4,26.2c-3.7-2.5-8.8-1.4-11.2,2.3s-1.4,8.8,2.3,11.2c22,14.5,36.3,35.2,41.3,59.5c-3.7-2.8-7.9-5.6-12.6-8.3
			c-24-13.6-49.2-15.7-72.8-6.2c-33.2,13.4-49.6,6.1-59.1-0.7c-2.6-1.9-5.2-4.1-7.9-6.7c-3.2-3.2-8.3-3.2-11.5,0
			c-3.2,3.2-3.2,8.3,0,11.5c1.4,1.4,2.9,2.8,4.3,4c-8.5,11.9-28.5,17.1-40.3,18.8c-4.5-8.8-13.1-29.1-6.1-44.8
			C50,32.6,97.1,20.4,132.7,20.4c16.9,0,33.9,3.4,49,9.9c4.1,1.8,8.9-0.2,10.6-4.3c1.8-4.1-0.2-8.9-4.3-10.6
			C171,8.1,151.8,4.2,132.7,4.2C68,4.2,32,33.2,20,60.3c-10.8,24.3,3.4,53.2,8.1,61.8l-0.7,6.8C13,130.8,1.8,143.2,1.8,158.2
			c0,13,8.4,24.1,20.2,28c-2.4,27,9.7,53.6,31.6,69.5l1.7,1.2c-24.5,11.3-41,36.1-41,64.1v96.7c0,4.5,3.6,8.1,8.1,8.1h208.9
			c4.5,0,8.1-3.6,8.1-8.1V321c0-13.9-4-27.3-11.7-38.9c-2.5-3.7-7.5-4.8-11.2-2.3c-3.7,2.5-4.8,7.5-2.3,11.2c5.9,8.9,9,19.2,9,29.9
			v43.7h-24.3v-30.4c0-4.5-3.6-8.1-8.1-8.1s-8.1,3.6-8.1,8.1v75.3H71v-75.3c0-4.5-3.6-8.1-8.1-8.1s-8.1,3.6-8.1,8.1v30.4H30.5V321
			c0-21.3,12.4-40.2,30.9-49c1.2,7.3,3.6,14.3,7.1,20.8c1.5,2.7,4.3,4.2,7.1,4.2c1.3,0,2.6-0.3,3.9-1c3.9-2.1,5.4-7.1,3.2-11
			c-1.9-3.6-3.4-7.4-4.4-11.3l12.8,9.3c10.7,7.8,23.2,11.6,35.7,11.6c12.5,0,25-3.9,35.7-11.6l12.8-9.3
			c-5.6,21.6-25.2,37.5-48.5,37.5c-11.5,0-22.3-3.8-31.2-10.9c-3.5-2.8-8.6-2.2-11.4,1.3c-2.8,3.5-2.2,8.6,1.3,11.4
			c11.7,9.3,26.4,14.5,41.4,14.5c32.9,0,60.2-24,65.4-55.4c2.4,1.1,4.7,2.5,6.9,4c1.4,0.9,3,1.4,4.5,1.4c2.6,0,5.2-1.2,6.7-3.6
			c2.5-3.7,1.5-8.7-2.2-11.3c-3.2-2.1-6.5-4-9.9-5.6l1.7-1.2c21.9-15.9,34-42.5,31.6-69.5c11.8-3.9,20.2-15,20.2-28
			c0-15-11.2-27.4-25.7-29.2l-0.9-9.4c-0.4-4.5-4.4-7.7-8.8-7.3c-4.5,0.4-7.7,4.4-7.3,8.8l6.4,66c2.1,21.5-7.5,42.7-25,55.4
			L153,269.9c-15.6,11.4-36.7,11.4-52.3,0l-37.6-27.3c-17.5-12.7-27-33.9-25-55.4l5.7-59.5c12.4-1.9,38.2-7.8,50.7-25.6
			c18.3,9.3,40.2,8.5,66.8-2.2c19-7.7,38.7-6,58.3,5c15.3,8.6,24.9,19.8,24.9,19.9c1.6,1.9,3.9,2.9,6.2,2.9c0.9,0,1.9-0.2,2.8-0.5
			c3.2-1.2,5.3-4.2,5.3-7.6C259,80.8,241,47.7,208.4,26.2z M23.6,169c-3.4-2.4-5.6-6.4-5.6-10.9c0-5.4,3.2-10,7.8-12.1L23.6,169z
			 M198.9,380.9h24.3v28.7h-24.3V380.9z M54.8,380.9v28.7H30.5v-28.7H54.8z M235.7,158.2c0,4.5-2.2,8.4-5.6,10.8l-2.2-22.9
			C232.5,148.2,235.7,152.8,235.7,158.2z"/>
	</g>
</g>
<g>
	<g>
		<path d="M86.1,165.8c-4.5,0-8.1,3.6-8.1,8.1v11c0,4.5,3.6,8.1,8.1,8.1s8.1-3.6,8.1-8.1v-11C94.2,169.4,90.5,165.8,86.1,165.8z"/>
	</g>
</g>
<g>
	<g>
		<path d="M189.1,141.6c-5.7-5.7-13.3-8.9-21.4-8.9s-15.7,3.2-21.4,8.9c-3.2,3.2-3.2,8.3,0,11.5c3.2,3.2,8.3,3.2,11.5,0
			c2.7-2.7,6.2-4.1,10-4.1s7.3,1.5,10,4.1c1.6,1.6,3.7,2.4,5.7,2.4c2.1,0,4.1-0.8,5.7-2.4C192.2,149.9,192.2,144.7,189.1,141.6z"/>
	</g>
</g>
<g>
	<g>
		<path d="M107.5,141.6c-5.7-5.7-13.3-8.9-21.4-8.9s-15.7,3.2-21.4,8.9c-3.2,3.2-3.2,8.3,0,11.5c3.2,3.2,8.3,3.2,11.5,0
			c2.7-2.7,6.2-4.1,10-4.1s7.3,1.5,10,4.1c1.6,1.6,3.7,2.4,5.7,2.4c2.1,0,4.1-0.8,5.7-2.4C110.7,149.9,110.7,144.7,107.5,141.6z"/>
	</g>
</g>
<g>
	<g>
		<path d="M167.6,165.8c-4.5,0-8.1,3.6-8.1,8.1v11c0,4.5,3.6,8.1,8.1,8.1s8.1-3.6,8.1-8.1v-11C175.7,169.4,172.1,165.8,167.6,165.8z
			"/>
	</g>
</g>
<g>
	<g>
		<path d="M150.4,228.4c-3.2-3.2-8.3-3.2-11.5,0c-6.7,6.7-17.5,6.7-24.2,0c-3.2-3.2-8.3-3.2-11.5,0c-3.2,3.2-3.2,8.3,0,11.5
			c6.5,6.5,15,9.7,23.5,9.7c8.5,0,17.1-3.2,23.5-9.7C153.6,236.7,153.6,231.5,150.4,228.4z"/>
	</g>
</g>
<g>
	<g>
		<path d="M133.7,166.7c-4.5,0-8.1,3.6-8.1,8.1v19.4H120c-4.5,0-8.1,3.6-8.1,8.1s3.6,8.1,8.1,8.1h13.7c4.5,0,8.1-3.6,8.1-8.1v-27.5
			C141.8,170.3,138.2,166.7,133.7,166.7z"/>
	</g>
</g>
</svg>
