<?xml version="1.0" encoding="utf-8"?>
<!-- Generator: Adobe Illustrator 22.0.1, SVG Export Plug-In . SVG Version: 6.00 Build 0)  -->
<svg version="1.1" id="Layer_1" xmlns="http://www.w3.org/2000/svg" xmlns:xlink="http://www.w3.org/1999/xlink" x="0px" y="0px"
	 viewBox="0 0 469.3 512" style="enable-background:new 0 0 469.3 512;" xml:space="preserve">
<path d="M448,128h-42.7V85.3c0-11.8-9.6-21.3-21.3-21.3h-42.7c0-35.3-28.7-64-64-64H256c-35.3,0-64,28.7-64,64h-64
	c-5.7,0-11.1,2.3-15.1,6.2L6.2,176.9c-4,4-6.2,9.4-6.2,15.1v234.7C0,438.4,9.6,448,21.3,448H64v42.7c0,11.8,9.6,21.3,21.3,21.3l0,0
	H448c11.8,0,21.3-9.6,21.3-21.3V149.3C469.3,137.6,459.8,128,448,128z M256,42.7h21.3c11.8,0,21.3,9.6,21.3,21.3h-64
	C234.7,52.2,244.2,42.7,256,42.7z M106.7,136.8v33.8H72.8L106.7,136.8z M42.7,213.3H128c11.8,0,21.3-9.6,21.3-21.3v-85.3H192v64
	c0,23.6,19.1,42.6,42.7,42.7H256c23.6,0,42.6-19.1,42.7-42.7V128H256v42.7h-21.3v-64h128v298.7h-320V213.3z M426.7,469.3h-320V448
	H384c11.8,0,21.3-9.6,21.3-21.3v-256h21.3V469.3z"/>
</svg>
