<?xml version="1.0" encoding="utf-8"?>
<!-- Generator: Adobe Illustrator 22.0.1, SVG Export Plug-In . SVG Version: 6.00 Build 0)  -->
<svg version="1.1" id="Слой_1" xmlns="http://www.w3.org/2000/svg" xmlns:xlink="http://www.w3.org/1999/xlink" x="0px" y="0px"
	 viewBox="0 0 396 511" style="enable-background:new 0 0 396 511;" xml:space="preserve">
<path d="M388.2,88.2c2.8,49.6-36.3,90.4-85.1,90.4c-44.4,0-81.2-34.1-85-77.9h-23.3c-8.3,0-15-6.7-15-15c0-8.3,6.7-15,15-15h23V43.9
	c0-24.8,20.2-44.9,44.9-44.9h80.8c24.8,0,44.9,20.2,44.9,44.9C388.4,55.2,388.2,77.1,388.2,88.2z M280.9,281.9
	c5.8-5.8,15.3-5.9,21.1-0.1c5.8,5.8,5.9,15.3,0.1,21.1l-54.5,54.9V495c0,8.3-6.7,15-15,15c-8.3,0-15-6.7-15-15V388
	c-8.8,8.8-13.6,14.7-26.2,18.6c-6.3,1.9-12.7,2.6-19,2.6H46.8c-24.7,0-44.9-20.2-44.9-44.9c0-24.7,20.2-44.9,44.9-44.9h112.3
	l80.5-82.4c7.9-8.8,17.6-15.9,28.5-20.8c56.4-25.4,120.2,16.3,120.2,77.8V495c0,8.3-6.7,15-15,15c-8.3,0-15-6.7-15-15V293.9
	c0-40-41.7-66.9-78-50.6c-10.3,4.7-12.5,8.6-20.2,15.3L176.8,344c-2.7,3.3-6.9,5.3-11.5,5.3H46.8c-13,0-20.1,16-10.6,25.5
	c2.7,2.7,6.5,4.4,10.6,4.4h125.8c6,0,12.4-0.7,16.6-4.9L280.9,281.9z M111.9,182.6v5.8c0,8.3-6.7,15-15,15s-15-6.7-15-15v-5.8H58
	v76.9h77.8v-76.9H111.9z M43,152.7c-8.3,0-15,6.7-15,15v106.8c0,8.3,6.7,15,15,15h107.8c8.3,0,15-6.7,15-15V167.7
	c0-8.3-6.7-15-15-15H43z M248.1,100.8c3.7,27.2,27,47.9,54.9,47.9c27.9,0,51.2-20.7,54.9-47.9H248.1z M343.4,28.9h-80.8
	c-8.2,0-15,6.7-15,15v26.9h110.8V43.9C358.4,35.7,351.7,28.9,343.4,28.9z"/>
</svg>
