<?xml version="1.0" encoding="utf-8"?>
<!-- Generator: Adobe Illustrator 22.0.1, SVG Export Plug-In . SVG Version: 6.00 Build 0)  -->
<svg version="1.1" id="Layer_1" xmlns="http://www.w3.org/2000/svg" xmlns:xlink="http://www.w3.org/1999/xlink" x="0px" y="0px"
	 viewBox="0 0 512 469.3" style="enable-background:new 0 0 512 469.3;" xml:space="preserve">
<path d="M512,0H0v42.7h25.2l81.9,409.5c2,10,10.8,17.1,20.9,17.1h256c10.2,0,18.9-7.2,20.9-17.1l81.9-409.5H512V0z M222,320l-6.4-64
	h80.9l-6.4,64H222z M285.8,362.7l-6.4,64h-46.7l-6.4-64H285.8z M90,149.3h72l6.4,64h-65.6L90,149.3z M111.4,256h61.3l6.4,64h-54.9
	L111.4,256z M339.3,256h61.3l-12.8,64h-54.9L339.3,256z M343.6,213.3l6.4-64h72l-12.8,64H343.6z M300.7,213.3h-89.4l-6.4-64h102.2
	L300.7,213.3z M200.6,106.7l-6.4-64h123.5l-6.4,64H200.6z M151.4,42.7l6.4,64H81.5l-12.8-64H151.4z M132.7,362.7h50.7l6.4,64h-44.3
	L132.7,362.7z M322.2,426.7l6.4-64h50.7l-12.8,64H322.2z M430.5,106.7h-76.3l6.4-64h82.7L430.5,106.7z"/>
</svg>
