<?xml version="1.0" encoding="utf-8"?>
<!-- Generator: Adobe Illustrator 22.0.1, SVG Export Plug-In . SVG Version: 6.00 Build 0)  -->
<svg version="1.1" id="Capa_1" xmlns="http://www.w3.org/2000/svg" xmlns:xlink="http://www.w3.org/1999/xlink" x="0px" y="0px"
	 viewBox="0 0 399.4 482.4" style="enable-background:new 0 0 399.4 482.4;" xml:space="preserve">
<g>
	<g>
		<path d="M339.2,57.8h-75.1C260.3,25.3,232.7,0,199.2,0c-33.5,0-61.1,25.3-64.8,57.8H59.3c-30.4,0-55.1,24.7-55.1,55.1v2.8
			c0,23.2,14.5,43.1,34.8,51.2v260.4c0,30.4,24.7,55.1,55.1,55.1h210.2c30.4,0,55.1-24.7,55.1-55.1V166.9
			c20.4-8.1,34.8-28,34.8-51.2v-2.8C394.3,82.5,369.6,57.8,339.2,57.8z M199.2,26.1c19,0,34.9,13.6,38.4,31.7h-76.9
			C164.3,39.8,180.2,26.1,199.2,26.1z M333.3,427.3c0,16-13,29-29,29H94.1c-16,0-29-13-29-29V170.9h268.2V427.3z M368.1,115.7
			c0,16-13,29-29,29H59.3c-16,0-29-13-29-29v-2.8c0-16,13-29,29-29h279.9c16,0,29,13,29,29L368.1,115.7L368.1,115.7z"/>
		<path d="M129.1,422.9c7.2,0,13.1-5.9,13.1-13.1V262.6c0-7.2-5.9-13.1-13.1-13.1s-13.1,5.9-13.1,13.1v147.2
			C116.1,417,121.9,422.9,129.1,422.9z"/>
		<path d="M199.2,422.9c7.2,0,13.1-5.9,13.1-13.1V262.6c0-7.2-5.9-13.1-13.1-13.1c-7.2,0-13.1,5.9-13.1,13.1v147.2
			C186.1,417,192,422.9,199.2,422.9z"/>
		<path d="M269.3,422.9c7.2,0,13.1-5.9,13.1-13.1V262.6c0-7.2-5.9-13.1-13.1-13.1c-7.2,0-13.1,5.9-13.1,13.1v147.2
			C256.2,417,262.1,422.9,269.3,422.9z"/>
	</g>
</g>
</svg>
