<?xml version="1.0" encoding="utf-8"?>
<!-- Generator: Adobe Illustrator 22.0.1, SVG Export Plug-In . SVG Version: 6.00 Build 0)  -->
<svg version="1.1" id="Layer_1" xmlns="http://www.w3.org/2000/svg" xmlns:xlink="http://www.w3.org/1999/xlink" x="0px" y="0px"
	 viewBox="0 0 475.9 503.9" style="enable-background:new 0 0 475.9 503.9;" xml:space="preserve">
<path d="M451,52.4c-22.1-22-54.4-30.3-84.3-21.5L277.5,1.1c-7.7-2.6-16.1-0.6-21.8,5.2L150.1,111.8l30.2,30.2l96.3-96.3l45.3,15.1
	L58.8,323.9c-2.3,2.3-4.1,5.2-5.2,8.3l-43.7,131c-3.3,3.3-7,6.4-9.9,9.9c-1,1.3,28.7,30.9,29.5,30.8c0.5,0,8.9-8.9,10.6-10.6
	l131-43.7c3.1-1.1,6-2.8,8.3-5.2L451,173C484.2,139.7,484.2,85.7,451,52.4L451,52.4z M255.7,187.3l60.3,60.3L164.4,399.3L104,339
	L255.7,187.3z M62.3,441l20.8-62.5l41.7,41.7L62.3,441z M420.8,142.9l-74.6,74.6l-60.3-60.3l74.6-74.6c16.7-16.7,43.7-16.7,60.3,0
	C437.5,99.2,437.5,126.2,420.8,142.9L420.8,142.9z"/>
</svg>
