<?xml version="1.0" encoding="utf-8"?>
<!-- Generator: Adobe Illustrator 22.0.1, SVG Export Plug-In . SVG Version: 6.00 Build 0)  -->
<svg version="1.1" id="Capa_1" xmlns="http://www.w3.org/2000/svg" xmlns:xlink="http://www.w3.org/1999/xlink" x="0px" y="0px"
	 viewBox="0 0 487.9 785.3" style="enable-background:new 0 0 487.9 785.3;" xml:space="preserve">
<g>
	<g>
		<path d="M243.9,233.3c-55.2,0-100,44.8-100,100c0.1,55.2,44.8,99.9,100,100c55.2,0,100-44.8,100-100
			C343.9,278.1,299.1,233.3,243.9,233.3z M243.9,400c-36.8,0-66.7-29.8-66.7-66.7c0-36.8,29.8-66.7,66.7-66.7s66.7,29.8,66.7,66.7
			C310.6,370.2,280.7,400,243.9,400z"/>
	</g>
</g>
<g>
	<g>
		<path d="M422.6,477.5c-5.5-5.5-11.3-10.7-17.4-15.6l0.2-0.5c54.9-169.5-6.5-355.1-151.8-458.3C247.8-1,240-1,234.2,3.1
			C88.9,106.3,27.5,291.9,82.4,461.4l0.2,0.5C-9.1,535.5-23.7,669.4,49.9,761.1c4.9,6.1,10.1,11.9,15.6,17.4
			c3.1,3.1,7.4,4.9,11.8,4.9c1.8,0,3.6-0.3,5.3-0.9c6-2,10.3-7.2,11.2-13.5l12.6-88.1c1.2-8.2,8.2-14.3,16.5-14.3h50.8L160.9,730
			c-1.8,9,4,17.8,13,19.7c1.1,0.2,2.2,0.3,3.3,0.3h133.3c9.2,0,16.7-7.5,16.7-16.7c0-1.1-0.1-2.2-0.3-3.3l-12.7-63.3H365
			c8.3,0,15.3,6.1,16.5,14.3l12.6,88c0.9,6.3,5.2,11.5,11.2,13.5c1.7,0.6,3.5,0.8,5.3,0.9c4.4,0,8.7-1.8,11.8-4.9
			C505.5,695.4,505.6,560.7,422.6,477.5z M243.9,37.4c40.1,30.6,73.6,68.9,98.5,112.6H145.4C170.3,106.2,203.8,67.9,243.9,37.4z
			 M122.8,633.3c-24.8,0.1-45.9,18.4-49.5,42.9l-7.2,50.5c-22.3-33.6-32.5-73.8-29.1-114h0c3.7-44.6,23.9-86.3,56.7-116.8
			l44.1,137.3L122.8,633.3L122.8,633.3z M197.6,716.7l10-50h72.7l10,50H197.6z M172.7,633.3l-54.9-170.7l-3.7-11.4
			c-28.4-88-23.3-183.4,14.4-267.9h230.6c37.7,84.5,42.8,179.9,14.4,267.9l-3.7,11.4l-54.9,170.7H172.7z M421.7,726.8l-7.2-50.5
			c-3.6-24.6-24.6-42.8-49.5-42.9h-14.9L394.2,496c32.8,30.5,53,72.2,56.6,116.8C454.2,653,444,693.2,421.7,726.8z"/>
	</g>
</g>
</svg>
