<svg xmlns="http://www.w3.org/2000/svg" xmlns:xlink="http://www.w3.org/1999/xlink" width="24" height="28.97" viewBox="0 0 24 28.97">
  <metadata><?xpacket begin="﻿" id="W5M0MpCehiHzreSzNTczkc9d"?>
<x:xmpmeta xmlns:x="adobe:ns:meta/" x:xmptk="Adobe XMP Core 5.6-c142 79.160924, 2017/07/13-01:06:39        ">
   <rdf:RDF xmlns:rdf="http://www.w3.org/1999/02/22-rdf-syntax-ns#">
      <rdf:Description rdf:about=""/>
   </rdf:RDF>
</x:xmpmeta>
                                                                                                    
                                                                                                    
                                                                                                    
                                                                                                    
                                                                                                    
                                                                                                    
                                                                                                    
                                                                                                    
                                                                                                    
                                                                                                    
                                                                                                    
                                                                                                    
                                                                                                    
                                                                                                    
                                                                                                    
                                                                                                    
                                                                                                    
                                                                                                    
                                                                                                    
                                                                                                    
                           
<?xpacket end="w"?></metadata>
<defs>
    <style>
      .cls-1 {
        fill-rule: evenodd;
        filter: url(#filter);
      }
    </style>
    <filter id="filter" x="151" y="2023.03" width="24" height="28.97" filterUnits="userSpaceOnUse">
      <feFlood result="flood" flood-color="#fff"/>
      <feComposite result="composite" operator="in" in2="SourceGraphic"/>
      <feBlend result="blend" in2="SourceGraphic"/>
    </filter>
  </defs>
  <path id="_3" data-name="3" class="cls-1" d="M163,2051.99c6.617,0,12-5.1,12-11.37,0-6.12-11.013-16.95-11.482-17.4a0.728,0.728,0,0,0-1.038,0c-0.469.45-11.482,11.28-11.482,17.4,0,6.27,5.384,11.37,12,11.37h0Zm0-27.16c3.357,3.39,10.5,11.49,10.5,15.79,0,5.43-4.711,9.85-10.5,9.85s-10.5-4.42-10.5-9.85c0-4.3,7.144-12.4,10.5-15.79h0Zm-5.251,18.01h3v3.05a1.518,1.518,0,0,0,1.5,1.53h1.5a1.518,1.518,0,0,0,1.5-1.53v-3.05h3a1.513,1.513,0,0,0,1.5-1.53v-1.52a1.513,1.513,0,0,0-1.5-1.53h-3v-3.05a1.518,1.518,0,0,0-1.5-1.53h-1.5a1.518,1.518,0,0,0-1.5,1.53v3.05h-3a1.512,1.512,0,0,0-1.5,1.53v1.52A1.512,1.512,0,0,0,157.749,2042.84Zm0-3.05h3a1.519,1.519,0,0,0,1.5-1.53v-3.05h1.5v3.05a1.519,1.519,0,0,0,1.5,1.53h3v1.52h-3a1.519,1.519,0,0,0-1.5,1.53v3.05h-1.5v-3.05a1.519,1.519,0,0,0-1.5-1.53h-3v-1.52Z" transform="translate(-151 -2023.03)"/>
</svg>
