<?xml version="1.0" encoding="utf-8"?>
<!-- Generator: Adobe Illustrator 22.0.1, SVG Export Plug-In . SVG Version: 6.00 Build 0)  -->
<svg version="1.1" id="Layer_1" xmlns="http://www.w3.org/2000/svg" xmlns:xlink="http://www.w3.org/1999/xlink" x="0px" y="0px"
	 viewBox="0 0 60 60" style="enable-background:new 0 0 60 60;" xml:space="preserve">
<style type="text/css">
	.st0{fill:#111111;}
</style>
<path class="st0" d="M47.9,54c0,0.1-0.1,0.2-0.2,0.2c-0.1,0.2-0.3,0.2-0.5,0.3C42.3,57.9,36.4,60,30,60C13.5,60,0,46.5,0,30
	S13.5,0,30,0c16.5,0,30,13.5,30,30C60,39.8,55.2,48.5,47.9,54z M45.2,53.4c-1.2-0.7-2.8-1-4.8-1h-2.8c-0.3,0-0.6-0.2-0.8-0.4
	l-3.3-4.4c-1.1,0.6-2.3,1-3.6,1c-1.2,0-2.4-0.3-3.5-0.9L23.3,52c-0.2,0.3-0.5,0.4-0.8,0.4h-2.8c-2,0-3.6,0.4-4.8,1
	C19.2,56.3,24.4,58,30,58C35.6,58,40.8,56.3,45.2,53.4z M39.4,21.8c0.6-1.6,0.4-3.4-0.6-4.7c-1-1.5-2.6-2.3-4.6-2.3
	c-1.7,0-3.6,0.6-5.6,1.9c-0.2,0.1-0.3,0.2-0.5,0.2c-6.9,0-7.4,2.3-7.4,5.4c0,0.1,0,0.3-0.1,0.4c0,0.1-2.3,5.8,0.4,11.9
	c0.1,0.1,0.1,0.3,0.1,0.4c0,5.2,4.2,11.7,8.9,11.7c4.7,0,8.9-6.5,8.9-11.7c0-0.3,0.1-0.6,0.4-0.8c2-1.7,1.1-8,0.1-11.7
	C39.3,22.2,39.3,22,39.4,21.8z M30,2C14.6,2,2,14.6,2,30c0,9.1,4.3,17.1,11,22.2c1.6-1.2,3.8-1.8,6.6-1.8H22l2.8-3.9
	c-3.3-2.6-5.6-7.3-5.7-11.5c-2.7-6.3-0.8-12-0.4-13.1c0-3.7,1.3-7.1,9.2-7.2c5-3,10.2-2.4,12.6,1.1c1.3,1.8,1.6,4.2,0.9,6.3
	c0.5,1.9,2.5,10-0.5,13.1c-0.2,4.1-2.4,8.6-5.6,11.2l2.9,3.9h2.3c2.7,0,4.9,0.6,6.5,1.8C53.6,47.1,58,39,58,30C58,14.6,45.4,2,30,2z
	"/>
</svg>
