<?xml version="1.0" encoding="utf-8"?>
<!-- Generator: Adobe Illustrator 22.0.1, SVG Export Plug-In . SVG Version: 6.00 Build 0)  -->
<svg version="1.1" id="Layer_1" xmlns="http://www.w3.org/2000/svg" xmlns:xlink="http://www.w3.org/1999/xlink" x="0px" y="0px"
	 viewBox="0 0 55.9 55.9" style="enable-background:new 0 0 55.9 55.9;" xml:space="preserve">
<style type="text/css">
	.st0{fill:#111111;}
</style>
<path class="st0" d="M55.7,1.6l-10,12.6c-0.2,0.2-0.4,0.4-0.7,0.4c0,0,0,0-0.1,0c-0.3,0-0.5-0.1-0.7-0.3l-5-5c-0.4-0.4-0.4-1,0-1.4
	c0.4-0.4,1-0.4,1.4,0l4.2,4.2l9.3-11.7c0.3-0.4,1-0.5,1.4-0.2C55.9,0.6,56,1.2,55.7,1.6z M21.9,28.4h17.9c0.5,0,1,0.4,1,1
	c0,0.6-0.4,1-1,1H21.9c-0.6,0-1-0.5-1-1C20.9,28.9,21.4,28.4,21.9,28.4z M21.9,36.5h23.9c0.5,0,1,0.5,1,1c0,0.6-0.4,1-1,1H21.9
	c-0.6,0-1-0.5-1-1C20.9,36.9,21.4,36.5,21.9,36.5z M21.9,32.5h23.9c0.5,0,1,0.4,1,1c0,0.6-0.4,1-1,1H21.9c-0.6,0-1-0.5-1-1
	C20.9,32.9,21.4,32.5,21.9,32.5z M54.5,24.9c0.2,0.3,0.2,0.6,0.1,0.9l-6.6,18.1c-0.1,0.4-0.5,0.7-0.9,0.7H19.6
	c-0.4,0-0.8-0.3-0.9-0.6L8.2,16.4H2v2c0,0.6-0.4,1-1,1c-0.6,0-1-0.5-1-1v-3c0-0.6,0.4-1,1-1h7.9c0.4,0,0.8,0.3,0.9,0.6l10.4,27.5h26
	l6-16.3L17.2,21c-0.5-0.1-0.9-0.6-0.8-1.1c0.1-0.5,0.6-0.9,1.1-0.8l36.3,5.4C54.1,24.5,54.3,24.6,54.5,24.9z M26.1,45.7
	c2.8,0,5,2.3,5,5.1c0,2.8-2.3,5.1-5,5.1c-2.8,0-5-2.3-5-5.1C21,48,23.3,45.7,26.1,45.7z M26.1,53.9c1.7,0,3-1.4,3-3.1
	c0-1.7-1.4-3.1-3-3.1c-1.7,0-3,1.4-3,3.1C23,52.5,24.4,53.9,26.1,53.9z M40.5,45.7c2.8,0,5,2.3,5,5.1c0,2.8-2.3,5.1-5,5.1
	c-2.8,0-5-2.3-5-5.1C35.4,48,37.7,45.7,40.5,45.7z M40.5,53.9c1.7,0,3-1.4,3-3.1c0-1.7-1.4-3.1-3-3.1c-1.7,0-3,1.4-3,3.1
	C37.4,52.5,38.8,53.9,40.5,53.9z"/>
</svg>
