<?xml version="1.0" encoding="utf-8"?>
<!-- Generator: Adobe Illustrator 22.0.1, SVG Export Plug-In . SVG Version: 6.00 Build 0)  -->
<svg version="1.1" id="Layer_1" xmlns="http://www.w3.org/2000/svg" xmlns:xlink="http://www.w3.org/1999/xlink" x="0px" y="0px"
	 viewBox="0 0 54 50.2" style="enable-background:new 0 0 54 50.2;" xml:space="preserve">
<style type="text/css">
	.st0{fill:#111111;}
</style>
<path class="st0" d="M51.4,15c-0.2,0.2-0.5,0.3-0.7,0.3c-0.3,0-0.5-0.1-0.7-0.3c-0.4-0.4-0.4-1,0-1.4c1.3-1.3,2-3,2-4.8
	S51.3,5.3,50,4c-2.6-2.6-7.1-2.6-9.7,0c-0.4,0.4-1,0.4-1.4,0s-0.4-1,0-1.4C40.6,0.9,42.8,0,45.2,0c2.4,0,4.6,0.9,6.3,2.6
	C53.1,4.2,54,6.4,54,8.8S53.1,13.4,51.4,15z M48.9,25.6c0,7.6-3.9,14.3-9.8,18.2c0,0,0,0,0,0l2.5,5c0.2,0.5,0,1.1-0.4,1.3
	c-0.1,0.1-0.3,0.1-0.4,0.1c-0.4,0-0.7-0.2-0.9-0.5l-2.4-4.8c-3.1,1.7-6.6,2.6-10.4,2.6s-7.3-0.9-10.4-2.6l-2.4,4.8
	c-0.2,0.3-0.5,0.5-0.9,0.5c-0.1,0-0.3,0-0.4-0.1c-0.5-0.2-0.7-0.8-0.4-1.3l2.5-5c0,0,0,0,0,0C9,39.8,5.1,33.2,5.1,25.6
	c0-12,9.8-21.8,21.9-21.8C39.1,3.7,48.9,13.5,48.9,25.6z M27,5.7c-11,0-19.9,8.9-19.9,19.8C7.1,36.5,16,45.4,27,45.4
	s19.9-8.9,19.9-19.8C46.9,14.6,38,5.7,27,5.7z M30.2,23.9c0.3,0.5,0.4,1.1,0.4,1.7c0,2-1.6,3.6-3.6,3.6c-2,0-3.6-1.6-3.6-3.6
	c0-1.5,1-2.8,2.3-3.3V8.8c0-0.6,0.4-1,1-1c0.5,0,1,0.4,1,1V22c0.4,0.1,0.8,0.2,1.1,0.4l6.2-6.2c0.4-0.4,1-0.4,1.4,0
	c0.4,0.4,0.4,1,0,1.4L30.2,23.9z M27,23.9c-0.9,0-1.6,0.7-1.6,1.6c0,0.9,0.7,1.6,1.6,1.6c0.9,0,1.6-0.7,1.6-1.6
	C28.6,24.7,27.9,23.9,27,23.9z M13.7,4C11,1.3,6.7,1.3,4,4C2.7,5.3,2,7,2,8.8s0.7,3.5,2,4.8c0.4,0.4,0.4,1,0,1.4
	c-0.2,0.2-0.4,0.3-0.7,0.3c-0.3,0-0.5-0.1-0.7-0.3C0.9,13.4,0,11.2,0,8.8s0.9-4.6,2.6-6.2c3.4-3.4,9.1-3.4,12.5,0
	c0.4,0.4,0.4,1,0,1.4C14.7,4.4,14.1,4.4,13.7,4z"/>
</svg>
