<?xml version="1.0" encoding="utf-8"?>
<!-- Generator: Adobe Illustrator 22.0.1, SVG Export Plug-In . SVG Version: 6.00 Build 0)  -->
<svg version="1.1" id="Layer_1" xmlns="http://www.w3.org/2000/svg" xmlns:xlink="http://www.w3.org/1999/xlink" x="0px" y="0px"
	 viewBox="0 0 52 60" style="enable-background:new 0 0 52 60;" xml:space="preserve">
<style type="text/css">
	.st0{fill:#111111;}
</style>
<path class="st0" d="M51,58.2c-0.6,0-1-0.4-1-1c0-6.4-5.2-11.5-11.5-11.5c-0.6,0-1-0.4-1-1s0.4-1,1-1c7.4,0,13.5,6.1,13.5,13.6
	C52,57.8,51.6,58.2,51,58.2z M39.4,25.5C39,32.7,33.3,40.7,26,40.7c-7.3,0-13.1-8-13.5-15.2C11,25,9.9,23.7,9.9,22.1v-5
	c0-1.4,1.3-2.5,2-3.1V9.5c0-4.8,3.4-8.5,7.9-8.5c0.7-0.2,4.6-1,8.7-1c4.8,0,8.1,1.1,10,3.3c1.4,1.6,1.9,3.8,1.4,6.4l0,4
	c2,0.4,2,2.3,2,3.4v5C41.9,23.7,40.9,25,39.4,25.5z M39.9,17.1c0-1.5,0-1.5-1-1.5c-0.6,0-1-0.4-1-1v-5c0.3-2.2,0-3.8-1-5
	C35.5,2.9,32.6,2,28.5,2c-4.3,0-8.3,1-8.4,1c-0.1,0-0.2,0-0.2,0c-3.5,0-6,2.7-6,6.5v5c0,0.4-0.2,0.7-0.5,0.9
	c-0.6,0.4-1.5,1.1-1.5,1.6v5c0,0.8,0.7,1.5,1.5,1.5c0.6,0,1,0.4,1,1c0,6.4,5.1,14.1,11.5,14.1c6.4,0,11.5-7.7,11.5-14.1
	c0-0.6,0.4-1,1-1c0.8,0,1.5-0.7,1.5-1.5V17.1z M14.5,44.7c0,0.6-0.4,1-1,1C7.2,45.7,2,50.9,2,57.2c0,0.6-0.4,1-1,1c-0.6,0-1-0.4-1-1
	c0-7.5,6.1-13.6,13.5-13.6C14.1,43.7,14.5,44.1,14.5,44.7z M26,43.7c3.3,0,6,2.7,6,6c0,2.6-1.4,6.9-4.1,8V60h-2v-2
	c-3.2-0.5-5.9-5.3-5.9-8.3C20,46.4,22.7,43.7,26,43.7z M26.3,56h0.5c1.8-0.3,3.2-3.9,3.2-6.3c0-2.2-1.8-4-4-4c-2.2,0-4,1.8-4,4
	C22,52,24.3,55.7,26.3,56z"/>
</svg>
