<?xml version="1.0" encoding="utf-8"?>
<!-- Generator: Adobe Illustrator 22.0.1, SVG Export Plug-In . SVG Version: 6.00 Build 0)  -->
<svg version="1.1" id="Layer_1" xmlns="http://www.w3.org/2000/svg" xmlns:xlink="http://www.w3.org/1999/xlink" x="0px" y="0px"
	 viewBox="0 0 60 60" style="enable-background:new 0 0 60 60;" xml:space="preserve">
<style type="text/css">
	.st0{fill:#111111;}
</style>
<path class="st0" d="M50.3,60H9.8C4.4,60,0,55.6,0,50.3V9.8C0,4.4,4.4,0,9.8,0h40.5C55.6,0,60,4.4,60,9.8v40.5
	C60,55.6,55.6,60,50.3,60z M58,22h-8.4c-5,0-9,4-9,9s4,9,9,9H58V22z M58,42h-8.4c-6.1,0-11-4.9-11-11s4.9-11,11-11H58V9.8
	C58,5.5,54.5,2,50.3,2H9.8C5.5,2,2,5.5,2,9.8v40.5C2,54.5,5.5,58,9.8,58h40.5c4.3,0,7.8-3.5,7.8-7.8V42z M44.9,31
	c0-1.9,1.6-3.5,3.5-3.5s3.5,1.6,3.5,3.5s-1.6,3.5-3.5,3.5S44.9,32.9,44.9,31z M49.9,31c0-0.8-0.7-1.5-1.5-1.5s-1.5,0.7-1.5,1.5
	s0.7,1.5,1.5,1.5S49.9,31.8,49.9,31z"/>
</svg>
