<?xml version="1.0" encoding="utf-8"?>
<!-- Generator: Adobe Illustrator 22.0.1, SVG Export Plug-In . SVG Version: 6.00 Build 0)  -->
<svg version="1.1" id="Layer_1" xmlns="http://www.w3.org/2000/svg" xmlns:xlink="http://www.w3.org/1999/xlink" x="0px" y="0px"
	 viewBox="0 0 52 56.8" style="enable-background:new 0 0 52 56.8;" xml:space="preserve">
<style type="text/css">
	.st0{fill:#111111;}
</style>
<path class="st0" d="M43.2,43.9c-0.2,0.2-0.5,0.3-0.7,0.3c-0.2,0-0.5-0.1-0.7-0.3c-0.4-0.4-0.4-1-0.1-1.4c6.1-7,9.1-15.7,8.2-23.9
	c-0.8-6.9-4.3-12.9-9.8-16.8c-0.4-0.3-0.6-0.9-0.2-1.4c0.3-0.5,0.9-0.6,1.4-0.2c6,4.2,9.7,10.7,10.6,18.2
	C52.9,27.2,49.7,36.5,43.2,43.9z M45.7,19.1c0.8,7-1.8,14.5-7.1,20.6c-6.7,7.6-10.9,11.5-18.1,16.9c-0.2,0.1-0.4,0.2-0.6,0.2
	c-0.3,0-0.6-0.1-0.8-0.4c-0.3-0.4-0.2-1.1,0.2-1.4c7-5.2,11.2-9.1,17.8-16.6c5-5.6,7.4-12.6,6.7-19c-0.6-5.1-3.1-9.5-7.2-12.4
	C28.2,1,16.7,3.4,8.4,12.7c-0.4,0.4-1,0.4-1.4,0.1c-0.4-0.4-0.4-1-0.1-1.4C15.9,1.3,28.5-1.2,37.7,5.3C42.2,8.5,45,13.4,45.7,19.1z
	 M11.6,15.6c6.9-7.8,15.9-9.9,22.5-5.1c0.5,0.3,0.6,0.9,0.2,1.4c-0.3,0.5-0.9,0.6-1.4,0.2C27.2,8,19.2,9.9,13.1,16.9
	c-4.5,5.1-7.3,7.8-11.5,11C1.4,28,1.2,28.1,1,28.1c-0.3,0-0.6-0.1-0.8-0.4c-0.3-0.4-0.3-1.1,0.2-1.4C4.5,23.2,7.2,20.6,11.6,15.6z
	 M38.4,18.9c0.6-0.1,1,0.3,1.1,0.9c0.6,5.3-1.4,11-5.6,15.7c-4.4,5-7.5,8.2-11,11.2c-0.2,0.2-0.4,0.2-0.6,0.2
	c-0.3,0-0.6-0.1-0.8-0.4c-0.4-0.4-0.3-1.1,0.1-1.4c3.4-2.9,6.5-6,10.8-11c3.8-4.3,5.7-9.5,5.1-14.2C37.5,19.5,37.9,19,38.4,18.9z
	 M0.4,34c6.9-5,10.2-7.9,15.8-14.3c4.7-5.3,10.4-7,14.3-4.2c1.6,1.1,2.6,2.9,2.8,5c0.4,3.4-1.1,7.5-4.1,10.9
	c-6.7,7.6-10.5,11.1-18.7,17c-0.2,0.1-0.4,0.2-0.6,0.2c-0.3,0-0.6-0.1-0.8-0.4c-0.3-0.5-0.2-1.1,0.2-1.4c8-5.8,11.8-9.2,18.4-16.7
	c2.6-2.9,3.9-6.4,3.6-9.3c-0.2-1.6-0.9-2.8-2-3.6c-3.5-2.5-8.4,0.1-11.7,3.9c-5.8,6.5-9.1,9.6-16.1,14.6c-0.4,0.3-1.1,0.2-1.4-0.2
	C-0.1,35,0,34.4,0.4,34z M4.7,41.3c8.9-6.3,13-10.2,20-18.6c0.4-0.4,1-0.5,1.4-0.1c0.4,0.4,0.5,1,0.1,1.4
	c-7.1,8.6-11.3,12.5-20.4,19c-0.2,0.1-0.4,0.2-0.6,0.2c-0.3,0-0.6-0.1-0.8-0.4C4.2,42.2,4.3,41.6,4.7,41.3z"/>
</svg>
