<?xml version="1.0" encoding="utf-8"?>
<!-- Generator: Adobe Illustrator 22.0.1, SVG Export Plug-In . SVG Version: 6.00 Build 0)  -->
<svg version="1.1" id="Layer_1" xmlns="http://www.w3.org/2000/svg" xmlns:xlink="http://www.w3.org/1999/xlink" x="0px" y="0px"
	 viewBox="0 0 48 48" style="enable-background:new 0 0 48 48;" xml:space="preserve">
<style type="text/css">
	.st0{fill:#959595;}
</style>
<path id="M-1" class="st0" d="M47.4,21.1c-0.4,0-0.6,0.3-0.6,0.6v25H1.4v-25c0-0.4-0.3-0.6-0.6-0.6c-0.4,0-0.6,0.3-0.6,0.6v25.7
	c0,0.4,0.3,0.6,0.6,0.6h46.6c0.4,0,0.6-0.3,0.6-0.6V21.7C48,21.3,47.7,21.1,47.4,21.1C47.4,21.1,47.4,21.1,47.4,21.1z M5.1,19.5
	c-0.4,0-0.6,0.3-0.6,0.6v23.1c0,0.4,0.3,0.6,0.6,0.6c0,0,0,0,0,0H43c0.4,0,0.6-0.3,0.6-0.6c0,0,0,0,0,0V20.1c0-0.4-0.3-0.6-0.6-0.6
	c-0.4,0-0.6,0.3-0.6,0.6v22.5H5.7V20.1C5.7,19.7,5.4,19.5,5.1,19.5L5.1,19.5z M0.6,18.4c1.3,0,2.5-0.6,3.2-1.6
	c0.5-0.8,1.4-1.2,2.3-1.2c1,0,1.9,0.5,2.6,1.2c1.6,1.9,4.5,2.1,6.4,0.5c0.2-0.1,0.3-0.3,0.5-0.5c1.1-1.4,3.2-1.6,4.6-0.5
	c0.2,0.2,0.4,0.3,0.5,0.5c1.6,1.9,4.5,2.1,6.4,0.5c0.2-0.1,0.3-0.3,0.5-0.5c1.1-1.4,3.2-1.6,4.6-0.5c0.2,0.2,0.4,0.3,0.5,0.5
	c1.6,1.9,4.5,2.1,6.4,0.5c0.2-0.1,0.3-0.3,0.5-0.5c0.6-0.8,1.6-1.2,2.6-1.2c0.9,0,1.7,0.4,2.1,1.2c0.7,1.1,1.8,1.7,3.1,1.6
	c0.4,0,0.6-0.3,0.6-0.6l0-6.8c0.1-0.2,0.1-0.4,0-0.6L41.4,0.3C41.3,0.1,41.1,0,40.9,0H7.2C7,0,6.8,0.1,6.7,0.3L0.2,10.4
	c0,0.1-0.1,0.2-0.1,0.3H0v7.1C0,18.2,0.3,18.4,0.6,18.4C0.6,18.4,0.6,18.4,0.6,18.4L0.6,18.4z M45.2,16c-0.7-1.1-1.8-1.7-3.1-1.6
	c-1.3,0-2.6,0.6-3.4,1.6c-1.1,1.4-3.2,1.6-4.6,0.5c-0.2-0.2-0.4-0.3-0.5-0.5c-1.6-1.9-4.5-2.1-6.4-0.5c-0.2,0.1-0.3,0.3-0.5,0.5
	c-1.1,1.4-3.2,1.6-4.6,0.5c-0.2-0.2-0.4-0.3-0.5-0.5c-1.6-1.9-4.5-2.1-6.4-0.5c-0.2,0.1-0.3,0.3-0.5,0.5c-1.1,1.4-3.2,1.6-4.6,0.5
	c-0.2-0.2-0.4-0.3-0.5-0.5c-0.9-1-2.1-1.6-3.4-1.6c-1.3,0-2.5,0.6-3.2,1.6c-0.4,0.6-1,1-1.6,1.1v-5.7h45.4l0,5.7
	C46,16.9,45.5,16.6,45.2,16L45.2,16z M7.6,1.3h32.9l5.7,8.8H1.9L7.6,1.3z"/>
</svg>
