<?xml version="1.0" encoding="utf-8"?>
<!-- Generator: Adobe Illustrator 22.0.1, SVG Export Plug-In . SVG Version: 6.00 Build 0)  -->
<svg version="1.1" id="Layer_1" xmlns="http://www.w3.org/2000/svg" xmlns:xlink="http://www.w3.org/1999/xlink" x="0px" y="0px"
	 viewBox="0 0 48 49.3" style="enable-background:new 0 0 48 49.3;" xml:space="preserve">
<style type="text/css">
	.st0{fill:#959595;}
</style>
<path id="M-2" class="st0" d="M47.4,8.1c-0.4,0-0.6,0.3-0.6,0.6V48H1.3V8.7C1.3,8.3,1.1,8,0.7,8C0.3,8,0,8.3,0,8.6c0,0,0,0,0,0.1
	v39.9c0,0.4,0.3,0.6,0.6,0.6h46.7c0.4,0,0.6-0.3,0.6-0.6V8.7C48,8.3,47.7,8.1,47.4,8.1z M5,33.2c-0.4,0-0.6,0.3-0.6,0.6c0,0,0,0,0,0
	v10.7c0,0.4,0.3,0.6,0.6,0.6h38c0.4,0,0.6-0.3,0.6-0.6V33.8c0-0.4-0.3-0.7-0.6-0.7c-0.4,0-0.7,0.3-0.7,0.6c0,0,0,0,0,0.1v10H5.6v-10
	C5.6,33.5,5.4,33.2,5,33.2C5,33.2,5,33.2,5,33.2z M0.6,6h3.8v24.1c0,0.2,0.1,0.3,0.2,0.5c0.1,0.3,0.3,0.5,0.6,0.5h37.5
	c0.4,0,0.6-0.3,0.6-0.6c0.1-0.1,0.1-0.2,0.1-0.3V6h3.8C47.7,6,48,5.7,48,5.3c0,0,0,0,0,0V0.6C48,0.3,47.7,0,47.3,0H0.6
	C0.3,0,0,0.3,0,0.6v4.7C0,5.7,0.3,6,0.6,6C0.6,6,0.6,6,0.6,6L0.6,6z M5.7,18.6h36.5v2.9H5.7L5.7,18.6L5.7,18.6z M5.7,22.8h36.5v2.9
	H5.7L5.7,22.8L5.7,22.8z M42.3,17.3H5.7v-2.9h36.5L42.3,17.3L42.3,17.3z M5.7,26.9h36.5v2.9H5.7L5.7,26.9L5.7,26.9z M42.3,13.2H5.7
	v-2.9h36.5L42.3,13.2L42.3,13.2z M42.3,9H5.7V6h36.5L42.3,9L42.3,9z M1.3,1.3h45.4v3.4H1.3L1.3,1.3L1.3,1.3z"/>
</svg>
