<?xml version="1.0" encoding="utf-8"?>
<!-- Generator: Adobe Illustrator 22.0.1, SVG Export Plug-In . SVG Version: 6.00 Build 0)  -->
<svg version="1.1" id="Layer_1" xmlns="http://www.w3.org/2000/svg" xmlns:xlink="http://www.w3.org/1999/xlink" x="0px" y="0px"
	 viewBox="0 0 48 48" style="enable-background:new 0 0 48 48;" xml:space="preserve">
<style type="text/css">
	.st0{fill:#959595;}
</style>
<path id="M-3" class="st0" d="M47.3,19.1c-0.4,0-0.6,0.3-0.6,0.6v26.9H1.3V19.8c0-0.4-0.3-0.6-0.6-0.6S0,19.4,0,19.8v27.6
	C0,47.7,0.3,48,0.7,48h46.6c0.4,0,0.6-0.3,0.6-0.6V19.8C47.9,19.4,47.6,19.1,47.3,19.1z M5,20.7c-0.4,0-0.6,0.3-0.6,0.6v21.9
	c0,0.4,0.3,0.6,0.6,0.6h37.9c0.4,0,0.6-0.3,0.6-0.6V21.4c0-0.4-0.3-0.6-0.6-0.7c-0.4,0-0.6,0.3-0.7,0.6c0,0,0,0,0,0.1v21.2H5.7V21.4
	C5.6,21,5.4,20.7,5,20.7z M47.9,10.6c0-0.1,0-0.2-0.1-0.2L41.3,0.3C41.2,0.1,41,0,40.8,0H7.2C6.9,0,6.7,0.1,6.6,0.3L0.2,10.4
	c-0.1,0.1-0.1,0.2-0.1,0.3H0v4.8c0,0.1,0,0.2,0.1,0.3c0.8,1.8,2.6,2.9,4.5,3c1.5,0,3-0.8,3.9-2c0.9,1.3,2.4,2,3.9,2
	c1.5,0,2.9-0.7,3.7-2c0.9,1.2,2.3,2,3.8,2c1.5,0,3-0.8,3.9-2c0.9,1.3,2.4,2,3.9,2c1.6,0,3-0.8,3.9-2c0.9,1.3,2.4,2,4,2
	c1.5,0,3-0.8,3.9-2c0.9,1.3,2.4,2,3.9,2c1.9-0.1,3.6-1.2,4.5-2.9c0-0.1,0.1-0.2,0.1-0.3v-4.9L47.9,10.6L47.9,10.6z M46.1,10.1H40
	l-4.2-8.8h4.7L46.1,10.1z M9.3,10.1l4.2-8.8h4.3l-2.3,8.8H9.3L9.3,10.1z M19.2,1.3C19.2,1.3,19.2,1.3,19.2,1.3l4-0.1v8.8h-6.3
	L19.2,1.3z M24.4,1.3h3.7c0,0,0,0.1,0,0.1l2.5,8.8h-6.3V1.3z M32,10.1l-2.6-8.8h4.9l4.2,8.8H32L32,10.1z M7.5,1.3h4.6l-4.2,8.8H1.9
	L7.5,1.3z M4.6,17.5c-1.4,0-2.7-0.8-3.3-2.1v-4h6.4l0,4.2c0,0,0,0.1,0,0.1C7,16.7,5.9,17.4,4.6,17.5L4.6,17.5z M12.4,17.5
	c-1.4,0-2.7-0.9-3.3-2.2C9,15.2,9,15.2,9,15.1l0-3.8h6.5v4.2c0,0,0,0,0,0C14.8,16.7,13.7,17.5,12.4,17.5L12.4,17.5z M19.9,17.5
	c-1.4,0-2.6-0.9-3.2-2.2c0,0,0-0.1-0.1-0.1v-3.9h6.4v3.8c0,0.1,0,0.1,0,0.2C22.5,16.6,21.3,17.4,19.9,17.5L19.9,17.5z M27.7,17.5
	c-1.4,0-2.7-0.9-3.3-2.2c0,0,0,0,0,0c0,0,0-0.1,0-0.1v-3.8h6.5v4.2c0,0,0,0,0,0.1C30.2,16.7,29,17.4,27.7,17.5L27.7,17.5z
	 M35.6,17.5c-1.4,0-2.7-0.9-3.4-2.2c0-0.1-0.1-0.1-0.1-0.1v-3.8h6.8l0,3.9C38.3,16.6,37,17.4,35.6,17.5L35.6,17.5z M43.4,17.5
	c-1.4,0-2.6-0.8-3.2-2l0-4.1h6.5v4C46.1,16.6,44.8,17.4,43.4,17.5L43.4,17.5z"/>
</svg>
