<?xml version="1.0" encoding="utf-8"?>
<!-- Generator: Adobe Illustrator 22.0.1, SVG Export Plug-In . SVG Version: 6.00 Build 0)  -->
<svg version="1.1" id="Слой_1" xmlns="http://www.w3.org/2000/svg" xmlns:xlink="http://www.w3.org/1999/xlink" x="0px" y="0px"
	 viewBox="0 0 494 492" style="enable-background:new 0 0 494 492;" xml:space="preserve">
<g>
	<path d="M488,458.2L370.2,340.4c29.2-35.6,46.8-81.2,46.8-130.9C417,95.5,324.5,3,210.5,3C96.4,3,4,95.5,4,209.5
		S96.4,416,210.5,416c49.7,0,95.2-17.5,130.8-46.7L459.1,487c8,8,20.9,8,28.9,0C496,479.1,496,466.1,488,458.2z M210.5,374.9
		C119.2,374.9,45,300.7,45,209.5S119.2,44,210.5,44C301.7,44,376,118.3,376,209.5S301.7,374.9,210.5,374.9z"/>
</g>
</svg>
