<?xml version="1.0" encoding="utf-8"?>
<!-- Generator: Adobe Illustrator 22.0.1, SVG Export Plug-In . SVG Version: 6.00 Build 0)  -->
<svg version="1.1" id="Layer_1" xmlns="http://www.w3.org/2000/svg" xmlns:xlink="http://www.w3.org/1999/xlink" x="0px" y="0px"
	 viewBox="0 0 16.1 18" style="enable-background:new 0 0 16.1 18;" xml:space="preserve">
<style type="text/css">
	.st0{fill:#959595;}
</style>
<path class="st0" d="M14.3,2.3l-3.2,12.3l-1.5-4.1c-0.3-0.8-1-1.3-1.8-1.3H7.8L3.4,9.4L14.3,2.3 M15.5,0c-0.1,0-0.2,0-0.3,0.1
	L0.3,9.8C0,9.9-0.1,10.3,0.1,10.6c0.1,0.2,0.3,0.4,0.6,0.3l0,0l7.1-0.2l0,0c0.3,0,0.5,0.1,0.6,0.4l2.3,6.4c0,0.3,0.3,0.6,0.6,0.6
	c0.3,0,0.6-0.3,0.5-0.6l0,0l4.3-16.6c0.1-0.3-0.1-0.6-0.4-0.7C15.7,0,15.6,0,15.5,0L15.5,0z"/>
</svg>
