<?xml version="1.0" encoding="utf-8"?>
<!-- Generator: Adobe Illustrator 22.0.1, SVG Export Plug-In . SVG Version: 6.00 Build 0)  -->
<svg version="1.1" id="Layer_1" xmlns="http://www.w3.org/2000/svg" xmlns:xlink="http://www.w3.org/1999/xlink" x="0px" y="0px"
	 viewBox="0 0 18 18" style="enable-background:new 0 0 18 18;" xml:space="preserve">
<style type="text/css">
	.st0{fill:#959595;}
</style>
<path class="st0" d="M15.8,18h-4.5C10,18,9,17,9,15.8l0.6-6.2C9.6,9.2,9.8,9,10.1,9h1.1V7.9c0-1.2,1-2.3,2.3-2.3
	c1.2,0,2.3,1,2.3,2.3V9h1.1c0.3,0,0.5,0.2,0.6,0.5l0.6,6.2C18,17,17,18,15.8,18z M14.6,7.9c0-0.6-0.5-1.1-1.1-1.1
	c-0.6,0-1.1,0.5-1.1,1.1V9h2.3V7.9z M16.4,10.1h-0.6v1.7c0,0.3-0.3,0.6-0.6,0.6c-0.3,0-0.6-0.3-0.6-0.6v-1.7h-2.3v1.7
	c0,0.3-0.3,0.6-0.6,0.6s-0.6-0.3-0.6-0.6v-1.7h-0.6l-0.5,5.7c0,0.6,0.5,1.1,1.1,1.1h4.5c0.6,0,1.1-0.5,1.1-1.1L16.4,10.1z M3.4,6.8
	c0-1.9,1.5-3.4,3.4-3.4c1.9,0,3.4,1.5,3.4,3.4c0,1.9-1.5,3.4-3.4,3.4C4.9,10.1,3.4,8.6,3.4,6.8z M9,6.8c0-1.2-1-2.3-2.3-2.3
	c-1.2,0-2.3,1-2.3,2.3C4.5,8,5.5,9,6.8,9C8,9,9,8,9,6.8z M12.5,4.4c-0.3,0.1-0.6,0-0.8-0.2c-1-1.9-2.9-3.1-5-3.1
	c-3.1,0-5.6,2.5-5.6,5.6c0,3.6,4.3,8.4,5.6,9.9c0,0,0.1-0.1,0.2-0.2c0.2-0.2,0.6-0.2,0.8,0c0.2,0.2,0.2,0.6,0,0.8
	c-0.4,0.4-0.6,0.6-0.6,0.6C7,17.9,6.9,18,6.8,18c-0.1,0-0.3-0.1-0.4-0.2C6.1,17.6,0,11.4,0,6.8C0,3,3,0,6.8,0c2.6,0,4.9,1.4,6,3.7
	C12.9,4,12.8,4.3,12.5,4.4z"/>
</svg>
