<?xml version="1.0" encoding="utf-8"?>
<!-- Generator: Adobe Illustrator 22.0.1, SVG Export Plug-In . SVG Version: 6.00 Build 0)  -->
<svg version="1.1" id="Layer_1" xmlns="http://www.w3.org/2000/svg" xmlns:xlink="http://www.w3.org/1999/xlink" x="0px" y="0px"
	 viewBox="0 0 16.3 18" style="enable-background:new 0 0 16.3 18;" xml:space="preserve">
<style type="text/css">
	.st0{fill:#959595;}
</style>
<path class="st0" d="M6.7,6.7c0.3,0,0.5-0.2,0.5-0.6c0-0.3-0.2-0.6-0.5-0.6l-0.1,0c0,0,0,0.1,0,0.1C6.6,5.9,6.5,6,6.3,6
	C6.3,6,6.2,6,6.2,5.9c0,0.1-0.1,0.2-0.1,0.2C6.1,6.5,6.4,6.7,6.7,6.7 M9.2,6.2c0,0.3,0.2,0.6,0.5,0.6c0.3,0,0.5-0.2,0.5-0.6
	c0-0.3-0.2-0.6-0.5-0.6l-0.1,0c0,0,0,0.1,0,0.1C9.6,5.9,9.5,6,9.4,6C9.3,6,9.2,6,9.2,5.9C9.2,6,9.2,6.1,9.2,6.2z M8.1,3.9
	c-1,0-1.9-0.1-2.8-0.2C4.9,3.7,4.7,3.8,4.5,4c0-0.6,0.1-1.9,0.8-2.1c0.1,0,0.2,0,0.3,0C6,1.9,6.1,1.7,6.3,1.5C7,1.2,7.7,1,8.5,1
	c1.2,0.1,2.5,0.7,3,1.9c0.1,0.3,0.2,0.6,0.2,1c-0.2-0.1-0.4-0.2-0.7-0.2C10,3.8,9.1,3.9,8.1,3.9z M8.1,10.9c1.9,0,2.3-0.5,3.1-1.7
	c0.2-0.3,0.4-0.6,0.7-0.9c0.3-0.4,0.4-0.9,0.4-1.4c0.3-0.4,0.4-1,0.4-1.5c0-0.2-0.1-0.3-0.1-0.5c0.2-0.9,0.1-1.7-0.1-2.4
	C11.8,0.9,10.2,0.1,8.6,0C7.5,0,6.5,0.2,5.7,0.8c-0.2,0-0.5,0-0.7,0.1C3.5,1.4,3.3,3.7,3.6,5c-0.3,0.6-0.1,1.5,0.3,2
	C4,7.4,4,7.9,4.3,8.3C4.6,8.6,4.8,8.9,5,9.2C5.9,10.4,6.3,10.9,8.1,10.9z M8.1,4.9c1,0,2-0.1,3-0.2c0.1,0.2,0.1,0.2,0.3,0.4
	c0.2,0.2,0.4,0.3,0.4,0.4c0,0.4-0.1,0.7-0.3,1c-0.1,0.3-0.1,1-0.2,1.2c-0.3,0.3-0.5,0.7-0.7,0.9c-0.7,0.9-1,1.3-2.3,1.3
	S6.5,9.5,5.8,8.6C5.6,8.3,5.4,8,5.1,7.7c-0.2-0.2-0.2-0.7-0.2-1l0-0.1c-0.3-0.3-0.4-0.6-0.3-1c0-0.1,0.5-0.5,0.6-0.8
	C6.1,4.9,7.1,4.9,8.1,4.9z M1.4,13.6L3.1,17H1v-1.6C1,14.7,1.1,14.1,1.4,13.6z M13.1,17l1.8-3.4c0.2,0.5,0.4,1.1,0.4,1.8V17H13.1z
	 M4.5,11.8L7.3,17H4.1L2,12.8C2.6,12.2,3.6,11.9,4.5,11.8z M9,17l2.7-5.2c0.9,0.1,1.9,0.4,2.6,1.1L12.1,17H9z M11.2,10.7l-3,5.8
	l-3-5.8c-1.3,0.2-2.7,0.4-3.7,1.3C0.5,12.7,0,13.8,0,15.4V18h16.3v-2.6c0-1.6-0.5-2.7-1.4-3.5C13.8,11.1,12.5,10.8,11.2,10.7z
	 M9.5,12.9v-1.8l-1.4,0.7l-1.4-0.7v1.8l1.4-0.7L9.5,12.9z M8.6,13.8v-0.9H7.7v0.9H8.6z M8.6,14.3H7.7v0.9h0.9V14.3z M7,8.1
	C7,8.6,7.5,9,8.1,9c0.4,0,0.7-0.1,0.9-0.4c0.1-0.1,0.2-0.3,0.2-0.5C8.9,8.2,8.5,8.3,8.1,8.3C7.7,8.3,7.3,8.2,7,8.1z"/>
</svg>
