<?xml version="1.0" encoding="utf-8"?>
<!-- Generator: Adobe Illustrator 22.0.1, SVG Export Plug-In . SVG Version: 6.00 Build 0)  -->
<svg version="1.1" id="Layer_1" xmlns="http://www.w3.org/2000/svg" xmlns:xlink="http://www.w3.org/1999/xlink" x="0px" y="0px"
	 viewBox="0 0 18 18" style="enable-background:new 0 0 18 18;" xml:space="preserve">
<style type="text/css">
	.st0{fill:#959595;}
</style>
<path class="st0" d="M0,0v18h4.5v-4.5h9V18H18V0H0z M11.3,1.5V3c0,1.1,0.3,2.1,0.7,3H9.8V1.5H11.3z M8.3,6H6c0.4-0.9,0.7-1.9,0.7-3
	V1.5h1.5V6z M1.5,1.5h3.8V3c0,2.4-1.6,4.4-3.8,5V1.5z M1.5,16.5v-6.3C2.4,10.7,3,11.6,3,12.8v3.8H1.5z M4.4,12
	c-0.2-1.2-0.8-2.2-1.7-2.8c0.9-0.4,1.7-1,2.3-1.7h3.2V12H4.4z M9.8,7.5H13c0.6,0.7,1.4,1.3,2.3,1.7c-0.9,0.7-1.5,1.7-1.7,2.8H9.8
	V7.5z M16.5,16.5H15v-3.8c0-1.1,0.6-2.1,1.5-2.6V16.5z M12.8,3V1.5h3.8V8C14.3,7.4,12.8,5.4,12.8,3z"/>
</svg>
