<?xml version="1.0" encoding="utf-8"?>
<!-- Generator: Adobe Illustrator 22.0.1, SVG Export Plug-In . SVG Version: 6.00 Build 0)  -->
<svg version="1.1" id="Layer_1" xmlns="http://www.w3.org/2000/svg" xmlns:xlink="http://www.w3.org/1999/xlink" x="0px" y="0px"
	 viewBox="0 0 271 268.3" style="enable-background:new 0 0 271 268.3;" xml:space="preserve">
<path d="M248.9,1.6L9.9,107.3c-5.7,2.5-9.3,8.3-8.9,14.6s4.6,11.6,10.5,13.5l94.3,29.1l29.1,94.3c1.8,6,7.2,10.2,13.5,10.5
	c0.3,0,0.6,0,0.9,0c5.9,0,11.3-3.5,13.7-8.9l105.6-239c2.5-5.7,1.3-12.3-3.1-16.7C261.2,0.3,254.6-0.9,248.9,1.6z M151.8,211.6
	L132.2,148c-1.5-4.7-5.2-8.4-9.9-9.9l-63.5-19.6l166.8-73.8L151.8,211.6z"/>
</svg>
