<?xml version="1.0" encoding="utf-8"?>
<!-- Generator: Adobe Illustrator 22.0.1, SVG Export Plug-In . SVG Version: 6.00 Build 0)  -->
<svg version="1.1" id="Layer_1" xmlns="http://www.w3.org/2000/svg" xmlns:xlink="http://www.w3.org/1999/xlink" x="0px" y="0px"
	 viewBox="0 0 48 49" style="enable-background:new 0 0 48 49;" xml:space="preserve">
<style type="text/css">
	.st0{fill:#959595;}
</style>
<path id="P-1" class="st0" d="M47.4,0H0.6C0.3,0,0,0.3,0,0.6v8.8c0,0.4,0.3,0.6,0.6,0.6c0.4,0,0.6-0.3,0.6-0.6c0,0,0,0,0,0V1.3h45.4
	v8.2c0,0.4,0.3,0.6,0.6,0.6c0.4,0,0.6-0.3,0.6-0.6c0,0,0,0,0,0V0.6C48,0.3,47.7,0,47.4,0z M42.9,10.1c0.4,0,0.6-0.3,0.6-0.6V4.9
	c0-0.4-0.3-0.6-0.6-0.6H29.6c-0.4,0-0.6,0.3-0.6,0.6s0.3,0.6,0.6,0.6h12.7v4C42.3,9.8,42.6,10.1,42.9,10.1L42.9,10.1z M5.6,9.5v-4
	h13.2c0.4,0,0.6-0.3,0.6-0.6s-0.3-0.6-0.6-0.6H5c-0.4,0-0.6,0.3-0.6,0.6v4.6c0,0.4,0.3,0.6,0.6,0.6C5.3,10.1,5.6,9.8,5.6,9.5z
	 M0.1,33.8v2.5c0,0.7,0.6,1.3,1.3,1.3h45.1c0.7,0,1.3-0.6,1.3-1.3v-2.5c0-0.6-0.4-1.1-1-1.3L43.1,29l3.6-3.5h0.6v-1.3H47l-3.9-3.8
	l3.7-3.6c0.6-0.1,1-0.7,1-1.2v-2.5c0-0.7-0.6-1.3-1.3-1.3c0,0,0,0,0,0H1.4c-0.7,0-1.3,0.6-1.3,1.3c0,0,0,0,0,0v2.5
	c0,0.4,0.1,0.7,0.4,0.9l-0.1,0.1l4,3.9l-4,3.9c-0.1,0.1-0.2,0.3-0.2,0.5c0,0.2,0.1,0.3,0.2,0.5l0.2,0.2v0.1h0.1L4.4,29l-4,3.9
	l0.1,0.1C0.2,33.1,0.1,33.5,0.1,33.8z M1.4,36.4v-2.5h45.1v2.5H1.4z M1.4,13h45.1v2.5H1.4V13z M2.5,16.8h42.4l-3.2,3.1c0,0,0,0,0,0
	H5.8c0,0,0,0,0,0L2.5,16.8z M5.4,21.2h36.7l3.1,3H2.3L5.4,21.2z M2.6,25.4h42.3l-3.1,3H5.7L2.6,25.4z M5.5,29.7H42l2.9,2.8H2.6
	L5.5,29.7z M24,10.3c0.4,0,0.6-0.3,0.6-0.6c0,0,0,0,0,0V4.4l1,1.3C25.8,5.9,26,6,26.2,6c0.1,0,0.3-0.1,0.4-0.1
	c0.3-0.2,0.3-0.6,0.1-0.9c0,0,0,0,0,0l-2.2-2.7l0,0l0,0c0,0,0,0,0,0l0,0l0,0c0,0,0,0,0,0l0,0c0,0,0,0,0,0c0,0,0,0,0,0c0,0,0,0-0.1,0
	c0,0,0,0,0,0h0c0,0,0,0-0.1,0c0,0,0,0,0,0h-0.1c0,0,0,0,0,0c0,0,0,0-0.1,0h0c0,0,0,0,0,0c0,0,0,0-0.1,0c0,0,0,0,0,0c0,0,0,0,0,0l0,0
	c0,0,0,0,0,0l0,0l0,0c0,0,0,0,0,0l0,0l0,0l-2.2,2.7c-0.2,0.3-0.2,0.7,0.1,0.9c0,0,0,0,0,0C21.5,5.9,21.7,6,21.8,6
	c0.2,0,0.4-0.1,0.5-0.3l1.1-1.3v5.3C23.4,10,23.7,10.3,24,10.3z M47.4,38.9c-0.4,0-0.6,0.3-0.6,0.6c0,0,0,0,0,0v8.2H1.3v-8.2
	c0-0.4-0.3-0.6-0.6-0.6c-0.4,0-0.6,0.3-0.6,0.6v8.8C0,48.7,0.3,49,0.6,49h46.7c0.4,0,0.6-0.3,0.6-0.6v-8.8
	C48,39.1,47.7,38.9,47.4,38.9C47.4,38.9,47.4,38.9,47.4,38.9z M42.3,39.5v4H29.6c-0.4,0-0.6,0.3-0.6,0.6c0,0.4,0.3,0.6,0.6,0.6l0,0
	h13.3c0.4,0,0.6-0.3,0.6-0.6v-4.6c0-0.4-0.3-0.6-0.6-0.6C42.6,38.8,42.3,39.1,42.3,39.5L42.3,39.5z M5,38.8c-0.4,0-0.6,0.3-0.6,0.6
	v4.6c0,0.4,0.3,0.6,0.6,0.6h13.8c0.4,0,0.6-0.3,0.6-0.6c0-0.4-0.3-0.6-0.6-0.6H5.6v-4C5.6,39.1,5.3,38.8,5,38.8L5,38.8z M24,39
	c-0.4,0-0.6,0.3-0.6,0.6c0,0,0,0,0,0v4.9l-1.1-1.3c-0.2-0.3-0.6-0.3-0.9-0.1c-0.3,0.2-0.3,0.6-0.1,0.9l2.2,2.7c0,0,0,0,0,0s0,0,0,0
	s0,0,0,0.1c0,0,0,0,0,0l0,0c0,0,0,0,0,0c0,0,0,0,0.1,0l0,0c0,0,0,0,0,0c0,0,0,0,0,0c0,0,0,0,0,0s0,0,0,0c0,0,0.1,0,0.1,0l0,0
	c0,0,0.1,0,0.1,0c0,0,0,0,0,0s0,0,0,0c0,0,0,0,0,0c0,0,0,0,0,0l0,0c0,0,0.1,0,0.1,0c0,0,0,0,0,0l0,0c0,0,0,0,0,0c0,0,0,0,0-0.1
	s0,0,0,0s0,0,0,0l2.2-2.7c0.2-0.3,0.2-0.7-0.1-0.9c-0.3-0.2-0.7-0.2-0.9,0.1l-1,1.3v-4.9C24.6,39.3,24.3,39,24,39z"/>
</svg>
