<?xml version="1.0" encoding="utf-8"?>
<!-- Generator: Adobe Illustrator 22.0.1, SVG Export Plug-In . SVG Version: 6.00 Build 0)  -->
<svg version="1.1" id="Layer_1" xmlns="http://www.w3.org/2000/svg" xmlns:xlink="http://www.w3.org/1999/xlink" x="0px" y="0px"
	 viewBox="0 0 48 48" style="enable-background:new 0 0 48 48;" xml:space="preserve">
<style type="text/css">
	.st0{fill:#959595;}
</style>
<path id="P-2" class="st0" d="M47.4,7.6c-0.4,0-0.6,0.3-0.6,0.6v38.5H1.3V8.2c0-0.4-0.3-0.6-0.6-0.6C0.3,7.6,0,7.8,0,8.2v39.2
	C0,47.7,0.3,48,0.6,48h46.7c0.4,0,0.6-0.3,0.6-0.6V8.2C48,7.8,47.7,7.6,47.4,7.6z M5,32.1c-0.4,0-0.6,0.3-0.6,0.6c0,0,0,0,0,0v10.4
	c0,0.4,0.3,0.6,0.6,0.6h38c0.4,0,0.6-0.3,0.6-0.6V32.8c0-0.4-0.3-0.6-0.7-0.6c-0.3,0-0.6,0.3-0.6,0.6v9.8H5.6v-9.8
	C5.6,32.4,5.3,32.1,5,32.1C5,32.1,5,32.1,5,32.1L5,32.1z M1.1,6h3.1v23.7c0,0.4,0.3,0.6,0.6,0.6c0,0,0,0,0,0h18.4v3.3
	c-0.7,0.4-1,1.3-0.6,2c0.4,0.7,1.3,1,2,0.6c0.5-0.3,0.7-0.7,0.7-1.3c0-0.6-0.3-1.1-0.8-1.3v-3.3H43c0.4,0,0.6-0.3,0.6-0.6
	c0,0,0,0,0,0V6h3.1c0.4,0,0.6-0.3,0.6-0.6V0.6c0-0.4-0.3-0.6-0.6-0.6H1.1C0.8,0,0.5,0.3,0.5,0.6v4.7C0.5,5.7,0.8,6,1.1,6L1.1,6z
	 M5.6,29.1v-2.4h36.8v2.4H5.6L5.6,29.1z M42.4,25.3H5.6V6h36.8L42.4,25.3L42.4,25.3z M1.8,1.3h44.3v3.4H1.8L1.8,1.3L1.8,1.3z"/>
</svg>
