<?xml version="1.0" encoding="utf-8"?>
<!-- Generator: Adobe Illustrator 22.0.1, SVG Export Plug-In . SVG Version: 6.00 Build 0)  -->
<svg version="1.1" id="Layer_1" xmlns="http://www.w3.org/2000/svg" xmlns:xlink="http://www.w3.org/1999/xlink" x="0px" y="0px"
	 viewBox="0 0 48 47.4" style="enable-background:new 0 0 48 47.4;" xml:space="preserve">
<style type="text/css">
	.st0{fill:#959595;}
</style>
<path id="P-3" class="st0" d="M47,33c-0.3,0-0.6,0.3-0.6,0.6c0,0,0,0,0,0v12.5H1.6V33.6C1.6,33.3,1.4,33,1,33s-0.6,0.3-0.6,0.6l0,0
	v13.1c0,0.3,0.3,0.6,0.6,0.6c0,0,0,0,0,0h46c0.3,0,0.6-0.3,0.6-0.6c0,0,0,0,0,0V33.6C47.6,33.3,47.4,33,47,33C47,33,47,33,47,33z
	 M5.3,33c-0.3,0-0.6,0.3-0.6,0.6c0,0,0,0,0,0v9c0,0.4,0.3,0.6,0.6,0.6h37.4c0.4,0,0.6-0.3,0.6-0.6v-9c0-0.3-0.3-0.6-0.7-0.6
	c-0.3,0-0.6,0.3-0.6,0.6V42H5.9v-8.4C5.9,33.3,5.6,33,5.3,33C5.3,33,5.3,33,5.3,33L5.3,33z M48,5.3V0.6C48,0.3,47.7,0,47.4,0
	c0,0,0,0,0,0H0.6C0.3,0,0,0.3,0,0.6c0,0,0,0,0,0v4.6c0,0.2,0.1,0.4,0.3,0.5v3.9c0,0.2,0,0.3,0,0.4l0,0.3c0,0.3-0.1,0.6-0.1,0.9
	C0,13.4-0.1,15,0.3,16.1c0,0,0,0,0,0.1s0,0,0,0v3.5l0,0.3c0,0.2,0,0.3,0,0.5c0,0.3,0,0.6-0.1,0.9c-0.3,1.5-0.2,3.1,0.1,4.7l0,0.2
	c-0.3,1.3-0.3,2.7,0.1,4c0.5,1.1,1.7,1.7,2.9,1.5h41.6c1.2,0.2,2.4-0.5,2.9-1.5c0.4-1.3,0.4-2.7,0.1-4l0-0.2
	c0.3-1.5,0.3-3.1,0.1-4.7l-0.1-0.8c0-0.3,0-0.5-0.1-0.8v-3.5c0,0,0,0,0,0c0,0,0,0,0,0c0.4-1.1,0.3-2.6,0.1-4.8c0-0.3,0-0.6-0.1-0.9
	c0-0.3,0-0.5-0.1-0.8V5.8C47.9,5.7,48,5.5,48,5.3z M46.4,9.7c0,0.3,0,0.6,0.1,0.8c0,0.3,0,0.6,0.1,0.9c0.2,1.4,0.2,2.8,0,4.2
	c0,0,0,0,0,0c-0.1,0.2-0.1,0.3-0.3,0.4c-0.4,0.3-0.9,0.5-1.5,0.4h-8.6V5.9h10.2L46.4,9.7C46.4,9.7,46.4,9.7,46.4,9.7L46.4,9.7z
	 M46.4,19.7c0,0.3,0,0.6,0.1,0.8l0.1,0.8c0.2,1.4,0.2,2.8,0,4.2c0,0,0,0,0,0c-0.1,0.2-0.1,0.3-0.3,0.4c-0.4,0.3-0.9,0.5-1.5,0.4
	h-8.6v-8.7h8.6c0.6,0,1.1-0.1,1.6-0.3L46.4,19.7C46.4,19.7,46.4,19.7,46.4,19.7L46.4,19.7z M1.5,25.6C1.5,25.6,1.5,25.6,1.5,25.6
	L1.5,25.6c-0.3-1.4-0.3-2.8,0-4.3c0-0.3,0-0.6,0.1-0.9c0-0.1,0-0.3,0-0.4l0-0.3c0,0,0,0,0-0.1v-2.2c0.5,0.2,1.1,0.3,1.6,0.3h8.7v8.7
	H3.2c-0.5,0.1-1-0.1-1.5-0.4C1.6,25.9,1.5,25.7,1.5,25.6L1.5,25.6z M1.4,11.4c0-0.3,0.1-0.6,0.1-0.9l0-0.3c0-0.1,0-0.3,0-0.4
	c0,0,0,0,0,0V5.9h10.3v10.6H3.2c-0.5,0.1-1.1-0.1-1.5-0.4c-0.1-0.1-0.2-0.3-0.3-0.4c0,0,0,0,0,0C1.2,14.2,1.2,12.8,1.4,11.4
	L1.4,11.4z M35,5.9v10.6H24.7V5.9H35L35,5.9z M23.4,16.4H13.2V5.9h10.3L23.4,16.4L23.4,16.4z M13.2,17.7h10.3v8.7H13.2L13.2,17.7
	L13.2,17.7z M24.7,17.7H35v8.7H24.7L24.7,17.7L24.7,17.7z M1.3,1.3h45.5v3.4H1.3L1.3,1.3L1.3,1.3z M46.5,29.5
	c-0.2,0.4-0.5,0.8-1.7,0.8H3.2c-1.2,0-1.6-0.4-1.7-0.8c-0.2-0.7-0.3-1.5-0.1-2.3c0.6,0.3,1.2,0.4,1.9,0.4h41.6
	c0.6,0,1.3-0.1,1.9-0.4C46.8,28,46.8,28.8,46.5,29.5L46.5,29.5z M3.5,21h6.4c0.3,0,0.6-0.3,0.6-0.6c0-0.3-0.3-0.6-0.6-0.6H3.5
	c-0.3,0-0.6,0.3-0.6,0.6S3.1,21,3.5,21L3.5,21L3.5,21z M3.5,24.6h6.4c0.3,0,0.6-0.3,0.6-0.6c0,0,0,0,0,0c0-0.4-0.3-0.6-0.6-0.6H3.5
	c-0.4,0-0.6,0.3-0.6,0.6C2.8,24.3,3.1,24.6,3.5,24.6L3.5,24.6z M15.3,21h6.4c0.3,0,0.6-0.3,0.6-0.6c0-0.3-0.3-0.6-0.6-0.6h-6.4
	c-0.3,0-0.6,0.3-0.6,0.6S15,21,15.3,21L15.3,21L15.3,21z M21.7,23.3h-6.4c-0.4,0-0.6,0.3-0.6,0.6c0,0.3,0.3,0.6,0.6,0.6c0,0,0,0,0,0
	h6.4c0.3,0,0.6-0.3,0.6-0.6c0,0,0,0,0,0C22.4,23.6,22.1,23.3,21.7,23.3L21.7,23.3z M26.8,21h6.4c0.3,0,0.6-0.3,0.6-0.6
	c0-0.3-0.3-0.6-0.6-0.6h-6.4c-0.3,0-0.6,0.3-0.6,0.6C26.2,20.7,26.4,21,26.8,21L26.8,21z M33.2,23.3h-6.4c-0.4,0-0.6,0.3-0.6,0.6
	c0,0.3,0.3,0.6,0.6,0.6c0,0,0,0,0,0h6.4c0.3,0,0.6-0.3,0.6-0.6c0,0,0,0,0,0C33.9,23.6,33.6,23.3,33.2,23.3L33.2,23.3z M26.8,10.2
	h6.4c0.3,0,0.6-0.3,0.6-0.6c0-0.3-0.3-0.6-0.6-0.6h-6.4c-0.3,0-0.6,0.3-0.6,0.6C26.1,9.9,26.4,10.2,26.8,10.2
	C26.8,10.2,26.8,10.2,26.8,10.2L26.8,10.2z M33.2,12.5h-6.4c-0.4,0-0.6,0.3-0.6,0.6s0.3,0.6,0.6,0.6h6.4c0.4,0,0.6-0.3,0.6-0.7
	C33.8,12.7,33.6,12.5,33.2,12.5L33.2,12.5z M44.7,19.7h-6.4c-0.3,0-0.6,0.3-0.6,0.6c0,0.3,0.3,0.6,0.6,0.6h6.4
	c0.3,0,0.6-0.3,0.6-0.6S45,19.7,44.7,19.7L44.7,19.7z M44.7,23.3h-6.4c-0.4,0-0.6,0.3-0.6,0.6c0,0.3,0.3,0.6,0.6,0.6c0,0,0,0,0,0
	h6.4c0.3,0,0.6-0.3,0.6-0.6c0,0,0,0,0,0C45.3,23.6,45.1,23.3,44.7,23.3L44.7,23.3z M44.7,8.5h-6.4c-0.3,0-0.6,0.3-0.6,0.6
	c0,0.3,0.3,0.6,0.6,0.6h6.4c0.3,0,0.6-0.3,0.6-0.6S45,8.5,44.7,8.5L44.7,8.5z M44.7,12.1h-6.4c-0.4,0-0.6,0.3-0.6,0.6
	s0.3,0.6,0.6,0.6h6.4c0.4,0,0.6-0.3,0.6-0.6C45.3,12.3,45.1,12.1,44.7,12.1L44.7,12.1z M15.3,10h6.4c0.3,0,0.6-0.3,0.6-0.6
	c0-0.3-0.3-0.6-0.6-0.6h-6.4c-0.3,0-0.6,0.3-0.7,0.6S14.9,10,15.3,10C15.3,10,15.3,10,15.3,10L15.3,10z M21.7,12.4h-6.4
	c-0.3,0-0.6,0.3-0.6,0.6c0,0.3,0.3,0.6,0.6,0.6l0,0h6.4c0.3,0,0.6-0.3,0.6-0.6S22.1,12.4,21.7,12.4L21.7,12.4z M3.4,10h6.4
	c0.3,0,0.6-0.3,0.6-0.6c0-0.3-0.3-0.6-0.6-0.6H3.4C3.1,8.8,2.8,9,2.8,9.4S3,10,3.4,10C3.4,10,3.4,10,3.4,10L3.4,10z M3.4,13.7h6.4
	c0.3,0,0.6-0.3,0.6-0.6c0-0.3-0.3-0.6-0.6-0.6H3.4c-0.3,0-0.6,0.3-0.6,0.6C2.8,13.4,3.1,13.7,3.4,13.7L3.4,13.7z"/>
</svg>
