<svg xmlns="http://www.w3.org/2000/svg" width="11" height="34" viewBox="0 0 11 34">
  <metadata><?xpacket begin="﻿" id="W5M0MpCehiHzreSzNTczkc9d"?>
<x:xmpmeta xmlns:x="adobe:ns:meta/" x:xmptk="Adobe XMP Core 5.6-c142 79.160924, 2017/07/13-01:06:39        ">
   <rdf:RDF xmlns:rdf="http://www.w3.org/1999/02/22-rdf-syntax-ns#">
      <rdf:Description rdf:about=""/>
   </rdf:RDF>
</x:xmpmeta>
                                                                                                    
                                                                                                    
                                                                                                    
                                                                                                    
                                                                                                    
                                                                                                    
                                                                                                    
                                                                                                    
                                                                                                    
                                                                                                    
                                                                                                    
                                                                                                    
                                                                                                    
                                                                                                    
                                                                                                    
                                                                                                    
                                                                                                    
                                                                                                    
                                                                                                    
                                                                                                    
                           
<?xpacket end="w"?></metadata>
<defs>
    <style>
      .cls-1 {
        fill: #fff;
        fill-rule: evenodd;
      }
    </style>
  </defs>
  <path id="scroll" class="cls-1" d="M394.487,1010h0a0.793,0.793,0,0,1-.8-0.79l0-32.421a0.794,0.794,0,0,1,.8-0.789h0a0.794,0.794,0,0,1,.8.789l0,32.421A0.792,0.792,0,0,1,394.487,1010Zm0,0a0.824,0.824,0,0,1-.567-0.23l-4.715-4.66a0.775,0.775,0,0,1,0-1.11,0.8,0.8,0,0,1,1.13,0l4.15,4.09,4.15-4.09a0.8,0.8,0,0,1,1.13,0,0.775,0.775,0,0,1,0,1.11l-4.715,4.66A0.811,0.811,0,0,1,394.487,1010Z" transform="translate(-389 -976)"/>
</svg>
