<?xml version="1.0" encoding="utf-8"?>
<!-- Generator: Adobe Illustrator 22.0.1, SVG Export Plug-In . SVG Version: 6.00 Build 0)  -->
<svg version="1.1" id="Layer_1" xmlns="http://www.w3.org/2000/svg" xmlns:xlink="http://www.w3.org/1999/xlink" x="0px" y="0px"
	 viewBox="0 0 416 480" style="enable-background:new 0 0 416 480;" xml:space="preserve">
<g>
	<path d="M0,24v400c0,30.9,25.1,56,56,56h80c30.9,0,56-25.1,56-56V200h24c4.4,0,8-3.6,8-8v-48c0-4.4-3.6-8-8-8h-24V24
		c0-13.3-10.7-24-24-24H24C10.7,0,0,10.7,0,24z M208,152v32h-16v-32H208z M176,24v400c0,22.1-17.9,40-40,40H56
		c-22.1,0-40-17.9-40-40V24c0-4.4,3.6-8,8-8h144C172.4,16,176,19.6,176,24z"/>
	<path d="M296,416h64c30.9,0,56-25.1,56-56V88c0-13.3-10.7-24-24-24H264c-13.3,0-24,10.7-24,24v184.8c-21.6,4.4-35.6,25.5-31.2,47.2
		c3.2,15.7,15.5,28,31.2,31.2v8.8C240,390.9,265.1,416,296,416L296,416z M320,400v-24h16v24H320z M256,88c0-4.4,3.6-8,8-8h128
		c4.4,0,8,3.6,8,8v272c0,22.1-17.9,40-40,40h-8v-32c0-4.4-3.6-8-8-8h-32c-4.4,0-8,3.6-8,8v32h-8c-22.1,0-40-17.9-40-40V88z M224,312
		c0-10.2,6.4-19.2,16-22.6v45.3C230.4,331.2,224,322.2,224,312L224,312z"/>
	<path d="M320,328h16v16h-16V328z"/>
	<path d="M320,232h16v48h-16V232z"/>
	<path d="M354.5,242l-10.6,12c9.9,8.8,10.9,23.9,2.1,33.9s-23.9,10.9-33.9,2.1c-9.9-8.8-10.9-23.9-2.1-33.9c0.7-0.8,1.4-1.5,2.1-2.1
		l-10.6-12c-16.6,14.6-18.2,39.9-3.5,56.5s39.9,18.2,56.5,3.5s18.2-39.9,3.5-56.5C356.9,244.3,355.7,243.1,354.5,242z"/>
	<path d="M272,104h112v16H272V104z"/>
	<path d="M288,136h80v16h-80V136z"/>
	<path d="M40,144h112c4.4,0,8-3.6,8-8V40c0-4.4-3.6-8-8-8H40c-4.4,0-8,3.6-8,8v96C32,140.4,35.6,144,40,144z M48,48h96v80H48V48z"/>
	<path d="M120,184c0-13.3-10.7-24-24-24s-24,10.7-24,24s10.7,24,24,24S120,197.3,120,184z M88,184c0-4.4,3.6-8,8-8s8,3.6,8,8
		s-3.6,8-8,8S88,188.4,88,184z"/>
	<circle cx="48" cy="208" r="16"/>
	<circle cx="144" cy="208" r="16"/>
	<path d="M40,280c0,30.9,25.1,56,56,56s56-25.1,56-56s-25.1-56-56-56C65.1,224,40,249.1,40,280z M96,240c22.1,0,40,17.9,40,40
		s-17.9,40-40,40s-40-17.9-40-40C56,257.9,73.9,240,96,240z"/>
	<path d="M96,304c13.3,0,24-10.7,24-24s-10.7-24-24-24s-24,10.7-24,24S82.7,304,96,304z M96,272c4.4,0,8,3.6,8,8s-3.6,8-8,8
		s-8-3.6-8-8S91.6,272,96,272z"/>
	<path d="M48,424h96v16H48V424z"/>
	<path d="M32,392h32v16H32V392z"/>
	<path d="M128,392h32v16h-32V392z"/>
	<path d="M80,392h32v16H80V392z"/>
</g>
</svg>
