<?xml version="1.0" encoding="utf-8"?>
<!-- Generator: Adobe Illustrator 22.0.1, SVG Export Plug-In . SVG Version: 6.00 Build 0)  -->
<svg version="1.1" id="Layer_1" xmlns="http://www.w3.org/2000/svg" xmlns:xlink="http://www.w3.org/1999/xlink" x="0px" y="0px"
	 viewBox="0 0 496 336" style="enable-background:new 0 0 496 336;" xml:space="preserve">
<g>
	<path d="M496,200h-32v-16h-32v-12l-37.3-28H368V56c0-13.2-10.8-24-24-24h-8v-8c0-13.2-10.8-24-24-24H88C77.6,0,68.8,6.7,65.5,16H0
		v48h64v33.5c-9.3,3.3-16,12.1-16,22.5v56H0v128h48v8c0,13.2,10.8,24,24,24h240c10.4,0,19.2-6.7,22.5-16h9.5
		c10.4,0,19.2-6.7,22.5-16h28.1l37.3-28v-12h32v-16h32V200z M320,24v8h-32v64H112V16h200C316.4,16,320,19.6,320,24z M88,16h8v80H80
		V24C80,19.6,83.6,16,88,16z M16,48V32h48v16H16z M48,192v20.4c-4.7-2.8-10.1-4.4-16-4.4s-11.3,1.7-16,4.4V192H48z M48,240
		c0,8.8-7.2,16-16,16s-16-7.2-16-16s7.2-16,16-16S48,231.2,48,240z M16,288v-20.4c4.7,2.8,10.1,4.4,16,4.4s11.3-1.7,16-4.4V288H16z
		 M320,312c0,4.4-3.6,8-8,8H112V136H96v184H72c-4.4,0-8-3.6-8-8V120c0-4.4,3.6-8,8-8h200v192h16V112h24c4.4,0,8,3.6,8,8V312z
		 M352,296c0,4.4-3.6,8-8,8h-8V120c0-13.2-10.8-24-24-24h-8V48h40c4.4,0,8,3.6,8,8V296z M416,268l-26.7,20H368V160h21.3l26.7,20V268
		z M448,248h-16v-48h16V248z M480,232h-16v-16h16V232z"/>
</g>
</svg>
