<?xml version="1.0" encoding="utf-8"?>
<!-- Generator: Adobe Illustrator 22.0.1, SVG Export Plug-In . SVG Version: 6.00 Build 0)  -->
<svg version="1.1" id="Capa_1" xmlns="http://www.w3.org/2000/svg" xmlns:xlink="http://www.w3.org/1999/xlink" x="0px" y="0px"
	 viewBox="0 0 368 304" style="enable-background:new 0 0 368 304;" xml:space="preserve">
<g>
	<g>
		<g>
			<path d="M296,16c-39.7,0-72,32.3-72,72c0,4.4,3.6,8,8,8s8-3.6,8-8c0-30.9,25.1-56,56-56s56,25.1,56,56s-25.1,56-56,56H8
				c-4.4,0-8,3.6-8,8s3.6,8,8,8h288c39.7,0,72-32.3,72-72S335.7,16,296,16z"/>
		</g>
	</g>
	<g>
		<g>
			<path d="M144,0c-30.9,0-56,25.1-56,56c0,4.4,3.6,8,8,8s8-3.6,8-8c0-22.1,17.9-40,40-40s40,17.9,40,40s-17.9,40-40,40H8
				c-4.4,0-8,3.6-8,8s3.6,8,8,8h136c30.9,0,56-25.1,56-56S174.9,0,144,0z"/>
		</g>
	</g>
	<g>
		<g>
			<path d="M280,192H8c-4.4,0-8,3.6-8,8s3.6,8,8,8h272c22.1,0,40,17.9,40,40s-17.9,40-40,40s-40-17.9-40-40c0-4.4-3.6-8-8-8
				s-8,3.6-8,8c0,30.9,25.1,56,56,56s56-25.1,56-56S310.9,192,280,192z"/>
		</g>
	</g>
</g>
</svg>
