<svg 
 xmlns="http://www.w3.org/2000/svg"
 xmlns:xlink="http://www.w3.org/1999/xlink"
 width="24px" height="24px">
<path fill-rule="evenodd"  fill="rgb(255, 0, 0)"
 d="M12.000,24.000 C5.373,24.000 -0.000,18.627 -0.000,12.000 C-0.000,5.373 5.373,-0.000 12.000,-0.000 C18.627,-0.000 24.000,5.373 24.000,12.000 C24.000,18.627 18.627,24.000 12.000,24.000 ZM12.000,0.800 C5.824,0.800 0.800,5.824 0.800,12.000 C0.800,18.176 5.824,23.200 12.000,23.200 C18.176,23.200 23.200,18.176 23.200,12.000 C23.200,5.824 18.176,0.800 12.000,0.800 ZM16.783,16.783 C16.705,16.861 16.602,16.900 16.500,16.900 C16.398,16.900 16.295,16.861 16.217,16.783 L12.000,12.566 L7.783,16.783 C7.705,16.861 7.602,16.900 7.500,16.900 C7.398,16.900 7.295,16.861 7.217,16.783 C7.061,16.627 7.061,16.373 7.217,16.217 L11.434,12.000 L7.217,7.783 C7.061,7.627 7.061,7.373 7.217,7.217 C7.373,7.061 7.626,7.061 7.783,7.217 L12.000,11.434 L16.217,7.217 C16.373,7.061 16.626,7.061 16.783,7.217 C16.939,7.373 16.939,7.627 16.783,7.783 L12.566,12.000 L16.783,16.217 C16.939,16.373 16.939,16.627 16.783,16.783 Z"/>
</svg>