<svg xmlns="http://www.w3.org/2000/svg" xmlns:xlink="http://www.w3.org/1999/xlink" width="48px" height="48px" viewBox="0 0 48 48" version="1.1">
    <!-- Generator: Sketch 50.2 (55047) - http://www.bohemiancoding.com/sketch -->
    <title>Telegram_white</title>
    <desc>Created with Sketch.</desc>
    <defs/>
    <g id="Telegram_white" stroke="none" stroke-width="1" fill="none" fill-rule="evenodd">
        <g id="Telegram" fill="#FFFFFF" fill-rule="nonzero">
            <path d="M20.008343,28.8822534 L19.6,35 C20.2,35 20.4651,34.7256 20.8,34.4 L23.6827106,31.5969242 L29.68,36.0278 C30.7837,36.63678 31.58028,36.32148 31.8552,35.0031 L35.7922,16.4505 C36.19528,14.83446 35.17618,14.1015 34.12032,14.58086 L11.00232,23.49506 C9.4243,24.128 9.4335,25.00838 10.71468,25.40066 L16.64728,27.25232 L30.38188,18.58732 C31.03026,18.19414 31.62534,18.405522 31.13692,18.839 L20.008,28.882 L20.008343,28.8822534 Z M24,48 C10.745166,48 0,37.254834 0,24 C0,10.745166 10.745166,0 24,0 C37.254834,0 48,10.745166 48,24 C48,37.254834 37.254834,48 24,48 Z" id="Combined-Shape"/>
        </g>
    </g>
</svg>