<svg xmlns="http://www.w3.org/2000/svg" width="11.62" height="19.75" viewBox="0 0 11.62 19.75">
  <metadata><?xpacket begin="﻿" id="W5M0MpCehiHzreSzNTczkc9d"?>
<x:xmpmeta xmlns:x="adobe:ns:meta/" x:xmptk="Adobe XMP Core 5.6-c142 79.160924, 2017/07/13-01:06:39        ">
   <rdf:RDF xmlns:rdf="http://www.w3.org/1999/02/22-rdf-syntax-ns#">
      <rdf:Description rdf:about=""/>
   </rdf:RDF>
</x:xmpmeta>
                                                                                                    
                                                                                                    
                                                                                                    
                                                                                                    
                                                                                                    
                                                                                                    
                                                                                                    
                                                                                                    
                                                                                                    
                                                                                                    
                                                                                                    
                                                                                                    
                                                                                                    
                                                                                                    
                                                                                                    
                                                                                                    
                                                                                                    
                                                                                                    
                                                                                                    
                                                                                                    
                           
<?xpacket end="w"?></metadata>
<defs>
    <style>
      .cls-1 {
        fill: #121212;
        fill-rule: evenodd;
      }
    </style>
  </defs>
  <path id="ок" class="cls-1" d="M1350.18,3636.28a5.331,5.331,0,1,1,5.23-5.33A5.282,5.282,0,0,1,1350.18,3636.28Zm0-9.71a4.376,4.376,0,1,0,4.3,4.38A4.343,4.343,0,0,0,1350.18,3626.57Zm0,6.86a2.485,2.485,0,1,1,2.44-2.48A2.458,2.458,0,0,1,1350.18,3633.43Zm0-4.02a1.535,1.535,0,1,0,1.51,1.54A1.52,1.52,0,0,0,1350.18,3629.41Zm3.61,15.97a1.83,1.83,0,0,1-1.32-.56l-2.29-2.33-2.29,2.33a1.824,1.824,0,0,1-2.63,0,1.914,1.914,0,0,1,0-2.68l2.09-2.14a9.266,9.266,0,0,1-2.11-1,1.925,1.925,0,0,1-.59-2.62,1.86,1.86,0,0,1,1.16-.84,1.837,1.837,0,0,1,1.41.24,5.51,5.51,0,0,0,5.92,0,1.8,1.8,0,0,1,1.41-.24,1.834,1.834,0,0,1,1.16.84,1.928,1.928,0,0,1-.58,2.62,9.542,9.542,0,0,1-2.12,1l2.09,2.14a1.907,1.907,0,0,1,0,2.68A1.825,1.825,0,0,1,1353.79,3645.38Zm-3.61-4.23,2.95,3a0.924,0.924,0,0,0,.66.28,0.9,0.9,0,0,0,.65-0.28,0.942,0.942,0,0,0,0-1.34l-3.26-3.32,0.83-.19a8.415,8.415,0,0,0,2.62-1.11,0.934,0.934,0,0,0,.41-0.59,0.973,0.973,0,0,0-.12-0.71,0.883,0.883,0,0,0-.58-0.42,0.869,0.869,0,0,0-.7.12,6.459,6.459,0,0,1-6.92,0,0.869,0.869,0,0,0-.7-0.12,0.907,0.907,0,0,0-.58.42,0.958,0.958,0,0,0,.29,1.3,8.469,8.469,0,0,0,2.63,1.11l0.82,0.19-3.26,3.32a0.966,0.966,0,0,0,0,1.34,0.906,0.906,0,0,0,1.31,0Z" transform="translate(-1344.38 -3625.63)"/>
</svg>
