<?xml version="1.0" encoding="utf-8"?>
<!-- Generator: Adobe Illustrator 22.0.1, SVG Export Plug-In . SVG Version: 6.00 Build 0)  -->
<svg version="1.1" id="Layer_1" xmlns="http://www.w3.org/2000/svg" xmlns:xlink="http://www.w3.org/1999/xlink" x="0px" y="0px"
	 viewBox="0 0 54.5 48" style="enable-background:new 0 0 54.5 48;" xml:space="preserve">
<style type="text/css">
	.st0{fill:#EEEB20;}
</style>
<path id="video" class="st0" d="M7.5,0H47c4.1,0,7.4,3.3,7.5,7.4v33.1c0,4.1-3.3,7.4-7.5,7.5H7.5C3.3,48,0,44.7,0,40.5V7.4
	C0,3.3,3.3,0,7.5,0z M2.3,32h49.9V7.4c0-2.9-2.3-5.2-5.2-5.2H7.5c-2.9,0-5.2,2.3-5.2,5.2L2.3,32L2.3,32z M52.2,34.3H2.3v6.3
	c0,2.9,2.3,5.2,5.2,5.2H47c2.9,0,5.2-2.3,5.2-5.2L52.2,34.3L52.2,34.3z M33.4,18.5l-8.7-5.3v10.5L33.4,18.5L33.4,18.5L33.4,18.5z
	 M30.2,13.9l6,3.6c0.5,0.3,0.7,1,0.4,1.5c-0.1,0.2-0.2,0.3-0.4,0.4l-11.9,7.3c-0.5,0.4-1.2,0.2-1.6-0.3c-0.1-0.2-0.2-0.4-0.2-0.6
	V11.2c0-0.6,0.5-1.1,1.1-1.1c0.2,0,0.4,0.1,0.6,0.2L30.2,13.9L30.2,13.9L30.2,13.9z M8.9,41.1c-0.6,0-1.1-0.5-1.1-1.1
	c0-0.6,0.5-1.1,1.1-1.1h3.2v-1.4c0-0.6,0.5-1.1,1.1-1.1c0,0,0,0,0,0h5c0.6,0,1.1,0.5,1.1,1.1c0,0,0,0,0,0v1.4h26.2
	c0.6,0,1.1,0.5,1.1,1.1c0,0.6-0.5,1.1-1.1,1.1c0,0,0,0,0,0H19.4v1.4c0,0.6-0.5,1.1-1.1,1.1c0,0,0,0,0,0h-5c-0.6,0-1.1-0.5-1.1-1.1
	v-1.4H8.9z M14.4,41.4h2.8v-2.7h-2.8V41.4z"/>
</svg>
