<?xml version="1.0" encoding="utf-8"?>
<!-- Generator: Adobe Illustrator 22.0.1, SVG Export Plug-In . SVG Version: 6.00 Build 0)  -->
<svg version="1.1" id="Layer_1" xmlns="http://www.w3.org/2000/svg" xmlns:xlink="http://www.w3.org/1999/xlink" x="0px" y="0px"
	 viewBox="0 0 330 75" style="enable-background:new 0 0 330 75;" xml:space="preserve">
<style type="text/css">
	.st0{fill:#828282;}
</style>
<path class="st0" d="M0,0v52.4v22.6h41.1c1,0,2,0,3,0c4.9-0.2,9.7-1.6,14.1-4.1c0.8-0.5,1.6-0.9,2.3-1.5l18.3-12.7
	c3.1-2.1,7.2-2.1,10.3,0l18.3,12.7c0.8,0.5,1.5,1,2.3,1.5c4.4,2.5,9.2,3.8,14.1,4.1c0.5,0,1,0,1.5,0c0.5,0,1,0,1.5,0
	c4.9-0.2,9.7-1.6,14.1-4.1c0.8-0.5,1.6-0.9,2.3-1.5l18.4-12.7c3.1-2.1,7.2-2.1,10.3,0l18.4,12.7c0.8,0.5,1.5,1,2.3,1.5
	c4.4,2.5,9.2,3.8,14.1,4.1c1,0,2,0,3.1,0c4.9-0.2,9.7-1.6,14.1-4.1c0.8-0.5,1.6-0.9,2.3-1.5l18.3-12.7c3.1-2.1,7.2-2.1,10.3,0
	l18.4,12.7c0.8,0.5,1.5,1,2.3,1.5c4.4,2.5,9.2,3.8,14.1,4.1c0.5,0,1,0,1.5,0c0.5,0,1,0,1.5,0H330V52.4l0,0l0,0V0H0z M325.9,70.9h-19
	h-14.1h-3c-5-0.3-9.9-1.9-14.1-4.8l-18.4-12.7c-4.5-3.1-10.5-3.1-14.9,0l-18.4,12.7c-4.3,2.9-9.2,4.5-14.1,4.8h-3
	c-5-0.3-9.9-1.9-14.1-4.8l-18.4-12.7c-4.5-3.1-10.5-3.1-14.9,0l-18.3,12.7c-4.3,2.9-9.2,4.5-14.1,4.8h-3c-5-0.3-9.9-1.9-14.1-4.8
	L91.5,53.4c-4.5-3.1-10.5-3.1-14.9,0L58.3,66.1c-4.3,2.9-9.2,4.5-14.1,4.8h-3H27H4.1V55.2v-4.9V4.1h321.9v46.2v4.9V70.9z"/>
</svg>
