<?xml version="1.0" encoding="utf-8"?>
<!-- Generator: Adobe Illustrator 22.0.1, SVG Export Plug-In . SVG Version: 6.00 Build 0)  -->
<svg version="1.1" id="Layer_1" xmlns="http://www.w3.org/2000/svg" xmlns:xlink="http://www.w3.org/1999/xlink" x="0px" y="0px"
	 viewBox="0 0 330 75.3" style="enable-background:new 0 0 330 75.3;" xml:space="preserve">
<style type="text/css">
	.st0{fill:#828282;}
</style>
<path class="st0" d="M0,0v75.3h41.3h1.4v0c10.4-0.6,15.7-8,20.9-15.2c5-6.9,9.7-13.5,18.9-13.5s14,6.6,18.9,13.5
	c5.4,7.5,10.9,15.2,22.3,15.2c11.4,0,16.9-7.7,22.3-15.2c5-6.9,9.7-13.5,18.9-13.5c9.3,0,14,6.6,18.9,13.5
	c5.4,7.5,10.9,15.2,22.3,15.2c11.4,0,16.9-7.7,22.3-15.2c5-6.9,9.7-13.5,18.9-13.5c9.3,0,14,6.6,19,13.5
	c5.3,7.4,10.8,14.9,21.8,15.2v0h0.5H330V46.6v-4.1V0H0z M325.9,43v4.2v24.1h-24.6h-12.5c-9.3,0-14-6.6-19-13.5
	c-5.4-7.5-10.9-15.2-22.3-15.2c-11.4,0-16.9,7.7-22.3,15.2c-5,6.9-9.7,13.5-18.9,13.5c-9.3,0-14-6.6-18.9-13.5
	c-5.4-7.5-10.9-15.2-22.3-15.2c-11.4,0-16.9,7.7-22.3,15.2c-5,6.9-9.7,13.5-18.9,13.5s-14-6.6-18.9-13.5
	C99.5,50.3,94,42.6,82.6,42.6c-11.4,0-16.9,7.7-22.3,15.2c-5,6.9-9.7,13.5-18.9,13.5H28.9H4.1V47.1v-4.2V4.1h321.9V43z"/>
</svg>
