<svg height="512" viewBox="0 0 512 512" width="512" xmlns="http://www.w3.org/2000/svg"><path d="m128 352a32 32 0 1 0 32 32 32.036 32.036 0 0 0 -32-32zm0 48a16 16 0 1 1 16-16 16.016 16.016 0 0 1 -16 16z"/><path d="m384 352a32 32 0 1 0 32 32 32.036 32.036 0 0 0 -32-32zm0 48a16 16 0 1 1 16-16 16.016 16.016 0 0 1 -16 16z"/><circle cx="120" cy="64" r="16"/><circle cx="168" cy="64" r="16"/><circle cx="344" cy="64" r="16"/><circle cx="392" cy="64" r="16"/><path d="m472 144h-24v-72a56.063 56.063 0 0 0 -56-56h-272a56.063 56.063 0 0 0 -56 56v72h-24a24.027 24.027 0 0 0 -24 24v80a24.027 24.027 0 0 0 24 24h24v200a24.027 24.027 0 0 0 24 24h64a24.027 24.027 0 0 0 24-24v-24h160v24a24.027 24.027 0 0 0 24 24h64a24.027 24.027 0 0 0 24-24v-200h24a24.027 24.027 0 0 0 24-24v-80a24.027 24.027 0 0 0 -24-24zm-93.877 176-28-16h33.877v-16h-112v16h45.877l28 16h-143.754l-28-16h33.877v-16h-112v16h45.877l28 16h-73.877a16.016 16.016 0 0 1 -16-16v-176a16.016 16.016 0 0 1 16-16h320a16.016 16.016 0 0 1 16 16v176a16.016 16.016 0 0 1 -16 16zm-258.123-288h272a40.047 40.047 0 0 1 40 40v28.452a31.624 31.624 0 0 0 -16-4.452h-320a31.624 31.624 0 0 0 -16 4.452v-28.452a40.047 40.047 0 0 1 40-40zm-80 224a8.011 8.011 0 0 1 -8-8v-80a8.011 8.011 0 0 1 8-8h24v96zm40 216v-32.2a39.636 39.636 0 0 0 16 7.4v32.8h-8a8.011 8.011 0 0 1 -8-8zm32-24h16v32h-16zm48 24a8.011 8.011 0 0 1 -8 8h-8v-32h16zm192 0v-24h16v32h-8a8.011 8.011 0 0 1 -8-8zm48 8h-16v-32h16zm24 0h-8v-32.809a39.636 39.636 0 0 0 16-7.4v32.209a8.011 8.011 0 0 1 -8 8zm-16-48h-304a24.027 24.027 0 0 1 -24-24v-76.452a31.624 31.624 0 0 0 16 4.452h320a31.624 31.624 0 0 0 16-4.452v76.452a24.027 24.027 0 0 1 -24 24zm72-184a8.011 8.011 0 0 1 -8 8h-24v-96h24a8.011 8.011 0 0 1 8 8z"/><path d="m96 128h16v16h-16z"/><path d="m96 160h16v96h-16z"/><path d="m176 360h160v16h-160z"/><path d="m176 392h160v16h-160z"/></svg>