<?xml version="1.0" encoding="utf-8"?>
<!-- Generator: Adobe Illustrator 25.0.0, SVG Export Plug-In . SVG Version: 6.00 Build 0)  -->
<svg version="1.1" id="Capa_1" xmlns="http://www.w3.org/2000/svg" xmlns:xlink="http://www.w3.org/1999/xlink" x="0px" y="0px"
	 viewBox="0 0 512 512" style="enable-background:new 0 0 512 512;" xml:space="preserve">
<style type="text/css">
	.st0{fill:#FFFFFF;}
</style>
<g id="XMLID_1318_">
	<g id="XMLID_361_">
		<path id="XMLID_364_" class="st0" d="M41.98,373.94C18.83,373.94,0,392.77,0,415.92s18.83,41.98,41.98,41.98
			s41.98-18.83,41.98-41.98S65.13,373.94,41.98,373.94z M41.98,437.91c-12.12,0-21.99-9.86-21.99-21.99s9.86-21.99,21.99-21.99
			s21.99,9.86,21.99,21.99S54.1,437.91,41.98,437.91z"/>
		<path id="XMLID_367_" class="st0" d="M470.02,285.99c23.15,0,41.98-18.83,41.98-41.98s-18.83-41.98-41.98-41.98
			c-23.15,0-41.98,18.83-41.98,41.98c0,2.01,0.15,3.98,0.42,5.92l-127,51.01c-2.12-3.31-4.58-6.39-7.36-9.15l36.36-53.38
			c3.17,0.98,6.54,1.51,10.03,1.51c18.74,0,33.98-15.24,33.98-33.98s-15.24-33.98-33.98-33.98c-18.74,0-33.98,15.24-33.98,33.98
			c0,8.01,2.79,15.38,7.45,21.2l-36.37,53.39c-3.67-1.61-7.56-2.82-11.6-3.58V10.12c0-5.52-4.48-10-10-10c-5.52,0-10,4.47-10,10
			v266.81c-0.07,0.01-0.14,0.02-0.2,0.04l-41.08-93.34c7.2-6.24,11.76-15.43,11.76-25.68c0-18.74-15.24-33.98-33.98-33.98
			s-33.98,15.24-33.98,33.98s15.24,33.98,33.98,33.98c1.33,0,2.64-0.08,3.93-0.23l40.78,92.65c-6.32,4-11.76,9.27-15.94,15.45
			l-94.74-40.84c0.38-2.26,0.59-4.59,0.59-6.96c0-23.15-18.83-41.98-41.98-41.98S33.15,228.85,33.15,252s18.83,41.98,41.98,41.98
			c13.65,0,25.79-6.55,33.47-16.67l94.75,40.84c-0.85,3.8-1.32,7.75-1.32,11.81c0,3.59,0.36,7.1,1.03,10.49l-51.81,20.81
			c-5.12,2.06-7.61,7.88-5.55,13c1.57,3.9,5.32,6.27,9.28,6.27c1.24,0,2.5-0.23,3.72-0.72l51.84-20.82
			c4.24,6.62,9.89,12.26,16.52,16.49l-27.38,68.55c-0.91-0.07-1.83-0.12-2.76-0.12c-18.74,0-33.98,15.24-33.98,33.98
			c0,18.74,15.24,33.98,33.98,33.98s33.98-15.24,33.98-33.98c0-10.67-4.95-20.2-12.66-26.43l27.38-68.53
			c3.37,0.66,6.84,1.01,10.39,1.01c17.54,0,33.15-8.42,43.02-21.42l88.9,44.21c-0.67,2.96-1.03,6.04-1.03,9.2
			c0,23.15,18.83,41.98,41.98,41.98c23.15,0,41.98-18.83,41.98-41.98s-18.83-41.98-41.98-41.98c-12.83,0-24.33,5.79-32.03,14.89
			l-88.91-44.21c1.32-4.66,2.04-9.58,2.04-14.66c0-3.59-0.36-7.1-1.03-10.49l126.99-51C443.56,279.06,456,285.99,470.02,285.99z
			 M340.5,191.93c7.72,0,13.99,6.28,13.99,13.99s-6.28,13.99-13.99,13.99c-7.72,0-13.99-6.28-13.99-13.99
			S332.78,191.93,340.5,191.93z M168.5,157.95c0-7.72,6.28-13.99,13.99-13.99s13.99,6.28,13.99,13.99s-6.28,13.99-13.99,13.99
			S168.5,165.67,168.5,157.95z M75.13,273.99c-12.12,0-21.99-9.86-21.99-21.99s9.86-21.99,21.99-21.99s21.99,9.86,21.99,21.99
			C97.12,264.13,87.26,273.99,75.13,273.99z M196.9,491.88c-7.72,0-13.99-6.28-13.99-13.99c0-7.72,6.28-13.99,13.99-13.99
			c7.72,0,13.99,6.28,13.99,13.99C210.9,485.61,204.62,491.88,196.9,491.88z M428.87,393.93c12.12,0,21.99,9.86,21.99,21.99
			s-9.86,21.99-21.99,21.99s-21.99-9.86-21.99-21.99S416.75,393.93,428.87,393.93z M256,363.95c-18.74,0-33.98-15.24-33.98-33.98
			c0-18.74,15.24-33.98,33.98-33.98c18.74,0,33.98,15.24,33.98,33.98C289.98,348.7,274.74,363.95,256,363.95z M470.02,222.02
			c12.12,0,21.99,9.86,21.99,21.99c0,12.12-9.86,21.99-21.99,21.99c-12.12,0-21.99-9.86-21.99-21.99S457.9,222.02,470.02,222.02z"/>
		<path id="XMLID_374_" class="st0" d="M113.46,377.35c-2.63,0-5.21,1.07-7.07,2.93c-1.87,1.86-2.93,4.43-2.93,7.07
			c0,2.63,1.06,5.21,2.93,7.07c1.86,1.86,4.43,2.93,7.07,2.93c2.63,0,5.21-1.07,7.07-2.93c1.86-1.86,2.93-4.44,2.93-7.07
			c0-2.64-1.07-5.21-2.93-7.07C118.67,378.42,116.09,377.35,113.46,377.35z"/>
	</g>
</g>
</svg>
