<?xml version="1.0" encoding="utf-8"?>
<!-- Generator: Adobe Illustrator 25.0.0, SVG Export Plug-In . SVG Version: 6.00 Build 0)  -->
<svg version="1.1" id="Capa_1" xmlns="http://www.w3.org/2000/svg" xmlns:xlink="http://www.w3.org/1999/xlink" x="0px" y="0px"
	 viewBox="0 0 464 464" style="enable-background:new 0 0 464 464;" xml:space="preserve">
<style type="text/css">
	.st0{fill:#FFFFFF;}
</style>
<g>
	<g>
		<path class="st0" d="M422.32,403.1l-48.68-62.58c15.77-4.71,29.4-14.8,38.51-28.51c11.46-19.82,6.28-44,1.26-67.36
			c-3.03-12-4.85-24.28-5.42-36.64c0.57-12.38,2.38-24.66,5.42-36.67c4.98-23.38,10.2-47.54-1.26-67.33
			c-11.87-20.51-35.78-28.1-58.9-35.43C341.75,65.4,330.6,61.03,320,55.54c-9.62-6.24-18.55-13.48-26.65-21.6
			C276.2,18.02,256.75,0,232,0s-44.2,18.02-61.36,33.94c-8.09,8.12-17.02,15.37-26.64,21.61c-10.6,5.48-21.74,9.83-33.25,12.99
			c-23.12,7.33-47.02,14.92-58.9,35.43c-11.46,19.82-6.28,44-1.26,67.36c3.03,12.01,4.85,24.3,5.41,36.67
			c-0.57,12.38-2.38,24.66-5.42,36.67c-4.98,23.38-10.2,47.54,1.26,67.33c9.12,13.72,22.76,23.8,38.55,28.5l-48.72,62.58
			c-2.71,3.49-2.08,8.51,1.41,11.23c1.68,1.3,3.8,1.89,5.91,1.62l57.2-7.14l14.12,49.41c0.83,2.9,3.21,5.08,6.17,5.66
			c0.5,0.1,1.01,0.14,1.52,0.14c2.47,0,4.8-1.14,6.32-3.09l51.09-65.71c12.57,12.24,29.09,19.61,46.59,20.8
			c17.51-1.19,34.02-8.56,46.59-20.8l51.09,65.69c1.51,1.96,3.85,3.11,6.32,3.11c0.51,0,1.02-0.05,1.52-0.14
			c2.96-0.57,5.34-2.76,6.17-5.66l14.12-49.4l57.2,7.14c4.38,0.55,8.38-2.56,8.93-6.94C424.21,406.9,423.62,404.77,422.32,403.1z
			 M131.36,438.65l-11.67-40.85c-1.08-3.79-4.77-6.22-8.68-5.74l-44.8,5.6l40.15-51.62l4.42,1.42c11.49,3.16,22.63,7.52,33.22,12.99
			c9.62,6.24,18.55,13.48,26.65,21.6l2.75,2.54L131.36,438.65z M232,400c-18.48,0-34.02-14.4-50.49-29.66
			c-8.96-8.95-18.85-16.91-29.51-23.74c-11.6-6.07-23.81-10.9-36.42-14.4c-21.14-6.71-41.12-13.05-49.89-28.2
			c-8.37-14.47-4.05-34.64,0.54-56c3.3-13.1,5.24-26.5,5.78-40c-0.54-13.5-2.47-26.9-5.77-40c-4.58-21.35-8.9-41.52-0.54-56
			c8.8-15.15,28.74-21.49,49.89-28.2c12.61-3.5,24.82-8.33,36.42-14.4c10.66-6.83,20.55-14.79,29.5-23.74
			C197.98,30.4,213.52,16,232,16s34.02,14.4,50.49,29.66c8.96,8.95,18.85,16.91,29.51,23.74c11.6,6.07,23.81,10.9,36.42,14.4
			c21.14,6.71,41.12,13.05,49.89,28.2c8.37,14.47,4.05,34.64-0.54,56c-3.3,13.1-5.23,26.5-5.78,40c0.54,13.5,2.47,26.9,5.77,40
			c4.58,21.35,8.9,41.52,0.54,56c-8.8,15.15-28.74,21.49-49.89,28.2c-12.61,3.5-24.82,8.33-36.42,14.4
			c-10.66,6.83-20.55,14.79-29.5,23.74C266.02,385.6,250.48,400,232,400z M353.03,392.06c-3.91-0.49-7.6,1.95-8.68,5.74
			l-11.71,40.85l-42.03-54.04l2.75-2.54c8.09-8.12,17.02-15.36,26.64-21.61c10.6-5.48,21.74-9.83,33.25-12.99l4.42-1.42l40.16,51.62
			L353.03,392.06z"/>
	</g>
</g>
<g>
	<g>
		<path class="st0" d="M232,64c-79.53,0-144,64.47-144,144s64.47,144,144,144s144-64.47,144-144C375.91,128.51,311.49,64.09,232,64z
			 M232,336c-70.69,0-128-57.31-128-128S161.31,80,232,80s128,57.31,128,128C359.92,278.66,302.66,335.92,232,336z"/>
	</g>
</g>
<g>
	<g>
		<path class="st0" d="M324.3,174.58c-3.01-4.13-7.81-6.58-12.93-6.58H262.4l-15.2-46.62c-2.76-8.4-11.8-12.96-20.2-10.2
			c-4.83,1.59-8.62,5.38-10.2,10.2L201.64,168h-49.02c-8.84,0-16,7.15-16.01,15.99c0,5.12,2.45,9.93,6.58,12.94l39.65,28.8
			l-15.14,46.62c-2.73,8.4,1.87,17.43,10.27,20.16c4.87,1.58,10.21,0.74,14.35-2.27L232,261.45l39.66,28.8
			c5.59,4.15,13.23,4.15,18.82,0c5.67-4.03,8.03-11.3,5.81-17.89l-15.14-46.62l39.65-28.8C327.93,191.74,329.51,181.73,324.3,174.58
			z M267.02,216.22c-2.81,2.04-3.98,5.65-2.9,8.95l16.94,52.14l-44.36-32.22c-2.8-2.04-6.6-2.04-9.4,0l-44.36,32.22l16.94-52.14
			c1.07-3.3-0.1-6.91-2.9-8.94L152.62,184h54.82c3.47,0,6.54-2.23,7.61-5.53L232,126.33l16.94,52.14c1.07,3.3,4.14,5.53,7.61,5.53
			l54.82,0.01L267.02,216.22z"/>
	</g>
</g>
</svg>
