<svg xmlns="http://www.w3.org/2000/svg" viewBox="0 0 49.65 89.91"><defs><style>.cls-1{fill:#ef8822;}.cls-2{fill:#e32027;}.cls-3{fill:#fff;}</style></defs><g id="Слой_2" data-name="Слой 2"><g id="РЎР_РѕР_1" data-name="РЎР»РѕР№ 1"><path id="SVGID" class="cls-1" d="M37.43,72.07a5.07,5.07,0,0,1,6.2-3.5l2.4.7a5,5,0,0,1,3.4,6.2l-2.9,10.7a5.11,5.11,0,0,1-2.4,3,4.61,4.61,0,0,1-3.8.4l-2.4-.7a5.11,5.11,0,0,1-3-2.4,4.61,4.61,0,0,1-.4-3.8Z"/><path id="SVGID-2" data-name="SVGID" class="cls-2" d="M28.63,43.07a5.07,5.07,0,0,1,6.2-3.5l2.4.7a5,5,0,0,1,3.4,6.2l-11.3,39.6a5.11,5.11,0,0,1-2.4,3,4.61,4.61,0,0,1-3.8.4l-2.4-.7a5.11,5.11,0,0,1-3-2.4,4.61,4.61,0,0,1-.4-3.8Z"/><path id="SVGID-3" data-name="SVGID" class="cls-3" d="M22.83,3.67A5.07,5.07,0,0,1,29,.17l2.4.7a5,5,0,0,1,3.4,6.2l-22.6,79.2a5.11,5.11,0,0,1-2.4,3,4.61,4.61,0,0,1-3.8.4L3.63,89a5.11,5.11,0,0,1-3-2.4,4.61,4.61,0,0,1-.4-3.8Z"/></g></g></svg>