<?xml version="1.0" encoding="utf-8"?>
<!-- Generator: Adobe Illustrator 25.0.0, SVG Export Plug-In . SVG Version: 6.00 Build 0)  -->
<svg version="1.1" id="Layer_1" xmlns="http://www.w3.org/2000/svg" xmlns:xlink="http://www.w3.org/1999/xlink" x="0px" y="0px"
	 viewBox="0 0 512 512" style="enable-background:new 0 0 512 512;" xml:space="preserve">
<style type="text/css">
	.st0{fill:#FFFFFF;}
</style>
<g>
	<g>
		<path class="st0" d="M510.54,351.08c-4.47-14.05-20.03-26.46-43.66-20.54c-0.06,0.01-0.11,0.03-0.17,0.04l-98.74,26.62
			c-3.56-15.51-18.43-26.15-34.6-24.15c-5.7,0.71-25,3.45-45.43,6.35c-19.5,2.77-39.67,5.64-45.21,6.32
			c-12.21,1.52-28.45,0.23-45.65-1.13c-6.07-0.48-12.35-0.98-18.77-1.38c-5.52-0.36-10.26,3.84-10.61,9.35s3.84,10.26,9.35,10.61
			c6.26,0.39,12.46,0.89,18.45,1.36c18.24,1.44,35.47,2.8,49.69,1.04c5.72-0.71,25.07-3.46,45.56-6.37
			c19.45-2.76,39.55-5.62,45.08-6.31c6.3-0.77,12.06,3.67,12.84,9.92c0.25,1.98,0.91,7.23-12.92,13.58
			c-28.44,13.04-58.75,24.2-83.16,30.62c-5.34,1.4-8.53,6.87-7.13,12.21c1.4,5.34,6.87,8.53,12.22,7.13
			c25.47-6.7,56.97-18.29,86.41-31.78c10.23-4.69,16.47-10.15,20.11-15.65l107.62-29.01c11.85-2.95,17.93,1.79,19.65,7.22
			c1.66,5.23-0.42,11.97-8.83,15.24c-8.38,3.15-28.42,11.87-53.78,22.91c-33.64,14.63-75.5,32.85-108.89,46.23
			c-41.07,16.47-52.74,18.66-96.2,18.2l-68.46-0.76c-0.04,0-0.07,0-0.11,0c-3.74,0-7.18,2.09-8.89,5.43l-9.4,18.28
			c-0.32,0.63-0.58,1.3-0.76,1.98c-1.39,5.18-3.13,7.35-10.37,7.35H25.16c-1.09,0-2.27-0.68-3.23-1.86
			c-0.82-1.01-2.61-3.85-1.64-8.48c12.04-57.49,35.78-93.1,72.55-108.87c5.08-2.18,7.43-8.06,5.25-13.13
			c-2.18-5.08-8.05-7.43-13.13-5.25c-43.21,18.53-70.77,58.81-84.25,123.15c-1.92,9.19,0.15,18.37,5.69,25.19
			c4.77,5.88,11.61,9.25,18.75,9.25h100.64c15.14,0,25.27-7.28,29.38-21.07l6.12-11.9l62.28,0.69
			c45.92,0.52,60.49-2.24,103.86-19.63c33.66-13.5,75.67-31.77,109.43-46.46c24.16-10.51,45.03-19.59,52.89-22.55
			c0.03-0.01,0.06-0.02,0.1-0.04C509.37,383.48,515.03,365.21,510.54,351.08L510.54,351.08z"/>
		<path class="st0" d="M216.01,122.84c16.54,0,30-13.46,30-30s-13.46-30-30-30s-30,13.46-30,30S199.47,122.84,216.01,122.84z
			 M216.01,82.84c5.51,0,10,4.49,10,10s-4.49,10-10,10s-10-4.49-10-10S210.49,82.84,216.01,82.84z"/>
		<path class="st0" d="M266.01,172.84c0,16.54,13.46,30,30,30s30-13.46,30-30c0-16.54-13.46-30-30-30S266.01,156.3,266.01,172.84z
			 M306.01,172.84c0,5.51-4.49,10-10,10s-10-4.49-10-10c0-5.51,4.49-10,10-10S306.01,167.33,306.01,172.84z"/>
		<path class="st0" d="M216.37,201.5c1.57,0.91,3.29,1.34,4.99,1.34c3.46,0,6.82-1.79,8.67-5l69.28-120
			c2.76-4.78,1.12-10.9-3.66-13.66c-4.78-2.76-10.9-1.12-13.66,3.66l-69.28,120C209.95,192.62,211.58,198.74,216.37,201.5
			L216.37,201.5z"/>
		<path class="st0" d="M120.42,198.26l120.07,120.96c4.13,4.15,9.62,6.45,15.48,6.46h0.06c5.83,0,11.32-2.26,15.5-6.42L392.49,197.4
			c8.52-8.57,8.48-22.47-0.09-30.99c-4.16-4.13-9.65-6.41-15.46-6.41h-10.93V30c0-16.54-13.46-30-30-30h-160
			c-16.54,0-30,13.46-30,30v130h-10.9c-12.1,0-21.95,9.85-21.95,21.95C113.16,188.18,115.8,194.1,120.42,198.26L120.42,198.26z
			 M135.11,180h20.9c5.52,0,10-4.48,10-10V30c0-5.51,4.49-10,10-10h160c5.51,0,10,4.49,10,10v140c0,5.52,4.48,10,10,10h20.93
			c0.28,0,0.83,0.08,1.35,0.59c0.75,0.75,0.75,1.96,0.01,2.71c0,0,0,0.01-0.01,0.01L257.38,305.13c-0.46,0.46-0.99,0.56-1.35,0.56
			c0,0,0,0-0.01,0c-0.36,0-0.89-0.1-1.35-0.56L134.39,183.94c-0.18-0.18-0.36-0.35-0.55-0.51c-0.25-0.22-0.68-0.7-0.68-1.48
			C133.16,180.88,134.04,180,135.11,180L135.11,180z"/>
		<path class="st0" d="M132.68,343.2c-5.52,0-10,4.48-10,10s4.48,10,10,10c5.52,0,10-4.48,10-10S138.21,343.2,132.68,343.2
			L132.68,343.2z"/>
	</g>
</g>
</svg>
