<?xml version="1.0" encoding="utf-8"?>
<!-- Generator: Adobe Illustrator 25.0.0, SVG Export Plug-In . SVG Version: 6.00 Build 0)  -->
<svg version="1.1" id="Слой_1" xmlns="http://www.w3.org/2000/svg" xmlns:xlink="http://www.w3.org/1999/xlink" x="0px" y="0px"
	 viewBox="0 0 496 496" style="enable-background:new 0 0 496 496;" xml:space="preserve">
<style type="text/css">
	.st0{fill:#FFFFFF;}
</style>
<path class="st0" d="M360,192.01C360,87.72,257.33,5.2,252.97,1.74c-2.91-2.3-7.02-2.3-9.94,0C238.66,5.2,136,87.72,136,192.01
	c0,95.69,86.4,172.99,104,187.77V464c0,4.42,3.58,8,8,8c4.42,0,8-3.58,8-8v-84.22C273.6,365,360,287.69,360,192.01z M256,358.24
	v-90.53l45.12-37.55c3.4-2.83,3.86-7.87,1.03-11.27c-2.83-3.4-7.87-3.86-11.27-1.03L256,246.89v-27.2l45.12-37.55
	c3.4-2.82,3.86-7.87,1.03-11.27c-2.83-3.4-7.87-3.86-11.27-1.03L256,198.9v-35.2l45.12-37.55c3.4-2.82,3.86-7.87,1.03-11.27
	s-7.87-3.86-11.27-1.03L256,142.9V80.01c0-4.42-3.58-8-8-8c-4.42,0-8,3.58-8,8v62.89l-34.88-29.04c-3.4-2.83-8.45-2.37-11.27,1.03
	s-2.36,8.45,1.04,11.27L240,163.71v35.2l-34.88-29.04c-3.4-2.83-8.45-2.37-11.27,1.03s-2.36,8.45,1.04,11.27L240,219.71v27.2
	l-34.88-29.04c-3.4-2.83-8.45-2.37-11.27,1.03c-2.83,3.4-2.36,8.45,1.04,11.27L240,267.71v90.53c-27.2-25.52-88-90.92-88-166.23
	c0-83.95,75.67-155.75,96-173.52c20.33,17.77,96,89.56,96,173.52C344,267.32,283.2,332.72,256,358.24z"/>
<path class="st0" d="M192,424h-8v-58.74c0.03-10.61-4.19-20.8-11.72-28.28l-67.34-67.38c-9.36-9.32-24.51-9.32-33.87,0L64,276.69
	v-84.69c-0.01-8.89-3.71-17.37-10.22-23.43c-6.51-6.05-15.24-9.13-24.1-8.5C12.62,161.75-0.29,176.23,0,193.36v114.28
	c0,9.95,3.7,19.55,10.4,26.91L80,411.1V424h-8c-4.42,0-8,3.58-8,8v56c0,4.42,3.58,8,8,8h120c4.42,0,8-3.58,8-8v-56
	C200,427.59,196.42,424,192,424z M22.25,323.77C18.23,319.36,16,313.6,16,307.64V193.36c-0.21-8.71,6.18-16.18,14.82-17.31
	c4.64-0.33,9.2,1.37,12.49,4.66c3.02,2.99,4.71,7.06,4.7,11.3v97.37c-0.02,6.37,2.51,12.48,7.03,16.98l43.31,43.31
	c3.14,3.03,8.13,2.99,11.21-0.1s3.13-8.08,0.1-11.21l-36.72-36.72c-1.5-1.49-2.34-3.51-2.34-5.62c0-2.11,0.84-4.14,2.34-5.62
	l9.44-9.43c3.11-3.08,8.13-3.08,11.25,0l67.34,67.35c4.49,4.51,7.02,10.6,7.03,16.96V424H96v-19.1L22.25,323.77z M184,480H80v-40
	h104V480z"/>
<path class="st0" d="M466.32,160.09c-8.86-0.63-17.6,2.44-24.1,8.5c-6.51,6.05-10.21,14.53-10.22,23.43v84.69l-7.06-7.07
	c-9.36-9.32-24.51-9.32-33.87,0l-67.34,67.35c-7.53,7.48-11.75,17.66-11.72,28.28V424h-8c-4.42,0-8,3.58-8,8v56c0,4.42,3.58,8,8,8
	h120c4.42,0,8-3.58,8-8v-56c0-4.42-3.58-8-8-8h-8V411.1l69.6-76.56c6.7-7.36,10.41-16.95,10.4-26.91V193.36
	C496.29,176.23,483.38,161.75,466.32,160.09z M416,480H312v-40h104V480z M479.99,307.64c0.01,5.97-2.22,11.73-6.24,16.14L400,404.91
	V424h-72v-58.74c0.02-6.36,2.54-12.46,7.03-16.97l67.37-67.34c3.11-3.08,8.13-3.08,11.25,0l9.44,9.44c3.08,3.1,3.08,8.1,0,11.2
	l-36.74,36.74c-2.08,2.01-2.91,4.98-2.18,7.78c0.73,2.8,2.92,4.98,5.71,5.71c2.8,0.73,5.77-0.1,7.78-2.18l43.31-43.31
	c4.51-4.49,7.04-10.59,7.02-16.95v-97.37c-0.01-4.25,1.68-8.32,4.7-11.3c3.29-3.29,7.85-4.98,12.49-4.66
	c8.64,1.13,15.03,8.6,14.82,17.31V307.64z"/>
<path class="st0" d="M242.32,482.32c-1.46,1.53-2.29,3.56-2.32,5.68c0.02,0.54,0.07,1.07,0.16,1.6c0.09,0.5,0.25,0.99,0.48,1.44
	c0.18,0.51,0.42,0.99,0.72,1.44c0.3,0.42,0.62,0.82,0.96,1.2c3.16,3.09,8.21,3.09,11.36,0l0.96-1.2c0.3-0.45,0.54-0.93,0.72-1.44
	c0.23-0.45,0.39-0.94,0.47-1.44c0.1-0.53,0.16-1.06,0.17-1.6c0.02-3.25-1.93-6.19-4.93-7.44
	C248.07,479.32,244.61,480.01,242.32,482.32z"/>
<path class="st0" d="M96,464h32c4.42,0,8-3.58,8-8c0-4.42-3.58-8-8-8H96c-4.42,0-8,3.58-8,8C88,460.42,91.58,464,96,464z"/>
<path class="st0" d="M148.96,463.36c0.96,0.41,2,0.62,3.04,0.64c3.25,0.02,6.19-1.93,7.44-4.93c1.25-3,0.55-6.46-1.76-8.75
	c-2.3-2.27-5.74-2.93-8.72-1.68c-0.98,0.39-1.87,0.96-2.64,1.68c-1.46,1.53-2.29,3.56-2.32,5.68
	C143.93,459.26,145.92,462.21,148.96,463.36z"/>
<path class="st0" d="M327.83,206.41c-0.08-0.5-0.24-0.99-0.47-1.44c-0.18-0.51-0.42-0.99-0.72-1.44l-0.96-1.2
	c-3.21-2.96-8.15-2.96-11.36,0c-0.34,0.38-0.66,0.78-0.96,1.2c-0.3,0.45-0.54,0.93-0.72,1.44c-0.23,0.45-0.39,0.94-0.48,1.44
	c-0.09,0.53-0.14,1.06-0.16,1.6c0.03,2.12,0.86,4.15,2.32,5.68c1.52,1.48,3.56,2.3,5.68,2.32c2.13,0.02,4.18-0.82,5.68-2.32
	c1.5-1.5,2.34-3.55,2.32-5.68C327.98,207.47,327.93,206.93,327.83,206.41z"/>
</svg>
