<?xml version="1.0" encoding="utf-8"?>
<!-- Generator: Adobe Illustrator 25.0.0, SVG Export Plug-In . SVG Version: 6.00 Build 0)  -->
<svg version="1.1" id="Слой_1" xmlns="http://www.w3.org/2000/svg" xmlns:xlink="http://www.w3.org/1999/xlink" x="0px" y="0px"
	 viewBox="0 0 374 374" style="enable-background:new 0 0 374 374;" xml:space="preserve">
<style type="text/css">
	.st0{fill:#FFFFFF;}
</style>
<path class="st0" d="M328.62,75.72L188.06,0.82c-2.09-1.11-4.58-1.1-6.65,0.04L44.73,75.76c-2.24,1.23-3.63,3.58-3.63,6.14v97.84
	c0.08,80.43,47.73,153.19,121.42,185.41l18.97,8.27c1.77,0.77,3.79,0.78,5.57,0.01l21.38-9.23
	c75.06-31.52,123.89-104.99,123.89-186.39V81.9C332.33,79.32,330.9,76.94,328.62,75.72z M318.33,177.8
	c-0.02,75.79-45.49,144.19-115.38,173.52l-0.05,0.02l-18.62,8.04l-16.18-7.06C99.52,322.33,55.17,254.61,55.09,179.74v-93.7
	l129.72-71.1L318.33,86.1V177.8z"/>
<path class="st0" d="M133.18,175.2c-2.51-2.94-6.93-3.29-9.87-0.78c-2.94,2.51-3.29,6.93-0.78,9.86l36.97,43.29
	c2.47,2.89,6.79,3.28,9.74,0.89l86.09-70.04c3-2.44,3.45-6.85,1.01-9.84c-2.44-3-6.85-3.45-9.84-1.01l-80.79,65.72L133.18,175.2z"/>
</svg>
