<?xml version="1.0" encoding="utf-8"?>
<!-- Generator: Adobe Illustrator 24.0.1, SVG Export Plug-In . SVG Version: 6.00 Build 0)  -->
<svg version="1.1" id="РЎР_xBB_РѕР_x2116__1" xmlns="http://www.w3.org/2000/svg" xmlns:xlink="http://www.w3.org/1999/xlink"
	 x="0px" y="0px" viewBox="0 0 528 92" style="enable-background:new 0 0 528 92;" xml:space="preserve">
<g>
	<g>
		<defs>
			<path id="SVGID_9_" d="M27.8,91.8c-8.4,0-15.2-2.2-20.2-6.7S0,73.6,0,64.1V28c0-9.5,2.5-16.5,7.6-21c5-4.5,11.6-6.7,19.8-6.7
				c8.3,0,15.1,2.1,20.4,6.3c5.2,4.2,7.9,9.7,7.9,16.7c0,2.4-0.5,4.1-1.6,5c-1,0.9-2.7,1.4-5,1.4c-4.3,0-6.5-1.4-6.6-4.3
				C41.6,16.5,36.7,12,27.8,12c-9.8,0-14.6,5.3-14.6,16v36.1c0,10.7,4.9,16,14.6,16c4.7,0,8.3-1.3,10.9-4s3.8-6.7,3.8-12.1V53.8H30
				c-1.3,0-2.4-0.5-3.1-1.5s-1.1-2.3-1.1-3.7c0-1.3,0.4-2.5,1.1-3.6s1.8-1.6,3.1-1.6h21.3c1.3,0,2.4,0.4,3.2,1.3
				c0.8,0.9,1.2,1.9,1.2,3.2v16.2c0,9.5-2.5,16.5-7.6,21C42.9,89.5,36.2,91.8,27.8,91.8L27.8,91.8z M113,26.8L113,26.8
				C113,17,107.9,12,97.7,12H82.8v29.5h14.9C107.9,41.5,113,36.6,113,26.8L113,26.8z M126.6,84.7L126.6,84.7c0,1.7-0.8,3.2-2.5,4.6
				s-3.5,2.1-5.4,2.1c-2.1,0-3.9-1.3-5.2-3.9L95.3,52H82.8v34.7c0,1.3-0.6,2.4-1.9,3.2C79.6,90.6,78,91,76.2,91
				c-1.7,0-3.2-0.4-4.5-1.2c-1.3-0.8-1.9-1.8-1.9-3.2v-82c0-1.2,0.4-2.1,1.2-3c0.8-0.8,1.9-1.2,3.1-1.2h23.6
				c19,0,28.5,8.4,28.5,25.3c0,7-1.6,12.5-4.7,16.5s-7.4,6.6-12.8,8l17.4,32.7C126.4,83.4,126.6,84,126.6,84.7L126.6,84.7z
				 M180.7,28L180.7,28c0-5.4-1.3-9.4-3.8-12c-2.6-2.6-6.2-4-10.9-4c-9.8,0-14.6,5.3-14.6,16v36.1c0,10.7,4.9,16,14.6,16
				c4.7,0,8.3-1.3,10.9-4c2.6-2.6,3.8-6.7,3.8-12V28L180.7,28z M166,91.8L166,91.8c-8.4,0-15.2-2.2-20.2-6.7s-7.6-11.5-7.6-21V28
				c0-9.5,2.5-16.5,7.6-21c5-4.5,11.8-6.7,20.2-6.7s15.2,2.2,20.3,6.7s7.6,11.5,7.6,21v36.1c0,9.5-2.5,16.5-7.6,21
				C181.2,89.5,174.4,91.8,166,91.8L166,91.8z M232,92L232,92c-7.6,0-14.1-1.6-19.4-4.8c-5.3-3.2-8-6.5-8-9.9c0-1.6,0.6-3.1,1.7-4.7
				c1.2-1.6,2.5-2.4,4-2.4c0.9,0,2,0.5,3.3,1.6s2.5,2.2,3.8,3.4c1.2,1.2,3.1,2.4,5.6,3.4c2.5,1.1,5.3,1.6,8.5,1.6
				c4.7,0,8.5-1.1,11.3-3.4c2.9-2.2,4.3-5.5,4.3-9.9c0-4-1.4-7.3-4.2-10s-6.1-4.8-10-6.4s-7.9-3.3-11.8-5.1c-4-1.8-7.3-4.6-10.1-8.2
				c-2.8-3.7-4.2-8.2-4.2-13.7c0-4.4,0.8-8.2,2.5-11.4s4-5.7,6.9-7.4s5.9-3,9.1-3.8C228.6,0.4,232,0,235.5,0c2.2,0,4.6,0.1,7,0.4
				s4.9,0.8,7.3,1.4c2.4,0.7,4.4,1.6,6,2.8c1.6,1.2,2.4,2.6,2.4,4.2s-0.5,3.1-1.5,4.7s-2.3,2.4-4,2.4c-0.8,0-1.9-0.4-3.3-1.2
				c-1.4-0.8-3.3-1.6-5.6-2.4c-2.4-0.8-5.1-1.2-8.1-1.2c-4.7,0-8.5,0.9-11.3,2.8s-4.2,4.7-4.2,8.5c0,2.5,0.7,4.6,2.2,6.4
				s3.4,3.3,5.8,4.4c2.4,1.2,5,2.3,7.9,3.4c2.9,1.1,5.8,2.4,8.6,3.9c2.9,1.5,5.5,3.2,7.8,5.2c2.4,2,4.3,4.6,5.8,8s2.2,7.4,2.2,11.8
				c0,8.5-2.6,15.1-7.7,19.5C247.4,89.8,240.5,92,232,92L232,92z M295.5,92L295.5,92c-7.6,0-14.1-1.6-19.4-4.8c-5.3-3.2-8-6.5-8-9.9
				c0-1.6,0.6-3.1,1.7-4.7c1.2-1.6,2.5-2.4,4-2.4c0.9,0,2,0.5,3.3,1.6s2.5,2.2,3.8,3.4c1.2,1.2,3.1,2.4,5.6,3.4
				c2.5,1.1,5.3,1.6,8.5,1.6c4.7,0,8.5-1.1,11.3-3.4c2.9-2.2,4.3-5.5,4.3-9.9c0-4-1.4-7.3-4.2-10c-2.8-2.7-6.1-4.8-10-6.4
				c-3.9-1.6-7.9-3.3-11.8-5.1c-4-1.8-7.3-4.6-10.1-8.2c-2.8-3.7-4.2-8.2-4.2-13.7c0-4.4,0.8-8.2,2.5-11.4s4-5.7,6.9-7.4
				s5.9-3,9.1-3.8C292,0.4,295.4,0,299,0c2.2,0,4.6,0.1,7,0.4s4.9,0.8,7.3,1.4c2.4,0.7,4.4,1.6,5.9,2.8c1.6,1.2,2.4,2.6,2.4,4.2
				S321,12,320,13.5c-1,1.6-2.3,2.4-4,2.4c-0.8,0-1.9-0.4-3.3-1.2s-3.3-1.6-5.6-2.4c-2.4-0.8-5.1-1.2-8.1-1.2
				c-4.7,0-8.5,0.9-11.3,2.8s-4.2,4.7-4.2,8.5c0,2.5,0.7,4.6,2.2,6.4s3.4,3.3,5.8,4.4c2.4,1.2,5,2.3,7.9,3.4
				c2.9,1.1,5.8,2.4,8.6,3.9c2.9,1.5,5.5,3.2,7.8,5.2c2.4,2,4.3,4.6,5.8,8s2.2,7.4,2.2,11.8c0,8.5-2.6,15.1-7.7,19.5
				C310.8,89.8,304,92,295.5,92L295.5,92z M398.4,91L398.4,91c-1.7,0-3.3-0.4-4.6-1.2c-1.3-0.8-2-1.8-2-3.2V27.2L375.2,58
				c-1.2,2-2.8,3-4.8,3s-3.5-1-4.5-3l-16.6-31.5v60.3c0,1.3-0.6,2.4-1.9,3.2c-1.3,0.8-2.8,1.2-4.6,1.2c-1.7,0-3.3-0.4-4.6-1.2
				c-1.3-0.8-2-1.8-2-3.2V6.9c0-2.2,0.6-3.9,1.9-5c1.2-1.1,2.8-1.6,4.7-1.6c2.4,0,4.4,0.5,5.9,1.6c1.5,1,3,3,4.5,5.9l17.4,32.9
				l17.6-32.9c1.5-2.9,3-4.9,4.5-5.9s3.4-1.6,5.8-1.6c1.9,0,3.5,0.5,4.7,1.6s1.9,2.7,1.9,5v79.7c0,1.3-0.6,2.4-1.9,3.2
				C401.7,90.6,400.2,91,398.4,91L398.4,91z M526.1,89.9L526.1,89.9c-1.3,0.8-2.8,1.2-4.6,1.2c-3.5,0-6.1-1.6-7.8-4.8L484,29.8v56.9
				c0,1.3-0.6,2.4-1.9,3.2c-1.3,0.8-2.8,1.2-4.6,1.2c-1.7,0-3.3-0.4-4.6-1.2c-1.3-0.8-2-1.8-2-3.2v-82c0-2.9,2.2-4.3,6.6-4.3
				c2.3,0,4.2,0.5,5.6,1.6c1.4,1,2.9,3,4.3,5.9l27.5,53.7v-57c0-1.4,0.6-2.5,1.9-3.2c1.3-0.7,2.8-1.1,4.6-1.1s3.4,0.4,4.6,1.1
				c1.3,0.7,1.9,1.8,1.9,3.2v82.1C528,88,527.4,89.1,526.1,89.9z"/>
		</defs>
		<use xlink:href="#SVGID_9_"  style="overflow:visible;fill:#161616;"/>
		<clipPath id="SVGID_1_">
			<use xlink:href="#SVGID_9_"  style="overflow:visible;"/>
		</clipPath>
	</g>
</g>
<g>
	<g>
		<defs>
			<path id="SVGID_11_" d="M451.2,73.2c0.8-2.7,3.5-4.2,6.2-3.5l2.4,0.7c2.7,0.8,4.2,3.6,3.4,6.2l-2.9,10.7c-0.4,1.3-1.2,2.3-2.4,3
				c-1.2,0.7-2.5,0.8-3.8,0.4l-2.4-0.7c-1.3-0.4-2.3-1.2-3-2.4c-0.7-1.2-0.8-2.5-0.4-3.8L451.2,73.2z"/>
		</defs>
		<use xlink:href="#SVGID_11_"  style="overflow:visible;fill:#EF8822;"/>
		<clipPath id="SVGID_2_">
			<use xlink:href="#SVGID_11_"  style="overflow:visible;"/>
		</clipPath>
	</g>
</g>
<g>
	<g>
		<defs>
			<path id="SVGID_13_" d="M442.4,44.2c0.8-2.7,3.5-4.2,6.2-3.5l2.4,0.7c2.7,0.8,4.2,3.6,3.4,6.2l-11.3,39.6c-0.4,1.3-1.2,2.3-2.4,3
				c-1.2,0.7-2.5,0.8-3.8,0.4l-2.4-0.7c-1.3-0.4-2.3-1.2-3-2.4c-0.7-1.2-0.8-2.5-0.4-3.8L442.4,44.2z"/>
		</defs>
		<use xlink:href="#SVGID_13_"  style="overflow:visible;fill:#E32027;"/>
		<clipPath id="SVGID_3_">
			<use xlink:href="#SVGID_13_"  style="overflow:visible;"/>
		</clipPath>
	</g>
</g>
<g>
	<g>
		<defs>
			<path id="SVGID_15_" d="M436.6,4.8c0.8-2.7,3.5-4.2,6.2-3.5l2.4,0.7c2.7,0.8,4.2,3.6,3.4,6.2L426,87.4c-0.4,1.3-1.2,2.3-2.4,3
				c-1.2,0.7-2.5,0.8-3.8,0.4l-2.4-0.7c-1.3-0.4-2.3-1.2-3-2.4c-0.7-1.2-0.8-2.5-0.4-3.8L436.6,4.8z"/>
		</defs>
		<use xlink:href="#SVGID_15_"  style="overflow:visible;fill:#161616;"/>
		<clipPath id="SVGID_4_">
			<use xlink:href="#SVGID_15_"  style="overflow:visible;"/>
		</clipPath>
	</g>
</g>
</svg>
