<?xml version="1.0" encoding="utf-8"?>
<!-- Generator: Adobe Illustrator 22.0.1, SVG Export Plug-In . SVG Version: 6.00 Build 0)  -->
<svg version="1.1" id="Layer_1" xmlns="http://www.w3.org/2000/svg" xmlns:xlink="http://www.w3.org/1999/xlink" x="0px" y="0px"
	 viewBox="0 0 331.8 93.4" style="enable-background:new 0 0 331.8 93.4;" xml:space="preserve">
<style type="text/css">
	.st0{fill:#FFFFFF;}
</style>
<g>
	<g>
		<g>
			<path class="st0" d="M202.3,46h-22.6l-4.6,7.5h-8.4l19-30.2c1.1-1.9,2.5-3.2,5.5-3.2c2.9,0,4.3,1.3,5.5,3.2l18.9,30.2H207
				L202.3,46z M183.1,40.4h15.8L191,27.5L183.1,40.4z"/>
			<path class="st0" d="M98.8,53.2V26.8H85.1v-6.3h34.7v6.3h-13.7v26.4H98.8z"/>
			<g>
				<path class="st0" d="M227.2,53.5V42.9c0-6.3,2-9.1,10.4-9.1h19.2c2.6,0,3.3-0.7,3.3-3.2v-0.8c0-2.6-0.7-3.3-3.1-3.3h-12.2v-6.3
					h12.7c6.5,0,9.4,2.6,9.4,9.4v1.7c0,6.2-2.3,8.1-9.6,8.1H238c-3,0-3.9,0.8-3.9,3.8v4h32.9v6.3H227.2z"/>
				<path class="st0" d="M305.6,53.5v-9.3h-33.5V20.3h7.3v17.6h26.2V20.3h7.2v33.2H305.6z"/>
			</g>
			<polygon class="st0" points="155.8,20.5 131.7,20.5 124.4,20.5 124.4,26.8 124.4,53.2 131.7,53.2 131.7,40.1 131.7,33.8 
				131.7,26.8 155.8,26.8 155.8,53.2 162.8,53.2 162.8,26.8 162.8,20.5 			"/>
		</g>
		<circle class="st0" cx="221.7" cy="22.4" r="4.9"/>
	</g>
	<g>
		<path class="st0" d="M2.7,75.2c0.6-0.1,1.7-0.2,2.8-0.2c1.4,0,2.3,0.2,3.1,0.7c0.7,0.4,1.1,1.1,1.1,2c0,1-0.6,1.9-1.8,2.3v0
			c1.1,0.3,2.2,1.2,2.2,2.7c0,1-0.4,1.7-1,2.2c-0.8,0.7-2,1-4,1c-1.1,0-1.9-0.1-2.4-0.1V75.2z M4.6,79.4h1c1.4,0,2.1-0.6,2.1-1.5
			c0-1-0.8-1.5-2-1.5c-0.6,0-0.9,0-1.1,0.1V79.4z M4.6,84.3c0.3,0,0.6,0,1,0c1.3,0,2.4-0.5,2.4-1.8c0-1.2-1.1-1.7-2.4-1.7h-1V84.3z"
			/>
		<path class="st0" d="M22.6,85.4c-0.5,0.2-1.5,0.5-2.8,0.5c-3.4,0-5.5-2.1-5.5-5.4c0-3.5,2.4-5.7,5.7-5.7c1.3,0,2.2,0.3,2.6,0.5
			l-0.4,1.6c-0.5-0.2-1.2-0.4-2.1-0.4c-2.2,0-3.7,1.4-3.7,3.9c0,2.4,1.4,3.9,3.7,3.9c0.8,0,1.6-0.2,2.1-0.4L22.6,85.4z"/>
		<path class="st0" d="M26.6,85.7c0.2-0.3,0.3-0.7,0.5-1.1c0.4-1.2,0.7-2.6,1.6-3.4c0.2-0.2,0.6-0.4,0.9-0.5v0
			c-1.3-0.2-2.3-1.1-2.3-2.6c0-1,0.4-1.7,1-2.2c0.7-0.6,1.9-0.8,3.3-0.8c1,0,2.1,0.1,2.8,0.2v10.6h-1.9v-4.4h-0.8
			c-0.6,0-1,0.1-1.3,0.5c-0.7,0.7-1,2.1-1.3,3.1c-0.1,0.3-0.2,0.5-0.4,0.8H26.6z M32.5,76.5c-0.2,0-0.6-0.1-1.1-0.1
			c-1.2,0-2.2,0.5-2.2,1.7c0,1.1,1,1.7,2.3,1.7c0.4,0,0.8,0,1,0V76.5z"/>
		<path class="st0" d="M48.4,76.7h-3.1V75h8.1v1.6h-3.1v9.1h-2V76.7z"/>
		<path class="st0" d="M57.9,75.2c0.7-0.1,1.7-0.2,3-0.2c1.4,0,2.5,0.3,3.2,0.9c0.6,0.5,1,1.4,1,2.4c0,1-0.3,1.9-0.9,2.4
			c-0.8,0.8-2,1.1-3.4,1.1c-0.4,0-0.7,0-1-0.1v4h-1.9V75.2z M59.8,80.2c0.2,0.1,0.6,0.1,1,0.1c1.5,0,2.4-0.7,2.4-2
			c0-1.2-0.8-1.8-2.2-1.8c-0.5,0-0.9,0-1.1,0.1V80.2z"/>
		<path class="st0" d="M70.9,75l1.8,4.1c0.3,0.7,0.5,1.3,0.8,2h0c0.2-0.5,0.3-1.2,0.6-2l1.4-4.1h2.1l-2.1,5.3
			c-0.6,1.6-1.3,3.2-2.1,4.2c-0.7,0.9-1.5,1.4-2.7,1.4c-0.5,0-0.7,0-1-0.1l0.2-1.6c0.2,0,0.4,0.1,0.7,0.1c0.9,0,1.5-0.8,1.7-1.4
			c0.1-0.2,0.1-0.4,0-0.6L68.7,75H70.9z"/>
		<path class="st0" d="M88.4,75v1.6h-4.7v2.3c0.4,0,0.9-0.1,1.3-0.1c1,0,2.1,0.3,2.9,0.8c0.8,0.5,1.3,1.4,1.3,2.6c0,1-0.4,1.8-1,2.4
			c-1,0.9-2.5,1.2-4.1,1.2c-1.1,0-1.9-0.1-2.4-0.1V75H88.4z M83.7,84.3c0.3,0,0.6,0.1,1,0.1c0.7,0,1.4-0.2,1.9-0.7
			c0.3-0.3,0.6-0.8,0.6-1.4c0-0.7-0.3-1.1-0.7-1.4c-0.5-0.4-1.1-0.5-1.8-0.5c-0.3,0-0.7,0-1,0.1V84.3z"/>
		<path class="st0" d="M103.5,80.3c0,3.6-2.2,5.6-5.1,5.6c-3,0-4.9-2.3-4.9-5.4c0-3.3,2.1-5.6,5.1-5.6
			C101.7,74.8,103.5,77.2,103.5,80.3z M95.5,80.4c0,2.2,1.1,3.9,3,3.9c1.9,0,3-1.7,3-4c0-2-1-3.9-3-3.9
			C96.5,76.4,95.5,78.2,95.5,80.4z"/>
		<path class="st0" d="M116.6,75v10.7h-2v-9.1h-4.3v9.1h-2V75H116.6z"/>
		<path class="st0" d="M122,75.2c0.7-0.1,1.7-0.2,3-0.2c1.4,0,2.5,0.3,3.2,0.9c0.6,0.5,1,1.4,1,2.4c0,1-0.3,1.9-0.9,2.4
			c-0.8,0.8-2,1.1-3.4,1.1c-0.4,0-0.7,0-1-0.1v4H122V75.2z M123.9,80.2c0.2,0.1,0.6,0.1,1,0.1c1.5,0,2.4-0.7,2.4-2
			c0-1.2-0.8-1.8-2.2-1.8c-0.5,0-0.9,0-1.1,0.1V80.2z"/>
		<path class="st0" d="M143.5,80.3c0,3.6-2.2,5.6-5.1,5.6c-3,0-4.9-2.3-4.9-5.4c0-3.3,2.1-5.6,5.1-5.6
			C141.6,74.8,143.5,77.2,143.5,80.3z M135.5,80.4c0,2.2,1.1,3.9,3,3.9c1.9,0,3-1.7,3-4c0-2-1-3.9-3-3.9
			C136.5,76.4,135.5,78.2,135.5,80.4z"/>
		<path class="st0" d="M148.3,75.2c0.6-0.1,1.7-0.2,2.8-0.2c1.4,0,2.3,0.2,3.1,0.7c0.7,0.4,1.1,1.1,1.1,2c0,1-0.6,1.9-1.8,2.3v0
			c1.1,0.3,2.2,1.2,2.2,2.7c0,1-0.4,1.7-1,2.2c-0.8,0.7-2,1-4,1c-1.1,0-1.9-0.1-2.4-0.1V75.2z M150.3,79.4h1c1.4,0,2.1-0.6,2.1-1.5
			c0-1-0.8-1.5-2-1.5c-0.6,0-0.9,0-1.1,0.1V79.4z M150.3,84.3c0.3,0,0.6,0,1,0c1.3,0,2.4-0.5,2.4-1.8c0-1.2-1.1-1.7-2.4-1.7h-1V84.3
			z"/>
		<path class="st0" d="M170.1,80.3c0,3.6-2.2,5.6-5.1,5.6c-3,0-4.9-2.3-4.9-5.4c0-3.3,2.1-5.6,5.1-5.6
			C168.2,74.8,170.1,77.2,170.1,80.3z M162.1,80.4c0,2.2,1.1,3.9,3,3.9c1.9,0,3-1.7,3-4c0-2-1-3.9-3-3.9
			C163.1,76.4,162.1,78.2,162.1,80.4z"/>
		<path class="st0" d="M182.5,75v9.2l1,0l-0.1,4.2h-1.5l-0.1-2.7h-6.5l-0.1,2.7h-1.5l-0.1-4.2l0.9,0c0.4-0.7,0.8-1.5,1-2.4
			c0.3-1.1,0.5-2.4,0.5-4V75H182.5z M177.8,78.3c0,1.5-0.2,2.8-0.5,3.9c-0.2,0.7-0.5,1.4-0.8,1.9h4.1v-7.5h-2.8V78.3z"/>
		<path class="st0" d="M190.2,75v4.3h4.5V75h2v10.7h-2V81h-4.5v4.7h-2V75H190.2z"/>
		<path class="st0" d="M204.2,82.7l-0.9,3h-2l3.4-10.7h2.5l3.5,10.7h-2.1l-1-3H204.2z M207.3,81.2l-0.8-2.6c-0.2-0.7-0.4-1.4-0.5-2
			h0c-0.2,0.6-0.3,1.4-0.5,2l-0.8,2.6H207.3z"/>
		<path class="st0" d="M214.4,85.7c0.2-0.3,0.3-0.7,0.5-1.1c0.4-1.2,0.7-2.6,1.6-3.4c0.2-0.2,0.6-0.4,0.9-0.5v0
			c-1.3-0.2-2.3-1.1-2.3-2.6c0-1,0.4-1.7,1-2.2c0.7-0.6,1.9-0.8,3.3-0.8c1,0,2.1,0.1,2.8,0.2v10.6h-1.9v-4.4h-0.8
			c-0.6,0-1,0.1-1.3,0.5c-0.7,0.7-1,2.1-1.3,3.1c-0.1,0.3-0.2,0.5-0.4,0.8H214.4z M220.3,76.5c-0.2,0-0.6-0.1-1.1-0.1
			c-1.2,0-2.2,0.5-2.2,1.7c0,1.1,1,1.7,2.3,1.7c0.4,0,0.8,0,1,0V76.5z"/>
		<path class="st0" d="M236.3,82.7l-0.9,3h-2l3.4-10.7h2.5l3.5,10.7h-2.1l-1-3H236.3z M239.3,81.2l-0.8-2.6c-0.2-0.7-0.4-1.4-0.5-2
			h0c-0.2,0.6-0.3,1.4-0.5,2l-0.8,2.6H239.3z"/>
		<path class="st0" d="M247.4,75.2c0.7-0.1,1.7-0.2,3-0.2c1.4,0,2.5,0.3,3.2,0.9c0.6,0.5,1,1.4,1,2.4c0,1-0.3,1.9-0.9,2.4
			c-0.8,0.8-2,1.1-3.4,1.1c-0.4,0-0.7,0-1-0.1v4h-1.9V75.2z M249.3,80.2c0.2,0.1,0.6,0.1,1,0.1c1.5,0,2.4-0.7,2.4-2
			c0-1.2-0.8-1.8-2.2-1.8c-0.5,0-0.9,0-1.1,0.1V80.2z"/>
		<path class="st0" d="M268.2,81.4c-0.1-1.4-0.1-3.1-0.1-4.5h0c-0.3,1.3-0.8,2.7-1.3,4.1l-1.6,4.6h-1.5l-1.4-4.6
			c-0.4-1.4-0.8-2.8-1.1-4.2h0c0,1.4-0.1,3.1-0.2,4.6l-0.2,4.3h-1.8l0.7-10.7h2.6l1.4,4.3c0.4,1.3,0.7,2.5,1,3.7h0
			c0.3-1.2,0.7-2.5,1.1-3.7l1.5-4.3h2.5l0.6,10.7h-1.9L268.2,81.4z"/>
		<path class="st0" d="M277.6,82.7l-0.9,3h-2l3.4-10.7h2.5l3.5,10.7h-2.1l-1-3H277.6z M280.6,81.2l-0.8-2.6c-0.2-0.7-0.4-1.4-0.5-2
			h0c-0.2,0.6-0.3,1.4-0.5,2l-0.8,2.6H280.6z"/>
		<path class="st0" d="M289.9,76.7h-3.1V75h8.1v1.6h-3.1v9.1h-2V76.7z"/>
		<path class="st0" d="M301,75l1.8,4.1c0.3,0.7,0.5,1.3,0.8,2h0c0.2-0.5,0.3-1.2,0.6-2l1.4-4.1h2.1l-2.1,5.3
			c-0.6,1.6-1.3,3.2-2.1,4.2c-0.7,0.9-1.5,1.4-2.7,1.4c-0.5,0-0.7,0-1-0.1l0.2-1.6c0.2,0,0.4,0.1,0.7,0.1c0.9,0,1.5-0.8,1.7-1.4
			c0.1-0.2,0.1-0.4,0-0.6l-3.6-7.3H301z"/>
		<path class="st0" d="M311.9,75.2c0.7-0.1,1.7-0.2,3-0.2c1.4,0,2.5,0.3,3.2,0.9c0.6,0.5,1,1.4,1,2.4c0,1-0.3,1.9-0.9,2.4
			c-0.8,0.8-2,1.1-3.4,1.1c-0.4,0-0.7,0-1-0.1v4h-1.9V75.2z M313.8,80.2c0.2,0.1,0.6,0.1,1,0.1c1.5,0,2.4-0.7,2.4-2
			c0-1.2-0.8-1.8-2.2-1.8c-0.5,0-0.9,0-1.1,0.1V80.2z"/>
		<path class="st0" d="M324.9,82.7l-0.9,3h-2l3.4-10.7h2.5l3.5,10.7h-2.1l-1-3H324.9z M328,81.2l-0.8-2.6c-0.2-0.7-0.4-1.4-0.5-2h0
			c-0.2,0.6-0.3,1.4-0.5,2l-0.8,2.6H328z"/>
	</g>
	<path class="st0" d="M320.2,64.6H79.4c-6.4,0-11.7-5.3-11.7-11.7V20.7c0-6.5,5.2-11.7,11.7-11.7h240.7c6.4,0,11.7,5.3,11.7,11.7
		v32.2C331.8,59.3,326.6,64.6,320.2,64.6z M79.4,11.5c-5,0-9.1,4.1-9.1,9.1v32.2c0,5,4.1,9.1,9.1,9.1h240.7c5,0,9.1-4.1,9.1-9.1
		V20.7c0-5-4.1-9.1-9.1-9.1H79.4z"/>
	<g>
		<path class="st0" d="M17.1,16.1c0-2.1,0-4.1,0-6.2c0.1,0,0.2,0,0.2,0c2.4,0,4.9,0,7.3,0c0.9,0,1.9,0,2.8,0c2.8,0,5.6,0,8.5,0
			c1.1,0,2.2,0,3.4,0c1.3,0,2.6,0,4,0c0.1,0,0.2,0,0.2,0.2c0,1.9,0,3.9,0,5.8c0,0.1,0,0.2-0.2,0.2c-7.2,0-14.5,0-21.7,0
			c-1.4,0-2.8,0-4.2,0C17.2,16.1,17.1,16.1,17.1,16.1z"/>
		<path class="st0" d="M8.4,49.7c-2.1,0-4.1,0-6.2,0c0-0.1,0-0.2,0-0.2c0-2.4,0-4.9,0-7.3c0-0.9,0-1.9,0-2.8c0-2.8,0-5.6,0-8.5
			c0-1.1,0-2.2,0-3.4c0-1.3,0-2.6,0-4c0-0.1,0-0.2,0.2-0.2c1.9,0,3.9,0,5.8,0c0.1,0,0.2,0,0.2,0.2c0,7.2,0,14.5,0,21.7
			c0,1.4,0,2.8,0,4.2C8.4,49.5,8.4,49.6,8.4,49.7z"/>
		<path class="st0" d="M57.5,49.7c-2.1,0-4.1,0-6.2,0c0-0.1,0-0.2,0-0.2c0-2.4,0-4.9,0-7.3c0-0.9,0-1.9,0-2.8c0-2.8,0-5.6,0-8.5
			c0-1.1,0-2.2,0-3.4c0-1.3,0-2.6,0-4c0-0.1,0-0.2,0.2-0.2c1.9,0,3.9,0,5.8,0c0.1,0,0.2,0,0.2,0.2c0,7.2,0,14.5,0,21.7
			c0,1.4,0,2.8,0,4.2C57.5,49.5,57.5,49.6,57.5,49.7z"/>
		<path class="st0" d="M17.1,64.4c0-2.1,0-4.1,0-6.2c0.1,0,0.2,0,0.2,0c2.4,0,4.9,0,7.3,0c0.9,0,1.9,0,2.8,0c2.8,0,5.6,0,8.5,0
			c1.1,0,2.2,0,3.4,0c1.3,0,2.6,0,4,0c0.1,0,0.2,0,0.2,0.2c0,1.9,0,3.9,0,5.8c0,0.1,0,0.2-0.2,0.2c-7.2,0-14.5,0-21.7,0
			c-1.4,0-2.8,0-4.2,0C17.2,64.4,17.1,64.4,17.1,64.4z"/>
		<path class="st0" d="M14.7,13.6c0,1.1,0,2.2,0,3.2c0,0.5-0.3,0.7-0.8,0.7c-0.5,0-1,0-1.5,0c-0.7,0-1.3,0.2-1.8,0.7
			c-0.4,0.3-0.6,0.7-0.8,1.2c-0.1,0.3-0.1,0.7-0.1,1.1c0,0.1,0,0.3-0.1,0.4c-0.1,0.2-0.4,0.3-0.6,0.3c-2.2,0-4.4,0-6.6,0
			c-0.2,0-0.4,0-0.6,0c-0.3-0.1-0.5-0.3-0.5-0.6c0-0.6,0-1.3,0.1-1.9c0.1-1,0.4-2,0.9-2.9c0.4-0.9,1-1.7,1.7-2.5
			c1.1-1.2,2.4-2.1,3.8-2.7c0.7-0.3,1.4-0.5,2.2-0.7C11,9.7,12,9.7,13,9.7c0.4,0,0.7,0,1.1,0c0.4,0,0.7,0.2,0.7,0.6
			c0,0.7,0,1.4,0,2.1C14.7,12.9,14.7,13.2,14.7,13.6z"/>
		<path class="st0" d="M45.3,13.6c0,1.1,0,2.2,0,3.2c0,0.5,0.3,0.7,0.8,0.7c0.5,0,1,0,1.5,0c0.7,0,1.3,0.2,1.8,0.7
			c0.4,0.3,0.6,0.7,0.8,1.2c0.1,0.3,0.1,0.7,0.1,1.1c0,0.1,0,0.3,0.1,0.4c0.1,0.2,0.4,0.3,0.6,0.3c2.2,0,4.4,0,6.6,0
			c0.2,0,0.4,0,0.6,0c0.3-0.1,0.5-0.3,0.5-0.6c0-0.6,0-1.3-0.1-1.9c-0.1-1-0.4-2-0.9-2.9c-0.4-0.9-1-1.7-1.7-2.5
			c-1.1-1.2-2.4-2.1-3.8-2.7c-0.7-0.3-1.4-0.5-2.2-0.7C49,9.7,48,9.7,47,9.7c-0.4,0-0.7,0-1.1,0c-0.4,0-0.7,0.2-0.7,0.6
			c0,0.7,0,1.4,0,2.1C45.3,12.9,45.3,13.2,45.3,13.6z"/>
		<path class="st0" d="M14.7,59.7c0-1.1,0-2.2,0-3.2c0-0.5-0.3-0.7-0.8-0.7c-0.5,0-1,0-1.5,0c-0.7,0-1.3-0.2-1.8-0.7
			c-0.4-0.3-0.6-0.7-0.8-1.2c-0.1-0.3-0.1-0.7-0.1-1.1c0-0.1,0-0.3-0.1-0.4c-0.1-0.2-0.4-0.3-0.6-0.3c-2.2,0-4.4,0-6.6,0
			c-0.2,0-0.4,0-0.6,0c-0.3,0.1-0.5,0.3-0.5,0.6c0,0.6,0,1.3,0.1,1.9c0.1,1,0.4,2,0.9,2.9c0.4,0.9,1,1.7,1.7,2.5
			c1.1,1.2,2.4,2.1,3.8,2.7c0.7,0.3,1.4,0.5,2.2,0.7c1,0.2,1.9,0.3,2.9,0.2c0.4,0,0.7,0,1.1,0c0.4,0,0.7-0.2,0.7-0.6
			c0-0.7,0-1.4,0-2.1C14.7,60.5,14.7,60.1,14.7,59.7z"/>
		<path class="st0" d="M45.3,59.7c0-1.1,0-2.2,0-3.2c0-0.5,0.3-0.7,0.8-0.7c0.5,0,1,0,1.5,0c0.7,0,1.3-0.2,1.8-0.7
			c0.4-0.3,0.6-0.7,0.8-1.2c0.1-0.3,0.1-0.7,0.1-1.1c0-0.1,0-0.3,0.1-0.4c0.1-0.2,0.4-0.3,0.6-0.3c2.2,0,4.4,0,6.6,0
			c0.2,0,0.4,0,0.6,0c0.3,0.1,0.5,0.3,0.5,0.6c0,0.6,0,1.3-0.1,1.9c-0.1,1-0.4,2-0.9,2.9c-0.4,0.9-1,1.7-1.7,2.5
			c-1.1,1.2-2.4,2.1-3.8,2.7c-0.7,0.3-1.4,0.5-2.2,0.7c-1,0.2-1.9,0.3-2.9,0.2c-0.4,0-0.7,0-1.1,0c-0.4,0-0.7-0.2-0.7-0.6
			c0-0.7,0-1.4,0-2.1C45.3,60.5,45.3,60.1,45.3,59.7z"/>
		<path class="st0" d="M37.7,50.5c-3.5,1.7-7.1,2.4-10.9,1.6c-0.7-0.1-1.3-0.1-2,0.2c-1.6,0.8-3.8-0.5-4.4-2.3
			c-0.2-0.5-0.5-1.1-1-1.5c-3.4-3-5.3-6.8-5.4-11.3c-0.2-5.1,1.6-9.4,5.4-12.8c0.2-0.2,0.4-0.5,0.6-0.8c0.7-1.8,1.9-2.5,3.8-2.4
			c0.6,0,1.3-0.1,2-0.2c3.4-0.8,6.7-0.7,9.9,0.6c2.6,1,4.7,2.5,6.5,4.6c2.1,2.5,3.3,5.3,3.6,8.4c0,0.3,0.2,0.6,0.4,0.9
			c1.8,1.8,1.5,4.2-0.6,5.5c-0.2,0.1-0.4,0.4-0.5,0.7C43.7,45.6,41.1,48.4,37.7,50.5z M24.5,30.3c-0.3-0.6-0.7-1.3-1-1.9
			c-0.4-0.7-1.9-0.9-2.5-0.3c-1.9,2-2.9,4.5-3.2,7.2c-0.4,4.1,1.1,7.4,4,10.2c0.6,0.6,1.2,0.5,1.7-0.4c0.7-1.4,1.3-2.7,2-4.1
			c0.3-0.6,0.3-1.2-0.1-1.8c-1.1-1.5-1.3-3.4-0.4-4.9C26,32.7,25.3,31.6,24.5,30.3z M26.8,24.6c-0.2,0.7-0.5,1.3,0,2.1
			c0.7,1.1,1.3,2.3,2,3.6C29,30.8,29.3,31,30,31c2.3-0.1,4.3,1.4,5.1,3.6c0.1,0.2,0.5,0.5,0.7,0.5c1.7,0.2,3.5,0.4,5.2,0.6
			c0.9,0.1,1.1-0.3,1-1.2c-0.3-2.1-1.2-3.9-2.5-5.6c-1.6-2.1-3.7-3.4-6.1-4.2C31.3,24,29.1,24,26.8,24.6z M34.9,38.8
			c-1.1,2-2.6,3-5,3.1c-0.5,0-0.8,0.1-1,0.6c-0.6,1.5-1.4,2.9-2.1,4.3c-0.3,0.7,0,1.4,0.8,1.6c2.5,0.5,4.9,0.3,7.2-0.8
			c2.9-1.3,5.1-3.4,6.4-6.4c0.4-0.9,0-1.8-1.1-1.9C38.4,39.2,36.7,39,34.9,38.8z M30.8,38c1-0.5,1.3-1.5,0.8-2.4
			c-0.5-0.9-1.6-1.2-2.5-0.7c-0.8,0.5-1.2,1.6-0.7,2.4C28.8,38.3,29.8,38.5,30.8,38z"/>
	</g>
</g>
</svg>
