<?xml version="1.0" encoding="iso-8859-1"?>
<!-- Generator: Adobe Illustrator 22.0.1, SVG Export Plug-In . SVG Version: 6.00 Build 0)  -->
<svg version="1.1" id="Layer_1" xmlns="http://www.w3.org/2000/svg" xmlns:xlink="http://www.w3.org/1999/xlink" x="0px" y="0px"
	 viewBox="0 0 330.475 79.463" style="enable-background:new 0 0 330.475 79.463;" xml:space="preserve">
<g>
	<g>
		<g>
			<path style="fill:#445F87;" d="M200.917,37.081h-22.604l-4.645,7.519h-8.381l18.964-30.171c1.149-1.868,2.538-3.209,5.507-3.209
				c2.921,0,4.31,1.341,5.459,3.209L214.087,44.6h-8.429L200.917,37.081z M181.713,31.478h15.804l-7.902-12.882L181.713,31.478z"/>
			<path style="fill:#445F87;" d="M97.425,44.241V17.853H83.729V11.58h34.72v6.273h-13.696v26.387H97.425z"/>
			<g>
				<path style="fill:#445F87;" d="M225.89,44.6V34.026c0-6.286,1.998-9.063,10.379-9.063h19.198c2.583,0,3.265-0.731,3.265-3.167
					v-0.828c0-2.583-0.682-3.314-3.07-3.314h-12.181v-6.286h12.669c6.529,0,9.404,2.583,9.404,9.404v1.657
					c0,6.188-2.29,8.137-9.599,8.137H236.61c-3.021,0-3.947,0.828-3.947,3.752v3.995h32.89V44.6H225.89z"/>
				<path style="fill:#445F87;" d="M304.289,44.6v-9.307h-33.475V11.368h7.26v17.591h26.215V11.368h7.211V44.6H304.289z"/>
			</g>
			<polygon style="fill:#445F87;" points="154.456,11.58 130.305,11.58 123.026,11.58 123.026,17.853 123.026,44.241 
				130.305,44.241 130.305,31.214 130.305,24.893 130.305,17.853 154.456,17.853 154.456,44.241 161.481,44.241 161.481,17.853 
				161.481,11.58 			"/>
		</g>
		<circle style="fill:#E08B44;" cx="220.361" cy="13.494" r="4.91"/>
	</g>
	<g>
		<path style="fill:#445F87;" d="M1.328,66.245c0.62-0.127,1.747-0.222,2.844-0.222c1.446,0,2.336,0.175,3.066,0.683
			c0.667,0.397,1.112,1.096,1.112,2.002c0,0.985-0.62,1.89-1.779,2.319v0.032c1.128,0.286,2.161,1.175,2.161,2.653
			c0,0.953-0.413,1.7-1.033,2.208c-0.762,0.667-2.017,1.001-3.971,1.001c-1.08,0-1.906-0.079-2.399-0.143V66.245z M3.266,70.471
			h1.001c1.35,0,2.113-0.635,2.113-1.541c0-1.001-0.763-1.461-2.002-1.461c-0.572,0-0.906,0.032-1.112,0.079V70.471z M3.266,75.396
			c0.254,0.032,0.588,0.048,1.033,0.048c1.255,0,2.367-0.477,2.367-1.795c0-1.239-1.08-1.747-2.431-1.747H3.266V75.396z"/>
		<path style="fill:#445F87;" d="M21.228,76.492c-0.46,0.239-1.477,0.477-2.764,0.477c-3.399,0-5.465-2.128-5.465-5.385
			c0-3.527,2.446-5.656,5.719-5.656c1.287,0,2.208,0.27,2.606,0.477l-0.429,1.557c-0.508-0.222-1.207-0.413-2.097-0.413
			c-2.176,0-3.749,1.366-3.749,3.94c0,2.351,1.382,3.861,3.733,3.861c0.794,0,1.621-0.159,2.129-0.397L21.228,76.492z"/>
		<path style="fill:#445F87;" d="M25.29,76.81c0.191-0.318,0.349-0.699,0.492-1.096c0.445-1.223,0.715-2.59,1.557-3.416
			c0.239-0.239,0.556-0.429,0.89-0.54V71.71c-1.255-0.223-2.304-1.112-2.304-2.622c0-0.969,0.413-1.731,1.049-2.24
			c0.747-0.588,1.938-0.826,3.304-0.826c1.049,0,2.097,0.096,2.844,0.222V76.81h-1.938v-4.4h-0.794
			c-0.556,0-0.985,0.143-1.318,0.461c-0.699,0.699-0.985,2.145-1.335,3.098c-0.095,0.286-0.191,0.524-0.365,0.842H25.29z
			 M31.183,67.612c-0.207-0.048-0.588-0.111-1.144-0.111c-1.176,0-2.161,0.46-2.161,1.731c0,1.128,1.001,1.747,2.288,1.747
			c0.382,0,0.763,0,1.017-0.031V67.612z"/>
		<path style="fill:#445F87;" d="M47.046,67.738h-3.05v-1.636h8.086v1.636H49v9.071h-1.954V67.738z"/>
		<path style="fill:#445F87;" d="M56.509,66.245c0.699-0.127,1.668-0.222,2.987-0.222c1.43,0,2.479,0.302,3.161,0.874
			c0.636,0.524,1.049,1.366,1.049,2.367c0,1.017-0.318,1.859-0.921,2.431c-0.779,0.779-2.002,1.144-3.384,1.144
			c-0.365,0-0.699-0.016-0.954-0.064v4.035h-1.938V66.245z M58.447,71.233c0.239,0.064,0.556,0.08,0.954,0.08
			c1.461,0,2.351-0.715,2.351-1.97c0-1.191-0.826-1.827-2.176-1.827c-0.54,0-0.922,0.048-1.128,0.096V71.233z"/>
		<path style="fill:#445F87;" d="M69.515,66.102l1.811,4.131c0.286,0.699,0.508,1.335,0.763,1.97h0.048
			c0.159-0.492,0.35-1.175,0.604-2.017l1.398-4.083h2.065L74.09,71.44c-0.62,1.557-1.303,3.178-2.065,4.178
			c-0.699,0.874-1.541,1.366-2.669,1.366c-0.461,0-0.747-0.048-1.001-0.143l0.159-1.573c0.159,0.048,0.365,0.063,0.667,0.063
			c0.906,0,1.478-0.763,1.747-1.366c0.096-0.222,0.064-0.365-0.048-0.572l-3.575-7.292H69.515z"/>
		<path style="fill:#445F87;" d="M87.032,66.102v1.604h-4.671v2.304c0.365-0.048,0.922-0.079,1.319-0.079
			c1.049,0,2.113,0.254,2.891,0.81c0.779,0.524,1.303,1.382,1.303,2.589c0,1.017-0.365,1.811-0.953,2.367
			c-0.969,0.89-2.542,1.223-4.099,1.223c-1.096,0-1.906-0.079-2.399-0.143V66.102H87.032z M82.362,75.364
			c0.286,0.048,0.636,0.064,1.033,0.064c0.715,0,1.43-0.222,1.874-0.667c0.35-0.334,0.556-0.811,0.556-1.398
			c0-0.667-0.27-1.144-0.715-1.446c-0.477-0.365-1.128-0.508-1.779-0.508c-0.302,0-0.651,0.032-0.969,0.064V75.364z"/>
		<path style="fill:#445F87;" d="M102.135,71.345c0,3.59-2.176,5.64-5.132,5.64c-3.018,0-4.925-2.304-4.925-5.449
			c0-3.289,2.065-5.608,5.084-5.608C100.292,65.927,102.135,68.295,102.135,71.345z M94.144,71.504c0,2.176,1.096,3.908,2.97,3.908
			c1.891,0,2.955-1.748,2.955-3.988c0-2.018-1.001-3.924-2.955-3.924C95.177,67.5,94.144,69.295,94.144,71.504z"/>
		<path style="fill:#445F87;" d="M115.22,66.102V76.81h-1.954v-9.103h-4.321v9.103h-1.954V66.102H115.22z"/>
		<path style="fill:#445F87;" d="M120.646,66.245c0.699-0.127,1.668-0.222,2.987-0.222c1.43,0,2.479,0.302,3.161,0.874
			c0.636,0.524,1.049,1.366,1.049,2.367c0,1.017-0.318,1.859-0.922,2.431c-0.779,0.779-2.002,1.144-3.384,1.144
			c-0.365,0-0.699-0.016-0.954-0.064v4.035h-1.938V66.245z M122.584,71.233c0.239,0.064,0.556,0.08,0.954,0.08
			c1.461,0,2.351-0.715,2.351-1.97c0-1.191-0.826-1.827-2.176-1.827c-0.54,0-0.922,0.048-1.128,0.096V71.233z"/>
		<path style="fill:#445F87;" d="M142.12,71.345c0,3.59-2.177,5.64-5.131,5.64c-3.019,0-4.925-2.304-4.925-5.449
			c0-3.289,2.064-5.608,5.083-5.608C140.276,65.927,142.12,68.295,142.12,71.345z M134.128,71.504c0,2.176,1.097,3.908,2.971,3.908
			c1.89,0,2.954-1.748,2.954-3.988c0-2.018-1.001-3.924-2.954-3.924C135.161,67.5,134.128,69.295,134.128,71.504z"/>
		<path style="fill:#445F87;" d="M146.974,66.245c0.62-0.127,1.747-0.222,2.844-0.222c1.445,0,2.335,0.175,3.065,0.683
			c0.668,0.397,1.113,1.096,1.113,2.002c0,0.985-0.62,1.89-1.78,2.319v0.032c1.128,0.286,2.161,1.175,2.161,2.653
			c0,0.953-0.413,1.7-1.033,2.208c-0.762,0.667-2.017,1.001-3.971,1.001c-1.08,0-1.907-0.079-2.399-0.143V66.245z M148.912,70.471
			h1.001c1.35,0,2.113-0.635,2.113-1.541c0-1.001-0.763-1.461-2.002-1.461c-0.572,0-0.906,0.032-1.112,0.079V70.471z
			 M148.912,75.396c0.254,0.032,0.587,0.048,1.032,0.048c1.255,0,2.368-0.477,2.368-1.795c0-1.239-1.08-1.747-2.431-1.747h-0.969
			V75.396z"/>
		<path style="fill:#445F87;" d="M168.702,71.345c0,3.59-2.177,5.64-5.131,5.64c-3.019,0-4.925-2.304-4.925-5.449
			c0-3.289,2.065-5.608,5.084-5.608C166.858,65.927,168.702,68.295,168.702,71.345z M160.71,71.504c0,2.176,1.097,3.908,2.971,3.908
			c1.89,0,2.954-1.748,2.954-3.988c0-2.018-1.001-3.924-2.954-3.924C161.743,67.5,160.71,69.295,160.71,71.504z"/>
		<path style="fill:#445F87;" d="M181.15,66.102v9.151l1.017,0.048l-0.111,4.162h-1.493l-0.111-2.653h-6.498l-0.112,2.653h-1.493
			l-0.095-4.162l0.857-0.048c0.413-0.746,0.794-1.525,1.033-2.367c0.334-1.144,0.461-2.446,0.461-3.988v-2.796H181.15z
			 M176.416,69.391c0,1.461-0.159,2.78-0.508,3.908c-0.206,0.699-0.508,1.382-0.794,1.907h4.083v-7.499h-2.78V69.391z"/>
		<path style="fill:#445F87;" d="M188.833,66.102v4.289h4.528v-4.289h1.955V76.81h-1.955v-4.718h-4.528v4.718h-1.954V66.102H188.833
			z"/>
		<path style="fill:#445F87;" d="M202.87,73.775l-0.922,3.035h-2.017l3.431-10.708h2.494l3.48,10.708h-2.097l-0.969-3.035H202.87z
			 M205.937,72.298l-0.842-2.637c-0.207-0.651-0.382-1.382-0.541-2.002h-0.031c-0.159,0.62-0.318,1.366-0.508,2.002l-0.827,2.637
			H205.937z"/>
		<path style="fill:#445F87;" d="M213.048,76.81c0.191-0.318,0.35-0.699,0.492-1.096c0.445-1.223,0.716-2.59,1.557-3.416
			c0.238-0.239,0.556-0.429,0.889-0.54V71.71c-1.255-0.223-2.303-1.112-2.303-2.622c0-0.969,0.412-1.731,1.048-2.24
			c0.747-0.588,1.938-0.826,3.305-0.826c1.048,0,2.096,0.096,2.843,0.222V76.81h-1.937v-4.4h-0.794
			c-0.557,0-0.985,0.143-1.319,0.461c-0.699,0.699-0.985,2.145-1.334,3.098c-0.096,0.286-0.191,0.524-0.366,0.842H213.048z
			 M218.942,67.612c-0.207-0.048-0.588-0.111-1.144-0.111c-1.175,0-2.161,0.46-2.161,1.731c0,1.128,1.001,1.747,2.288,1.747
			c0.381,0,0.762,0,1.017-0.031V67.612z"/>
		<path style="fill:#445F87;" d="M234.899,73.775l-0.922,3.035h-2.017l3.431-10.708h2.494l3.48,10.708h-2.097l-0.969-3.035H234.899z
			 M237.965,72.298l-0.842-2.637c-0.207-0.651-0.382-1.382-0.541-2.002h-0.031c-0.159,0.62-0.318,1.366-0.508,2.002l-0.827,2.637
			H237.965z"/>
		<path style="fill:#445F87;" d="M246.029,66.245c0.699-0.127,1.669-0.222,2.987-0.222c1.43,0,2.478,0.302,3.161,0.874
			c0.636,0.524,1.049,1.366,1.049,2.367c0,1.017-0.318,1.859-0.922,2.431c-0.778,0.779-2.002,1.144-3.384,1.144
			c-0.366,0-0.699-0.016-0.953-0.064v4.035h-1.938V66.245z M247.968,71.233c0.238,0.064,0.556,0.08,0.953,0.08
			c1.461,0,2.351-0.715,2.351-1.97c0-1.191-0.826-1.827-2.176-1.827c-0.541,0-0.922,0.048-1.128,0.096V71.233z"/>
		<path style="fill:#445F87;" d="M266.867,72.441c-0.064-1.382-0.143-3.05-0.127-4.496h-0.047c-0.35,1.303-0.794,2.749-1.27,4.099
			l-1.557,4.638h-1.509l-1.43-4.575c-0.412-1.366-0.794-2.827-1.08-4.162h-0.031c-0.048,1.398-0.111,3.098-0.191,4.559l-0.238,4.305
			h-1.826l0.715-10.708h2.574l1.398,4.305c0.381,1.255,0.715,2.526,0.984,3.717h0.048c0.286-1.16,0.651-2.478,1.064-3.733
			l1.478-4.289h2.542l0.62,10.708h-1.907L266.867,72.441z"/>
		<path style="fill:#445F87;" d="M276.202,73.775l-0.922,3.035h-2.017l3.431-10.708h2.494l3.48,10.708h-2.097l-0.969-3.035H276.202z
			 M279.268,72.298l-0.842-2.637c-0.207-0.651-0.382-1.382-0.541-2.002h-0.031c-0.159,0.62-0.318,1.366-0.508,2.002l-0.827,2.637
			H279.268z"/>
		<path style="fill:#445F87;" d="M288.493,67.738h-3.05v-1.636h8.086v1.636h-3.083v9.071h-1.954V67.738z"/>
		<path style="fill:#445F87;" d="M299.592,66.102l1.811,4.131c0.286,0.699,0.508,1.335,0.762,1.97h0.049
			c0.159-0.492,0.349-1.175,0.603-2.017l1.398-4.083h2.066l-2.113,5.338c-0.62,1.557-1.303,3.178-2.065,4.178
			c-0.699,0.874-1.541,1.366-2.669,1.366c-0.461,0-0.747-0.048-1.001-0.143l0.159-1.573c0.159,0.048,0.365,0.063,0.667,0.063
			c0.906,0,1.478-0.763,1.747-1.366c0.095-0.222,0.064-0.365-0.048-0.572l-3.575-7.292H299.592z"/>
		<path style="fill:#445F87;" d="M310.5,66.245c0.699-0.127,1.669-0.222,2.987-0.222c1.43,0,2.478,0.302,3.161,0.874
			c0.636,0.524,1.049,1.366,1.049,2.367c0,1.017-0.318,1.859-0.922,2.431c-0.778,0.779-2.002,1.144-3.384,1.144
			c-0.366,0-0.699-0.016-0.953-0.064v4.035H310.5V66.245z M312.439,71.233c0.238,0.064,0.556,0.08,0.953,0.08
			c1.461,0,2.351-0.715,2.351-1.97c0-1.191-0.826-1.827-2.176-1.827c-0.541,0-0.922,0.048-1.128,0.096V71.233z"/>
		<path style="fill:#445F87;" d="M323.57,73.775l-0.922,3.035h-2.017l3.431-10.708h2.494l3.48,10.708h-2.097l-0.969-3.035H323.57z
			 M326.637,72.298l-0.842-2.637c-0.207-0.651-0.382-1.382-0.541-2.002h-0.031c-0.159,0.62-0.318,1.366-0.508,2.002l-0.827,2.637
			H326.637z"/>
	</g>
	<path style="fill:#445F87;" d="M318.801,55.678H78.076c-6.437,0-11.674-5.266-11.674-11.738V11.738C66.402,5.266,71.639,0,78.076,0
		h240.726c6.437,0,11.674,5.266,11.674,11.738V43.94C330.475,50.412,325.239,55.678,318.801,55.678z M78.076,2.608
		c-5.006,0-9.079,4.096-9.079,9.129V43.94c0,5.034,4.073,9.129,9.079,9.129h240.726c5.007,0,9.079-4.096,9.079-9.129V11.738
		c0-5.034-4.073-9.129-9.079-9.129H78.076z"/>
	<g>
		<path style="fill:#E08B44;" d="M15.707,7.157c0-2.07,0-4.113,0-6.174c0.084,0,0.162,0,0.241,0c2.44,0,4.88-0.001,7.32-0.001
			c0.927,0,1.854,0.004,2.781,0.003c2.821-0.001,5.643-0.002,8.464-0.003c1.122,0,2.244,0.001,3.367,0.001
			c1.317,0,2.634,0.002,3.951-0.003c0.138,0,0.185,0.033,0.185,0.191c-0.006,1.933-0.005,3.867-0.001,5.8
			c0,0.139-0.03,0.189-0.173,0.189c-7.239-0.004-14.478-0.003-21.717-0.003c-1.413,0-2.825,0-4.238,0
			C15.831,7.157,15.775,7.157,15.707,7.157z"/>
		<path style="fill:#E08B44;" d="M6.997,40.745c-2.07,0-4.113,0-6.174,0c0-0.084,0-0.162,0-0.241c0-2.44-0.001-4.88-0.001-7.32
			c0-0.927,0.004-1.854,0.003-2.781c-0.001-2.821-0.002-5.643-0.003-8.464c0-1.122,0.001-2.244,0.001-3.367
			c0-1.317,0.002-2.634-0.003-3.951c0-0.138,0.033-0.185,0.191-0.185c1.933,0.006,3.867,0.005,5.8,0.001
			c0.139,0,0.189,0.03,0.189,0.173C6.997,21.85,6.997,29.089,6.997,36.328c0,1.413,0,2.825,0,4.238
			C6.997,40.622,6.997,40.677,6.997,40.745z"/>
		<path style="fill:#E08B44;" d="M56.163,40.745c-2.07,0-4.113,0-6.174,0c0-0.084,0-0.162,0-0.241c0-2.44-0.001-4.88-0.001-7.32
			c0-0.927,0.004-1.854,0.003-2.781c-0.001-2.821-0.002-5.643-0.003-8.464c0-1.122,0.001-2.244,0.001-3.367
			c0-1.317,0.002-2.634-0.003-3.951c0-0.138,0.033-0.185,0.191-0.185c1.933,0.006,3.867,0.005,5.8,0.001
			c0.139,0,0.189,0.03,0.189,0.173c-0.004,7.239-0.003,14.478-0.003,21.717c0,1.413,0,2.825,0,4.238
			C56.163,40.622,56.163,40.677,56.163,40.745z"/>
		<path style="fill:#E08B44;" d="M15.707,55.455c0-2.07,0-4.113,0-6.174c0.084,0,0.162,0,0.241,0c2.44,0,4.88-0.001,7.32-0.001
			c0.927,0,1.854,0.004,2.781,0.003c2.821-0.001,5.643-0.002,8.464-0.003c1.122,0,2.244,0.001,3.367,0.001
			c1.317,0,2.634,0.002,3.951-0.003c0.138,0,0.185,0.033,0.185,0.191c-0.006,1.933-0.005,3.867-0.001,5.8
			c0,0.139-0.03,0.189-0.173,0.189c-7.239-0.004-14.478-0.003-21.717-0.003c-1.413,0-2.825,0-4.238,0
			C15.831,55.455,15.775,55.455,15.707,55.455z"/>
		<path style="fill:#E08B44;" d="M13.36,4.707c0,1.077,0,2.153,0,3.23c0,0.475-0.264,0.73-0.774,0.735
			c-0.511,0.005-1.023-0.005-1.534,0.003c-0.68,0.011-1.263,0.248-1.756,0.69c-0.375,0.336-0.625,0.736-0.769,1.202
			c-0.107,0.347-0.081,0.701-0.094,1.053c-0.005,0.135-0.023,0.283-0.086,0.401c-0.123,0.231-0.355,0.318-0.622,0.318
			c-2.2,0.001-4.4,0-6.6-0.001c-0.196,0-0.396,0.012-0.587-0.022c-0.323-0.057-0.533-0.313-0.537-0.621
			c-0.008-0.649,0.027-1.296,0.12-1.941c0.143-1.001,0.445-1.955,0.887-2.874c0.439-0.914,1.01-1.743,1.702-2.505
			C3.774,3.203,5.062,2.31,6.546,1.667c0.69-0.299,1.414-0.515,2.157-0.676c0.959-0.208,1.929-0.258,2.908-0.238
			c0.351,0.007,0.703,0.001,1.055,0.001c0.432,0,0.692,0.24,0.694,0.648c0.003,0.716,0.001,1.432,0.001,2.148
			C13.361,3.936,13.361,4.322,13.36,4.707z"/>
		<path style="fill:#E08B44;" d="M43.935,4.707c0,1.077,0,2.153,0,3.23c0,0.475,0.264,0.73,0.774,0.735
			c0.511,0.005,1.023-0.005,1.534,0.003c0.68,0.011,1.263,0.248,1.756,0.69c0.375,0.336,0.625,0.736,0.769,1.202
			c0.107,0.347,0.081,0.701,0.094,1.053c0.005,0.135,0.023,0.283,0.086,0.401c0.123,0.231,0.355,0.318,0.622,0.318
			c2.2,0.001,4.4,0,6.6-0.001c0.196,0,0.396,0.012,0.587-0.022c0.323-0.057,0.533-0.313,0.537-0.621
			c0.008-0.649-0.027-1.296-0.12-1.941c-0.143-1.001-0.445-1.955-0.887-2.874c-0.439-0.914-1.01-1.743-1.702-2.505
			c-1.065-1.173-2.353-2.066-3.837-2.709c-0.69-0.299-1.414-0.515-2.157-0.676c-0.959-0.208-1.929-0.258-2.908-0.238
			c-0.351,0.007-0.703,0.001-1.055,0.001c-0.432,0-0.692,0.24-0.694,0.648c-0.003,0.716-0.001,1.432-0.001,2.148
			C43.935,3.936,43.935,4.322,43.935,4.707z"/>
		<path style="fill:#E08B44;" d="M13.36,50.809c0-1.077,0-2.153,0-3.23c0-0.475-0.264-0.73-0.774-0.735
			c-0.511-0.005-1.023,0.005-1.534-0.003c-0.68-0.011-1.263-0.248-1.756-0.69c-0.375-0.336-0.625-0.736-0.769-1.202
			c-0.107-0.347-0.081-0.701-0.094-1.053c-0.005-0.135-0.023-0.283-0.086-0.401c-0.123-0.231-0.355-0.318-0.622-0.318
			c-2.2-0.001-4.4,0-6.6,0.001c-0.196,0-0.396-0.012-0.587,0.022c-0.323,0.057-0.533,0.313-0.537,0.621
			c-0.008,0.649,0.027,1.296,0.12,1.941c0.143,1.001,0.445,1.955,0.887,2.874c0.439,0.914,1.01,1.743,1.702,2.505
			c1.065,1.173,2.353,2.066,3.837,2.709c0.69,0.299,1.414,0.515,2.157,0.676c0.959,0.208,1.929,0.258,2.908,0.238
			c0.351-0.007,0.703-0.001,1.055-0.001c0.432,0,0.692-0.24,0.694-0.648c0.003-0.716,0.001-1.432,0.001-2.148
			C13.361,51.58,13.361,51.195,13.36,50.809z"/>
		<path style="fill:#E08B44;" d="M43.935,50.809c0-1.077,0-2.153,0-3.23c0-0.475,0.264-0.73,0.774-0.735
			c0.511-0.005,1.023,0.005,1.534-0.003c0.68-0.011,1.263-0.248,1.756-0.69c0.375-0.336,0.625-0.736,0.769-1.202
			c0.107-0.347,0.081-0.701,0.094-1.053c0.005-0.135,0.023-0.283,0.086-0.401c0.123-0.231,0.355-0.318,0.622-0.318
			c2.2-0.001,4.4,0,6.6,0.001c0.196,0,0.396-0.012,0.587,0.022c0.323,0.057,0.533,0.313,0.537,0.621
			c0.008,0.649-0.027,1.296-0.12,1.941c-0.143,1.001-0.445,1.955-0.887,2.874c-0.439,0.914-1.01,1.743-1.702,2.505
			c-1.065,1.173-2.353,2.066-3.837,2.709c-0.69,0.299-1.414,0.515-2.157,0.676c-0.959,0.208-1.929,0.258-2.908,0.238
			c-0.351-0.007-0.703-0.001-1.055-0.001c-0.432,0-0.692-0.24-0.694-0.648c-0.003-0.716-0.001-1.432-0.001-2.148
			C43.935,51.58,43.935,51.195,43.935,50.809z"/>
		<path style="fill:#E08B44;" d="M36.368,41.577c-3.483,1.706-7.066,2.394-10.873,1.611c-0.695-0.143-1.327-0.132-2.04,0.215
			c-1.634,0.797-3.818-0.473-4.399-2.347c-0.17-0.548-0.527-1.114-0.956-1.493c-3.404-3.005-5.251-6.761-5.44-11.284
			c-0.214-5.108,1.613-9.389,5.432-12.811c0.232-0.208,0.447-0.48,0.565-0.765c0.745-1.807,1.874-2.489,3.811-2.386
			c0.649,0.034,1.325-0.084,1.961-0.244c3.376-0.85,6.674-0.708,9.933,0.571c2.564,1.006,4.712,2.541,6.489,4.647
			c2.072,2.457,3.261,5.261,3.594,8.449c0.031,0.296,0.161,0.642,0.363,0.85c1.777,1.823,1.514,4.223-0.613,5.547
			c-0.224,0.14-0.426,0.408-0.515,0.659C42.327,36.649,39.782,39.492,36.368,41.577z M23.135,21.41
			c-0.346-0.633-0.678-1.275-1.041-1.898c-0.43-0.737-1.944-0.886-2.534-0.267c-1.916,2.014-2.919,4.457-3.165,7.181
			c-0.365,4.051,1.126,7.434,3.992,10.248c0.639,0.627,1.222,0.46,1.65-0.419c0.661-1.356,1.312-2.717,1.988-4.065
			c0.319-0.637,0.339-1.192-0.091-1.82c-1.06-1.55-1.309-3.404-0.368-4.899C24.618,23.799,23.984,22.683,23.135,21.41z
			 M25.452,15.673c-0.243,0.699-0.516,1.311-0.039,2.055c0.728,1.136,1.349,2.344,1.95,3.553c0.285,0.574,0.598,0.798,1.277,0.776
			c2.288-0.076,4.253,1.369,5.089,3.561c0.089,0.234,0.467,0.468,0.738,0.505c1.731,0.24,3.467,0.442,5.206,0.62
			c0.853,0.087,1.129-0.277,0.996-1.151c-0.321-2.103-1.2-3.942-2.483-5.636c-1.586-2.093-3.678-3.43-6.127-4.187
			C29.91,15.105,27.698,15.069,25.452,15.673z M33.567,29.918c-1.097,1.981-2.599,3.038-4.989,3.091
			c-0.49,0.011-0.774,0.083-0.999,0.603c-0.636,1.467-1.37,2.891-2.065,4.332c-0.342,0.709-0.018,1.44,0.758,1.604
			c2.471,0.521,4.887,0.26,7.181-0.755c2.932-1.297,5.076-3.425,6.387-6.379c0.409-0.922-0.033-1.818-1.064-1.938
			C37.039,30.273,35.298,30.101,33.567,29.918z M29.44,29.089c0.96-0.524,1.274-1.516,0.775-2.449
			c-0.477-0.893-1.634-1.213-2.544-0.704c-0.833,0.466-1.176,1.621-0.728,2.447C27.469,29.35,28.452,29.628,29.44,29.089z"/>
	</g>
</g>
</svg>
