<svg xmlns="http://www.w3.org/2000/svg" viewBox="0 0 412.5 472.5"><defs><style>.cls-1{fill:#e32027;}</style></defs><g id="Слой_2" data-name="Слой 2"><g id="Ñëîé_1" data-name="Ñëîé 1"><path class="cls-1" d="M11.25,472.5A11.25,11.25,0,0,1,0,461.25v-450a11.25,11.25,0,0,1,22.5,0v450A11.25,11.25,0,0,1,11.25,472.5Z"/><path class="cls-1" d="M401.25,472.5A11.25,11.25,0,0,1,390,461.25v-450a11.25,11.25,0,0,1,22.5,0v450A11.25,11.25,0,0,1,401.25,472.5Z"/><path class="cls-1" d="M401.25,22.5h-390a11.25,11.25,0,0,1,0-22.5h390a11.25,11.25,0,0,1,0,22.5Z"/><path class="cls-1" d="M401.25,472.5h-390a11.25,11.25,0,0,1,0-22.5h390a11.25,11.25,0,0,1,0,22.5Z"/><path class="cls-1" d="M281.25,472.5A11.25,11.25,0,0,1,270,461.25v-450a11.25,11.25,0,0,1,22.5,0v450A11.25,11.25,0,0,1,281.25,472.5Z"/><path class="cls-1" d="M131.25,112.5A11.25,11.25,0,0,1,120,101.25,18.77,18.77,0,0,0,101.25,82.5a11.25,11.25,0,0,1,0-22.5,41.29,41.29,0,0,1,41.25,41.25A11.25,11.25,0,0,1,131.25,112.5Z"/><path class="cls-1" d="M101.25,82.5h-90a11.25,11.25,0,0,1,0-22.5h90a11.25,11.25,0,0,1,0,22.5Z"/><path class="cls-1" d="M131.25,142.5A11.25,11.25,0,0,1,120,131.25v-30a11.25,11.25,0,0,1,22.5,0v30A11.25,11.25,0,0,1,131.25,142.5Z"/><path class="cls-1" d="M176.25,142.5h-90a11.25,11.25,0,0,1,0-22.5h90a11.25,11.25,0,0,1,0,22.5Z"/><path class="cls-1" d="M326.25,262.5A11.25,11.25,0,0,1,315,251.25v-30a11.25,11.25,0,0,1,22.5,0v30A11.25,11.25,0,0,1,326.25,262.5Z"/><path class="cls-1" d="M86.4,202.5h-.3a11.25,11.25,0,0,1,0-22.5h.3a11.25,11.25,0,0,1,0,22.5Z"/><path class="cls-1" d="M131.4,202.5h-.3a11.25,11.25,0,0,1,0-22.5h.3a11.25,11.25,0,0,1,0,22.5Z"/><path class="cls-1" d="M176.4,202.5h-.3a11.25,11.25,0,0,1,0-22.5h.3a11.25,11.25,0,0,1,0,22.5Z"/><path class="cls-1" d="M86.4,262.5h-.3a11.25,11.25,0,0,1,0-22.5h.3a11.25,11.25,0,0,1,0,22.5Z"/><path class="cls-1" d="M131.4,262.5h-.3a11.25,11.25,0,0,1,0-22.5h.3a11.25,11.25,0,0,1,0,22.5Z"/><path class="cls-1" d="M176.4,262.5h-.3a11.25,11.25,0,0,1,0-22.5h.3a11.25,11.25,0,0,1,0,22.5Z"/><path class="cls-1" d="M86.4,322.5h-.3a11.25,11.25,0,0,1,0-22.5h.3a11.25,11.25,0,0,1,0,22.5Z"/><path class="cls-1" d="M131.4,322.5h-.3a11.25,11.25,0,0,1,0-22.5h.3a11.25,11.25,0,0,1,0,22.5Z"/><path class="cls-1" d="M176.4,322.5h-.3a11.25,11.25,0,0,1,0-22.5h.3a11.25,11.25,0,0,1,0,22.5Z"/><path class="cls-1" d="M86.4,382.5h-.3a11.25,11.25,0,0,1,0-22.5h.3a11.25,11.25,0,0,1,0,22.5Z"/><path class="cls-1" d="M131.4,382.5h-.3a11.25,11.25,0,0,1,0-22.5h.3a11.25,11.25,0,0,1,0,22.5Z"/><path class="cls-1" d="M176.4,382.5h-.3a11.25,11.25,0,0,1,0-22.5h.3a11.25,11.25,0,0,1,0,22.5Z"/></g></g></svg>