<svg xmlns="http://www.w3.org/2000/svg" viewBox="0 0 412.5 472.5"><defs><style>.cls-1{fill:#e32027;}</style></defs><g id="Слой_2" data-name="Слой 2"><g id="Ñëîé_1" data-name="Ñëîé 1"><path class="cls-1" d="M11.25,472.5A11.25,11.25,0,0,1,0,461.25v-450a11.25,11.25,0,0,1,22.5,0v450A11.25,11.25,0,0,1,11.25,472.5Z"/><path class="cls-1" d="M401.25,472.5A11.25,11.25,0,0,1,390,461.25v-450a11.25,11.25,0,0,1,22.5,0v450A11.25,11.25,0,0,1,401.25,472.5Z"/><path class="cls-1" d="M401.25,22.5h-390a11.25,11.25,0,0,1,0-22.5h390a11.25,11.25,0,0,1,0,22.5Z"/><path class="cls-1" d="M401.25,472.5h-390a11.25,11.25,0,0,1,0-22.5h390a11.25,11.25,0,0,1,0,22.5Z"/><path class="cls-1" d="M206.25,137.17A11.25,11.25,0,0,1,195,125.92v-110a11.25,11.25,0,1,1,22.5,0v110A11.25,11.25,0,0,1,206.25,137.17Z"/><path class="cls-1" d="M251.25,137.17h-90a11.25,11.25,0,0,1,0-22.5h90a11.25,11.25,0,1,1,0,22.5Z"/><path class="cls-1" d="M161.4,197.17h-.3a11.25,11.25,0,0,1,0-22.5h.3a11.25,11.25,0,0,1,0,22.5Z"/><path class="cls-1" d="M206.4,197.17h-.3a11.25,11.25,0,0,1,0-22.5h.3a11.25,11.25,0,0,1,0,22.5Z"/><path class="cls-1" d="M251.4,197.17h-.3a11.25,11.25,0,0,1,0-22.5h.3a11.25,11.25,0,0,1,0,22.5Z"/><path class="cls-1" d="M161.4,257.17h-.3a11.25,11.25,0,1,1,0-22.5h.3a11.25,11.25,0,0,1,0,22.5Z"/><path class="cls-1" d="M206.4,257.17h-.3a11.25,11.25,0,1,1,0-22.5h.3a11.25,11.25,0,0,1,0,22.5Z"/><path class="cls-1" d="M251.4,257.17h-.3a11.25,11.25,0,1,1,0-22.5h.3a11.25,11.25,0,0,1,0,22.5Z"/><path class="cls-1" d="M161.4,317.17h-.3a11.25,11.25,0,1,1,0-22.5h.3a11.25,11.25,0,1,1,0,22.5Z"/><path class="cls-1" d="M206.4,317.17h-.3a11.25,11.25,0,1,1,0-22.5h.3a11.25,11.25,0,1,1,0,22.5Z"/><path class="cls-1" d="M251.4,317.17h-.3a11.25,11.25,0,1,1,0-22.5h.3a11.25,11.25,0,0,1,0,22.5Z"/><path class="cls-1" d="M161.4,377.17h-.3a11.25,11.25,0,1,1,0-22.5h.3a11.25,11.25,0,1,1,0,22.5Z"/><path class="cls-1" d="M206.4,377.17h-.3a11.25,11.25,0,1,1,0-22.5h.3a11.25,11.25,0,1,1,0,22.5Z"/><path class="cls-1" d="M251.4,377.17h-.3a11.25,11.25,0,1,1,0-22.5h.3a11.25,11.25,0,0,1,0,22.5Z"/><path class="cls-1" d="M302.75,472.5a11.25,11.25,0,0,1-11.25-11.25v-450a11.25,11.25,0,0,1,22.5,0v450A11.25,11.25,0,0,1,302.75,472.5Z"/><path class="cls-1" d="M347.75,262.5a11.25,11.25,0,0,1-11.25-11.25v-30a11.25,11.25,0,0,1,22.5,0v30A11.25,11.25,0,0,1,347.75,262.5Z"/><path class="cls-1" d="M109.75,472.5A11.25,11.25,0,0,0,121,461.25v-450a11.25,11.25,0,0,0-22.5,0v450A11.25,11.25,0,0,0,109.75,472.5Z"/><path class="cls-1" d="M64.75,262.5A11.25,11.25,0,0,0,76,251.25v-30a11.25,11.25,0,0,0-22.5,0v30A11.25,11.25,0,0,0,64.75,262.5Z"/></g></g></svg>