<svg xmlns="http://www.w3.org/2000/svg" viewBox="0 0 60 60.02"><defs><style>.cls-1{fill:#e32027;}</style></defs><g id="Слой_2" data-name="Слой 2"><g id="Layer_1" data-name="Layer 1"><path class="cls-1" d="M48,23a1,1,0,0,0,1-1V21a1,1,0,0,0-2,0v1A1,1,0,0,0,48,23Z"/><path class="cls-1" d="M47,27a1,1,0,0,0,2,0V26a1,1,0,0,0-2,0Z"/><path class="cls-1" d="M45,21a1,1,0,0,0-2,0v1a1,1,0,0,0,2,0Z"/><path class="cls-1" d="M44,25a1,1,0,0,0-1,1v1a1,1,0,0,0,2,0V26A1,1,0,0,0,44,25Z"/><path class="cls-1" d="M52,23a1,1,0,0,0,1-1V21a1,1,0,0,0-2,0v1A1,1,0,0,0,52,23Z"/><path class="cls-1" d="M51,27a1,1,0,0,0,2,0V26a1,1,0,0,0-2,0Z"/><path class="cls-1" d="M57,6a1,1,0,0,0,1-1V4h1a1,1,0,0,0,0-2H58V1a1,1,0,0,0-2,0V2H4V1A1,1,0,0,0,2,1V2H1A1,1,0,0,0,1,4H2V5A1,1,0,0,0,4,5V4H19V30H3a3,3,0,0,0,0,6H3c.27,7.28,3.39,15,8.06,17.29a4,4,0,1,0,6.37.71H42.56A4,4,0,0,0,42,56a4,4,0,1,0,6.92-2.71C53.59,51,56.71,43.28,57,36h0a3,3,0,0,0,0-6V14c0-3.69-1.57-8-6-8H48a1,1,0,0,0-1,1v5.1A5,5,0,0,0,43,17a1,1,0,0,0,1,1h8a1,1,0,0,0,1-1,5,5,0,0,0-4-4.9V8h2c3.81,0,4,5,4,6V30H41V4H56V5A1,1,0,0,0,57,6ZM50.83,16H45.17a3,3,0,0,1,5.66,0ZM39,40a1,1,0,0,1-2,0,1,1,0,0,0-2,0,1,1,0,0,1-2,0,1,1,0,0,0-2,0,1,1,0,0,1-2,0,1,1,0,0,0-2,0,1,1,0,0,1-2,0,1,1,0,0,0-2,0,1,1,0,0,1-2,0V7.82a2.94,2.94,0,0,0,3-.58,3,3,0,0,0,4,0,3,3,0,0,0,4,0,3,3,0,0,0,4,0,2.94,2.94,0,0,0,3,.58ZM39,4V5a1,1,0,0,1-2,0V4ZM35,4V5a1,1,0,0,1-2,0V4ZM31,4V5a1,1,0,0,1-2,0V4ZM27,4V5a1,1,0,0,1-2,0V4ZM23,5a1,1,0,0,1-2,0V4h2ZM2,33a1,1,0,0,1,1-1H19v2H3A1,1,0,0,1,2,33ZM16,56a2,2,0,1,1-2-2A2,2,0,0,1,16,56Zm32,0a2,2,0,1,1-2-2A2,2,0,0,1,48,56Zm-2-4H14c-4.45,0-8.65-7.64-9-16H19v4a3,3,0,0,0,5,2.23,3,3,0,0,0,4,0,3,3,0,0,0,4,0,3,3,0,0,0,4,0A3,3,0,0,0,40.24,42,3,3,0,0,0,41,40V36H55C54.65,44.36,50.45,52,46,52ZM57,32a1,1,0,0,1,0,2H41V32Z"/><path class="cls-1" d="M24,11a1,1,0,0,0-1,1V35a1,1,0,0,0,2,0V12A1,1,0,0,0,24,11Z"/><path class="cls-1" d="M28,11a1,1,0,0,0-1,1V35a1,1,0,0,0,2,0V12A1,1,0,0,0,28,11Z"/><path class="cls-1" d="M32,11a1,1,0,0,0-1,1V35a1,1,0,0,0,2,0V12A1,1,0,0,0,32,11Z"/><path class="cls-1" d="M36,11a1,1,0,0,0-1,1V35a1,1,0,0,0,2,0V12A1,1,0,0,0,36,11Z"/></g></g></svg>