<svg xmlns="http://www.w3.org/2000/svg" viewBox="0 0 472.5 472.5"><defs><style>.cls-1{fill:#e32027;}</style></defs><g id="Слой_2" data-name="Слой 2"><g id="Ñëîé_1" data-name="Ñëîé 1"><path class="cls-1" d="M11.25,472.5A11.25,11.25,0,0,1,0,461.25v-450a11.25,11.25,0,0,1,22.5,0v450A11.25,11.25,0,0,1,11.25,472.5Z"/><path class="cls-1" d="M461.25,22.5h-450a11.25,11.25,0,0,1,0-22.5h450a11.25,11.25,0,0,1,0,22.5Z"/><path class="cls-1" d="M161.25,472.5h-150a11.25,11.25,0,0,1,0-22.5h150a11.25,11.25,0,0,1,0,22.5Z"/><path class="cls-1" d="M461.25,172.5A11.25,11.25,0,0,1,450,161.25v-150a11.25,11.25,0,0,1,22.5,0v150A11.25,11.25,0,0,1,461.25,172.5Z"/><path class="cls-1" d="M161.25,472.5a11.25,11.25,0,0,1,0-22.5C320.47,450,450,320.47,450,161.25a11.25,11.25,0,0,1,22.5,0A311.07,311.07,0,0,1,161.25,472.5Z"/><path class="cls-1" d="M101.25,142.5a41.25,41.25,0,1,1,41.25-41.25A41.29,41.29,0,0,1,101.25,142.5Zm0-60A18.75,18.75,0,1,0,120,101.25,18.77,18.77,0,0,0,101.25,82.5Z"/></g></g></svg>