<svg xmlns="http://www.w3.org/2000/svg" viewBox="0 0 472.5 292.5"><defs><style>.cls-1{fill:#e32027;}</style></defs><g id="Слой_2" data-name="Слой 2"><g id="Ñëîé_1" data-name="Ñëîé 1"><path class="cls-1" d="M71.25,262.5c-27.31,0-47-10.85-58.56-32.25C4,214.19,0,192.27,0,161.25a11.25,11.25,0,0,1,22.5,0c0,27.14,3.18,45.67,10,58.31C40,233.51,52.33,240,71.25,240a11.25,11.25,0,0,1,0,22.5Z"/><path class="cls-1" d="M401.25,262.5a11.25,11.25,0,0,1,0-22.5c18.92,0,31.23-6.49,38.75-20.44,6.82-12.64,10-31.17,10-58.31a11.25,11.25,0,0,1,22.5,0c0,31-4,52.94-12.69,69C448.26,251.65,428.56,262.5,401.25,262.5Z"/><path class="cls-1" d="M401.25,262.5h-330a11.25,11.25,0,0,1,0-22.5h330a11.25,11.25,0,0,1,0,22.5Z"/><path class="cls-1" d="M461.25,112.5h-450a11.25,11.25,0,0,1,0-22.5h450a11.25,11.25,0,0,1,0,22.5Z"/><path class="cls-1" d="M11.25,172.5A11.25,11.25,0,0,1,0,161.25v-60a11.25,11.25,0,0,1,22.5,0v60A11.25,11.25,0,0,1,11.25,172.5Z"/><path class="cls-1" d="M461.25,172.5A11.25,11.25,0,0,1,450,161.25v-60a11.25,11.25,0,0,1,22.5,0v60A11.25,11.25,0,0,1,461.25,172.5Z"/><path class="cls-1" d="M71.25,292.5A11.25,11.25,0,0,1,60,281.25v-30a11.25,11.25,0,0,1,22.5,0v30A11.25,11.25,0,0,1,71.25,292.5Z"/><path class="cls-1" d="M401.25,292.5A11.25,11.25,0,0,1,390,281.25v-30a11.25,11.25,0,0,1,22.5,0v30A11.25,11.25,0,0,1,401.25,292.5Z"/><path class="cls-1" d="M41.25,112.5A11.25,11.25,0,0,1,30,101.25v-60a11.25,11.25,0,0,1,22.5,0v60A11.25,11.25,0,0,1,41.25,112.5Z"/><path class="cls-1" d="M41.25,52.5A11.25,11.25,0,0,1,30,41.25,41.29,41.29,0,0,1,71.25,0a11.25,11.25,0,0,1,0,22.5A18.77,18.77,0,0,0,52.5,41.25,11.25,11.25,0,0,1,41.25,52.5Z"/><path class="cls-1" d="M101.25,52.5A11.25,11.25,0,0,1,90,41.25,18.77,18.77,0,0,0,71.25,22.5a11.25,11.25,0,0,1,0-22.5A41.29,41.29,0,0,1,112.5,41.25,11.25,11.25,0,0,1,101.25,52.5Z"/></g></g></svg>