<svg xmlns="http://www.w3.org/2000/svg" viewBox="0 0 412.5 472.5"><defs><style>.cls-1{fill:#e32027;}</style></defs><g id="Слой_2" data-name="Слой 2"><g id="Ñëîé_1" data-name="Ñëîé 1"><path class="cls-1" d="M311.26,382.5a11.25,11.25,0,0,1-5-21.31C363.17,332.71,390,312.58,390,251.25a11.25,11.25,0,0,1,22.5,0c0,34.63-8,60.32-25.12,80.83-16.27,19.49-40.19,33.78-71.1,49.23A11.15,11.15,0,0,1,311.26,382.5Z"/><path class="cls-1" d="M341.25,472.5a11.25,11.25,0,0,1-10.67-7.69l-30-90a11.25,11.25,0,1,1,21.34-7.12l30,90a11.24,11.24,0,0,1-7.11,14.23A11.06,11.06,0,0,1,341.25,472.5Z"/><path class="cls-1" d="M101.25,472.5A11.25,11.25,0,0,1,90,461.25v-90a11.25,11.25,0,0,1,22.5,0v90A11.25,11.25,0,0,1,101.25,472.5Z"/><path class="cls-1" d="M101.26,382.5a11.25,11.25,0,0,1-10.07-6.22l-60-120a11.25,11.25,0,0,1,20.12-10.06l60,120a11.25,11.25,0,0,1-10,16.28Z"/><path class="cls-1" d="M131.25,262.5h-120a11.25,11.25,0,0,1,0-22.5h120a11.25,11.25,0,0,1,0,22.5Z"/><path class="cls-1" d="M11.25,262.5A11.25,11.25,0,0,1,0,251.25v-210a11.25,11.25,0,0,1,22.5,0v210A11.25,11.25,0,0,1,11.25,262.5Z"/><path class="cls-1" d="M11.25,52.5A11.25,11.25,0,0,1,0,41.25,41.29,41.29,0,0,1,41.25,0a11.25,11.25,0,0,1,0,22.5A18.77,18.77,0,0,0,22.5,41.25,11.25,11.25,0,0,1,11.25,52.5Z"/><path class="cls-1" d="M101.25,22.5h-60a11.25,11.25,0,0,1,0-22.5h60a11.25,11.25,0,0,1,0,22.5Z"/><path class="cls-1" d="M401.25,262.5h-270a11.25,11.25,0,0,1,0-22.5h270a11.25,11.25,0,0,1,0,22.5Z"/><path class="cls-1" d="M401.25,262.5A11.25,11.25,0,0,1,390,251.25v-15a11.25,11.25,0,0,1,22.5,0v15A11.25,11.25,0,0,1,401.25,262.5Z"/><path class="cls-1" d="M401.25,247.5A11.25,11.25,0,0,1,390,236.25a18.77,18.77,0,0,0-18.75-18.75,11.25,11.25,0,0,1,0-22.5,41.29,41.29,0,0,1,41.25,41.25A11.25,11.25,0,0,1,401.25,247.5Z"/><path class="cls-1" d="M176.25,262.5A11.25,11.25,0,0,1,165,251.25v-15a11.25,11.25,0,0,1,22.5,0v15A11.25,11.25,0,0,1,176.25,262.5Z"/><path class="cls-1" d="M176.25,247.5A11.25,11.25,0,0,1,165,236.25,41.29,41.29,0,0,1,206.25,195a11.25,11.25,0,0,1,0,22.5,18.77,18.77,0,0,0-18.75,18.75A11.25,11.25,0,0,1,176.25,247.5Z"/><path class="cls-1" d="M371.25,217.5h-165a11.25,11.25,0,0,1,0-22.5h165a11.25,11.25,0,0,1,0,22.5Z"/><path class="cls-1" d="M341.25,472.5h-240a11.25,11.25,0,0,1,0-22.5h240a11.25,11.25,0,0,1,0,22.5Z"/><path class="cls-1" d="M131.25,52.5A11.25,11.25,0,0,1,120,41.25,18.77,18.77,0,0,0,101.25,22.5a11.25,11.25,0,0,1,0-22.5A41.29,41.29,0,0,1,142.5,41.25,11.25,11.25,0,0,1,131.25,52.5Z"/><path class="cls-1" d="M131.25,262.5A11.25,11.25,0,0,1,120,251.25v-210a11.25,11.25,0,0,1,22.5,0v210A11.25,11.25,0,0,1,131.25,262.5Z"/></g></g></svg>