<svg xmlns="http://www.w3.org/2000/svg" viewBox="0 0 472.5 472.5"><defs><style>.cls-1{fill:#e32027;}</style></defs><g id="Слой_2" data-name="Слой 2"><g id="Ñëîé_1" data-name="Ñëîé 1"><path class="cls-1" d="M161.25,232.5c-38.32,0-77-11.23-106.15-30.82-36-24.24-55.1-59-55.1-100.43a11.25,11.25,0,0,1,22.5,0C22.5,180.48,107.61,210,161.25,210a11.25,11.25,0,0,1,0,22.5Z"/><path class="cls-1" d="M311.25,232.5a11.25,11.25,0,0,1,0-22.5C364.89,210,450,180.48,450,101.25a11.25,11.25,0,0,1,22.5,0c0,41.47-19.05,76.19-55.1,100.43C388.26,221.27,349.57,232.5,311.25,232.5Z"/><path class="cls-1" d="M311.25,232.5h-150a11.25,11.25,0,0,1,0-22.5h150a11.25,11.25,0,0,1,0,22.5Z"/><path class="cls-1" d="M461.25,112.5h-450a11.25,11.25,0,0,1,0-22.5h450a11.25,11.25,0,0,1,0,22.5Z"/><path class="cls-1" d="M221.25,112.5A11.25,11.25,0,0,1,210,101.25v-60a11.25,11.25,0,0,1,22.5,0v60A11.25,11.25,0,0,1,221.25,112.5Z"/><path class="cls-1" d="M221.25,52.5A11.25,11.25,0,0,1,210,41.25,41.29,41.29,0,0,1,251.25,0a11.25,11.25,0,0,1,0,22.5A18.77,18.77,0,0,0,232.5,41.25,11.25,11.25,0,0,1,221.25,52.5Z"/><path class="cls-1" d="M281.25,52.5A11.25,11.25,0,0,1,270,41.25,18.77,18.77,0,0,0,251.25,22.5a11.25,11.25,0,0,1,0-22.5A41.29,41.29,0,0,1,292.5,41.25,11.25,11.25,0,0,1,281.25,52.5Z"/><path class="cls-1" d="M168.76,472.5l-.71,0a11.25,11.25,0,0,1-10.53-11.93l15-240A11.25,11.25,0,1,1,195,222L180,462A11.26,11.26,0,0,1,168.76,472.5Z"/><path class="cls-1" d="M303.74,472.5A11.26,11.26,0,0,1,292.52,462l-15-240a11.25,11.25,0,1,1,22.46-1.4l15,240a11.25,11.25,0,0,1-10.53,11.93Z"/><path class="cls-1" d="M303.75,472.5h-135a11.25,11.25,0,0,1,0-22.5h135a11.25,11.25,0,0,1,0,22.5Z"/></g></g></svg>