<svg xmlns="http://www.w3.org/2000/svg" viewBox="0 0 472.5 352.5"><defs><style>.cls-1{fill:#e32027;}</style></defs><g id="Слой_2" data-name="Слой 2"><g id="Ñëîé_1" data-name="Ñëîé 1"><path class="cls-1" d="M11.25,52.5A11.25,11.25,0,0,1,0,41.25,41.29,41.29,0,0,1,41.25,0a11.25,11.25,0,0,1,0,22.5A18.77,18.77,0,0,0,22.5,41.25,11.25,11.25,0,0,1,11.25,52.5Z"/><path class="cls-1" d="M461.25,52.5A11.25,11.25,0,0,1,450,41.25,18.77,18.77,0,0,0,431.25,22.5a11.25,11.25,0,0,1,0-22.5A41.29,41.29,0,0,1,472.5,41.25,11.25,11.25,0,0,1,461.25,52.5Z"/><path class="cls-1" d="M41.25,352.5A41.29,41.29,0,0,1,0,311.25a11.25,11.25,0,0,1,22.5,0A18.77,18.77,0,0,0,41.25,330a11.25,11.25,0,0,1,0,22.5Z"/><path class="cls-1" d="M431.25,352.5a11.25,11.25,0,0,1,0-22.5A18.77,18.77,0,0,0,450,311.25a11.25,11.25,0,0,1,22.5,0A41.29,41.29,0,0,1,431.25,352.5Z"/><path class="cls-1" d="M11.25,322.5A11.25,11.25,0,0,1,0,311.25v-270a11.25,11.25,0,0,1,22.5,0v270A11.25,11.25,0,0,1,11.25,322.5Z"/><path class="cls-1" d="M461.25,322.5A11.25,11.25,0,0,1,450,311.25v-270a11.25,11.25,0,0,1,22.5,0v270A11.25,11.25,0,0,1,461.25,322.5Z"/><path class="cls-1" d="M431.25,352.5h-390a11.25,11.25,0,0,1,0-22.5h390a11.25,11.25,0,0,1,0,22.5Z"/><path class="cls-1" d="M431.25,22.5h-390a11.25,11.25,0,0,1,0-22.5h390a11.25,11.25,0,0,1,0,22.5Z"/><path class="cls-1" d="M236.4,292.5h-.3a11.25,11.25,0,0,1,0-22.5h.3a11.25,11.25,0,0,1,0,22.5Z"/><path class="cls-1" d="M341.25,142.5a11.25,11.25,0,0,1-8-19.21l60-60a11.26,11.26,0,0,1,15.92,15.92l-60,60A11.25,11.25,0,0,1,341.25,142.5Z"/><path class="cls-1" d="M311.25,112.5a11.25,11.25,0,0,1-8-19.21l30-30a11.26,11.26,0,0,1,15.92,15.92l-30,30A11.25,11.25,0,0,1,311.25,112.5Z"/></g></g></svg>