<?xml version="1.0" encoding="utf-8"?>
<!-- Generator: Adobe Illustrator 22.0.1, SVG Export Plug-In . SVG Version: 6.00 Build 0)  -->
<svg version="1.1" id="Слой_1" xmlns="http://www.w3.org/2000/svg" xmlns:xlink="http://www.w3.org/1999/xlink" x="0px" y="0px"
	 viewBox="0 0 512 512" style="enable-background:new 0 0 512 512;" xml:space="preserve">
<style type="text/css">
	.st0{fill:url(#SVGID_1_);}
	.st1{fill:#FFFFFF;}
</style>
<linearGradient id="SVGID_1_" gradientUnits="userSpaceOnUse" x1="74.9696" y1="437.0083" x2="437.0304" y2="74.9917">
	<stop  offset="0" style="stop-color:#FFDD55"/>
	<stop  offset="0.5" style="stop-color:#FF543E"/>
	<stop  offset="1" style="stop-color:#C837AB"/>
</linearGradient>
<circle class="st0" cx="256" cy="256" r="256"/>
<path class="st1" d="M256,105c-61.9,0-120.6-5.5-143.1,52.1c-9.3,23.8-7.9,54.7-7.9,98.9c0,38.8-1.2,75.3,7.9,98.9
	c22.4,57.6,81.6,52.1,143,52.1c59.2,0,120.3,6.2,143-52.1c9.3-24,7.9-54.5,7.9-98.9c0-59,3.3-97.1-25.4-125.7
	C352.6,101.4,313.4,105,256,105L256,105z M242.4,132.2C371.5,132,387.9,117.7,378.8,317c-3.2,70.5-56.9,62.8-122.9,62.8
	c-120.3,0-123.8-3.4-123.8-123.8C132.2,134.2,141.8,132.3,242.4,132.2L242.4,132.2z M336.6,157.3c-10,0-18.1,8.1-18.1,18.1
	c0,10,8.1,18.1,18.1,18.1s18.1-8.1,18.1-18.1C354.7,165.4,346.6,157.3,336.6,157.3z M256,178.5c-42.8,0-77.5,34.7-77.5,77.5
	s34.7,77.5,77.5,77.5s77.5-34.7,77.5-77.5S298.8,178.5,256,178.5L256,178.5z M256,205.7c66.5,0,66.6,100.7,0,100.7
	C189.4,306.4,189.3,205.7,256,205.7z"/>
</svg>
