<?xml version="1.0" encoding="utf-8"?>
<!-- Generator: Adobe Illustrator 22.0.1, SVG Export Plug-In . SVG Version: 6.00 Build 0)  -->
<svg version="1.1" id="Слой_1" xmlns="http://www.w3.org/2000/svg" xmlns:xlink="http://www.w3.org/1999/xlink" x="0px" y="0px"
	 viewBox="0 0 512 512" style="enable-background:new 0 0 512 512;" xml:space="preserve">
<style type="text/css">
	.st0{fill:#4B729F;}
	.st1{display:none;}
	.st2{display:inline;fill:#FFFFFF;}
	.st3{fill:#FFFFFF;}
</style>
<circle class="st0" cx="255.5" cy="256.5" r="256"/>
<g id="vk_x5F_alt_1_" class="st1">
	<path class="st2" d="M349.2,373.1c-5.4,0-14.9-1.3-25.7-8.7c-7.6-5.2-14.3-12.9-20.9-20.4c-3.9-4.5-10.2-11.7-13.7-14
		c-2,3-3.7,11.6-3.6,18.6c0,2.3-0.3,10.5-5.7,16.3c-5.4,5.8-13.5,7.1-15.8,7.4l-1.2,0.1h-19.3c-5.1,0.2-49.8,0.8-89.3-40.3
		c-42.3-44.1-78.6-128.4-80.2-132l-0.2-0.5c-1-2.7-3.9-12.3,2.1-19.4C81,174,90,173.1,93.6,173l0.2,0l47.7-0.3l0.9,0.2
		c1.2,0.2,7.3,1.4,12.3,5.1c4.7,3.5,7.1,8.7,7.8,10.2c0.1,0.3,7.4,18.7,16.9,35c10.5,18.1,16.7,26.3,20.2,30
		c1.4-7.4,2-21.2,1.1-33.9l0-0.4l0-0.4c0-6.1-1.2-13.5-2.7-15.5c-0.9-1.2-3.9-2.4-7-2.9c-5.3-0.7-9.4-4.7-10.3-9.9
		c-1.5-9.1,7.6-17.1,14.1-20.2c10.7-5.2,26.4-5.5,45.8-5.3c14.3,0.1,19.2,1.1,25.4,2.6c21.2,5.1,20.5,23.4,19.7,44.5
		c-0.2,6.2-0.5,13.1-0.5,21.2c0,2-0.1,4.1-0.1,6.2c-0.1,3.3-0.2,8.9,0.2,13c3.7-4,10-12.1,19.7-28.6c9.7-16.5,17.3-36.4,17.3-36.6
		l0.3-0.7c0.7-1.6,3.5-7.1,8.7-10.2c4.8-2.9,10.1-2.9,12.6-2.7l48-0.3c11.2-1.2,24.4,1.4,28.3,12.3c3.1,8.5,1.9,21.8-27.2,60.5
		c-4.2,5.6-8,10.5-11.2,14.7c-6.7,8.7-13.7,17.7-14,20.5c0.8,2.3,7.5,8.5,13.9,14.5l0.8,0.7c16.9,15.7,28.5,29.1,34.4,39.9l0.1,0.2
		c6.4,10.6,4.7,18.5,2.3,23.3c-5.9,11.2-20.3,12.6-23.1,12.8l-0.5,0l-43,0.6C351.5,373,350.5,373.1,349.2,373.1z M349.3,350.9
		L349.3,350.9L349.3,350.9z M262.9,350.6L262.9,350.6L262.9,350.6z M91.3,195.7L91.3,195.7L91.3,195.7z M141.3,195.5L141.3,195.5
		L141.3,195.5z M341.7,195.4C341.7,195.4,341.7,195.4,341.7,195.4L341.7,195.4z M398.9,191.8L398.9,191.8L398.9,191.8z"/>
</g>
<path class="st3" d="M352.1,287c-5.1-6.4-3.6-9.3,0-15c0.1-0.1,42-58,46.3-77.6l0,0c2.1-7.2,0-12.4-10.4-12.4h-34.3
	c-8.7,0-12.8,4.5-14.9,9.6c0,0-17.5,41.8-42.2,69c-8,7.8-11.7,10.3-16,10.3c-2.1,0-5.5-2.5-5.5-9.7v-66.8c0-8.6-2.4-12.4-9.7-12.4
	h-54c-5.5,0-8.7,4-8.7,7.7c0,8.1,12.4,10,13.6,32.9v49.7c0,10.9-2,12.9-6.4,12.9c-11.7,0-40-42-56.8-90.1
	c-3.4-9.3-6.7-13.1-15.5-13.1h-34.3c-9.8,0-11.8,4.5-11.8,9.6c0,8.9,11.7,53.3,54.3,111.9c28.4,40,68.4,61.7,104.8,61.7
	c21.9,0,24.5-4.8,24.5-13.1c0-38.2-2-41.8,9-41.8c5.1,0,13.8,2.5,34.2,21.8c23.3,22.9,27.2,33.1,40.2,33.1h34.3
	c9.8,0,14.7-4.8,11.9-14.3C398.2,330.8,354.1,289.7,352.1,287z"/>
</svg>
